M48
; DRILL file KiCad 10.0.4-10.0.4~ubuntu24.04.1 date 2026-09-16T17:33:26
; FORMAT={-:-/ absolute / metric / decimal}
; #@! TF.CreationDate,2026-09-16T17:33:26-07:00
; #@! TF.GenerationSoftware,Kicad,Pcbnew,10.0.4-10.0.4~ubuntu24.04.1
; #@! TF.FileFunction,NonPlated,1,4,NPTH
FMAT,2
METRIC
; #@! TA.AperFunction,NonPlated,NPTH,ComponentDrill
T1C3.000
; #@! TA.AperFunction,NonPlated,NPTH,ComponentDrill
T2C3.180
; #@! TA.AperFunction,NonPlated,NPTH,ComponentDrill
T3C3.200
%
G90
G05
T1
X23.68Y-67.5
T2
X32.58Y-113.44
X34.72Y-26.56
X46.28Y-113.44
X48.42Y-26.56
X64.58Y-113.44
X66.72Y-26.56
X78.28Y-113.44
X80.42Y-26.56
X96.58Y-113.44
X98.72Y-26.56
X110.28Y-113.44
X112.42Y-26.56
X128.58Y-113.44
X130.72Y-26.56
X142.28Y-113.44
X144.42Y-26.56
T3
X21.0Y-25.0
X21.0Y-115.0
X165.0Y-25.0
X165.0Y-115.0
M30
