#VRML V2.0 utf8
# Source-owned dimension-derived geometry; NOT manufacturer CAD.
# Reproduce with03_src/build_package_models.py; see provenance.md.
# Units: one coordinate unit is2.54mm; nativeY=-footprintY.
# solid body
Shape {
 appearance Appearance { material Material { diffuseColor 0.075 0.075 0.08 } }
 geometry IndexedFaceSet { solid TRUE
  coord Coordinate { point [
   -1.181102362 1.181102362 0.013779528,
   1.181102362 1.181102362 0.013779528,
   1.181102362 -1.181102362 0.013779528,
   -1.181102362 -1.181102362 0.013779528,
   -1.181102362 1.181102362 0.295275591,
   1.181102362 1.181102362 0.295275591,
   1.181102362 -1.181102362 0.295275591,
   -1.181102362 -1.181102362 0.295275591,
  ] }
  coordIndex [
   0, 1, 2, 3, -1,
   7, 6, 5, 4, -1,
   0, 4, 5, 1, -1,
   1, 5, 6, 2, -1,
   2, 6, 7, 3, -1,
   3, 7, 4, 0, -1,
  ]
 }
}
# solid terminal_1
Shape {
 appearance Appearance { material Material { diffuseColor 0.7 0.7 0.72 } }
 geometry IndexedFaceSet { solid TRUE
  coord Coordinate { point [
   -1.181102362 0.905511811 0.000000000,
   -1.023622047 0.905511811 0.000000000,
   -1.023622047 0.826771654 0.000000000,
   -1.181102362 0.826771654 0.000000000,
   -1.181102362 0.905511811 0.079921260,
   -1.023622047 0.905511811 0.079921260,
   -1.023622047 0.826771654 0.079921260,
   -1.181102362 0.826771654 0.079921260,
  ] }
  coordIndex [
   0, 1, 2, 3, -1,
   7, 6, 5, 4, -1,
   0, 4, 5, 1, -1,
   1, 5, 6, 2, -1,
   2, 6, 7, 3, -1,
   3, 7, 4, 0, -1,
  ]
 }
}
# solid terminal_13
Shape {
 appearance Appearance { material Material { diffuseColor 0.7 0.7 0.72 } }
 geometry IndexedFaceSet { solid TRUE
  coord Coordinate { point [
   -0.905511811 -1.023622047 0.000000000,
   -0.826771654 -1.023622047 0.000000000,
   -0.826771654 -1.181102362 0.000000000,
   -0.905511811 -1.181102362 0.000000000,
   -0.905511811 -1.023622047 0.079921260,
   -0.826771654 -1.023622047 0.079921260,
   -0.826771654 -1.181102362 0.079921260,
   -0.905511811 -1.181102362 0.079921260,
  ] }
  coordIndex [
   0, 1, 2, 3, -1,
   7, 6, 5, 4, -1,
   0, 4, 5, 1, -1,
   1, 5, 6, 2, -1,
   2, 6, 7, 3, -1,
   3, 7, 4, 0, -1,
  ]
 }
}
# solid terminal_25
Shape {
 appearance Appearance { material Material { diffuseColor 0.7 0.7 0.72 } }
 geometry IndexedFaceSet { solid TRUE
  coord Coordinate { point [
   1.023622047 -0.826771654 0.000000000,
   1.181102362 -0.826771654 0.000000000,
   1.181102362 -0.905511811 0.000000000,
   1.023622047 -0.905511811 0.000000000,
   1.023622047 -0.826771654 0.079921260,
   1.181102362 -0.826771654 0.079921260,
   1.181102362 -0.905511811 0.079921260,
   1.023622047 -0.905511811 0.079921260,
  ] }
  coordIndex [
   0, 1, 2, 3, -1,
   7, 6, 5, 4, -1,
   0, 4, 5, 1, -1,
   1, 5, 6, 2, -1,
   2, 6, 7, 3, -1,
   3, 7, 4, 0, -1,
  ]
 }
}
# solid terminal_37
Shape {
 appearance Appearance { material Material { diffuseColor 0.7 0.7 0.72 } }
 geometry IndexedFaceSet { solid TRUE
  coord Coordinate { point [
   0.826771654 1.181102362 0.000000000,
   0.905511811 1.181102362 0.000000000,
   0.905511811 1.023622047 0.000000000,
   0.826771654 1.023622047 0.000000000,
   0.826771654 1.181102362 0.079921260,
   0.905511811 1.181102362 0.079921260,
   0.905511811 1.023622047 0.079921260,
   0.826771654 1.023622047 0.079921260,
  ] }
  coordIndex [
   0, 1, 2, 3, -1,
   7, 6, 5, 4, -1,
   0, 4, 5, 1, -1,
   1, 5, 6, 2, -1,
   2, 6, 7, 3, -1,
   3, 7, 4, 0, -1,
  ]
 }
}
# solid terminal_2
Shape {
 appearance Appearance { material Material { diffuseColor 0.7 0.7 0.72 } }
 geometry IndexedFaceSet { solid TRUE
  coord Coordinate { point [
   -1.181102362 0.748031496 0.000000000,
   -1.023622047 0.748031496 0.000000000,
   -1.023622047 0.669291339 0.000000000,
   -1.181102362 0.669291339 0.000000000,
   -1.181102362 0.748031496 0.079921260,
   -1.023622047 0.748031496 0.079921260,
   -1.023622047 0.669291339 0.079921260,
   -1.181102362 0.669291339 0.079921260,
  ] }
  coordIndex [
   0, 1, 2, 3, -1,
   7, 6, 5, 4, -1,
   0, 4, 5, 1, -1,
   1, 5, 6, 2, -1,
   2, 6, 7, 3, -1,
   3, 7, 4, 0, -1,
  ]
 }
}
# solid terminal_14
Shape {
 appearance Appearance { material Material { diffuseColor 0.7 0.7 0.72 } }
 geometry IndexedFaceSet { solid TRUE
  coord Coordinate { point [
   -0.748031496 -1.023622047 0.000000000,
   -0.669291339 -1.023622047 0.000000000,
   -0.669291339 -1.181102362 0.000000000,
   -0.748031496 -1.181102362 0.000000000,
   -0.748031496 -1.023622047 0.079921260,
   -0.669291339 -1.023622047 0.079921260,
   -0.669291339 -1.181102362 0.079921260,
   -0.748031496 -1.181102362 0.079921260,
  ] }
  coordIndex [
   0, 1, 2, 3, -1,
   7, 6, 5, 4, -1,
   0, 4, 5, 1, -1,
   1, 5, 6, 2, -1,
   2, 6, 7, 3, -1,
   3, 7, 4, 0, -1,
  ]
 }
}
# solid terminal_26
Shape {
 appearance Appearance { material Material { diffuseColor 0.7 0.7 0.72 } }
 geometry IndexedFaceSet { solid TRUE
  coord Coordinate { point [
   1.023622047 -0.669291339 0.000000000,
   1.181102362 -0.669291339 0.000000000,
   1.181102362 -0.748031496 0.000000000,
   1.023622047 -0.748031496 0.000000000,
   1.023622047 -0.669291339 0.079921260,
   1.181102362 -0.669291339 0.079921260,
   1.181102362 -0.748031496 0.079921260,
   1.023622047 -0.748031496 0.079921260,
  ] }
  coordIndex [
   0, 1, 2, 3, -1,
   7, 6, 5, 4, -1,
   0, 4, 5, 1, -1,
   1, 5, 6, 2, -1,
   2, 6, 7, 3, -1,
   3, 7, 4, 0, -1,
  ]
 }
}
# solid terminal_38
Shape {
 appearance Appearance { material Material { diffuseColor 0.7 0.7 0.72 } }
 geometry IndexedFaceSet { solid TRUE
  coord Coordinate { point [
   0.669291339 1.181102362 0.000000000,
   0.748031496 1.181102362 0.000000000,
   0.748031496 1.023622047 0.000000000,
   0.669291339 1.023622047 0.000000000,
   0.669291339 1.181102362 0.079921260,
   0.748031496 1.181102362 0.079921260,
   0.748031496 1.023622047 0.079921260,
   0.669291339 1.023622047 0.079921260,
  ] }
  coordIndex [
   0, 1, 2, 3, -1,
   7, 6, 5, 4, -1,
   0, 4, 5, 1, -1,
   1, 5, 6, 2, -1,
   2, 6, 7, 3, -1,
   3, 7, 4, 0, -1,
  ]
 }
}
# solid terminal_3
Shape {
 appearance Appearance { material Material { diffuseColor 0.7 0.7 0.72 } }
 geometry IndexedFaceSet { solid TRUE
  coord Coordinate { point [
   -1.181102362 0.590551181 0.000000000,
   -1.023622047 0.590551181 0.000000000,
   -1.023622047 0.511811024 0.000000000,
   -1.181102362 0.511811024 0.000000000,
   -1.181102362 0.590551181 0.079921260,
   -1.023622047 0.590551181 0.079921260,
   -1.023622047 0.511811024 0.079921260,
   -1.181102362 0.511811024 0.079921260,
  ] }
  coordIndex [
   0, 1, 2, 3, -1,
   7, 6, 5, 4, -1,
   0, 4, 5, 1, -1,
   1, 5, 6, 2, -1,
   2, 6, 7, 3, -1,
   3, 7, 4, 0, -1,
  ]
 }
}
# solid terminal_15
Shape {
 appearance Appearance { material Material { diffuseColor 0.7 0.7 0.72 } }
 geometry IndexedFaceSet { solid TRUE
  coord Coordinate { point [
   -0.590551181 -1.023622047 0.000000000,
   -0.511811024 -1.023622047 0.000000000,
   -0.511811024 -1.181102362 0.000000000,
   -0.590551181 -1.181102362 0.000000000,
   -0.590551181 -1.023622047 0.079921260,
   -0.511811024 -1.023622047 0.079921260,
   -0.511811024 -1.181102362 0.079921260,
   -0.590551181 -1.181102362 0.079921260,
  ] }
  coordIndex [
   0, 1, 2, 3, -1,
   7, 6, 5, 4, -1,
   0, 4, 5, 1, -1,
   1, 5, 6, 2, -1,
   2, 6, 7, 3, -1,
   3, 7, 4, 0, -1,
  ]
 }
}
# solid terminal_27
Shape {
 appearance Appearance { material Material { diffuseColor 0.7 0.7 0.72 } }
 geometry IndexedFaceSet { solid TRUE
  coord Coordinate { point [
   1.023622047 -0.511811024 0.000000000,
   1.181102362 -0.511811024 0.000000000,
   1.181102362 -0.590551181 0.000000000,
   1.023622047 -0.590551181 0.000000000,
   1.023622047 -0.511811024 0.079921260,
   1.181102362 -0.511811024 0.079921260,
   1.181102362 -0.590551181 0.079921260,
   1.023622047 -0.590551181 0.079921260,
  ] }
  coordIndex [
   0, 1, 2, 3, -1,
   7, 6, 5, 4, -1,
   0, 4, 5, 1, -1,
   1, 5, 6, 2, -1,
   2, 6, 7, 3, -1,
   3, 7, 4, 0, -1,
  ]
 }
}
# solid terminal_39
Shape {
 appearance Appearance { material Material { diffuseColor 0.7 0.7 0.72 } }
 geometry IndexedFaceSet { solid TRUE
  coord Coordinate { point [
   0.511811024 1.181102362 0.000000000,
   0.590551181 1.181102362 0.000000000,
   0.590551181 1.023622047 0.000000000,
   0.511811024 1.023622047 0.000000000,
   0.511811024 1.181102362 0.079921260,
   0.590551181 1.181102362 0.079921260,
   0.590551181 1.023622047 0.079921260,
   0.511811024 1.023622047 0.079921260,
  ] }
  coordIndex [
   0, 1, 2, 3, -1,
   7, 6, 5, 4, -1,
   0, 4, 5, 1, -1,
   1, 5, 6, 2, -1,
   2, 6, 7, 3, -1,
   3, 7, 4, 0, -1,
  ]
 }
}
# solid terminal_4
Shape {
 appearance Appearance { material Material { diffuseColor 0.7 0.7 0.72 } }
 geometry IndexedFaceSet { solid TRUE
  coord Coordinate { point [
   -1.181102362 0.433070866 0.000000000,
   -1.023622047 0.433070866 0.000000000,
   -1.023622047 0.354330709 0.000000000,
   -1.181102362 0.354330709 0.000000000,
   -1.181102362 0.433070866 0.079921260,
   -1.023622047 0.433070866 0.079921260,
   -1.023622047 0.354330709 0.079921260,
   -1.181102362 0.354330709 0.079921260,
  ] }
  coordIndex [
   0, 1, 2, 3, -1,
   7, 6, 5, 4, -1,
   0, 4, 5, 1, -1,
   1, 5, 6, 2, -1,
   2, 6, 7, 3, -1,
   3, 7, 4, 0, -1,
  ]
 }
}
# solid terminal_16
Shape {
 appearance Appearance { material Material { diffuseColor 0.7 0.7 0.72 } }
 geometry IndexedFaceSet { solid TRUE
  coord Coordinate { point [
   -0.433070866 -1.023622047 0.000000000,
   -0.354330709 -1.023622047 0.000000000,
   -0.354330709 -1.181102362 0.000000000,
   -0.433070866 -1.181102362 0.000000000,
   -0.433070866 -1.023622047 0.079921260,
   -0.354330709 -1.023622047 0.079921260,
   -0.354330709 -1.181102362 0.079921260,
   -0.433070866 -1.181102362 0.079921260,
  ] }
  coordIndex [
   0, 1, 2, 3, -1,
   7, 6, 5, 4, -1,
   0, 4, 5, 1, -1,
   1, 5, 6, 2, -1,
   2, 6, 7, 3, -1,
   3, 7, 4, 0, -1,
  ]
 }
}
# solid terminal_28
Shape {
 appearance Appearance { material Material { diffuseColor 0.7 0.7 0.72 } }
 geometry IndexedFaceSet { solid TRUE
  coord Coordinate { point [
   1.023622047 -0.354330709 0.000000000,
   1.181102362 -0.354330709 0.000000000,
   1.181102362 -0.433070866 0.000000000,
   1.023622047 -0.433070866 0.000000000,
   1.023622047 -0.354330709 0.079921260,
   1.181102362 -0.354330709 0.079921260,
   1.181102362 -0.433070866 0.079921260,
   1.023622047 -0.433070866 0.079921260,
  ] }
  coordIndex [
   0, 1, 2, 3, -1,
   7, 6, 5, 4, -1,
   0, 4, 5, 1, -1,
   1, 5, 6, 2, -1,
   2, 6, 7, 3, -1,
   3, 7, 4, 0, -1,
  ]
 }
}
# solid terminal_40
Shape {
 appearance Appearance { material Material { diffuseColor 0.7 0.7 0.72 } }
 geometry IndexedFaceSet { solid TRUE
  coord Coordinate { point [
   0.354330709 1.181102362 0.000000000,
   0.433070866 1.181102362 0.000000000,
   0.433070866 1.023622047 0.000000000,
   0.354330709 1.023622047 0.000000000,
   0.354330709 1.181102362 0.079921260,
   0.433070866 1.181102362 0.079921260,
   0.433070866 1.023622047 0.079921260,
   0.354330709 1.023622047 0.079921260,
  ] }
  coordIndex [
   0, 1, 2, 3, -1,
   7, 6, 5, 4, -1,
   0, 4, 5, 1, -1,
   1, 5, 6, 2, -1,
   2, 6, 7, 3, -1,
   3, 7, 4, 0, -1,
  ]
 }
}
# solid terminal_5
Shape {
 appearance Appearance { material Material { diffuseColor 0.7 0.7 0.72 } }
 geometry IndexedFaceSet { solid TRUE
  coord Coordinate { point [
   -1.181102362 0.275590551 0.000000000,
   -1.023622047 0.275590551 0.000000000,
   -1.023622047 0.196850394 0.000000000,
   -1.181102362 0.196850394 0.000000000,
   -1.181102362 0.275590551 0.079921260,
   -1.023622047 0.275590551 0.079921260,
   -1.023622047 0.196850394 0.079921260,
   -1.181102362 0.196850394 0.079921260,
  ] }
  coordIndex [
   0, 1, 2, 3, -1,
   7, 6, 5, 4, -1,
   0, 4, 5, 1, -1,
   1, 5, 6, 2, -1,
   2, 6, 7, 3, -1,
   3, 7, 4, 0, -1,
  ]
 }
}
# solid terminal_17
Shape {
 appearance Appearance { material Material { diffuseColor 0.7 0.7 0.72 } }
 geometry IndexedFaceSet { solid TRUE
  coord Coordinate { point [
   -0.275590551 -1.023622047 0.000000000,
   -0.196850394 -1.023622047 0.000000000,
   -0.196850394 -1.181102362 0.000000000,
   -0.275590551 -1.181102362 0.000000000,
   -0.275590551 -1.023622047 0.079921260,
   -0.196850394 -1.023622047 0.079921260,
   -0.196850394 -1.181102362 0.079921260,
   -0.275590551 -1.181102362 0.079921260,
  ] }
  coordIndex [
   0, 1, 2, 3, -1,
   7, 6, 5, 4, -1,
   0, 4, 5, 1, -1,
   1, 5, 6, 2, -1,
   2, 6, 7, 3, -1,
   3, 7, 4, 0, -1,
  ]
 }
}
# solid terminal_29
Shape {
 appearance Appearance { material Material { diffuseColor 0.7 0.7 0.72 } }
 geometry IndexedFaceSet { solid TRUE
  coord Coordinate { point [
   1.023622047 -0.196850394 0.000000000,
   1.181102362 -0.196850394 0.000000000,
   1.181102362 -0.275590551 0.000000000,
   1.023622047 -0.275590551 0.000000000,
   1.023622047 -0.196850394 0.079921260,
   1.181102362 -0.196850394 0.079921260,
   1.181102362 -0.275590551 0.079921260,
   1.023622047 -0.275590551 0.079921260,
  ] }
  coordIndex [
   0, 1, 2, 3, -1,
   7, 6, 5, 4, -1,
   0, 4, 5, 1, -1,
   1, 5, 6, 2, -1,
   2, 6, 7, 3, -1,
   3, 7, 4, 0, -1,
  ]
 }
}
# solid terminal_41
Shape {
 appearance Appearance { material Material { diffuseColor 0.7 0.7 0.72 } }
 geometry IndexedFaceSet { solid TRUE
  coord Coordinate { point [
   0.196850394 1.181102362 0.000000000,
   0.275590551 1.181102362 0.000000000,
   0.275590551 1.023622047 0.000000000,
   0.196850394 1.023622047 0.000000000,
   0.196850394 1.181102362 0.079921260,
   0.275590551 1.181102362 0.079921260,
   0.275590551 1.023622047 0.079921260,
   0.196850394 1.023622047 0.079921260,
  ] }
  coordIndex [
   0, 1, 2, 3, -1,
   7, 6, 5, 4, -1,
   0, 4, 5, 1, -1,
   1, 5, 6, 2, -1,
   2, 6, 7, 3, -1,
   3, 7, 4, 0, -1,
  ]
 }
}
# solid terminal_6
Shape {
 appearance Appearance { material Material { diffuseColor 0.7 0.7 0.72 } }
 geometry IndexedFaceSet { solid TRUE
  coord Coordinate { point [
   -1.181102362 0.118110236 0.000000000,
   -1.023622047 0.118110236 0.000000000,
   -1.023622047 0.039370079 0.000000000,
   -1.181102362 0.039370079 0.000000000,
   -1.181102362 0.118110236 0.079921260,
   -1.023622047 0.118110236 0.079921260,
   -1.023622047 0.039370079 0.079921260,
   -1.181102362 0.039370079 0.079921260,
  ] }
  coordIndex [
   0, 1, 2, 3, -1,
   7, 6, 5, 4, -1,
   0, 4, 5, 1, -1,
   1, 5, 6, 2, -1,
   2, 6, 7, 3, -1,
   3, 7, 4, 0, -1,
  ]
 }
}
# solid terminal_18
Shape {
 appearance Appearance { material Material { diffuseColor 0.7 0.7 0.72 } }
 geometry IndexedFaceSet { solid TRUE
  coord Coordinate { point [
   -0.118110236 -1.023622047 0.000000000,
   -0.039370079 -1.023622047 0.000000000,
   -0.039370079 -1.181102362 0.000000000,
   -0.118110236 -1.181102362 0.000000000,
   -0.118110236 -1.023622047 0.079921260,
   -0.039370079 -1.023622047 0.079921260,
   -0.039370079 -1.181102362 0.079921260,
   -0.118110236 -1.181102362 0.079921260,
  ] }
  coordIndex [
   0, 1, 2, 3, -1,
   7, 6, 5, 4, -1,
   0, 4, 5, 1, -1,
   1, 5, 6, 2, -1,
   2, 6, 7, 3, -1,
   3, 7, 4, 0, -1,
  ]
 }
}
# solid terminal_30
Shape {
 appearance Appearance { material Material { diffuseColor 0.7 0.7 0.72 } }
 geometry IndexedFaceSet { solid TRUE
  coord Coordinate { point [
   1.023622047 -0.039370079 0.000000000,
   1.181102362 -0.039370079 0.000000000,
   1.181102362 -0.118110236 0.000000000,
   1.023622047 -0.118110236 0.000000000,
   1.023622047 -0.039370079 0.079921260,
   1.181102362 -0.039370079 0.079921260,
   1.181102362 -0.118110236 0.079921260,
   1.023622047 -0.118110236 0.079921260,
  ] }
  coordIndex [
   0, 1, 2, 3, -1,
   7, 6, 5, 4, -1,
   0, 4, 5, 1, -1,
   1, 5, 6, 2, -1,
   2, 6, 7, 3, -1,
   3, 7, 4, 0, -1,
  ]
 }
}
# solid terminal_42
Shape {
 appearance Appearance { material Material { diffuseColor 0.7 0.7 0.72 } }
 geometry IndexedFaceSet { solid TRUE
  coord Coordinate { point [
   0.039370079 1.181102362 0.000000000,
   0.118110236 1.181102362 0.000000000,
   0.118110236 1.023622047 0.000000000,
   0.039370079 1.023622047 0.000000000,
   0.039370079 1.181102362 0.079921260,
   0.118110236 1.181102362 0.079921260,
   0.118110236 1.023622047 0.079921260,
   0.039370079 1.023622047 0.079921260,
  ] }
  coordIndex [
   0, 1, 2, 3, -1,
   7, 6, 5, 4, -1,
   0, 4, 5, 1, -1,
   1, 5, 6, 2, -1,
   2, 6, 7, 3, -1,
   3, 7, 4, 0, -1,
  ]
 }
}
# solid terminal_7
Shape {
 appearance Appearance { material Material { diffuseColor 0.7 0.7 0.72 } }
 geometry IndexedFaceSet { solid TRUE
  coord Coordinate { point [
   -1.181102362 -0.039370079 0.000000000,
   -1.023622047 -0.039370079 0.000000000,
   -1.023622047 -0.118110236 0.000000000,
   -1.181102362 -0.118110236 0.000000000,
   -1.181102362 -0.039370079 0.079921260,
   -1.023622047 -0.039370079 0.079921260,
   -1.023622047 -0.118110236 0.079921260,
   -1.181102362 -0.118110236 0.079921260,
  ] }
  coordIndex [
   0, 1, 2, 3, -1,
   7, 6, 5, 4, -1,
   0, 4, 5, 1, -1,
   1, 5, 6, 2, -1,
   2, 6, 7, 3, -1,
   3, 7, 4, 0, -1,
  ]
 }
}
# solid terminal_19
Shape {
 appearance Appearance { material Material { diffuseColor 0.7 0.7 0.72 } }
 geometry IndexedFaceSet { solid TRUE
  coord Coordinate { point [
   0.039370079 -1.023622047 0.000000000,
   0.118110236 -1.023622047 0.000000000,
   0.118110236 -1.181102362 0.000000000,
   0.039370079 -1.181102362 0.000000000,
   0.039370079 -1.023622047 0.079921260,
   0.118110236 -1.023622047 0.079921260,
   0.118110236 -1.181102362 0.079921260,
   0.039370079 -1.181102362 0.079921260,
  ] }
  coordIndex [
   0, 1, 2, 3, -1,
   7, 6, 5, 4, -1,
   0, 4, 5, 1, -1,
   1, 5, 6, 2, -1,
   2, 6, 7, 3, -1,
   3, 7, 4, 0, -1,
  ]
 }
}
# solid terminal_31
Shape {
 appearance Appearance { material Material { diffuseColor 0.7 0.7 0.72 } }
 geometry IndexedFaceSet { solid TRUE
  coord Coordinate { point [
   1.023622047 0.118110236 0.000000000,
   1.181102362 0.118110236 0.000000000,
   1.181102362 0.039370079 0.000000000,
   1.023622047 0.039370079 0.000000000,
   1.023622047 0.118110236 0.079921260,
   1.181102362 0.118110236 0.079921260,
   1.181102362 0.039370079 0.079921260,
   1.023622047 0.039370079 0.079921260,
  ] }
  coordIndex [
   0, 1, 2, 3, -1,
   7, 6, 5, 4, -1,
   0, 4, 5, 1, -1,
   1, 5, 6, 2, -1,
   2, 6, 7, 3, -1,
   3, 7, 4, 0, -1,
  ]
 }
}
# solid terminal_43
Shape {
 appearance Appearance { material Material { diffuseColor 0.7 0.7 0.72 } }
 geometry IndexedFaceSet { solid TRUE
  coord Coordinate { point [
   -0.118110236 1.181102362 0.000000000,
   -0.039370079 1.181102362 0.000000000,
   -0.039370079 1.023622047 0.000000000,
   -0.118110236 1.023622047 0.000000000,
   -0.118110236 1.181102362 0.079921260,
   -0.039370079 1.181102362 0.079921260,
   -0.039370079 1.023622047 0.079921260,
   -0.118110236 1.023622047 0.079921260,
  ] }
  coordIndex [
   0, 1, 2, 3, -1,
   7, 6, 5, 4, -1,
   0, 4, 5, 1, -1,
   1, 5, 6, 2, -1,
   2, 6, 7, 3, -1,
   3, 7, 4, 0, -1,
  ]
 }
}
# solid terminal_8
Shape {
 appearance Appearance { material Material { diffuseColor 0.7 0.7 0.72 } }
 geometry IndexedFaceSet { solid TRUE
  coord Coordinate { point [
   -1.181102362 -0.196850394 0.000000000,
   -1.023622047 -0.196850394 0.000000000,
   -1.023622047 -0.275590551 0.000000000,
   -1.181102362 -0.275590551 0.000000000,
   -1.181102362 -0.196850394 0.079921260,
   -1.023622047 -0.196850394 0.079921260,
   -1.023622047 -0.275590551 0.079921260,
   -1.181102362 -0.275590551 0.079921260,
  ] }
  coordIndex [
   0, 1, 2, 3, -1,
   7, 6, 5, 4, -1,
   0, 4, 5, 1, -1,
   1, 5, 6, 2, -1,
   2, 6, 7, 3, -1,
   3, 7, 4, 0, -1,
  ]
 }
}
# solid terminal_20
Shape {
 appearance Appearance { material Material { diffuseColor 0.7 0.7 0.72 } }
 geometry IndexedFaceSet { solid TRUE
  coord Coordinate { point [
   0.196850394 -1.023622047 0.000000000,
   0.275590551 -1.023622047 0.000000000,
   0.275590551 -1.181102362 0.000000000,
   0.196850394 -1.181102362 0.000000000,
   0.196850394 -1.023622047 0.079921260,
   0.275590551 -1.023622047 0.079921260,
   0.275590551 -1.181102362 0.079921260,
   0.196850394 -1.181102362 0.079921260,
  ] }
  coordIndex [
   0, 1, 2, 3, -1,
   7, 6, 5, 4, -1,
   0, 4, 5, 1, -1,
   1, 5, 6, 2, -1,
   2, 6, 7, 3, -1,
   3, 7, 4, 0, -1,
  ]
 }
}
# solid terminal_32
Shape {
 appearance Appearance { material Material { diffuseColor 0.7 0.7 0.72 } }
 geometry IndexedFaceSet { solid TRUE
  coord Coordinate { point [
   1.023622047 0.275590551 0.000000000,
   1.181102362 0.275590551 0.000000000,
   1.181102362 0.196850394 0.000000000,
   1.023622047 0.196850394 0.000000000,
   1.023622047 0.275590551 0.079921260,
   1.181102362 0.275590551 0.079921260,
   1.181102362 0.196850394 0.079921260,
   1.023622047 0.196850394 0.079921260,
  ] }
  coordIndex [
   0, 1, 2, 3, -1,
   7, 6, 5, 4, -1,
   0, 4, 5, 1, -1,
   1, 5, 6, 2, -1,
   2, 6, 7, 3, -1,
   3, 7, 4, 0, -1,
  ]
 }
}
# solid terminal_44
Shape {
 appearance Appearance { material Material { diffuseColor 0.7 0.7 0.72 } }
 geometry IndexedFaceSet { solid TRUE
  coord Coordinate { point [
   -0.275590551 1.181102362 0.000000000,
   -0.196850394 1.181102362 0.000000000,
   -0.196850394 1.023622047 0.000000000,
   -0.275590551 1.023622047 0.000000000,
   -0.275590551 1.181102362 0.079921260,
   -0.196850394 1.181102362 0.079921260,
   -0.196850394 1.023622047 0.079921260,
   -0.275590551 1.023622047 0.079921260,
  ] }
  coordIndex [
   0, 1, 2, 3, -1,
   7, 6, 5, 4, -1,
   0, 4, 5, 1, -1,
   1, 5, 6, 2, -1,
   2, 6, 7, 3, -1,
   3, 7, 4, 0, -1,
  ]
 }
}
# solid terminal_9
Shape {
 appearance Appearance { material Material { diffuseColor 0.7 0.7 0.72 } }
 geometry IndexedFaceSet { solid TRUE
  coord Coordinate { point [
   -1.181102362 -0.354330709 0.000000000,
   -1.023622047 -0.354330709 0.000000000,
   -1.023622047 -0.433070866 0.000000000,
   -1.181102362 -0.433070866 0.000000000,
   -1.181102362 -0.354330709 0.079921260,
   -1.023622047 -0.354330709 0.079921260,
   -1.023622047 -0.433070866 0.079921260,
   -1.181102362 -0.433070866 0.079921260,
  ] }
  coordIndex [
   0, 1, 2, 3, -1,
   7, 6, 5, 4, -1,
   0, 4, 5, 1, -1,
   1, 5, 6, 2, -1,
   2, 6, 7, 3, -1,
   3, 7, 4, 0, -1,
  ]
 }
}
# solid terminal_21
Shape {
 appearance Appearance { material Material { diffuseColor 0.7 0.7 0.72 } }
 geometry IndexedFaceSet { solid TRUE
  coord Coordinate { point [
   0.354330709 -1.023622047 0.000000000,
   0.433070866 -1.023622047 0.000000000,
   0.433070866 -1.181102362 0.000000000,
   0.354330709 -1.181102362 0.000000000,
   0.354330709 -1.023622047 0.079921260,
   0.433070866 -1.023622047 0.079921260,
   0.433070866 -1.181102362 0.079921260,
   0.354330709 -1.181102362 0.079921260,
  ] }
  coordIndex [
   0, 1, 2, 3, -1,
   7, 6, 5, 4, -1,
   0, 4, 5, 1, -1,
   1, 5, 6, 2, -1,
   2, 6, 7, 3, -1,
   3, 7, 4, 0, -1,
  ]
 }
}
# solid terminal_33
Shape {
 appearance Appearance { material Material { diffuseColor 0.7 0.7 0.72 } }
 geometry IndexedFaceSet { solid TRUE
  coord Coordinate { point [
   1.023622047 0.433070866 0.000000000,
   1.181102362 0.433070866 0.000000000,
   1.181102362 0.354330709 0.000000000,
   1.023622047 0.354330709 0.000000000,
   1.023622047 0.433070866 0.079921260,
   1.181102362 0.433070866 0.079921260,
   1.181102362 0.354330709 0.079921260,
   1.023622047 0.354330709 0.079921260,
  ] }
  coordIndex [
   0, 1, 2, 3, -1,
   7, 6, 5, 4, -1,
   0, 4, 5, 1, -1,
   1, 5, 6, 2, -1,
   2, 6, 7, 3, -1,
   3, 7, 4, 0, -1,
  ]
 }
}
# solid terminal_45
Shape {
 appearance Appearance { material Material { diffuseColor 0.7 0.7 0.72 } }
 geometry IndexedFaceSet { solid TRUE
  coord Coordinate { point [
   -0.433070866 1.181102362 0.000000000,
   -0.354330709 1.181102362 0.000000000,
   -0.354330709 1.023622047 0.000000000,
   -0.433070866 1.023622047 0.000000000,
   -0.433070866 1.181102362 0.079921260,
   -0.354330709 1.181102362 0.079921260,
   -0.354330709 1.023622047 0.079921260,
   -0.433070866 1.023622047 0.079921260,
  ] }
  coordIndex [
   0, 1, 2, 3, -1,
   7, 6, 5, 4, -1,
   0, 4, 5, 1, -1,
   1, 5, 6, 2, -1,
   2, 6, 7, 3, -1,
   3, 7, 4, 0, -1,
  ]
 }
}
# solid terminal_10
Shape {
 appearance Appearance { material Material { diffuseColor 0.7 0.7 0.72 } }
 geometry IndexedFaceSet { solid TRUE
  coord Coordinate { point [
   -1.181102362 -0.511811024 0.000000000,
   -1.023622047 -0.511811024 0.000000000,
   -1.023622047 -0.590551181 0.000000000,
   -1.181102362 -0.590551181 0.000000000,
   -1.181102362 -0.511811024 0.079921260,
   -1.023622047 -0.511811024 0.079921260,
   -1.023622047 -0.590551181 0.079921260,
   -1.181102362 -0.590551181 0.079921260,
  ] }
  coordIndex [
   0, 1, 2, 3, -1,
   7, 6, 5, 4, -1,
   0, 4, 5, 1, -1,
   1, 5, 6, 2, -1,
   2, 6, 7, 3, -1,
   3, 7, 4, 0, -1,
  ]
 }
}
# solid terminal_22
Shape {
 appearance Appearance { material Material { diffuseColor 0.7 0.7 0.72 } }
 geometry IndexedFaceSet { solid TRUE
  coord Coordinate { point [
   0.511811024 -1.023622047 0.000000000,
   0.590551181 -1.023622047 0.000000000,
   0.590551181 -1.181102362 0.000000000,
   0.511811024 -1.181102362 0.000000000,
   0.511811024 -1.023622047 0.079921260,
   0.590551181 -1.023622047 0.079921260,
   0.590551181 -1.181102362 0.079921260,
   0.511811024 -1.181102362 0.079921260,
  ] }
  coordIndex [
   0, 1, 2, 3, -1,
   7, 6, 5, 4, -1,
   0, 4, 5, 1, -1,
   1, 5, 6, 2, -1,
   2, 6, 7, 3, -1,
   3, 7, 4, 0, -1,
  ]
 }
}
# solid terminal_34
Shape {
 appearance Appearance { material Material { diffuseColor 0.7 0.7 0.72 } }
 geometry IndexedFaceSet { solid TRUE
  coord Coordinate { point [
   1.023622047 0.590551181 0.000000000,
   1.181102362 0.590551181 0.000000000,
   1.181102362 0.511811024 0.000000000,
   1.023622047 0.511811024 0.000000000,
   1.023622047 0.590551181 0.079921260,
   1.181102362 0.590551181 0.079921260,
   1.181102362 0.511811024 0.079921260,
   1.023622047 0.511811024 0.079921260,
  ] }
  coordIndex [
   0, 1, 2, 3, -1,
   7, 6, 5, 4, -1,
   0, 4, 5, 1, -1,
   1, 5, 6, 2, -1,
   2, 6, 7, 3, -1,
   3, 7, 4, 0, -1,
  ]
 }
}
# solid terminal_46
Shape {
 appearance Appearance { material Material { diffuseColor 0.7 0.7 0.72 } }
 geometry IndexedFaceSet { solid TRUE
  coord Coordinate { point [
   -0.590551181 1.181102362 0.000000000,
   -0.511811024 1.181102362 0.000000000,
   -0.511811024 1.023622047 0.000000000,
   -0.590551181 1.023622047 0.000000000,
   -0.590551181 1.181102362 0.079921260,
   -0.511811024 1.181102362 0.079921260,
   -0.511811024 1.023622047 0.079921260,
   -0.590551181 1.023622047 0.079921260,
  ] }
  coordIndex [
   0, 1, 2, 3, -1,
   7, 6, 5, 4, -1,
   0, 4, 5, 1, -1,
   1, 5, 6, 2, -1,
   2, 6, 7, 3, -1,
   3, 7, 4, 0, -1,
  ]
 }
}
# solid terminal_11
Shape {
 appearance Appearance { material Material { diffuseColor 0.7 0.7 0.72 } }
 geometry IndexedFaceSet { solid TRUE
  coord Coordinate { point [
   -1.181102362 -0.669291339 0.000000000,
   -1.023622047 -0.669291339 0.000000000,
   -1.023622047 -0.748031496 0.000000000,
   -1.181102362 -0.748031496 0.000000000,
   -1.181102362 -0.669291339 0.079921260,
   -1.023622047 -0.669291339 0.079921260,
   -1.023622047 -0.748031496 0.079921260,
   -1.181102362 -0.748031496 0.079921260,
  ] }
  coordIndex [
   0, 1, 2, 3, -1,
   7, 6, 5, 4, -1,
   0, 4, 5, 1, -1,
   1, 5, 6, 2, -1,
   2, 6, 7, 3, -1,
   3, 7, 4, 0, -1,
  ]
 }
}
# solid terminal_23
Shape {
 appearance Appearance { material Material { diffuseColor 0.7 0.7 0.72 } }
 geometry IndexedFaceSet { solid TRUE
  coord Coordinate { point [
   0.669291339 -1.023622047 0.000000000,
   0.748031496 -1.023622047 0.000000000,
   0.748031496 -1.181102362 0.000000000,
   0.669291339 -1.181102362 0.000000000,
   0.669291339 -1.023622047 0.079921260,
   0.748031496 -1.023622047 0.079921260,
   0.748031496 -1.181102362 0.079921260,
   0.669291339 -1.181102362 0.079921260,
  ] }
  coordIndex [
   0, 1, 2, 3, -1,
   7, 6, 5, 4, -1,
   0, 4, 5, 1, -1,
   1, 5, 6, 2, -1,
   2, 6, 7, 3, -1,
   3, 7, 4, 0, -1,
  ]
 }
}
# solid terminal_35
Shape {
 appearance Appearance { material Material { diffuseColor 0.7 0.7 0.72 } }
 geometry IndexedFaceSet { solid TRUE
  coord Coordinate { point [
   1.023622047 0.748031496 0.000000000,
   1.181102362 0.748031496 0.000000000,
   1.181102362 0.669291339 0.000000000,
   1.023622047 0.669291339 0.000000000,
   1.023622047 0.748031496 0.079921260,
   1.181102362 0.748031496 0.079921260,
   1.181102362 0.669291339 0.079921260,
   1.023622047 0.669291339 0.079921260,
  ] }
  coordIndex [
   0, 1, 2, 3, -1,
   7, 6, 5, 4, -1,
   0, 4, 5, 1, -1,
   1, 5, 6, 2, -1,
   2, 6, 7, 3, -1,
   3, 7, 4, 0, -1,
  ]
 }
}
# solid terminal_47
Shape {
 appearance Appearance { material Material { diffuseColor 0.7 0.7 0.72 } }
 geometry IndexedFaceSet { solid TRUE
  coord Coordinate { point [
   -0.748031496 1.181102362 0.000000000,
   -0.669291339 1.181102362 0.000000000,
   -0.669291339 1.023622047 0.000000000,
   -0.748031496 1.023622047 0.000000000,
   -0.748031496 1.181102362 0.079921260,
   -0.669291339 1.181102362 0.079921260,
   -0.669291339 1.023622047 0.079921260,
   -0.748031496 1.023622047 0.079921260,
  ] }
  coordIndex [
   0, 1, 2, 3, -1,
   7, 6, 5, 4, -1,
   0, 4, 5, 1, -1,
   1, 5, 6, 2, -1,
   2, 6, 7, 3, -1,
   3, 7, 4, 0, -1,
  ]
 }
}
# solid terminal_12
Shape {
 appearance Appearance { material Material { diffuseColor 0.7 0.7 0.72 } }
 geometry IndexedFaceSet { solid TRUE
  coord Coordinate { point [
   -1.181102362 -0.826771654 0.000000000,
   -1.023622047 -0.826771654 0.000000000,
   -1.023622047 -0.905511811 0.000000000,
   -1.181102362 -0.905511811 0.000000000,
   -1.181102362 -0.826771654 0.079921260,
   -1.023622047 -0.826771654 0.079921260,
   -1.023622047 -0.905511811 0.079921260,
   -1.181102362 -0.905511811 0.079921260,
  ] }
  coordIndex [
   0, 1, 2, 3, -1,
   7, 6, 5, 4, -1,
   0, 4, 5, 1, -1,
   1, 5, 6, 2, -1,
   2, 6, 7, 3, -1,
   3, 7, 4, 0, -1,
  ]
 }
}
# solid terminal_24
Shape {
 appearance Appearance { material Material { diffuseColor 0.7 0.7 0.72 } }
 geometry IndexedFaceSet { solid TRUE
  coord Coordinate { point [
   0.826771654 -1.023622047 0.000000000,
   0.905511811 -1.023622047 0.000000000,
   0.905511811 -1.181102362 0.000000000,
   0.826771654 -1.181102362 0.000000000,
   0.826771654 -1.023622047 0.079921260,
   0.905511811 -1.023622047 0.079921260,
   0.905511811 -1.181102362 0.079921260,
   0.826771654 -1.181102362 0.079921260,
  ] }
  coordIndex [
   0, 1, 2, 3, -1,
   7, 6, 5, 4, -1,
   0, 4, 5, 1, -1,
   1, 5, 6, 2, -1,
   2, 6, 7, 3, -1,
   3, 7, 4, 0, -1,
  ]
 }
}
# solid terminal_36
Shape {
 appearance Appearance { material Material { diffuseColor 0.7 0.7 0.72 } }
 geometry IndexedFaceSet { solid TRUE
  coord Coordinate { point [
   1.023622047 0.905511811 0.000000000,
   1.181102362 0.905511811 0.000000000,
   1.181102362 0.826771654 0.000000000,
   1.023622047 0.826771654 0.000000000,
   1.023622047 0.905511811 0.079921260,
   1.181102362 0.905511811 0.079921260,
   1.181102362 0.826771654 0.079921260,
   1.023622047 0.826771654 0.079921260,
  ] }
  coordIndex [
   0, 1, 2, 3, -1,
   7, 6, 5, 4, -1,
   0, 4, 5, 1, -1,
   1, 5, 6, 2, -1,
   2, 6, 7, 3, -1,
   3, 7, 4, 0, -1,
  ]
 }
}
# solid terminal_48
Shape {
 appearance Appearance { material Material { diffuseColor 0.7 0.7 0.72 } }
 geometry IndexedFaceSet { solid TRUE
  coord Coordinate { point [
   -0.905511811 1.181102362 0.000000000,
   -0.826771654 1.181102362 0.000000000,
   -0.826771654 1.023622047 0.000000000,
   -0.905511811 1.023622047 0.000000000,
   -0.905511811 1.181102362 0.079921260,
   -0.826771654 1.181102362 0.079921260,
   -0.826771654 1.023622047 0.079921260,
   -0.905511811 1.023622047 0.079921260,
  ] }
  coordIndex [
   0, 1, 2, 3, -1,
   7, 6, 5, 4, -1,
   0, 4, 5, 1, -1,
   1, 5, 6, 2, -1,
   2, 6, 7, 3, -1,
   3, 7, 4, 0, -1,
  ]
 }
}
# solid terminal_49
Shape {
 appearance Appearance { material Material { diffuseColor 0.7 0.7 0.72 } }
 geometry IndexedFaceSet { solid TRUE
  coord Coordinate { point [
   -0.905511811 0.905511811 0.000000000,
   0.905511811 0.905511811 0.000000000,
   0.905511811 -0.905511811 0.000000000,
   -0.905511811 -0.905511811 0.000000000,
   -0.905511811 0.905511811 0.079921260,
   0.905511811 0.905511811 0.079921260,
   0.905511811 -0.905511811 0.079921260,
   -0.905511811 -0.905511811 0.079921260,
  ] }
  coordIndex [
   0, 1, 2, 3, -1,
   7, 6, 5, 4, -1,
   0, 4, 5, 1, -1,
   1, 5, 6, 2, -1,
   2, 6, 7, 3, -1,
   3, 7, 4, 0, -1,
  ]
 }
}
# solid illustrative_pin1_index
Shape {
 appearance Appearance { material Material { diffuseColor 0.55 0.55 0.55 } }
 geometry IndexedFaceSet { solid TRUE
  coord Coordinate { point [
   -1.043307087 1.043307087 0.294881890,
   -0.944881890 1.043307087 0.294881890,
   -0.944881890 0.944881890 0.294881890,
   -1.043307087 0.944881890 0.294881890,
   -1.043307087 1.043307087 0.295275591,
   -0.944881890 1.043307087 0.295275591,
   -0.944881890 0.944881890 0.295275591,
   -1.043307087 0.944881890 0.295275591,
  ] }
  coordIndex [
   0, 1, 2, 3, -1,
   7, 6, 5, 4, -1,
   0, 4, 5, 1, -1,
   1, 5, 6, 2, -1,
   2, 6, 7, 3, -1,
   3, 7, 4, 0, -1,
  ]
 }
}
