#VRML V2.0 utf8
# Source-owned dimension-derived geometry; NOT manufacturer CAD.
# Reproduce with03_src/build_package_models.py; see provenance.md.
# Units: one coordinate unit is2.54mm; nativeY=-footprintY.
# solid body
Shape {
 appearance Appearance { material Material { diffuseColor 0.075 0.075 0.08 } }
 geometry IndexedFaceSet { solid TRUE
  coord Coordinate { point [
   -0.787401575 0.787401575 0.019685039,
   0.787401575 0.787401575 0.019685039,
   0.787401575 -0.787401575 0.019685039,
   -0.787401575 -0.787401575 0.019685039,
   -0.787401575 0.787401575 0.826771654,
   0.787401575 0.787401575 0.826771654,
   0.787401575 -0.787401575 0.826771654,
   -0.787401575 -0.787401575 0.826771654,
  ] }
  coordIndex [
   0, 1, 2, 3, -1,
   7, 6, 5, 4, -1,
   0, 4, 5, 1, -1,
   1, 5, 6, 2, -1,
   2, 6, 7, 3, -1,
   3, 7, 4, 0, -1,
  ]
 }
}
# solid terminal_1
Shape {
 appearance Appearance { material Material { diffuseColor 0.7 0.7 0.72 } }
 geometry IndexedFaceSet { solid TRUE
  coord Coordinate { point [
   -0.631889764 0.639763780 0.000000000,
   -0.309055118 0.639763780 0.000000000,
   -0.309055118 -0.639763780 0.000000000,
   -0.631889764 -0.639763780 0.000000000,
   -0.631889764 0.639763780 0.019685039,
   -0.309055118 0.639763780 0.019685039,
   -0.309055118 -0.639763780 0.019685039,
   -0.631889764 -0.639763780 0.019685039,
  ] }
  coordIndex [
   0, 1, 2, 3, -1,
   7, 6, 5, 4, -1,
   0, 4, 5, 1, -1,
   1, 5, 6, 2, -1,
   2, 6, 7, 3, -1,
   3, 7, 4, 0, -1,
  ]
 }
}
# solid terminal_2
Shape {
 appearance Appearance { material Material { diffuseColor 0.7 0.7 0.72 } }
 geometry IndexedFaceSet { solid TRUE
  coord Coordinate { point [
   0.309055118 0.639763780 0.000000000,
   0.631889764 0.639763780 0.000000000,
   0.631889764 -0.639763780 0.000000000,
   0.309055118 -0.639763780 0.000000000,
   0.309055118 0.639763780 0.019685039,
   0.631889764 0.639763780 0.019685039,
   0.631889764 -0.639763780 0.019685039,
   0.309055118 -0.639763780 0.019685039,
  ] }
  coordIndex [
   0, 1, 2, 3, -1,
   7, 6, 5, 4, -1,
   0, 4, 5, 1, -1,
   1, 5, 6, 2, -1,
   2, 6, 7, 3, -1,
   3, 7, 4, 0, -1,
  ]
 }
}
# solid illustrative_start_lead_index
Shape {
 appearance Appearance { material Material { diffuseColor 0.55 0.55 0.55 } }
 geometry IndexedFaceSet { solid TRUE
  coord Coordinate { point [
   -0.629921260 0.629921260 0.826377953,
   -0.590551181 0.629921260 0.826377953,
   -0.590551181 -0.629921260 0.826377953,
   -0.629921260 -0.629921260 0.826377953,
   -0.629921260 0.629921260 0.826771654,
   -0.590551181 0.629921260 0.826771654,
   -0.590551181 -0.629921260 0.826771654,
   -0.629921260 -0.629921260 0.826771654,
  ] }
  coordIndex [
   0, 1, 2, 3, -1,
   7, 6, 5, 4, -1,
   0, 4, 5, 1, -1,
   1, 5, 6, 2, -1,
   2, 6, 7, 3, -1,
   3, 7, 4, 0, -1,
  ]
 }
}
