#VRML V2.0 utf8
# Source-owned dimension-derived geometry; NOT manufacturer CAD.
# Reproduce with03_src/build_package_models.py; see provenance.md.
# Units: one coordinate unit is2.54mm; nativeY=-footprintY.
# solid body_centre_of_maximum_envelope
Shape {
 appearance Appearance { material Material { diffuseColor 0.55 0.4 0.14 } }
 geometry IndexedFaceSet { solid TRUE
  coord Coordinate { point [
   -1.127952756 1.070866142 0.000000000,
   1.127952756 1.070866142 0.000000000,
   1.127952756 -1.070866142 0.000000000,
   -1.127952756 -1.070866142 0.000000000,
   -1.127952756 1.070866142 0.708661417,
   1.127952756 1.070866142 0.708661417,
   1.127952756 -1.070866142 0.708661417,
   -1.127952756 -1.070866142 0.708661417,
  ] }
  coordIndex [
   0, 1, 2, 3, -1,
   7, 6, 5, 4, -1,
   0, 4, 5, 1, -1,
   1, 5, 6, 2, -1,
   2, 6, 7, 3, -1,
   3, 7, 4, 0, -1,
  ]
 }
}
# solid terminal_1_visual_band
Shape {
 appearance Appearance { material Material { diffuseColor 0.7 0.7 0.72 } }
 geometry IndexedFaceSet { solid TRUE
  coord Coordinate { point [
   -1.570866142 1.070866142 0.000000000,
   -1.127952756 1.070866142 0.000000000,
   -1.127952756 -1.070866142 0.000000000,
   -1.570866142 -1.070866142 0.000000000,
   -1.570866142 1.070866142 0.708661417,
   -1.127952756 1.070866142 0.708661417,
   -1.127952756 -1.070866142 0.708661417,
   -1.570866142 -1.070866142 0.708661417,
  ] }
  coordIndex [
   0, 1, 2, 3, -1,
   7, 6, 5, 4, -1,
   0, 4, 5, 1, -1,
   1, 5, 6, 2, -1,
   2, 6, 7, 3, -1,
   3, 7, 4, 0, -1,
  ]
 }
}
# solid terminal_2_visual_band
Shape {
 appearance Appearance { material Material { diffuseColor 0.7 0.7 0.72 } }
 geometry IndexedFaceSet { solid TRUE
  coord Coordinate { point [
   1.127952756 1.070866142 0.000000000,
   1.570866142 1.070866142 0.000000000,
   1.570866142 -1.070866142 0.000000000,
   1.127952756 -1.070866142 0.000000000,
   1.127952756 1.070866142 0.708661417,
   1.570866142 1.070866142 0.708661417,
   1.570866142 -1.070866142 0.708661417,
   1.127952756 -1.070866142 0.708661417,
  ] }
  coordIndex [
   0, 1, 2, 3, -1,
   7, 6, 5, 4, -1,
   0, 4, 5, 1, -1,
   1, 5, 6, 2, -1,
   2, 6, 7, 3, -1,
   3, 7, 4, 0, -1,
  ]
 }
}
