#VRML V2.0 utf8
# Source-owned dimension-derived geometry; NOT manufacturer CAD.
# Reproduce with03_src/build_package_models.py; see provenance.md.
# Units: one coordinate unit is2.54mm; nativeY=-footprintY.
# solid housing_rear_wall
Shape {
 appearance Appearance { material Material { diffuseColor 0.075 0.075 0.08 } }
 geometry IndexedFaceSet { solid TRUE
  coord Coordinate { point [
   -1.309055118 0.885826772 0.000000000,
   4.852362205 0.885826772 0.000000000,
   4.852362205 -0.385826772 0.000000000,
   -1.309055118 -0.385826772 0.000000000,
   -1.309055118 0.885826772 1.720472441,
   4.852362205 0.885826772 1.720472441,
   4.852362205 -0.385826772 1.720472441,
   -1.309055118 -0.385826772 1.720472441,
  ] }
  coordIndex [
   0, 1, 2, 3, -1,
   7, 6, 5, 4, -1,
   0, 4, 5, 1, -1,
   1, 5, 6, 2, -1,
   2, 6, 7, 3, -1,
   3, 7, 4, 0, -1,
  ]
 }
}
# solid housing_mouth_roof
Shape {
 appearance Appearance { material Material { diffuseColor 0.075 0.075 0.08 } }
 geometry IndexedFaceSet { solid TRUE
  coord Coordinate { point [
   -1.309055118 3.511811024 1.484251969,
   4.852362205 3.511811024 1.484251969,
   4.852362205 0.885826772 1.484251969,
   -1.309055118 0.885826772 1.484251969,
   -1.309055118 3.511811024 1.720472441,
   4.852362205 3.511811024 1.720472441,
   4.852362205 0.885826772 1.720472441,
   -1.309055118 0.885826772 1.720472441,
  ] }
  coordIndex [
   0, 1, 2, 3, -1,
   7, 6, 5, 4, -1,
   0, 4, 5, 1, -1,
   1, 5, 6, 2, -1,
   2, 6, 7, 3, -1,
   3, 7, 4, 0, -1,
  ]
 }
}
# solid housing_mouth_floor
Shape {
 appearance Appearance { material Material { diffuseColor 0.075 0.075 0.08 } }
 geometry IndexedFaceSet { solid TRUE
  coord Coordinate { point [
   -1.309055118 3.511811024 0.000000000,
   4.852362205 3.511811024 0.000000000,
   4.852362205 0.885826772 0.000000000,
   -1.309055118 0.885826772 0.000000000,
   -1.309055118 3.511811024 0.236220472,
   4.852362205 3.511811024 0.236220472,
   4.852362205 0.885826772 0.236220472,
   -1.309055118 0.885826772 0.236220472,
  ] }
  coordIndex [
   0, 1, 2, 3, -1,
   7, 6, 5, 4, -1,
   0, 4, 5, 1, -1,
   1, 5, 6, 2, -1,
   2, 6, 7, 3, -1,
   3, 7, 4, 0, -1,
  ]
 }
}
# solid housing_first_outer_wall
Shape {
 appearance Appearance { material Material { diffuseColor 0.075 0.075 0.08 } }
 geometry IndexedFaceSet { solid TRUE
  coord Coordinate { point [
   -1.309055118 3.511811024 0.000000000,
   -0.464566929 3.511811024 0.000000000,
   -0.464566929 0.885826772 0.000000000,
   -1.309055118 0.885826772 0.000000000,
   -1.309055118 3.511811024 1.720472441,
   -0.464566929 3.511811024 1.720472441,
   -0.464566929 0.885826772 1.720472441,
   -1.309055118 0.885826772 1.720472441,
  ] }
  coordIndex [
   0, 1, 2, 3, -1,
   7, 6, 5, 4, -1,
   0, 4, 5, 1, -1,
   1, 5, 6, 2, -1,
   2, 6, 7, 3, -1,
   3, 7, 4, 0, -1,
  ]
 }
}
# solid housing_last_outer_wall
Shape {
 appearance Appearance { material Material { diffuseColor 0.075 0.075 0.08 } }
 geometry IndexedFaceSet { solid TRUE
  coord Coordinate { point [
   4.007874016 3.511811024 0.000000000,
   4.852362205 3.511811024 0.000000000,
   4.852362205 0.885826772 0.000000000,
   4.007874016 0.885826772 0.000000000,
   4.007874016 3.511811024 1.720472441,
   4.852362205 3.511811024 1.720472441,
   4.852362205 0.885826772 1.720472441,
   4.007874016 0.885826772 1.720472441,
  ] }
  coordIndex [
   0, 1, 2, 3, -1,
   7, 6, 5, 4, -1,
   0, 4, 5, 1, -1,
   1, 5, 6, 2, -1,
   2, 6, 7, 3, -1,
   3, 7, 4, 0, -1,
  ]
 }
}
# solid housing_cavity_divider_1
Shape {
 appearance Appearance { material Material { diffuseColor 0.075 0.075 0.08 } }
 geometry IndexedFaceSet { solid TRUE
  coord Coordinate { point [
   0.464566929 3.511811024 0.000000000,
   0.716535433 3.511811024 0.000000000,
   0.716535433 0.885826772 0.000000000,
   0.464566929 0.885826772 0.000000000,
   0.464566929 3.511811024 1.720472441,
   0.716535433 3.511811024 1.720472441,
   0.716535433 0.885826772 1.720472441,
   0.464566929 0.885826772 1.720472441,
  ] }
  coordIndex [
   0, 1, 2, 3, -1,
   7, 6, 5, 4, -1,
   0, 4, 5, 1, -1,
   1, 5, 6, 2, -1,
   2, 6, 7, 3, -1,
   3, 7, 4, 0, -1,
  ]
 }
}
# solid housing_cavity_divider_2
Shape {
 appearance Appearance { material Material { diffuseColor 0.075 0.075 0.08 } }
 geometry IndexedFaceSet { solid TRUE
  coord Coordinate { point [
   1.645669291 3.511811024 0.000000000,
   1.897637795 3.511811024 0.000000000,
   1.897637795 0.885826772 0.000000000,
   1.645669291 0.885826772 0.000000000,
   1.645669291 3.511811024 1.720472441,
   1.897637795 3.511811024 1.720472441,
   1.897637795 0.885826772 1.720472441,
   1.645669291 0.885826772 1.720472441,
  ] }
  coordIndex [
   0, 1, 2, 3, -1,
   7, 6, 5, 4, -1,
   0, 4, 5, 1, -1,
   1, 5, 6, 2, -1,
   2, 6, 7, 3, -1,
   3, 7, 4, 0, -1,
  ]
 }
}
# solid housing_cavity_divider_3
Shape {
 appearance Appearance { material Material { diffuseColor 0.075 0.075 0.08 } }
 geometry IndexedFaceSet { solid TRUE
  coord Coordinate { point [
   2.826771654 3.511811024 0.000000000,
   3.078740157 3.511811024 0.000000000,
   3.078740157 0.885826772 0.000000000,
   2.826771654 0.885826772 0.000000000,
   2.826771654 3.511811024 1.720472441,
   3.078740157 3.511811024 1.720472441,
   3.078740157 0.885826772 1.720472441,
   2.826771654 0.885826772 1.720472441,
  ] }
  coordIndex [
   0, 1, 2, 3, -1,
   7, 6, 5, 4, -1,
   0, 4, 5, 1, -1,
   1, 5, 6, 2, -1,
   2, 6, 7, 3, -1,
   3, 7, 4, 0, -1,
  ]
 }
}
# solid housing_first_cavity_lower_outer_chamfer_visual
Shape {
 appearance Appearance { material Material { diffuseColor 0.075 0.075 0.08 } }
 geometry IndexedFaceSet { solid TRUE
  coord Coordinate { point [
   -0.464566929 3.511811024 0.492125984,
   -0.208661417 3.511811024 0.236220472,
   -0.464566929 3.511811024 0.236220472,
   -0.464566929 0.885826772 0.492125984,
   -0.208661417 0.885826772 0.236220472,
   -0.464566929 0.885826772 0.236220472,
  ] }
  coordIndex [
   0, 1, 2, -1,
   5, 4, 3, -1,
   0, 3, 4, 1, -1,
   1, 4, 5, 2, -1,
   2, 5, 3, 0, -1,
  ]
 }
}
# solid housing_last_cavity_lower_outer_chamfer_visual
Shape {
 appearance Appearance { material Material { diffuseColor 0.075 0.075 0.08 } }
 geometry IndexedFaceSet { solid TRUE
  coord Coordinate { point [
   3.751968504 3.511811024 0.236220472,
   4.007874016 3.511811024 0.492125984,
   4.007874016 3.511811024 0.236220472,
   3.751968504 0.885826772 0.236220472,
   4.007874016 0.885826772 0.492125984,
   4.007874016 0.885826772 0.236220472,
  ] }
  coordIndex [
   0, 1, 2, -1,
   5, 4, 3, -1,
   0, 3, 4, 1, -1,
   1, 4, 5, 2, -1,
   2, 5, 3, 0, -1,
  ]
 }
}
# solid housing_roof_latch_visual
Shape {
 appearance Appearance { material Material { diffuseColor 0.075 0.075 0.08 } }
 geometry IndexedFaceSet { solid TRUE
  coord Coordinate { point [
   1.279527559 2.519685039 1.720472441,
   1.279527559 2.519685039 2.192913386,
   1.279527559 2.834645669 2.192913386,
   1.279527559 3.267716535 1.720472441,
   2.263779528 2.519685039 1.720472441,
   2.263779528 2.519685039 2.192913386,
   2.263779528 2.834645669 2.192913386,
   2.263779528 3.267716535 1.720472441,
  ] }
  coordIndex [
   0, 1, 2, 3, -1,
   7, 6, 5, 4, -1,
   0, 4, 5, 1, -1,
   1, 5, 6, 2, -1,
   2, 6, 7, 3, -1,
   3, 7, 4, 0, -1,
  ]
 }
}
# solid terminal_1_board_entry_tail
Shape {
 appearance Appearance { material Material { diffuseColor 0.7 0.7 0.72 } }
 geometry IndexedFaceSet { solid TRUE
  coord Coordinate { point [
   -0.125984252 0.125984252 -1.251968504,
   0.125984252 0.125984252 -1.251968504,
   0.125984252 -0.125984252 -1.251968504,
   -0.125984252 -0.125984252 -1.251968504,
   -0.125984252 0.125984252 0.000000000,
   0.125984252 0.125984252 0.000000000,
   0.125984252 -0.125984252 0.000000000,
   -0.125984252 -0.125984252 0.000000000,
  ] }
  coordIndex [
   0, 1, 2, 3, -1,
   7, 6, 5, 4, -1,
   0, 4, 5, 1, -1,
   1, 5, 6, 2, -1,
   2, 6, 7, 3, -1,
   3, 7, 4, 0, -1,
  ]
 }
}
# solid contact_1_horizontal_visual
Shape {
 appearance Appearance { material Material { diffuseColor 0.7 0.7 0.72 } }
 geometry IndexedFaceSet { solid TRUE
  coord Coordinate { point [
   -0.125984252 2.893700787 0.734251969,
   0.125984252 2.893700787 0.734251969,
   0.125984252 -0.125984252 0.734251969,
   -0.125984252 -0.125984252 0.734251969,
   -0.125984252 2.893700787 0.986220472,
   0.125984252 2.893700787 0.986220472,
   0.125984252 -0.125984252 0.986220472,
   -0.125984252 -0.125984252 0.986220472,
  ] }
  coordIndex [
   0, 1, 2, 3, -1,
   7, 6, 5, 4, -1,
   0, 4, 5, 1, -1,
   1, 5, 6, 2, -1,
   2, 6, 7, 3, -1,
   3, 7, 4, 0, -1,
  ]
 }
}
# solid terminal_2_board_entry_tail
Shape {
 appearance Appearance { material Material { diffuseColor 0.7 0.7 0.72 } }
 geometry IndexedFaceSet { solid TRUE
  coord Coordinate { point [
   1.055118110 0.125984252 -1.251968504,
   1.307086614 0.125984252 -1.251968504,
   1.307086614 -0.125984252 -1.251968504,
   1.055118110 -0.125984252 -1.251968504,
   1.055118110 0.125984252 0.000000000,
   1.307086614 0.125984252 0.000000000,
   1.307086614 -0.125984252 0.000000000,
   1.055118110 -0.125984252 0.000000000,
  ] }
  coordIndex [
   0, 1, 2, 3, -1,
   7, 6, 5, 4, -1,
   0, 4, 5, 1, -1,
   1, 5, 6, 2, -1,
   2, 6, 7, 3, -1,
   3, 7, 4, 0, -1,
  ]
 }
}
# solid contact_2_horizontal_visual
Shape {
 appearance Appearance { material Material { diffuseColor 0.7 0.7 0.72 } }
 geometry IndexedFaceSet { solid TRUE
  coord Coordinate { point [
   1.055118110 2.893700787 0.734251969,
   1.307086614 2.893700787 0.734251969,
   1.307086614 -0.125984252 0.734251969,
   1.055118110 -0.125984252 0.734251969,
   1.055118110 2.893700787 0.986220472,
   1.307086614 2.893700787 0.986220472,
   1.307086614 -0.125984252 0.986220472,
   1.055118110 -0.125984252 0.986220472,
  ] }
  coordIndex [
   0, 1, 2, 3, -1,
   7, 6, 5, 4, -1,
   0, 4, 5, 1, -1,
   1, 5, 6, 2, -1,
   2, 6, 7, 3, -1,
   3, 7, 4, 0, -1,
  ]
 }
}
# solid terminal_3_board_entry_tail
Shape {
 appearance Appearance { material Material { diffuseColor 0.7 0.7 0.72 } }
 geometry IndexedFaceSet { solid TRUE
  coord Coordinate { point [
   2.236220472 0.125984252 -1.251968504,
   2.488188976 0.125984252 -1.251968504,
   2.488188976 -0.125984252 -1.251968504,
   2.236220472 -0.125984252 -1.251968504,
   2.236220472 0.125984252 0.000000000,
   2.488188976 0.125984252 0.000000000,
   2.488188976 -0.125984252 0.000000000,
   2.236220472 -0.125984252 0.000000000,
  ] }
  coordIndex [
   0, 1, 2, 3, -1,
   7, 6, 5, 4, -1,
   0, 4, 5, 1, -1,
   1, 5, 6, 2, -1,
   2, 6, 7, 3, -1,
   3, 7, 4, 0, -1,
  ]
 }
}
# solid contact_3_horizontal_visual
Shape {
 appearance Appearance { material Material { diffuseColor 0.7 0.7 0.72 } }
 geometry IndexedFaceSet { solid TRUE
  coord Coordinate { point [
   2.236220472 2.893700787 0.734251969,
   2.488188976 2.893700787 0.734251969,
   2.488188976 -0.125984252 0.734251969,
   2.236220472 -0.125984252 0.734251969,
   2.236220472 2.893700787 0.986220472,
   2.488188976 2.893700787 0.986220472,
   2.488188976 -0.125984252 0.986220472,
   2.236220472 -0.125984252 0.986220472,
  ] }
  coordIndex [
   0, 1, 2, 3, -1,
   7, 6, 5, 4, -1,
   0, 4, 5, 1, -1,
   1, 5, 6, 2, -1,
   2, 6, 7, 3, -1,
   3, 7, 4, 0, -1,
  ]
 }
}
# solid terminal_4_board_entry_tail
Shape {
 appearance Appearance { material Material { diffuseColor 0.7 0.7 0.72 } }
 geometry IndexedFaceSet { solid TRUE
  coord Coordinate { point [
   3.417322835 0.125984252 -1.251968504,
   3.669291339 0.125984252 -1.251968504,
   3.669291339 -0.125984252 -1.251968504,
   3.417322835 -0.125984252 -1.251968504,
   3.417322835 0.125984252 0.000000000,
   3.669291339 0.125984252 0.000000000,
   3.669291339 -0.125984252 0.000000000,
   3.417322835 -0.125984252 0.000000000,
  ] }
  coordIndex [
   0, 1, 2, 3, -1,
   7, 6, 5, 4, -1,
   0, 4, 5, 1, -1,
   1, 5, 6, 2, -1,
   2, 6, 7, 3, -1,
   3, 7, 4, 0, -1,
  ]
 }
}
# solid contact_4_horizontal_visual
Shape {
 appearance Appearance { material Material { diffuseColor 0.7 0.7 0.72 } }
 geometry IndexedFaceSet { solid TRUE
  coord Coordinate { point [
   3.417322835 2.893700787 0.734251969,
   3.669291339 2.893700787 0.734251969,
   3.669291339 -0.125984252 0.734251969,
   3.417322835 -0.125984252 0.734251969,
   3.417322835 2.893700787 0.986220472,
   3.669291339 2.893700787 0.986220472,
   3.669291339 -0.125984252 0.986220472,
   3.417322835 -0.125984252 0.986220472,
  ] }
  coordIndex [
   0, 1, 2, 3, -1,
   7, 6, 5, 4, -1,
   0, 4, 5, 1, -1,
   1, 5, 6, 2, -1,
   2, 6, 7, 3, -1,
   3, 7, 4, 0, -1,
  ]
 }
}
