#VRML V2.0 utf8
# Source-owned dimension-derived geometry; NOT manufacturer CAD.
# Reproduce with03_src/build_package_models.py; see provenance.md.
# Units: one coordinate unit is2.54mm; nativeY=-footprintY.
# solid body
Shape {
 appearance Appearance { material Material { diffuseColor 0.075 0.075 0.08 } }
 geometry IndexedFaceSet { solid TRUE
  coord Coordinate { point [
   -0.492125984 0.492125984 0.009842520,
   0.492125984 0.492125984 0.009842520,
   0.492125984 -0.492125984 0.009842520,
   -0.492125984 -0.492125984 0.009842520,
   -0.492125984 0.492125984 0.314960630,
   0.492125984 0.492125984 0.314960630,
   0.492125984 -0.492125984 0.314960630,
   -0.492125984 -0.492125984 0.314960630,
  ] }
  coordIndex [
   0, 1, 2, 3, -1,
   7, 6, 5, 4, -1,
   0, 4, 5, 1, -1,
   1, 5, 6, 2, -1,
   2, 6, 7, 3, -1,
   3, 7, 4, 0, -1,
  ]
 }
}
# solid terminal_1
Shape {
 appearance Appearance { material Material { diffuseColor 0.7 0.7 0.72 } }
 geometry IndexedFaceSet { solid TRUE
  coord Coordinate { point [
   -0.492125984 0.442913386 0.000000000,
   -0.334645669 0.442913386 0.000000000,
   -0.334645669 0.344488189 0.000000000,
   -0.492125984 0.344488189 0.000000000,
   -0.492125984 0.442913386 0.078740157,
   -0.334645669 0.442913386 0.078740157,
   -0.334645669 0.344488189 0.078740157,
   -0.492125984 0.344488189 0.078740157,
  ] }
  coordIndex [
   0, 1, 2, 3, -1,
   7, 6, 5, 4, -1,
   0, 4, 5, 1, -1,
   1, 5, 6, 2, -1,
   2, 6, 7, 3, -1,
   3, 7, 4, 0, -1,
  ]
 }
}
# solid terminal_10
Shape {
 appearance Appearance { material Material { diffuseColor 0.7 0.7 0.72 } }
 geometry IndexedFaceSet { solid TRUE
  coord Coordinate { point [
   0.334645669 0.442913386 0.000000000,
   0.492125984 0.442913386 0.000000000,
   0.492125984 0.344488189 0.000000000,
   0.334645669 0.344488189 0.000000000,
   0.334645669 0.442913386 0.078740157,
   0.492125984 0.442913386 0.078740157,
   0.492125984 0.344488189 0.078740157,
   0.334645669 0.344488189 0.078740157,
  ] }
  coordIndex [
   0, 1, 2, 3, -1,
   7, 6, 5, 4, -1,
   0, 4, 5, 1, -1,
   1, 5, 6, 2, -1,
   2, 6, 7, 3, -1,
   3, 7, 4, 0, -1,
  ]
 }
}
# solid terminal_2
Shape {
 appearance Appearance { material Material { diffuseColor 0.7 0.7 0.72 } }
 geometry IndexedFaceSet { solid TRUE
  coord Coordinate { point [
   -0.492125984 0.246062992 0.000000000,
   -0.334645669 0.246062992 0.000000000,
   -0.334645669 0.147637795 0.000000000,
   -0.492125984 0.147637795 0.000000000,
   -0.492125984 0.246062992 0.078740157,
   -0.334645669 0.246062992 0.078740157,
   -0.334645669 0.147637795 0.078740157,
   -0.492125984 0.147637795 0.078740157,
  ] }
  coordIndex [
   0, 1, 2, 3, -1,
   7, 6, 5, 4, -1,
   0, 4, 5, 1, -1,
   1, 5, 6, 2, -1,
   2, 6, 7, 3, -1,
   3, 7, 4, 0, -1,
  ]
 }
}
# solid terminal_9
Shape {
 appearance Appearance { material Material { diffuseColor 0.7 0.7 0.72 } }
 geometry IndexedFaceSet { solid TRUE
  coord Coordinate { point [
   0.334645669 0.246062992 0.000000000,
   0.492125984 0.246062992 0.000000000,
   0.492125984 0.147637795 0.000000000,
   0.334645669 0.147637795 0.000000000,
   0.334645669 0.246062992 0.078740157,
   0.492125984 0.246062992 0.078740157,
   0.492125984 0.147637795 0.078740157,
   0.334645669 0.147637795 0.078740157,
  ] }
  coordIndex [
   0, 1, 2, 3, -1,
   7, 6, 5, 4, -1,
   0, 4, 5, 1, -1,
   1, 5, 6, 2, -1,
   2, 6, 7, 3, -1,
   3, 7, 4, 0, -1,
  ]
 }
}
# solid terminal_3
Shape {
 appearance Appearance { material Material { diffuseColor 0.7 0.7 0.72 } }
 geometry IndexedFaceSet { solid TRUE
  coord Coordinate { point [
   -0.492125984 0.049212598 0.000000000,
   -0.334645669 0.049212598 0.000000000,
   -0.334645669 -0.049212598 0.000000000,
   -0.492125984 -0.049212598 0.000000000,
   -0.492125984 0.049212598 0.078740157,
   -0.334645669 0.049212598 0.078740157,
   -0.334645669 -0.049212598 0.078740157,
   -0.492125984 -0.049212598 0.078740157,
  ] }
  coordIndex [
   0, 1, 2, 3, -1,
   7, 6, 5, 4, -1,
   0, 4, 5, 1, -1,
   1, 5, 6, 2, -1,
   2, 6, 7, 3, -1,
   3, 7, 4, 0, -1,
  ]
 }
}
# solid terminal_8
Shape {
 appearance Appearance { material Material { diffuseColor 0.7 0.7 0.72 } }
 geometry IndexedFaceSet { solid TRUE
  coord Coordinate { point [
   0.334645669 0.049212598 0.000000000,
   0.492125984 0.049212598 0.000000000,
   0.492125984 -0.049212598 0.000000000,
   0.334645669 -0.049212598 0.000000000,
   0.334645669 0.049212598 0.078740157,
   0.492125984 0.049212598 0.078740157,
   0.492125984 -0.049212598 0.078740157,
   0.334645669 -0.049212598 0.078740157,
  ] }
  coordIndex [
   0, 1, 2, 3, -1,
   7, 6, 5, 4, -1,
   0, 4, 5, 1, -1,
   1, 5, 6, 2, -1,
   2, 6, 7, 3, -1,
   3, 7, 4, 0, -1,
  ]
 }
}
# solid terminal_4
Shape {
 appearance Appearance { material Material { diffuseColor 0.7 0.7 0.72 } }
 geometry IndexedFaceSet { solid TRUE
  coord Coordinate { point [
   -0.492125984 -0.147637795 0.000000000,
   -0.334645669 -0.147637795 0.000000000,
   -0.334645669 -0.246062992 0.000000000,
   -0.492125984 -0.246062992 0.000000000,
   -0.492125984 -0.147637795 0.078740157,
   -0.334645669 -0.147637795 0.078740157,
   -0.334645669 -0.246062992 0.078740157,
   -0.492125984 -0.246062992 0.078740157,
  ] }
  coordIndex [
   0, 1, 2, 3, -1,
   7, 6, 5, 4, -1,
   0, 4, 5, 1, -1,
   1, 5, 6, 2, -1,
   2, 6, 7, 3, -1,
   3, 7, 4, 0, -1,
  ]
 }
}
# solid terminal_7
Shape {
 appearance Appearance { material Material { diffuseColor 0.7 0.7 0.72 } }
 geometry IndexedFaceSet { solid TRUE
  coord Coordinate { point [
   0.334645669 -0.147637795 0.000000000,
   0.492125984 -0.147637795 0.000000000,
   0.492125984 -0.246062992 0.000000000,
   0.334645669 -0.246062992 0.000000000,
   0.334645669 -0.147637795 0.078740157,
   0.492125984 -0.147637795 0.078740157,
   0.492125984 -0.246062992 0.078740157,
   0.334645669 -0.246062992 0.078740157,
  ] }
  coordIndex [
   0, 1, 2, 3, -1,
   7, 6, 5, 4, -1,
   0, 4, 5, 1, -1,
   1, 5, 6, 2, -1,
   2, 6, 7, 3, -1,
   3, 7, 4, 0, -1,
  ]
 }
}
# solid terminal_5
Shape {
 appearance Appearance { material Material { diffuseColor 0.7 0.7 0.72 } }
 geometry IndexedFaceSet { solid TRUE
  coord Coordinate { point [
   -0.492125984 -0.344488189 0.000000000,
   -0.334645669 -0.344488189 0.000000000,
   -0.334645669 -0.442913386 0.000000000,
   -0.492125984 -0.442913386 0.000000000,
   -0.492125984 -0.344488189 0.078740157,
   -0.334645669 -0.344488189 0.078740157,
   -0.334645669 -0.442913386 0.078740157,
   -0.492125984 -0.442913386 0.078740157,
  ] }
  coordIndex [
   0, 1, 2, 3, -1,
   7, 6, 5, 4, -1,
   0, 4, 5, 1, -1,
   1, 5, 6, 2, -1,
   2, 6, 7, 3, -1,
   3, 7, 4, 0, -1,
  ]
 }
}
# solid terminal_6
Shape {
 appearance Appearance { material Material { diffuseColor 0.7 0.7 0.72 } }
 geometry IndexedFaceSet { solid TRUE
  coord Coordinate { point [
   0.334645669 -0.344488189 0.000000000,
   0.492125984 -0.344488189 0.000000000,
   0.492125984 -0.442913386 0.000000000,
   0.334645669 -0.442913386 0.000000000,
   0.334645669 -0.344488189 0.078740157,
   0.492125984 -0.344488189 0.078740157,
   0.492125984 -0.442913386 0.078740157,
   0.334645669 -0.442913386 0.078740157,
  ] }
  coordIndex [
   0, 1, 2, 3, -1,
   7, 6, 5, 4, -1,
   0, 4, 5, 1, -1,
   1, 5, 6, 2, -1,
   2, 6, 7, 3, -1,
   3, 7, 4, 0, -1,
  ]
 }
}
# solid terminal_11
Shape {
 appearance Appearance { material Material { diffuseColor 0.7 0.7 0.72 } }
 geometry IndexedFaceSet { solid TRUE
  coord Coordinate { point [
   -0.236220472 0.393700787 0.000000000,
   0.236220472 0.393700787 0.000000000,
   0.236220472 -0.393700787 0.000000000,
   -0.236220472 -0.393700787 0.000000000,
   -0.236220472 0.393700787 0.078740157,
   0.236220472 0.393700787 0.078740157,
   0.236220472 -0.393700787 0.078740157,
   -0.236220472 -0.393700787 0.078740157,
  ] }
  coordIndex [
   0, 1, 2, 3, -1,
   7, 6, 5, 4, -1,
   0, 4, 5, 1, -1,
   1, 5, 6, 2, -1,
   2, 6, 7, 3, -1,
   3, 7, 4, 0, -1,
  ]
 }
}
# solid illustrative_pin1_index
Shape {
 appearance Appearance { material Material { diffuseColor 0.55 0.55 0.55 } }
 geometry IndexedFaceSet { solid TRUE
  coord Coordinate { point [
   -0.444881890 0.444881890 0.314566929,
   -0.401574803 0.444881890 0.314566929,
   -0.401574803 0.401574803 0.314566929,
   -0.444881890 0.401574803 0.314566929,
   -0.444881890 0.444881890 0.314960630,
   -0.401574803 0.444881890 0.314960630,
   -0.401574803 0.401574803 0.314960630,
   -0.444881890 0.401574803 0.314960630,
  ] }
  coordIndex [
   0, 1, 2, 3, -1,
   7, 6, 5, 4, -1,
   0, 4, 5, 1, -1,
   1, 5, 6, 2, -1,
   2, 6, 7, 3, -1,
   3, 7, 4, 0, -1,
  ]
 }
}
