#VRML V2.0 utf8
# Source-owned dimension-derived geometry; NOT manufacturer CAD.
# Reproduce with03_src/build_package_models.py; see provenance.md.
# Units: one coordinate unit is2.54mm; nativeY=-footprintY.
# solid body_nominal_envelope
Shape {
 appearance Appearance { material Material { diffuseColor 0.075 0.075 0.08 } }
 geometry IndexedFaceSet { solid TRUE
  coord Coordinate { point [
   -0.429921260 0.314960630 0.000000000,
   0.429921260 0.314960630 0.000000000,
   0.429921260 -0.314960630 0.000000000,
   -0.429921260 -0.314960630 0.000000000,
   -0.429921260 0.314960630 0.250000000,
   0.429921260 0.314960630 0.250000000,
   0.429921260 -0.314960630 0.250000000,
   -0.429921260 -0.314960630 0.250000000,
  ] }
  coordIndex [
   0, 1, 2, 3, -1,
   7, 6, 5, 4, -1,
   0, 4, 5, 1, -1,
   1, 5, 6, 2, -1,
   2, 6, 7, 3, -1,
   3, 7, 4, 0, -1,
  ]
 }
}
# solid terminal_1
Shape {
 appearance Appearance { material Material { diffuseColor 0.7 0.7 0.72 } }
 geometry IndexedFaceSet { solid TRUE
  coord Coordinate { point [
   -0.629921260 0.314960630 0.000000000,
   -0.429921260 0.314960630 0.000000000,
   -0.429921260 -0.314960630 0.000000000,
   -0.629921260 -0.314960630 0.000000000,
   -0.629921260 0.314960630 0.250000000,
   -0.429921260 0.314960630 0.250000000,
   -0.429921260 -0.314960630 0.250000000,
   -0.629921260 -0.314960630 0.250000000,
  ] }
  coordIndex [
   0, 1, 2, 3, -1,
   7, 6, 5, 4, -1,
   0, 4, 5, 1, -1,
   1, 5, 6, 2, -1,
   2, 6, 7, 3, -1,
   3, 7, 4, 0, -1,
  ]
 }
}
# solid terminal_2
Shape {
 appearance Appearance { material Material { diffuseColor 0.7 0.7 0.72 } }
 geometry IndexedFaceSet { solid TRUE
  coord Coordinate { point [
   0.429921260 0.314960630 0.000000000,
   0.629921260 0.314960630 0.000000000,
   0.629921260 -0.314960630 0.000000000,
   0.429921260 -0.314960630 0.000000000,
   0.429921260 0.314960630 0.250000000,
   0.629921260 0.314960630 0.250000000,
   0.629921260 -0.314960630 0.250000000,
   0.429921260 -0.314960630 0.250000000,
  ] }
  coordIndex [
   0, 1, 2, 3, -1,
   7, 6, 5, 4, -1,
   0, 4, 5, 1, -1,
   1, 5, 6, 2, -1,
   2, 6, 7, 3, -1,
   3, 7, 4, 0, -1,
  ]
 }
}
