%TF.GenerationSoftware,KiCad,Pcbnew,10.0.4-10.0.4~ubuntu24.04.1*%
%TF.CreationDate,2026-09-06T20:50:57-07:00*%
%TF.ProjectId,crow-audio-carrier-v1-connector-coupon,63726f77-2d61-4756-9469-6f2d63617272,rev?*%
%TF.SameCoordinates,Original*%
%TF.FileFunction,Copper,L2,Inr*%
%TF.FilePolarity,Positive*%
%FSLAX46Y46*%
G04 Gerber Fmt 4.6, Leading zero omitted, Abs format (unit mm)*
G04 Created by KiCad (PCBNEW 10.0.4-10.0.4~ubuntu24.04.1) date 2026-09-06 20:50:57*
%MOMM*%
%LPD*%
G01*
G04 APERTURE LIST*
G04 Aperture macros list*
%AMRoundRect*
0 Rectangle with rounded corners*
0 $1 Rounding radius*
0 $2 $3 $4 $5 $6 $7 $8 $9 X,Y pos of 4 corners*
0 Add a 4 corners polygon primitive as box body*
4,1,4,$2,$3,$4,$5,$6,$7,$8,$9,$2,$3,0*
0 Add four circle primitives for the rounded corners*
1,1,$1+$1,$2,$3*
1,1,$1+$1,$4,$5*
1,1,$1+$1,$6,$7*
1,1,$1+$1,$8,$9*
0 Add four rect primitives between the rounded corners*
20,1,$1+$1,$2,$3,$4,$5,0*
20,1,$1+$1,$4,$5,$6,$7,0*
20,1,$1+$1,$6,$7,$8,$9,0*
20,1,$1+$1,$8,$9,$2,$3,0*%
G04 Aperture macros list end*
%TA.AperFunction,ComponentPad*%
%ADD10RoundRect,0.250001X-0.499999X-0.759999X0.499999X-0.759999X0.499999X0.759999X-0.499999X0.759999X0*%
%TD*%
%TA.AperFunction,ComponentPad*%
%ADD11O,1.500000X2.020000*%
%TD*%
%TA.AperFunction,ComponentPad*%
%ADD12RoundRect,0.250001X0.499999X0.759999X-0.499999X0.759999X-0.499999X-0.759999X0.499999X-0.759999X0*%
%TD*%
%TA.AperFunction,ComponentPad*%
%ADD13R,1.350000X1.350000*%
%TD*%
%TA.AperFunction,ComponentPad*%
%ADD14C,1.350000*%
%TD*%
%TA.AperFunction,ComponentPad*%
%ADD15RoundRect,0.250001X0.759999X-0.499999X0.759999X0.499999X-0.759999X0.499999X-0.759999X-0.499999X0*%
%TD*%
%TA.AperFunction,ComponentPad*%
%ADD16O,2.020000X1.500000*%
%TD*%
G04 APERTURE END LIST*
D10*
X132000000Y-31000000D03*
D11*
X135000000Y-31000000D03*
X138000000Y-31000000D03*
X141000000Y-31000000D03*
D10*
X36000000Y-31000000D03*
D11*
X39000000Y-31000000D03*
X42000000Y-31000000D03*
X45000000Y-31000000D03*
D12*
X77000000Y-109000000D03*
D11*
X74000000Y-109000000D03*
X71000000Y-109000000D03*
X68000000Y-109000000D03*
D12*
X109000000Y-109000000D03*
D11*
X106000000Y-109000000D03*
X103000000Y-109000000D03*
X100000000Y-109000000D03*
D13*
X158000000Y-80000000D03*
D14*
X158000000Y-78000000D03*
X160000000Y-80000000D03*
X160000000Y-78000000D03*
X162000000Y-80000000D03*
X162000000Y-78000000D03*
X164000000Y-80000000D03*
X164000000Y-78000000D03*
X166000000Y-80000000D03*
X166000000Y-78000000D03*
X168000000Y-80000000D03*
X168000000Y-78000000D03*
D10*
X100000000Y-31000000D03*
D11*
X103000000Y-31000000D03*
X106000000Y-31000000D03*
X109000000Y-31000000D03*
D12*
X45000000Y-109000000D03*
D11*
X42000000Y-109000000D03*
X39000000Y-109000000D03*
X36000000Y-109000000D03*
D12*
X141000000Y-109000000D03*
D11*
X138000000Y-109000000D03*
X135000000Y-109000000D03*
X132000000Y-109000000D03*
D13*
X158000000Y-49000000D03*
D14*
X158000000Y-47000000D03*
X160000000Y-49000000D03*
X160000000Y-47000000D03*
X162000000Y-49000000D03*
X162000000Y-47000000D03*
X164000000Y-49000000D03*
X164000000Y-47000000D03*
X166000000Y-49000000D03*
X166000000Y-47000000D03*
X168000000Y-49000000D03*
X168000000Y-47000000D03*
D10*
X68000000Y-31000000D03*
D11*
X71000000Y-31000000D03*
X74000000Y-31000000D03*
X77000000Y-31000000D03*
D15*
X28000000Y-69000000D03*
D16*
X28000000Y-66000000D03*
M02*
