M48
; DRILL file KiCad 10.0.4-10.0.4~ubuntu24.04.1 date 2026-09-06T20:50:57
; FORMAT={-:-/ absolute / metric / decimal}
; #@! TF.CreationDate,2026-09-06T20:50:57-07:00
; #@! TF.GenerationSoftware,Kicad,Pcbnew,10.0.4-10.0.4~ubuntu24.04.1
; #@! TF.FileFunction,Plated,1,4,PTH
FMAT,2
METRIC
; #@! TA.AperFunction,Plated,PTH,ComponentDrill
T1C0.800
; #@! TA.AperFunction,Plated,PTH,ComponentDrill
T2C1.020
%
G90
G05
T1
X158.0Y-47.0
X158.0Y-49.0
X158.0Y-78.0
X158.0Y-80.0
X160.0Y-47.0
X160.0Y-49.0
X160.0Y-78.0
X160.0Y-80.0
X162.0Y-47.0
X162.0Y-49.0
X162.0Y-78.0
X162.0Y-80.0
X164.0Y-47.0
X164.0Y-49.0
X164.0Y-78.0
X164.0Y-80.0
X166.0Y-47.0
X166.0Y-49.0
X166.0Y-78.0
X166.0Y-80.0
X168.0Y-47.0
X168.0Y-49.0
X168.0Y-78.0
X168.0Y-80.0
T2
X28.0Y-66.0
X28.0Y-69.0
X36.0Y-31.0
X36.0Y-109.0
X39.0Y-31.0
X39.0Y-109.0
X42.0Y-31.0
X42.0Y-109.0
X45.0Y-31.0
X45.0Y-109.0
X68.0Y-31.0
X68.0Y-109.0
X71.0Y-31.0
X71.0Y-109.0
X74.0Y-31.0
X74.0Y-109.0
X77.0Y-31.0
X77.0Y-109.0
X100.0Y-31.0
X100.0Y-109.0
X103.0Y-31.0
X103.0Y-109.0
X106.0Y-31.0
X106.0Y-109.0
X109.0Y-31.0
X109.0Y-109.0
X132.0Y-31.0
X132.0Y-109.0
X135.0Y-31.0
X135.0Y-109.0
X138.0Y-31.0
X138.0Y-109.0
X141.0Y-31.0
X141.0Y-109.0
M30
