%TF.GenerationSoftware,KiCad,Pcbnew,10.0.4-10.0.4~ubuntu24.04.1*%
%TF.CreationDate,2026-09-06T20:50:57-07:00*%
%TF.ProjectId,crow-audio-carrier-v1-connector-coupon,63726f77-2d61-4756-9469-6f2d63617272,rev?*%
%TF.SameCoordinates,Original*%
%TF.FileFunction,Legend,Top*%
%TF.FilePolarity,Positive*%
%FSLAX46Y46*%
G04 Gerber Fmt 4.6, Leading zero omitted, Abs format (unit mm)*
G04 Created by KiCad (PCBNEW 10.0.4-10.0.4~ubuntu24.04.1) date 2026-09-06 20:50:57*
%MOMM*%
%LPD*%
G01*
G04 APERTURE LIST*
%ADD10C,0.140000*%
%ADD11C,0.120000*%
G04 APERTURE END LIST*
D10*
X131766666Y-33516553D02*
X131766666Y-34016553D01*
X131766666Y-34016553D02*
X131733333Y-34116553D01*
X131733333Y-34116553D02*
X131666666Y-34183220D01*
X131666666Y-34183220D02*
X131566666Y-34216553D01*
X131566666Y-34216553D02*
X131500000Y-34216553D01*
X132399999Y-33749886D02*
X132399999Y-34216553D01*
X132233333Y-33483220D02*
X132066666Y-33983220D01*
X132066666Y-33983220D02*
X132499999Y-33983220D01*
X35766666Y-33516553D02*
X35766666Y-34016553D01*
X35766666Y-34016553D02*
X35733333Y-34116553D01*
X35733333Y-34116553D02*
X35666666Y-34183220D01*
X35666666Y-34183220D02*
X35566666Y-34216553D01*
X35566666Y-34216553D02*
X35500000Y-34216553D01*
X36466666Y-34216553D02*
X36066666Y-34216553D01*
X36266666Y-34216553D02*
X36266666Y-33516553D01*
X36266666Y-33516553D02*
X36199999Y-33616553D01*
X36199999Y-33616553D02*
X36133333Y-33683220D01*
X36133333Y-33683220D02*
X36066666Y-33716553D01*
X76766666Y-105716553D02*
X76766666Y-106216553D01*
X76766666Y-106216553D02*
X76733333Y-106316553D01*
X76733333Y-106316553D02*
X76666666Y-106383220D01*
X76666666Y-106383220D02*
X76566666Y-106416553D01*
X76566666Y-106416553D02*
X76500000Y-106416553D01*
X77399999Y-105716553D02*
X77266666Y-105716553D01*
X77266666Y-105716553D02*
X77199999Y-105749886D01*
X77199999Y-105749886D02*
X77166666Y-105783220D01*
X77166666Y-105783220D02*
X77099999Y-105883220D01*
X77099999Y-105883220D02*
X77066666Y-106016553D01*
X77066666Y-106016553D02*
X77066666Y-106283220D01*
X77066666Y-106283220D02*
X77099999Y-106349886D01*
X77099999Y-106349886D02*
X77133333Y-106383220D01*
X77133333Y-106383220D02*
X77199999Y-106416553D01*
X77199999Y-106416553D02*
X77333333Y-106416553D01*
X77333333Y-106416553D02*
X77399999Y-106383220D01*
X77399999Y-106383220D02*
X77433333Y-106349886D01*
X77433333Y-106349886D02*
X77466666Y-106283220D01*
X77466666Y-106283220D02*
X77466666Y-106116553D01*
X77466666Y-106116553D02*
X77433333Y-106049886D01*
X77433333Y-106049886D02*
X77399999Y-106016553D01*
X77399999Y-106016553D02*
X77333333Y-105983220D01*
X77333333Y-105983220D02*
X77199999Y-105983220D01*
X77199999Y-105983220D02*
X77133333Y-106016553D01*
X77133333Y-106016553D02*
X77099999Y-106049886D01*
X77099999Y-106049886D02*
X77066666Y-106116553D01*
X108766666Y-105716553D02*
X108766666Y-106216553D01*
X108766666Y-106216553D02*
X108733333Y-106316553D01*
X108733333Y-106316553D02*
X108666666Y-106383220D01*
X108666666Y-106383220D02*
X108566666Y-106416553D01*
X108566666Y-106416553D02*
X108500000Y-106416553D01*
X109033333Y-105716553D02*
X109499999Y-105716553D01*
X109499999Y-105716553D02*
X109199999Y-106416553D01*
X157433333Y-82516553D02*
X157433333Y-83016553D01*
X157433333Y-83016553D02*
X157400000Y-83116553D01*
X157400000Y-83116553D02*
X157333333Y-83183220D01*
X157333333Y-83183220D02*
X157233333Y-83216553D01*
X157233333Y-83216553D02*
X157166667Y-83216553D01*
X158133333Y-83216553D02*
X157733333Y-83216553D01*
X157933333Y-83216553D02*
X157933333Y-82516553D01*
X157933333Y-82516553D02*
X157866666Y-82616553D01*
X157866666Y-82616553D02*
X157800000Y-82683220D01*
X157800000Y-82683220D02*
X157733333Y-82716553D01*
X158800000Y-83216553D02*
X158400000Y-83216553D01*
X158600000Y-83216553D02*
X158600000Y-82516553D01*
X158600000Y-82516553D02*
X158533333Y-82616553D01*
X158533333Y-82616553D02*
X158466667Y-82683220D01*
X158466667Y-82683220D02*
X158400000Y-82716553D01*
X99766666Y-33516553D02*
X99766666Y-34016553D01*
X99766666Y-34016553D02*
X99733333Y-34116553D01*
X99733333Y-34116553D02*
X99666666Y-34183220D01*
X99666666Y-34183220D02*
X99566666Y-34216553D01*
X99566666Y-34216553D02*
X99500000Y-34216553D01*
X100033333Y-33516553D02*
X100466666Y-33516553D01*
X100466666Y-33516553D02*
X100233333Y-33783220D01*
X100233333Y-33783220D02*
X100333333Y-33783220D01*
X100333333Y-33783220D02*
X100399999Y-33816553D01*
X100399999Y-33816553D02*
X100433333Y-33849886D01*
X100433333Y-33849886D02*
X100466666Y-33916553D01*
X100466666Y-33916553D02*
X100466666Y-34083220D01*
X100466666Y-34083220D02*
X100433333Y-34149886D01*
X100433333Y-34149886D02*
X100399999Y-34183220D01*
X100399999Y-34183220D02*
X100333333Y-34216553D01*
X100333333Y-34216553D02*
X100133333Y-34216553D01*
X100133333Y-34216553D02*
X100066666Y-34183220D01*
X100066666Y-34183220D02*
X100033333Y-34149886D01*
X44766666Y-105716553D02*
X44766666Y-106216553D01*
X44766666Y-106216553D02*
X44733333Y-106316553D01*
X44733333Y-106316553D02*
X44666666Y-106383220D01*
X44666666Y-106383220D02*
X44566666Y-106416553D01*
X44566666Y-106416553D02*
X44500000Y-106416553D01*
X45433333Y-105716553D02*
X45099999Y-105716553D01*
X45099999Y-105716553D02*
X45066666Y-106049886D01*
X45066666Y-106049886D02*
X45099999Y-106016553D01*
X45099999Y-106016553D02*
X45166666Y-105983220D01*
X45166666Y-105983220D02*
X45333333Y-105983220D01*
X45333333Y-105983220D02*
X45399999Y-106016553D01*
X45399999Y-106016553D02*
X45433333Y-106049886D01*
X45433333Y-106049886D02*
X45466666Y-106116553D01*
X45466666Y-106116553D02*
X45466666Y-106283220D01*
X45466666Y-106283220D02*
X45433333Y-106349886D01*
X45433333Y-106349886D02*
X45399999Y-106383220D01*
X45399999Y-106383220D02*
X45333333Y-106416553D01*
X45333333Y-106416553D02*
X45166666Y-106416553D01*
X45166666Y-106416553D02*
X45099999Y-106383220D01*
X45099999Y-106383220D02*
X45066666Y-106349886D01*
X140766666Y-105716553D02*
X140766666Y-106216553D01*
X140766666Y-106216553D02*
X140733333Y-106316553D01*
X140733333Y-106316553D02*
X140666666Y-106383220D01*
X140666666Y-106383220D02*
X140566666Y-106416553D01*
X140566666Y-106416553D02*
X140500000Y-106416553D01*
X141199999Y-106016553D02*
X141133333Y-105983220D01*
X141133333Y-105983220D02*
X141099999Y-105949886D01*
X141099999Y-105949886D02*
X141066666Y-105883220D01*
X141066666Y-105883220D02*
X141066666Y-105849886D01*
X141066666Y-105849886D02*
X141099999Y-105783220D01*
X141099999Y-105783220D02*
X141133333Y-105749886D01*
X141133333Y-105749886D02*
X141199999Y-105716553D01*
X141199999Y-105716553D02*
X141333333Y-105716553D01*
X141333333Y-105716553D02*
X141399999Y-105749886D01*
X141399999Y-105749886D02*
X141433333Y-105783220D01*
X141433333Y-105783220D02*
X141466666Y-105849886D01*
X141466666Y-105849886D02*
X141466666Y-105883220D01*
X141466666Y-105883220D02*
X141433333Y-105949886D01*
X141433333Y-105949886D02*
X141399999Y-105983220D01*
X141399999Y-105983220D02*
X141333333Y-106016553D01*
X141333333Y-106016553D02*
X141199999Y-106016553D01*
X141199999Y-106016553D02*
X141133333Y-106049886D01*
X141133333Y-106049886D02*
X141099999Y-106083220D01*
X141099999Y-106083220D02*
X141066666Y-106149886D01*
X141066666Y-106149886D02*
X141066666Y-106283220D01*
X141066666Y-106283220D02*
X141099999Y-106349886D01*
X141099999Y-106349886D02*
X141133333Y-106383220D01*
X141133333Y-106383220D02*
X141199999Y-106416553D01*
X141199999Y-106416553D02*
X141333333Y-106416553D01*
X141333333Y-106416553D02*
X141399999Y-106383220D01*
X141399999Y-106383220D02*
X141433333Y-106349886D01*
X141433333Y-106349886D02*
X141466666Y-106283220D01*
X141466666Y-106283220D02*
X141466666Y-106149886D01*
X141466666Y-106149886D02*
X141433333Y-106083220D01*
X141433333Y-106083220D02*
X141399999Y-106049886D01*
X141399999Y-106049886D02*
X141333333Y-106016553D01*
X157433333Y-51516553D02*
X157433333Y-52016553D01*
X157433333Y-52016553D02*
X157400000Y-52116553D01*
X157400000Y-52116553D02*
X157333333Y-52183220D01*
X157333333Y-52183220D02*
X157233333Y-52216553D01*
X157233333Y-52216553D02*
X157166667Y-52216553D01*
X158133333Y-52216553D02*
X157733333Y-52216553D01*
X157933333Y-52216553D02*
X157933333Y-51516553D01*
X157933333Y-51516553D02*
X157866666Y-51616553D01*
X157866666Y-51616553D02*
X157800000Y-51683220D01*
X157800000Y-51683220D02*
X157733333Y-51716553D01*
X158566667Y-51516553D02*
X158633333Y-51516553D01*
X158633333Y-51516553D02*
X158700000Y-51549886D01*
X158700000Y-51549886D02*
X158733333Y-51583220D01*
X158733333Y-51583220D02*
X158766667Y-51649886D01*
X158766667Y-51649886D02*
X158800000Y-51783220D01*
X158800000Y-51783220D02*
X158800000Y-51949886D01*
X158800000Y-51949886D02*
X158766667Y-52083220D01*
X158766667Y-52083220D02*
X158733333Y-52149886D01*
X158733333Y-52149886D02*
X158700000Y-52183220D01*
X158700000Y-52183220D02*
X158633333Y-52216553D01*
X158633333Y-52216553D02*
X158566667Y-52216553D01*
X158566667Y-52216553D02*
X158500000Y-52183220D01*
X158500000Y-52183220D02*
X158466667Y-52149886D01*
X158466667Y-52149886D02*
X158433333Y-52083220D01*
X158433333Y-52083220D02*
X158400000Y-51949886D01*
X158400000Y-51949886D02*
X158400000Y-51783220D01*
X158400000Y-51783220D02*
X158433333Y-51649886D01*
X158433333Y-51649886D02*
X158466667Y-51583220D01*
X158466667Y-51583220D02*
X158500000Y-51549886D01*
X158500000Y-51549886D02*
X158566667Y-51516553D01*
X67766666Y-33516553D02*
X67766666Y-34016553D01*
X67766666Y-34016553D02*
X67733333Y-34116553D01*
X67733333Y-34116553D02*
X67666666Y-34183220D01*
X67666666Y-34183220D02*
X67566666Y-34216553D01*
X67566666Y-34216553D02*
X67500000Y-34216553D01*
X68066666Y-33583220D02*
X68099999Y-33549886D01*
X68099999Y-33549886D02*
X68166666Y-33516553D01*
X68166666Y-33516553D02*
X68333333Y-33516553D01*
X68333333Y-33516553D02*
X68399999Y-33549886D01*
X68399999Y-33549886D02*
X68433333Y-33583220D01*
X68433333Y-33583220D02*
X68466666Y-33649886D01*
X68466666Y-33649886D02*
X68466666Y-33716553D01*
X68466666Y-33716553D02*
X68433333Y-33816553D01*
X68433333Y-33816553D02*
X68033333Y-34216553D01*
X68033333Y-34216553D02*
X68466666Y-34216553D01*
X27766666Y-73816553D02*
X27766666Y-74316553D01*
X27766666Y-74316553D02*
X27733333Y-74416553D01*
X27733333Y-74416553D02*
X27666666Y-74483220D01*
X27666666Y-74483220D02*
X27566666Y-74516553D01*
X27566666Y-74516553D02*
X27500000Y-74516553D01*
X28133333Y-74516553D02*
X28266666Y-74516553D01*
X28266666Y-74516553D02*
X28333333Y-74483220D01*
X28333333Y-74483220D02*
X28366666Y-74449886D01*
X28366666Y-74449886D02*
X28433333Y-74349886D01*
X28433333Y-74349886D02*
X28466666Y-74216553D01*
X28466666Y-74216553D02*
X28466666Y-73949886D01*
X28466666Y-73949886D02*
X28433333Y-73883220D01*
X28433333Y-73883220D02*
X28399999Y-73849886D01*
X28399999Y-73849886D02*
X28333333Y-73816553D01*
X28333333Y-73816553D02*
X28199999Y-73816553D01*
X28199999Y-73816553D02*
X28133333Y-73849886D01*
X28133333Y-73849886D02*
X28099999Y-73883220D01*
X28099999Y-73883220D02*
X28066666Y-73949886D01*
X28066666Y-73949886D02*
X28066666Y-74116553D01*
X28066666Y-74116553D02*
X28099999Y-74183220D01*
X28099999Y-74183220D02*
X28133333Y-74216553D01*
X28133333Y-74216553D02*
X28199999Y-74249886D01*
X28199999Y-74249886D02*
X28333333Y-74249886D01*
X28333333Y-74249886D02*
X28399999Y-74216553D01*
X28399999Y-74216553D02*
X28433333Y-74183220D01*
X28433333Y-74183220D02*
X28466666Y-74116553D01*
D11*
X128565000Y-22970000D02*
X129565000Y-21970000D01*
X128565000Y-32090000D02*
X128565000Y-22970000D01*
X128565000Y-32090000D02*
X130990000Y-32090000D01*
X129565000Y-21970000D02*
X143435000Y-21970000D01*
X133010000Y-32090000D02*
X134348233Y-32090000D01*
X135651767Y-32090000D02*
X137348233Y-32090000D01*
X138651767Y-32090000D02*
X140348233Y-32090000D01*
X143435000Y-21970000D02*
X144435000Y-22970000D01*
X144435000Y-22970000D02*
X144435000Y-32090000D01*
X144435000Y-32090000D02*
X141651767Y-32090000D01*
X32565000Y-22970000D02*
X33565000Y-21970000D01*
X32565000Y-32090000D02*
X32565000Y-22970000D01*
X32565000Y-32090000D02*
X34990000Y-32090000D01*
X33565000Y-21970000D02*
X47435000Y-21970000D01*
X37010000Y-32090000D02*
X38348233Y-32090000D01*
X39651767Y-32090000D02*
X41348233Y-32090000D01*
X42651767Y-32090000D02*
X44348233Y-32090000D01*
X47435000Y-21970000D02*
X48435000Y-22970000D01*
X48435000Y-22970000D02*
X48435000Y-32090000D01*
X48435000Y-32090000D02*
X45651767Y-32090000D01*
X64565000Y-107910000D02*
X67348233Y-107910000D01*
X64565000Y-117030000D02*
X64565000Y-107910000D01*
X65565000Y-118030000D02*
X64565000Y-117030000D01*
X70348233Y-107910000D02*
X68651767Y-107910000D01*
X73348233Y-107910000D02*
X71651767Y-107910000D01*
X75990000Y-107910000D02*
X74651767Y-107910000D01*
X79435000Y-118030000D02*
X65565000Y-118030000D01*
X80435000Y-107910000D02*
X78010000Y-107910000D01*
X80435000Y-107910000D02*
X80435000Y-117030000D01*
X80435000Y-117030000D02*
X79435000Y-118030000D01*
X96565000Y-107910000D02*
X99348233Y-107910000D01*
X96565000Y-117030000D02*
X96565000Y-107910000D01*
X97565000Y-118030000D02*
X96565000Y-117030000D01*
X102348233Y-107910000D02*
X100651767Y-107910000D01*
X105348233Y-107910000D02*
X103651767Y-107910000D01*
X107990000Y-107910000D02*
X106651767Y-107910000D01*
X111435000Y-118030000D02*
X97565000Y-118030000D01*
X112435000Y-107910000D02*
X110010000Y-107910000D01*
X112435000Y-107910000D02*
X112435000Y-117030000D01*
X112435000Y-117030000D02*
X111435000Y-118030000D01*
X156890000Y-76890000D02*
X156890000Y-79000000D01*
X156890000Y-79000000D02*
X159000000Y-79000000D01*
X156890000Y-81110000D02*
X156890000Y-80000000D01*
X158000000Y-81110000D02*
X156890000Y-81110000D01*
X159000000Y-79000000D02*
X159000000Y-81110000D01*
X159000000Y-81110000D02*
X169110000Y-81110000D01*
X169110000Y-76890000D02*
X156890000Y-76890000D01*
X169110000Y-81110000D02*
X169110000Y-76890000D01*
X96565000Y-22970000D02*
X97565000Y-21970000D01*
X96565000Y-32090000D02*
X96565000Y-22970000D01*
X96565000Y-32090000D02*
X98990000Y-32090000D01*
X97565000Y-21970000D02*
X111435000Y-21970000D01*
X101010000Y-32090000D02*
X102348233Y-32090000D01*
X103651767Y-32090000D02*
X105348233Y-32090000D01*
X106651767Y-32090000D02*
X108348233Y-32090000D01*
X111435000Y-21970000D02*
X112435000Y-22970000D01*
X112435000Y-22970000D02*
X112435000Y-32090000D01*
X112435000Y-32090000D02*
X109651767Y-32090000D01*
X32565000Y-107910000D02*
X35348233Y-107910000D01*
X32565000Y-117030000D02*
X32565000Y-107910000D01*
X33565000Y-118030000D02*
X32565000Y-117030000D01*
X38348233Y-107910000D02*
X36651767Y-107910000D01*
X41348233Y-107910000D02*
X39651767Y-107910000D01*
X43990000Y-107910000D02*
X42651767Y-107910000D01*
X47435000Y-118030000D02*
X33565000Y-118030000D01*
X48435000Y-107910000D02*
X46010000Y-107910000D01*
X48435000Y-107910000D02*
X48435000Y-117030000D01*
X48435000Y-117030000D02*
X47435000Y-118030000D01*
X128565000Y-107910000D02*
X131348233Y-107910000D01*
X128565000Y-117030000D02*
X128565000Y-107910000D01*
X129565000Y-118030000D02*
X128565000Y-117030000D01*
X134348233Y-107910000D02*
X132651767Y-107910000D01*
X137348233Y-107910000D02*
X135651767Y-107910000D01*
X139990000Y-107910000D02*
X138651767Y-107910000D01*
X143435000Y-118030000D02*
X129565000Y-118030000D01*
X144435000Y-107910000D02*
X142010000Y-107910000D01*
X144435000Y-107910000D02*
X144435000Y-117030000D01*
X144435000Y-117030000D02*
X143435000Y-118030000D01*
X156890000Y-45890000D02*
X156890000Y-48000000D01*
X156890000Y-48000000D02*
X159000000Y-48000000D01*
X156890000Y-50110000D02*
X156890000Y-49000000D01*
X158000000Y-50110000D02*
X156890000Y-50110000D01*
X159000000Y-48000000D02*
X159000000Y-50110000D01*
X159000000Y-50110000D02*
X169110000Y-50110000D01*
X169110000Y-45890000D02*
X156890000Y-45890000D01*
X169110000Y-50110000D02*
X169110000Y-45890000D01*
X64565000Y-22970000D02*
X65565000Y-21970000D01*
X64565000Y-32090000D02*
X64565000Y-22970000D01*
X64565000Y-32090000D02*
X66990000Y-32090000D01*
X65565000Y-21970000D02*
X79435000Y-21970000D01*
X69010000Y-32090000D02*
X70348233Y-32090000D01*
X71651767Y-32090000D02*
X73348233Y-32090000D01*
X74651767Y-32090000D02*
X76348233Y-32090000D01*
X79435000Y-21970000D02*
X80435000Y-22970000D01*
X80435000Y-22970000D02*
X80435000Y-32090000D01*
X80435000Y-32090000D02*
X77651767Y-32090000D01*
X18970000Y-63565000D02*
X19970000Y-62565000D01*
X18970000Y-71435000D02*
X18970000Y-63565000D01*
X19970000Y-62565000D02*
X29090000Y-62565000D01*
X19970000Y-72435000D02*
X18970000Y-71435000D01*
X29090000Y-62565000D02*
X29090000Y-65348000D01*
X29090000Y-66652000D02*
X29090000Y-67990000D01*
X29090000Y-70010000D02*
X29090000Y-72435000D01*
X29090000Y-72435000D02*
X19970000Y-72435000D01*
M02*
