%TF.GenerationSoftware,KiCad,Pcbnew,10.0.4-10.0.4~ubuntu24.04.1*%
%TF.CreationDate,2026-09-16T08:30:16-07:00*%
%TF.ProjectId,crow_mic_pod_v3,63726f77-5f6d-4696-935f-706f645f7633,rev?*%
%TF.SameCoordinates,Original*%
%TF.FileFunction,Copper,L1,Top*%
%TF.FilePolarity,Positive*%
%FSLAX46Y46*%
G04 Gerber Fmt 4.6, Leading zero omitted, Abs format (unit mm)*
G04 Created by KiCad (PCBNEW 10.0.4-10.0.4~ubuntu24.04.1) date 2026-09-16 08:30:16*
%MOMM*%
%LPD*%
G01*
G04 APERTURE LIST*
G04 Aperture macros list*
%AMRoundRect*
0 Rectangle with rounded corners*
0 $1 Rounding radius*
0 $2 $3 $4 $5 $6 $7 $8 $9 X,Y pos of 4 corners*
0 Add a 4 corners polygon primitive as box body*
4,1,4,$2,$3,$4,$5,$6,$7,$8,$9,$2,$3,0*
0 Add four circle primitives for the rounded corners*
1,1,$1+$1,$2,$3*
1,1,$1+$1,$4,$5*
1,1,$1+$1,$6,$7*
1,1,$1+$1,$8,$9*
0 Add four rect primitives between the rounded corners*
20,1,$1+$1,$2,$3,$4,$5,0*
20,1,$1+$1,$4,$5,$6,$7,0*
20,1,$1+$1,$6,$7,$8,$9,0*
20,1,$1+$1,$8,$9,$2,$3,0*%
G04 Aperture macros list end*
%TA.AperFunction,SMDPad,CuDef*%
%ADD10RoundRect,0.135000X0.185000X-0.135000X0.185000X0.135000X-0.185000X0.135000X-0.185000X-0.135000X0*%
%TD*%
%TA.AperFunction,SMDPad,CuDef*%
%ADD11RoundRect,0.250000X-1.000000X-0.650000X1.000000X-0.650000X1.000000X0.650000X-1.000000X0.650000X0*%
%TD*%
%TA.AperFunction,SMDPad,CuDef*%
%ADD12RoundRect,0.250000X-0.900000X1.000000X-0.900000X-1.000000X0.900000X-1.000000X0.900000X1.000000X0*%
%TD*%
%TA.AperFunction,SMDPad,CuDef*%
%ADD13RoundRect,0.087500X0.250000X0.087500X-0.250000X0.087500X-0.250000X-0.087500X0.250000X-0.087500X0*%
%TD*%
%TA.AperFunction,SMDPad,CuDef*%
%ADD14RoundRect,0.125000X0.125000X-0.600000X0.125000X0.600000X-0.125000X0.600000X-0.125000X-0.600000X0*%
%TD*%
%TA.AperFunction,SMDPad,CuDef*%
%ADD15R,1.890000X1.570000*%
%TD*%
%TA.AperFunction,SMDPad,CuDef*%
%ADD16RoundRect,0.140000X0.140000X0.170000X-0.140000X0.170000X-0.140000X-0.170000X0.140000X-0.170000X0*%
%TD*%
%TA.AperFunction,ComponentPad*%
%ADD17R,1.300000X1.300000*%
%TD*%
%TA.AperFunction,ComponentPad*%
%ADD18C,1.300000*%
%TD*%
%TA.AperFunction,ComponentPad*%
%ADD19O,1.500000X2.500000*%
%TD*%
%TA.AperFunction,SMDPad,CuDef*%
%ADD20C,1.500000*%
%TD*%
%TA.AperFunction,SMDPad,CuDef*%
%ADD21RoundRect,0.250000X-0.262500X-0.450000X0.262500X-0.450000X0.262500X0.450000X-0.262500X0.450000X0*%
%TD*%
%TA.AperFunction,SMDPad,CuDef*%
%ADD22RoundRect,0.250000X-0.325000X-1.100000X0.325000X-1.100000X0.325000X1.100000X-0.325000X1.100000X0*%
%TD*%
%TA.AperFunction,SMDPad,CuDef*%
%ADD23RoundRect,0.140000X-0.140000X-0.170000X0.140000X-0.170000X0.140000X0.170000X-0.140000X0.170000X0*%
%TD*%
%TA.AperFunction,SMDPad,CuDef*%
%ADD24RoundRect,0.250000X0.625000X-0.312500X0.625000X0.312500X-0.625000X0.312500X-0.625000X-0.312500X0*%
%TD*%
%TA.AperFunction,SMDPad,CuDef*%
%ADD25RoundRect,0.250000X-0.375000X-0.625000X0.375000X-0.625000X0.375000X0.625000X-0.375000X0.625000X0*%
%TD*%
%TA.AperFunction,SMDPad,CuDef*%
%ADD26RoundRect,0.150000X-0.825000X-0.150000X0.825000X-0.150000X0.825000X0.150000X-0.825000X0.150000X0*%
%TD*%
%TA.AperFunction,SMDPad,CuDef*%
%ADD27RoundRect,0.140000X0.170000X-0.140000X0.170000X0.140000X-0.170000X0.140000X-0.170000X-0.140000X0*%
%TD*%
%TA.AperFunction,SMDPad,CuDef*%
%ADD28RoundRect,0.250000X1.100000X-0.325000X1.100000X0.325000X-1.100000X0.325000X-1.100000X-0.325000X0*%
%TD*%
%TA.AperFunction,SMDPad,CuDef*%
%ADD29RoundRect,0.250000X-0.250000X-0.475000X0.250000X-0.475000X0.250000X0.475000X-0.250000X0.475000X0*%
%TD*%
%TA.AperFunction,ComponentPad*%
%ADD30R,2.200000X2.200000*%
%TD*%
%TA.AperFunction,ComponentPad*%
%ADD31C,2.200000*%
%TD*%
%TA.AperFunction,SMDPad,CuDef*%
%ADD32RoundRect,0.225000X0.250000X-0.225000X0.250000X0.225000X-0.250000X0.225000X-0.250000X-0.225000X0*%
%TD*%
%TA.AperFunction,SMDPad,CuDef*%
%ADD33RoundRect,0.250000X0.475000X-0.250000X0.475000X0.250000X-0.475000X0.250000X-0.475000X-0.250000X0*%
%TD*%
%TA.AperFunction,SMDPad,CuDef*%
%ADD34RoundRect,0.250000X0.250000X0.475000X-0.250000X0.475000X-0.250000X-0.475000X0.250000X-0.475000X0*%
%TD*%
%TA.AperFunction,ViaPad*%
%ADD35C,0.600000*%
%TD*%
%TA.AperFunction,Conductor*%
%ADD36C,0.500000*%
%TD*%
%TA.AperFunction,Conductor*%
%ADD37C,0.400000*%
%TD*%
%TA.AperFunction,Conductor*%
%ADD38C,0.260000*%
%TD*%
%TA.AperFunction,Conductor*%
%ADD39C,0.300000*%
%TD*%
%TA.AperFunction,Conductor*%
%ADD40C,0.250000*%
%TD*%
%ADD41C,0.300000*%
%ADD42C,0.350000*%
%ADD43O,1.000000X2.000000*%
G04 APERTURE END LIST*
D10*
%TO.P,R1,1*%
%TO.N,5V_QUIET*%
X36200000Y-50510000D03*
%TO.P,R1,2*%
%TO.N,LDO_FB*%
X36200000Y-49490000D03*
%TD*%
%TO.P,R9,1*%
%TO.N,PRE_OUT*%
X51000000Y-54510000D03*
%TO.P,R9,2*%
%TO.N,PRE_FB*%
X51000000Y-53490000D03*
%TD*%
%TO.P,R8,1*%
%TO.N,MIC_AC*%
X51000000Y-51510000D03*
%TO.P,R8,2*%
%TO.N,PRE_FB*%
X51000000Y-50490000D03*
%TD*%
D11*
%TO.P,D1,1*%
%TO.N,VIN_PROTECTED*%
X37500000Y-35600000D03*
%TO.P,D1,2*%
%TO.N,12V_FUSED*%
X41500000Y-35600000D03*
%TD*%
D12*
%TO.P,D2,1*%
%TO.N,VIN_PROTECTED*%
X27300000Y-35850000D03*
%TO.P,D2,2*%
%TO.N,GND*%
X27300000Y-40150000D03*
%TD*%
D13*
%TO.P,U3,1*%
%TO.N,unconnected-(U3-NC1-Pad1)*%
X48712500Y-35250000D03*
%TO.P,U3,2*%
%TO.N,unconnected-(U3-NC2-Pad2)*%
X48712500Y-34750000D03*
%TO.P,U3,3*%
%TO.N,AUDIO_P*%
X48712500Y-34250000D03*
%TO.P,U3,4*%
%TO.N,GND*%
X47287500Y-34250000D03*
%TO.P,U3,5*%
%TO.N,AUDIO_N*%
X47287500Y-35250000D03*
%TD*%
D14*
%TO.P,U2,1*%
%TO.N,5V_QUIET*%
X34025000Y-47150000D03*
%TO.P,U2,2*%
%TO.N,LDO_FB*%
X34675000Y-47150000D03*
%TO.P,U2,3*%
%TO.N,unconnected-(U2-NC-Pad3)*%
X35325000Y-47150000D03*
%TO.P,U2,4*%
%TO.N,GND*%
X35975000Y-47150000D03*
%TO.P,U2,5*%
%TO.N,VIN_PROTECTED*%
X35975000Y-42850000D03*
%TO.P,U2,6*%
%TO.N,LDO_NR*%
X35325000Y-42850000D03*
%TO.P,U2,7*%
%TO.N,unconnected-(U2-DNC-Pad7)*%
X34675000Y-42850000D03*
%TO.P,U2,8*%
%TO.N,VIN_PROTECTED*%
X34025000Y-42850000D03*
D15*
%TO.P,U2,9*%
%TO.N,GND*%
X35000000Y-45000000D03*
%TD*%
D16*
%TO.P,C6,1*%
%TO.N,5V_QUIET*%
X32480000Y-47000000D03*
%TO.P,C6,2*%
%TO.N,GND*%
X31520000Y-47000000D03*
%TD*%
D17*
%TO.P,J1,1*%
%TO.N,12V_POD*%
X45500000Y-25860000D03*
D18*
%TO.P,J1,2*%
%TO.N,GND*%
X46520000Y-29860000D03*
%TO.P,J1,3*%
%TO.N,12V_POD*%
X47540000Y-25860000D03*
%TO.P,J1,4*%
%TO.N,AUDIO_N*%
X48560000Y-29860000D03*
%TO.P,J1,5*%
%TO.N,AUDIO_P*%
X49580000Y-25860000D03*
%TO.P,J1,6*%
%TO.N,GND*%
X50600000Y-29860000D03*
%TO.P,J1,7*%
%TO.N,12V_POD*%
X51620000Y-25860000D03*
%TO.P,J1,8*%
%TO.N,GND*%
X52640000Y-29860000D03*
D19*
%TO.P,J1,9*%
%TO.N,POD_SHIELD*%
X56470000Y-23510000D03*
%TO.P,J1,10*%
X41670000Y-23510000D03*
%TD*%
D10*
%TO.P,R10,1*%
%TO.N,PRE_OUT*%
X64000000Y-51510000D03*
%TO.P,R10,2*%
%TO.N,OUTP_FB*%
X64000000Y-50490000D03*
%TD*%
%TO.P,R4,1*%
%TO.N,MIC_BIAS*%
X69000000Y-40010000D03*
%TO.P,R4,2*%
%TO.N,MIC_RAW*%
X69000000Y-38990000D03*
%TD*%
D20*
%TO.P,TP1,1*%
%TO.N,12V_POD*%
X23500000Y-31000000D03*
%TD*%
%TO.P,TP2,1*%
%TO.N,VIN_PROTECTED*%
X24000000Y-43000000D03*
%TD*%
%TO.P,TP3,1*%
%TO.N,5V_QUIET*%
X24000000Y-47000000D03*
%TD*%
D10*
%TO.P,R2,1*%
%TO.N,LDO_FB*%
X38000000Y-50510000D03*
%TO.P,R2,2*%
%TO.N,GND*%
X38000000Y-49490000D03*
%TD*%
%TO.P,R6,1*%
%TO.N,5V_QUIET*%
X46000000Y-45510000D03*
%TO.P,R6,2*%
%TO.N,VREF_RAW*%
X46000000Y-44490000D03*
%TD*%
D21*
%TO.P,R13,1*%
%TO.N,PRE_OUT*%
X61087500Y-36000000D03*
%TO.P,R13,2*%
%TO.N,AUDIO_N*%
X62912500Y-36000000D03*
%TD*%
D22*
%TO.P,C7,1*%
%TO.N,MIC_BIAS*%
X67525000Y-34000000D03*
%TO.P,C7,2*%
%TO.N,GND*%
X70475000Y-34000000D03*
%TD*%
D23*
%TO.P,C3,1*%
%TO.N,5V_QUIET*%
X34120000Y-49200000D03*
%TO.P,C3,2*%
%TO.N,LDO_FB*%
X35080000Y-49200000D03*
%TD*%
D24*
%TO.P,R14,1*%
%TO.N,VIN_PROTECTED*%
X28000000Y-47462500D03*
%TO.P,R14,2*%
%TO.N,GND*%
X28000000Y-44537500D03*
%TD*%
D10*
%TO.P,R7,1*%
%TO.N,VREF_RAW*%
X46000000Y-48510000D03*
%TO.P,R7,2*%
%TO.N,GND*%
X46000000Y-47490000D03*
%TD*%
D25*
%TO.P,F1,1*%
%TO.N,12V_POD*%
X32100000Y-33500000D03*
%TO.P,F1,2*%
%TO.N,12V_FUSED*%
X34900000Y-33500000D03*
%TD*%
D20*
%TO.P,TP7,1*%
%TO.N,GND*%
X45000000Y-56000000D03*
%TD*%
%TO.P,TP6,1*%
%TO.N,AUDIO_N*%
X62900000Y-32500000D03*
%TD*%
D26*
%TO.P,U1,1*%
%TO.N,VREF*%
X55025000Y-45190000D03*
%TO.P,U1,2*%
X55025000Y-46460000D03*
%TO.P,U1,3*%
%TO.N,VREF_RAW*%
X55025000Y-47730000D03*
%TO.P,U1,4*%
%TO.N,5V_QUIET*%
X55025000Y-49000000D03*
%TO.P,U1,5*%
%TO.N,VREF*%
X55025000Y-50270000D03*
%TO.P,U1,6*%
%TO.N,PRE_FB*%
X55025000Y-51540000D03*
%TO.P,U1,7*%
%TO.N,PRE_OUT*%
X55025000Y-52810000D03*
%TO.P,U1,8*%
%TO.N,OUTP_DRV*%
X59975000Y-52810000D03*
%TO.P,U1,9*%
%TO.N,OUTP_FB*%
X59975000Y-51540000D03*
%TO.P,U1,10*%
%TO.N,VREF*%
X59975000Y-50270000D03*
%TO.P,U1,11*%
%TO.N,GND*%
X59975000Y-49000000D03*
%TO.P,U1,12*%
%TO.N,VREF*%
X59975000Y-47730000D03*
%TO.P,U1,13*%
%TO.N,SPARE_BUF*%
X59975000Y-46460000D03*
%TO.P,U1,14*%
X59975000Y-45190000D03*
%TD*%
D27*
%TO.P,C4,1*%
%TO.N,LDO_NR*%
X35300000Y-40980000D03*
%TO.P,C4,2*%
%TO.N,GND*%
X35300000Y-40020000D03*
%TD*%
D16*
%TO.P,C2,1*%
%TO.N,VIN_PROTECTED*%
X32480000Y-44200000D03*
%TO.P,C2,2*%
%TO.N,GND*%
X31520000Y-44200000D03*
%TD*%
D28*
%TO.P,C1,1*%
%TO.N,VIN_PROTECTED*%
X31500000Y-42675000D03*
%TO.P,C1,2*%
%TO.N,GND*%
X31500000Y-39725000D03*
%TD*%
D20*
%TO.P,TP4,1*%
%TO.N,VREF*%
X24000000Y-51000000D03*
%TD*%
D10*
%TO.P,R5,1*%
%TO.N,MIC_AC*%
X64500000Y-43510000D03*
%TO.P,R5,2*%
%TO.N,VREF*%
X64500000Y-42490000D03*
%TD*%
D20*
%TO.P,TP5,1*%
%TO.N,AUDIO_P*%
X59700000Y-32500000D03*
%TD*%
D21*
%TO.P,R12,1*%
%TO.N,OUTP_DRV*%
X56087500Y-36000000D03*
%TO.P,R12,2*%
%TO.N,AUDIO_P*%
X57912500Y-36000000D03*
%TD*%
D29*
%TO.P,C11,1*%
%TO.N,5V_QUIET*%
X58050000Y-41000000D03*
%TO.P,C11,2*%
%TO.N,GND*%
X59950000Y-41000000D03*
%TD*%
D10*
%TO.P,R11,1*%
%TO.N,OUTP_DRV*%
X64000000Y-54510000D03*
%TO.P,R11,2*%
%TO.N,OUTP_FB*%
X64000000Y-53490000D03*
%TD*%
D30*
%TO.P,MK1,1*%
%TO.N,MIC_RAW*%
X73000000Y-45000000D03*
D31*
%TO.P,MK1,2*%
%TO.N,GND*%
X73000000Y-40000000D03*
%TD*%
D21*
%TO.P,R3,1*%
%TO.N,5V_QUIET*%
X63087500Y-39000000D03*
%TO.P,R3,2*%
%TO.N,MIC_BIAS*%
X64912500Y-39000000D03*
%TD*%
D32*
%TO.P,C8,1*%
%TO.N,MIC_RAW*%
X67500000Y-43775000D03*
%TO.P,C8,2*%
%TO.N,MIC_AC*%
X67500000Y-42225000D03*
%TD*%
D16*
%TO.P,C10,1*%
%TO.N,5V_QUIET*%
X53080000Y-49000000D03*
%TO.P,C10,2*%
%TO.N,GND*%
X52120000Y-49000000D03*
%TD*%
D33*
%TO.P,C9,1*%
%TO.N,VREF_RAW*%
X49000000Y-47450000D03*
%TO.P,C9,2*%
%TO.N,GND*%
X49000000Y-45550000D03*
%TD*%
D34*
%TO.P,C5,1*%
%TO.N,5V_QUIET*%
X32600000Y-49500000D03*
%TO.P,C5,2*%
%TO.N,GND*%
X30700000Y-49500000D03*
%TD*%
D35*
%TO.N,5V_QUIET*%
X55300000Y-42100000D03*
X37000000Y-51500000D03*
X53700000Y-49000000D03*
X39000000Y-49200000D03*
X56900000Y-42100000D03*
X52500000Y-46500000D03*
%TO.N,PRE_OUT*%
X56300000Y-52300000D03*
X61500000Y-52100000D03*
%TO.N,PRE_FB*%
X51000000Y-53100000D03*
X52200000Y-51800000D03*
%TO.N,MIC_AC*%
X67000000Y-42700000D03*
X65099999Y-43400000D03*
%TO.N,VIN_PROTECTED*%
X29500000Y-42800000D03*
X37000000Y-42850000D03*
%TO.N,12V_FUSED*%
X39300000Y-35100000D03*
X37700000Y-33500000D03*
%TO.N,GND*%
X71800000Y-34000000D03*
X28950000Y-41150000D03*
X28810000Y-45670000D03*
X61200000Y-41000000D03*
X61700000Y-49000000D03*
X32030000Y-45120000D03*
X65000000Y-23000000D03*
X30000000Y-23000000D03*
X50480000Y-45550000D03*
X30000000Y-30000000D03*
X52630000Y-49920000D03*
X36980000Y-47150000D03*
X30000000Y-37000000D03*
X33600000Y-39730000D03*
X36220000Y-40540000D03*
X37460000Y-48610000D03*
X51000000Y-44000000D03*
X72000000Y-23000000D03*
X29620000Y-50240000D03*
X44000000Y-51000000D03*
X58000000Y-51000000D03*
X37000000Y-37000000D03*
X47288000Y-33400000D03*
X36700000Y-45000000D03*
X32030000Y-47920000D03*
X37000000Y-44000000D03*
X72000000Y-51000000D03*
X72000000Y-30000000D03*
X37000000Y-30000000D03*
X44000000Y-37000000D03*
X65000000Y-30000000D03*
X37000000Y-23000000D03*
X46500000Y-56000000D03*
X45460000Y-46610000D03*
X29310000Y-48000000D03*
X72000000Y-37000000D03*
%TO.N,MIC_BIAS*%
X67099999Y-37900000D03*
X66000000Y-39000000D03*
%TO.N,OUTP_DRV*%
X55000000Y-36000000D03*
X55000000Y-37500000D03*
%TD*%
%TO.N,5V_QUIET*%
D36*
X53700000Y-49000000D02*
X53080000Y-49000000D01*
X53500000Y-44800000D02*
X55300000Y-43000000D01*
X55025000Y-49000000D02*
X53700000Y-49000000D01*
X46900000Y-44800000D02*
X46000000Y-45510000D01*
X33981200Y-47858300D02*
X34120000Y-49200000D01*
D37*
X34120000Y-49200000D02*
X34120000Y-49430000D01*
D36*
X46900000Y-44100000D02*
X46900000Y-44800000D01*
X33981200Y-47858300D02*
X32600000Y-49500000D01*
X34025000Y-47850000D02*
X34120000Y-49200000D01*
D37*
X36200000Y-50510000D02*
X37000000Y-51500000D01*
X35200000Y-50510000D02*
X36200000Y-50510000D01*
D36*
X34025000Y-47150000D02*
X32479999Y-47000000D01*
X55300000Y-43000000D02*
X55300000Y-42100000D01*
X48200000Y-44500000D02*
X50500000Y-44500000D01*
X33000000Y-51100000D02*
X28100000Y-51100000D01*
X56900000Y-42100000D02*
X58000000Y-41000000D01*
X46500000Y-43700000D02*
X46900000Y-44100000D01*
X60000000Y-39000000D02*
X63087000Y-39000000D01*
D37*
X34120000Y-49430000D02*
X35200000Y-50510000D01*
D36*
X46900000Y-44800000D02*
X47400000Y-45300000D01*
X46900000Y-44800000D02*
X46190000Y-45510000D01*
X52500000Y-46500000D02*
X53500000Y-45400000D01*
X28100000Y-51100000D02*
X24000000Y-47000000D01*
X32600000Y-49500000D02*
X33000000Y-51100000D01*
X34025000Y-47150000D02*
X34025000Y-47850000D01*
X58000000Y-41000000D02*
X58050000Y-41000000D01*
X46190000Y-45510000D02*
X46000000Y-45510000D01*
X44300000Y-43700000D02*
X46500000Y-43700000D01*
X53500000Y-45400000D02*
X53500000Y-44800000D01*
X58000000Y-41000000D02*
X60000000Y-39000000D01*
X50500000Y-44500000D02*
X52500000Y-46500000D01*
X39000000Y-49200000D02*
X44300000Y-43700000D01*
X47400000Y-45300000D02*
X48200000Y-44500000D01*
X34025000Y-47850000D02*
X32600000Y-49500000D01*
%TO.N,LDO_FB*%
D38*
X35080000Y-49200000D02*
X36200000Y-49490000D01*
X37400000Y-50510000D02*
X38000000Y-50510000D01*
X36200000Y-49490000D02*
X36900000Y-49490000D01*
X34675000Y-47700000D02*
X35080000Y-49200000D01*
X34675000Y-47150000D02*
X34675000Y-47700000D01*
X36900000Y-49490000D02*
X37400000Y-50510000D01*
%TO.N,PRE_OUT*%
X29100000Y-34800000D02*
X28500000Y-34200000D01*
X64000000Y-51500000D02*
X63200000Y-52300000D01*
X55800000Y-52800000D02*
X55000000Y-52800000D01*
X49400000Y-52900000D02*
X50300000Y-53800000D01*
X28500000Y-34200000D02*
X26100000Y-34200000D01*
X64700000Y-44800000D02*
X65800000Y-43700000D01*
X42800000Y-34300000D02*
X36000000Y-34300000D01*
X64000000Y-39700000D02*
X64000000Y-37900000D01*
X61100000Y-35400000D02*
X61100000Y-36000000D01*
X65200000Y-40100000D02*
X64400000Y-40100000D01*
X46800000Y-38300000D02*
X42800000Y-34300000D01*
X55000000Y-52800000D02*
X55025000Y-52810000D01*
X64000000Y-37900000D02*
X62500000Y-37900000D01*
X64000000Y-37900000D02*
X64000000Y-34700000D01*
X24300000Y-52900000D02*
X49400000Y-52900000D01*
X35500000Y-34800000D02*
X29100000Y-34800000D01*
X26100000Y-34200000D02*
X22800000Y-37500000D01*
X50900000Y-54500000D02*
X51000000Y-54500000D01*
X65800000Y-40700000D02*
X65200000Y-40100000D01*
X64700000Y-50900000D02*
X64700000Y-44800000D01*
X50300000Y-53800000D02*
X50300000Y-53900000D01*
X63200000Y-52300000D02*
X61700000Y-52300000D01*
X36000000Y-34300000D02*
X35500000Y-34800000D01*
X65800000Y-43700000D02*
X65800000Y-40700000D01*
X62500000Y-37900000D02*
X62100000Y-38300000D01*
X64000000Y-34700000D02*
X63200000Y-33900000D01*
X61700000Y-52300000D02*
X61500000Y-52100000D01*
X64400000Y-40100000D02*
X64000000Y-39700000D01*
X62600000Y-33900000D02*
X61100000Y-35400000D01*
X64500000Y-51100000D02*
X64700000Y-50900000D01*
X64000000Y-51500000D02*
X64400000Y-51100000D01*
X56300000Y-52300000D02*
X55800000Y-52800000D01*
X22800000Y-37500000D02*
X22800000Y-51400000D01*
X63200000Y-33900000D02*
X62600000Y-33900000D01*
X64400000Y-51100000D02*
X64500000Y-51100000D01*
X50300000Y-53900000D02*
X50900000Y-54500000D01*
X62100000Y-38300000D02*
X46800000Y-38300000D01*
X22800000Y-51400000D02*
X24300000Y-52900000D01*
%TO.N,PRE_FB*%
X52400000Y-51500000D02*
X52200000Y-51700000D01*
X51400000Y-50900000D02*
X51800000Y-50900000D01*
X51800000Y-50900000D02*
X52400000Y-51500000D01*
X51000000Y-50500000D02*
X51400000Y-50900000D01*
X52400000Y-51500000D02*
X55000000Y-51500000D01*
X55000000Y-51500000D02*
X55025000Y-51540000D01*
X51000000Y-53100000D02*
X51000000Y-53500000D01*
%TO.N,MIC_AC*%
X62700000Y-46000000D02*
X62600000Y-46000000D01*
X58000000Y-44500000D02*
X57000000Y-45500000D01*
X65250000Y-43510000D02*
X65200000Y-43500000D01*
X67500000Y-42200000D02*
X67500000Y-42225000D01*
X57000000Y-52600000D02*
X55800000Y-53800000D01*
X67000000Y-42700000D02*
X67500000Y-42200000D01*
X62600000Y-46000000D02*
X61100000Y-44500000D01*
X64500000Y-43510000D02*
X65250000Y-43510000D01*
X55800000Y-53800000D02*
X53300000Y-53800000D01*
X65200000Y-43500000D02*
X62700000Y-46000000D01*
X57000000Y-45500000D02*
X57000000Y-52600000D01*
X53300000Y-53800000D02*
X51000000Y-51500000D01*
X61100000Y-44500000D02*
X58000000Y-44500000D01*
%TO.N,VIN_PROTECTED*%
D36*
X36800000Y-35850000D02*
X27300000Y-35850000D01*
X27300000Y-35850000D02*
X25200000Y-37000000D01*
X30000000Y-45500000D02*
X28000000Y-47462000D01*
X24000000Y-40000000D02*
X24000000Y-43000000D01*
X24000000Y-43000000D02*
X29500000Y-42800000D01*
X35975000Y-42850000D02*
X37000000Y-42850000D01*
X25200000Y-37000000D02*
X24000000Y-40000000D01*
X37500000Y-35600000D02*
X36800000Y-35850000D01*
X33479999Y-42850000D02*
X32479999Y-44200000D01*
X29500000Y-42800000D02*
X30000000Y-45500000D01*
X33479999Y-42850000D02*
X31500000Y-42675000D01*
X34025000Y-42850000D02*
X33479999Y-42850000D01*
X29500000Y-42800000D02*
X31500000Y-42675000D01*
%TO.N,12V_FUSED*%
X40900000Y-35000000D02*
X39400000Y-35000000D01*
X37700000Y-33500000D02*
X34900000Y-33500000D01*
X41500000Y-35600000D02*
X40900000Y-35000000D01*
%TO.N,GND*%
D39*
X31500000Y-39725000D02*
X33600000Y-39730000D01*
X59950000Y-41000000D02*
X61200000Y-41000000D01*
X35975000Y-47150000D02*
X36980000Y-47150000D01*
X27300000Y-40150000D02*
X28950000Y-41150000D01*
X38000000Y-49490000D02*
X37460000Y-48610000D01*
X35000000Y-45000000D02*
X36700000Y-45000000D01*
X49000000Y-45550000D02*
X50480000Y-45550000D01*
X31520000Y-44200000D02*
X32030000Y-45120000D01*
X31520000Y-47000000D02*
X32030000Y-47920000D01*
X35300000Y-40020000D02*
X36220000Y-40540000D01*
D40*
X30510000Y-49000000D02*
X29310000Y-48000000D01*
D36*
X47288000Y-34250000D02*
X47288000Y-33400000D01*
D39*
X28000000Y-44537500D02*
X28810000Y-45670000D01*
X30700000Y-49500000D02*
X29620000Y-50240000D01*
X52120000Y-49000000D02*
X52630000Y-49920000D01*
X59975000Y-49000000D02*
X61700000Y-49000000D01*
X45000000Y-56000000D02*
X46500000Y-56000000D01*
X46000000Y-47490000D02*
X45460000Y-46610000D01*
X70475000Y-34000000D02*
X71800000Y-34000000D01*
%TO.N,AUDIO_P*%
D38*
X49600000Y-34250000D02*
X51400000Y-36000000D01*
X49580000Y-25860000D02*
X49580000Y-31500000D01*
X48712000Y-34250000D02*
X49600000Y-34250000D01*
X49580000Y-31500000D02*
X48712000Y-32366999D01*
X55200000Y-35200000D02*
X55500000Y-34900000D01*
X59600000Y-32500000D02*
X59700000Y-32500000D01*
X48712000Y-32366999D02*
X48712000Y-34250000D01*
X57000000Y-35100000D02*
X57900000Y-36000000D01*
X53900000Y-36000000D02*
X54700000Y-35200000D01*
X56800000Y-34900000D02*
X57000000Y-35100000D01*
X54700000Y-35200000D02*
X55200000Y-35200000D01*
X57000000Y-35100000D02*
X59600000Y-32500000D01*
X51400000Y-36000000D02*
X53900000Y-36000000D01*
X55500000Y-34900000D02*
X56800000Y-34900000D01*
%TO.N,AUDIO_N*%
X48560000Y-30700000D02*
X46400000Y-32860000D01*
X60200000Y-35200000D02*
X62900000Y-32500000D01*
X48300000Y-35900000D02*
X50600000Y-35900000D01*
X46400000Y-34900000D02*
X46750000Y-35250000D01*
X47288000Y-36250000D02*
X47800000Y-35700000D01*
X55500000Y-37100000D02*
X60500000Y-37100000D01*
X48100000Y-35700000D02*
X48300000Y-35900000D01*
X47288000Y-35250000D02*
X47288000Y-36250000D01*
X60200000Y-35200000D02*
X60200000Y-36800000D01*
X54400000Y-36500000D02*
X54700000Y-36800000D01*
X54700000Y-36800000D02*
X55200000Y-36800000D01*
X51200000Y-36500000D02*
X54400000Y-36500000D01*
X62913000Y-36000000D02*
X62913000Y-34700000D01*
X46400000Y-32860000D02*
X46400000Y-34900000D01*
X48560000Y-29860000D02*
X48560000Y-30700000D01*
X47800000Y-35700000D02*
X48100000Y-35700000D01*
X50600000Y-35900000D02*
X51200000Y-36500000D01*
X46750000Y-35250000D02*
X47288000Y-35250000D01*
X55200000Y-36800000D02*
X55500000Y-37100000D01*
X60500000Y-37100000D02*
X60200000Y-36800000D01*
X60500000Y-37100000D02*
X61600000Y-37100000D01*
X61600000Y-37100000D02*
X62900000Y-35800000D01*
X62900000Y-35800000D02*
X62913000Y-34700000D01*
%TO.N,LDO_NR*%
X35325000Y-42850000D02*
X35300000Y-40980000D01*
%TO.N,12V_POD*%
D36*
X36100000Y-32600000D02*
X35600000Y-32100000D01*
X39700000Y-33500000D02*
X38900000Y-33500000D01*
X35600000Y-32100000D02*
X33500000Y-32100000D01*
X32100000Y-33500000D02*
X29600000Y-31000000D01*
X29600000Y-31000000D02*
X23500000Y-31000000D01*
X33500000Y-32100000D02*
X32100000Y-33500000D01*
X38900000Y-33500000D02*
X38000000Y-32600000D01*
X44500000Y-28700000D02*
X39700000Y-33500000D01*
X44500000Y-26900000D02*
X44500000Y-28700000D01*
X38000000Y-32600000D02*
X36100000Y-32600000D01*
X45500000Y-25900000D02*
X44500000Y-26900000D01*
%TO.N,POD_SHIELD*%
D38*
X56500000Y-23500000D02*
X41700000Y-23500000D01*
%TO.N,OUTP_FB*%
X58900000Y-52100000D02*
X58600000Y-52400000D01*
X64000000Y-53490000D02*
X65000000Y-53490000D01*
X58600000Y-53200000D02*
X58900000Y-53500000D01*
X60000000Y-51500000D02*
X59975000Y-51540000D01*
X58900000Y-53500000D02*
X65000000Y-53500000D01*
X63600000Y-50900000D02*
X61100000Y-50900000D01*
X58600000Y-52400000D02*
X58600000Y-53200000D01*
X59400000Y-52100000D02*
X58900000Y-52100000D01*
X60000000Y-51500000D02*
X59400000Y-52100000D01*
X61100000Y-50900000D02*
X60500000Y-51500000D01*
X60500000Y-51500000D02*
X60000000Y-51500000D01*
X64000000Y-50500000D02*
X63600000Y-50900000D01*
%TO.N,MIC_BIAS*%
D36*
X68700000Y-40000000D02*
X69000000Y-40000000D01*
X68200000Y-39000000D02*
X68200000Y-39500000D01*
X67099999Y-37900000D02*
X68200000Y-39000000D01*
X68200000Y-39500000D02*
X68700000Y-40000000D01*
X67500000Y-37500000D02*
X67500000Y-34000000D01*
X67099999Y-37900000D02*
X67500000Y-37500000D01*
X67500000Y-34000000D02*
X67525000Y-34000000D01*
X64912000Y-39000000D02*
X66000000Y-39000000D01*
%TO.N,MIC_RAW*%
D38*
X69100000Y-39000000D02*
X69000000Y-39000000D01*
X67500000Y-43800000D02*
X68700000Y-45000000D01*
X69000000Y-42300000D02*
X69000000Y-41100000D01*
X69000000Y-41100000D02*
X69700000Y-40400000D01*
X67500000Y-43775000D02*
X67500000Y-43800000D01*
X69700000Y-40400000D02*
X69700000Y-39600000D01*
X68700000Y-45000000D02*
X73000000Y-45000000D01*
X69700000Y-39600000D02*
X69100000Y-39000000D01*
X67500000Y-43800000D02*
X69000000Y-42300000D01*
%TO.N,VREF_RAW*%
X49000000Y-47450000D02*
X52000000Y-47730000D01*
X47000000Y-48510000D02*
X47000000Y-47450000D01*
X44500000Y-44490000D02*
X44500000Y-48510000D01*
X46000000Y-48510000D02*
X47000000Y-48510000D01*
X46000000Y-44490000D02*
X44500000Y-44490000D01*
X47000000Y-47450000D02*
X49000000Y-47450000D01*
X44500000Y-48510000D02*
X46000000Y-48510000D01*
X52000000Y-47730000D02*
X55025000Y-47730000D01*
%TO.N,VREF*%
X58600000Y-51700000D02*
X58600000Y-51100000D01*
X56400000Y-46600000D02*
X55000000Y-45200000D01*
X59400000Y-50300000D02*
X58500000Y-49400000D01*
X39500000Y-49800000D02*
X38700000Y-50600000D01*
X60000000Y-50300000D02*
X59975000Y-50270000D01*
X37100000Y-52300000D02*
X25300000Y-52300000D01*
X58500000Y-48700000D02*
X59500000Y-47700000D01*
X55000000Y-50300000D02*
X54500000Y-50800000D01*
X56500000Y-45300000D02*
X59300000Y-42500000D01*
X56400000Y-46600000D02*
X56500000Y-46500000D01*
X56500000Y-46500000D02*
X56500000Y-45300000D01*
X37200000Y-52200000D02*
X37100000Y-52300000D01*
X59500000Y-47700000D02*
X60000000Y-47700000D01*
X56400000Y-49400000D02*
X56400000Y-46600000D01*
X55500000Y-50300000D02*
X56400000Y-49400000D01*
X55000000Y-45200000D02*
X55025000Y-45190000D01*
X55000000Y-50300000D02*
X55500000Y-50300000D01*
X53500000Y-46500000D02*
X53500000Y-46460000D01*
X37400000Y-52200000D02*
X37200000Y-52200000D01*
X50300000Y-49800000D02*
X50300000Y-51900000D01*
X50300000Y-49800000D02*
X39500000Y-49800000D01*
X38700000Y-50900000D02*
X37400000Y-52200000D01*
X54500000Y-50800000D02*
X52400000Y-50800000D01*
X55000000Y-45200000D02*
X53700000Y-46500000D01*
X55025000Y-46460000D02*
X53500000Y-46460000D01*
X53100000Y-54300000D02*
X56000000Y-54300000D01*
X56000000Y-54300000D02*
X58600000Y-51700000D01*
X60000000Y-47700000D02*
X59975000Y-47730000D01*
X53700000Y-46500000D02*
X53500000Y-46500000D01*
X59300000Y-42500000D02*
X64500000Y-42500000D01*
X59400000Y-50300000D02*
X60000000Y-50300000D01*
X50600000Y-52200000D02*
X51000000Y-52200000D01*
X51400000Y-49800000D02*
X50300000Y-49800000D01*
X52400000Y-50800000D02*
X51400000Y-49800000D01*
X55025000Y-50270000D02*
X55000000Y-50300000D01*
X50300000Y-51900000D02*
X50600000Y-52200000D01*
X25300000Y-52300000D02*
X24000000Y-51000000D01*
X51000000Y-52200000D02*
X53100000Y-54300000D01*
X58500000Y-49400000D02*
X58500000Y-48700000D01*
X58600000Y-51100000D02*
X59400000Y-50300000D01*
X38700000Y-50600000D02*
X38700000Y-50900000D01*
%TO.N,OUTP_DRV*%
X64700000Y-51600000D02*
X64700000Y-51900000D01*
X46500000Y-25400000D02*
X47100000Y-24800000D01*
X45400000Y-35400000D02*
X45400000Y-27800000D01*
X60000000Y-52800000D02*
X59975000Y-52810000D01*
X64500000Y-36400000D02*
X66800000Y-38700000D01*
X66800000Y-38700000D02*
X66800000Y-41500000D01*
X53700000Y-31100000D02*
X53900000Y-31300000D01*
X52000000Y-24800000D02*
X52200000Y-25000000D01*
X53900000Y-31300000D02*
X63300000Y-31300000D01*
X45400000Y-27800000D02*
X46600000Y-26600000D01*
X47500000Y-37500000D02*
X45400000Y-35400000D01*
X56087000Y-36000000D02*
X55000000Y-36000000D01*
X52200000Y-25000000D02*
X53700000Y-26400000D01*
X46500000Y-26200000D02*
X46600000Y-26600000D01*
X64099999Y-34100000D02*
X64500000Y-34500000D01*
X66800000Y-41500000D02*
X66300000Y-42000000D01*
X46500000Y-26200000D02*
X46500000Y-25400000D01*
X65200000Y-51100000D02*
X64700000Y-51600000D01*
X47100000Y-24800000D02*
X52000000Y-24800000D01*
X55000000Y-37500000D02*
X47500000Y-37500000D01*
X64700000Y-54500000D02*
X64000000Y-54500000D01*
X65500000Y-53700000D02*
X64700000Y-54500000D01*
X64500000Y-34500000D02*
X64500000Y-36400000D01*
X66300000Y-46500000D02*
X65200000Y-47600000D01*
X53700000Y-26400000D02*
X53700000Y-31100000D01*
X65500000Y-53300000D02*
X65500000Y-53700000D01*
X64400000Y-52200000D02*
X65500000Y-53300000D01*
X66300000Y-42000000D02*
X66300000Y-46500000D01*
X63300000Y-31300000D02*
X64099999Y-32100000D01*
X64700000Y-51900000D02*
X64400000Y-52200000D01*
X65200000Y-47600000D02*
X65200000Y-51100000D01*
X64099999Y-32100000D02*
X64099999Y-34100000D01*
X64400000Y-52200000D02*
X63800000Y-52800000D01*
X63800000Y-52800000D02*
X60000000Y-52800000D01*
%TO.N,SPARE_BUF*%
X60000000Y-45200000D02*
X59975000Y-45190000D01*
X59975000Y-46460000D02*
X60000000Y-46500000D01*
X60000000Y-46500000D02*
X60000000Y-45200000D01*
%TD*%
%TA.AperFunction,Conductor*%
%TO.N,GND*%
G36*
X49812539Y-50250185D02*
G01*
X49858294Y-50302989D01*
X49869500Y-50354500D01*
X49869500Y-51843323D01*
X49869500Y-51956677D01*
X49892012Y-52040691D01*
X49892011Y-52040691D01*
X49892012Y-52040693D01*
X49898836Y-52066163D01*
X49898837Y-52066165D01*
X49955511Y-52164329D01*
X49955513Y-52164332D01*
X49955514Y-52164333D01*
X50035667Y-52244486D01*
X50035668Y-52244487D01*
X50255513Y-52464332D01*
X50255514Y-52464333D01*
X50335667Y-52544486D01*
X50391313Y-52576613D01*
X50433833Y-52601162D01*
X50436706Y-52601931D01*
X50445925Y-52607077D01*
X50465540Y-52627059D01*
X50487341Y-52644623D01*
X50489681Y-52651650D01*
X50494871Y-52656938D01*
X50500569Y-52684353D01*
X50509413Y-52710914D01*
X50507602Y-52718189D01*
X50509090Y-52725345D01*
X50499787Y-52749598D01*
X50492881Y-52777354D01*
X50440423Y-52868215D01*
X50398085Y-53026223D01*
X50361719Y-53085883D01*
X50298872Y-53116412D01*
X50229497Y-53108117D01*
X50190629Y-53081810D01*
X49751556Y-52642738D01*
X49751554Y-52642735D01*
X49664334Y-52555515D01*
X49664329Y-52555511D01*
X49566170Y-52498839D01*
X49566167Y-52498838D01*
X49558300Y-52496730D01*
X49558296Y-52496728D01*
X49479440Y-52475599D01*
X49456677Y-52469500D01*
X49456676Y-52469500D01*
X38038679Y-52469500D01*
X37971640Y-52449815D01*
X37925885Y-52397011D01*
X37915941Y-52327853D01*
X37944966Y-52264297D01*
X37950998Y-52257819D01*
X38068317Y-52140500D01*
X39044486Y-51164333D01*
X39078800Y-51104899D01*
X39079628Y-51103466D01*
X39101159Y-51066172D01*
X39101158Y-51066172D01*
X39101162Y-51066167D01*
X39130500Y-50956676D01*
X39130500Y-50829680D01*
X39150185Y-50762641D01*
X39166819Y-50741999D01*
X39642000Y-50266819D01*
X39703323Y-50233334D01*
X39729681Y-50230500D01*
X49745500Y-50230500D01*
X49812539Y-50250185D01*
G37*
%TD.AperFunction*%
%TA.AperFunction,Conductor*%
G36*
X58642539Y-44950185D02*
G01*
X58688294Y-45002989D01*
X58699500Y-45054500D01*
X58699500Y-45394269D01*
X58702353Y-45424699D01*
X58702353Y-45424701D01*
X58737211Y-45524316D01*
X58747207Y-45552882D01*
X58827850Y-45662150D01*
X58913321Y-45725230D01*
X58955571Y-45780877D01*
X58961030Y-45850534D01*
X58927962Y-45912083D01*
X58913321Y-45924769D01*
X58827850Y-45987850D01*
X58747207Y-46097117D01*
X58747206Y-46097119D01*
X58702353Y-46225298D01*
X58702353Y-46225300D01*
X58699500Y-46255730D01*
X58699500Y-46664269D01*
X58702353Y-46694699D01*
X58702353Y-46694701D01*
X58747206Y-46822880D01*
X58747207Y-46822882D01*
X58827850Y-46932150D01*
X58913321Y-46995230D01*
X58955571Y-47050877D01*
X58961030Y-47120534D01*
X58927962Y-47182083D01*
X58913321Y-47194769D01*
X58869636Y-47227011D01*
X58827850Y-47257850D01*
X58747207Y-47367117D01*
X58747206Y-47367119D01*
X58702353Y-47495298D01*
X58702353Y-47495300D01*
X58699500Y-47525730D01*
X58699500Y-47840319D01*
X58679815Y-47907358D01*
X58663181Y-47928000D01*
X58155515Y-48435665D01*
X58155513Y-48435667D01*
X58137952Y-48466085D01*
X58133094Y-48474500D01*
X58098838Y-48533833D01*
X58070522Y-48639511D01*
X58069500Y-48643324D01*
X58069500Y-48644079D01*
X58069500Y-49456676D01*
X58092641Y-49543042D01*
X58098837Y-49566165D01*
X58098839Y-49566170D01*
X58155511Y-49664329D01*
X58155515Y-49664334D01*
X58242732Y-49751551D01*
X58242738Y-49751556D01*
X58663181Y-50171999D01*
X58677884Y-50198926D01*
X58694477Y-50224745D01*
X58695368Y-50230945D01*
X58696666Y-50233322D01*
X58699500Y-50259680D01*
X58699500Y-50340319D01*
X58679815Y-50407358D01*
X58663181Y-50428000D01*
X58255515Y-50835665D01*
X58255511Y-50835670D01*
X58198839Y-50933830D01*
X58198838Y-50933833D01*
X58169500Y-51043324D01*
X58169500Y-51470319D01*
X58149815Y-51537358D01*
X58133181Y-51558000D01*
X57642181Y-52049000D01*
X57580858Y-52082485D01*
X57511166Y-52077501D01*
X57455233Y-52035629D01*
X57430816Y-51970165D01*
X57430500Y-51961319D01*
X57430500Y-45729680D01*
X57450185Y-45662641D01*
X57466819Y-45641999D01*
X58142000Y-44966819D01*
X58203323Y-44933334D01*
X58229681Y-44930500D01*
X58575500Y-44930500D01*
X58642539Y-44950185D01*
G37*
%TD.AperFunction*%
%TA.AperFunction,Conductor*%
G36*
X43255703Y-35364967D02*
G01*
X43262180Y-35370998D01*
X46455513Y-38564332D01*
X46455514Y-38564333D01*
X46535667Y-38644486D01*
X46535668Y-38644487D01*
X46535670Y-38644488D01*
X46545219Y-38650001D01*
X46633833Y-38701162D01*
X46743323Y-38730500D01*
X46743324Y-38730500D01*
X59191613Y-38730500D01*
X59258652Y-38750185D01*
X59304407Y-38802989D01*
X59314351Y-38872147D01*
X59285326Y-38935703D01*
X59279294Y-38942181D01*
X58283294Y-39938181D01*
X58221971Y-39971666D01*
X58195613Y-39974500D01*
X57756898Y-39974500D01*
X57717853Y-39979188D01*
X57668438Y-39985122D01*
X57527656Y-40040639D01*
X57407077Y-40132077D01*
X57315639Y-40252656D01*
X57260122Y-40393438D01*
X57255653Y-40430657D01*
X57249500Y-40481898D01*
X57249500Y-40481903D01*
X57249500Y-40920612D01*
X57229815Y-40987651D01*
X57213181Y-41008293D01*
X56707567Y-41513906D01*
X56674894Y-41535740D01*
X56675253Y-41536361D01*
X56668218Y-41540422D01*
X56668216Y-41540423D01*
X56633265Y-41560602D01*
X56531285Y-41619479D01*
X56531282Y-41619481D01*
X56419481Y-41731282D01*
X56419475Y-41731290D01*
X56340426Y-41868209D01*
X56340423Y-41868216D01*
X56299500Y-42020943D01*
X56299500Y-42179057D01*
X56340038Y-42330345D01*
X56340423Y-42331783D01*
X56340426Y-42331790D01*
X56419475Y-42468709D01*
X56419479Y-42468714D01*
X56419480Y-42468716D01*
X56531284Y-42580520D01*
X56531286Y-42580521D01*
X56531290Y-42580524D01*
X56668209Y-42659573D01*
X56668216Y-42659577D01*
X56820943Y-42700500D01*
X56820945Y-42700500D01*
X56979055Y-42700500D01*
X56979057Y-42700500D01*
X57131784Y-42659577D01*
X57268716Y-42580520D01*
X57380520Y-42468716D01*
X57459577Y-42331784D01*
X57459577Y-42331780D01*
X57463640Y-42324745D01*
X57464262Y-42325104D01*
X57486092Y-42292431D01*
X57716705Y-42061819D01*
X57778028Y-42028334D01*
X57804386Y-42025500D01*
X58343097Y-42025500D01*
X58343102Y-42025500D01*
X58431564Y-42014877D01*
X58572342Y-41959361D01*
X58692922Y-41867922D01*
X58725850Y-41824500D01*
X58789486Y-41740584D01*
X58791317Y-41741972D01*
X58832607Y-41701689D01*
X58901058Y-41687682D01*
X58966216Y-41712905D01*
X58998066Y-41749234D01*
X59121409Y-41962810D01*
X59127605Y-41988341D01*
X59137436Y-42012708D01*
X59135716Y-42021757D01*
X59137889Y-42030708D01*
X59129299Y-42055536D01*
X59124395Y-42081350D01*
X59118056Y-42088032D01*
X59115045Y-42096738D01*
X59094393Y-42112982D01*
X59076314Y-42132045D01*
X59076030Y-42132210D01*
X59035668Y-42155513D01*
X59035665Y-42155515D01*
X58955512Y-42235669D01*
X56401929Y-44789251D01*
X56340606Y-44822736D01*
X56270914Y-44817752D01*
X56214981Y-44775880D01*
X56214616Y-44775389D01*
X56172150Y-44717850D01*
X56062882Y-44637207D01*
X56062880Y-44637206D01*
X55934700Y-44592353D01*
X55904270Y-44589500D01*
X55904266Y-44589500D01*
X54788387Y-44589500D01*
X54721348Y-44569815D01*
X54675593Y-44517011D01*
X54665649Y-44447853D01*
X54694674Y-44384297D01*
X54700706Y-44377819D01*
X55220013Y-43858512D01*
X55740510Y-43338015D01*
X55812984Y-43212485D01*
X55823368Y-43173731D01*
X55850500Y-43072475D01*
X55850500Y-42378362D01*
X55858167Y-42339822D01*
X55857473Y-42339636D01*
X55859577Y-42331783D01*
X55900500Y-42179057D01*
X55900500Y-42020943D01*
X55859577Y-41868216D01*
X55841152Y-41836303D01*
X55780524Y-41731290D01*
X55780518Y-41731282D01*
X55668717Y-41619481D01*
X55668709Y-41619475D01*
X55531790Y-41540426D01*
X55531786Y-41540424D01*
X55531784Y-41540423D01*
X55379057Y-41499500D01*
X55220943Y-41499500D01*
X55068216Y-41540423D01*
X55068209Y-41540426D01*
X54931290Y-41619475D01*
X54931282Y-41619481D01*
X54819481Y-41731282D01*
X54819475Y-41731290D01*
X54740426Y-41868209D01*
X54740423Y-41868216D01*
X54699500Y-42020943D01*
X54699500Y-42179057D01*
X54740423Y-42331783D01*
X54742527Y-42339636D01*
X54741832Y-42339822D01*
X54749500Y-42378362D01*
X54749500Y-42720613D01*
X54729815Y-42787652D01*
X54713181Y-42808294D01*
X53059491Y-44461983D01*
X53059489Y-44461985D01*
X53036822Y-44501247D01*
X53014154Y-44540510D01*
X53011455Y-44545185D01*
X52987017Y-44587512D01*
X52987016Y-44587513D01*
X52985719Y-44592354D01*
X52949500Y-44727525D01*
X52949500Y-44727527D01*
X52949500Y-45139232D01*
X52929815Y-45206271D01*
X52917253Y-45222643D01*
X52568500Y-45606271D01*
X52508839Y-45642635D01*
X52438989Y-45640971D01*
X52389066Y-45610541D01*
X50838016Y-44059491D01*
X50838015Y-44059490D01*
X50712485Y-43987016D01*
X50632631Y-43965619D01*
X50632630Y-43965618D01*
X50588593Y-43953818D01*
X50572475Y-43949500D01*
X48127525Y-43949500D01*
X48067369Y-43965618D01*
X48067369Y-43965619D01*
X47987515Y-43987016D01*
X47987513Y-43987016D01*
X47987513Y-43987017D01*
X47861986Y-44059489D01*
X47861983Y-44059491D01*
X47662181Y-44259294D01*
X47600858Y-44292779D01*
X47531166Y-44287795D01*
X47475233Y-44245923D01*
X47450816Y-44180459D01*
X47450500Y-44171613D01*
X47450500Y-44027527D01*
X47450500Y-44027525D01*
X47412984Y-43887515D01*
X47412982Y-43887512D01*
X47412982Y-43887510D01*
X47412981Y-43887509D01*
X47394291Y-43855137D01*
X47394289Y-43855135D01*
X47386378Y-43841432D01*
X47340510Y-43761985D01*
X46838015Y-43259490D01*
X46712485Y-43187016D01*
X46712480Y-43187014D01*
X46662906Y-43173730D01*
X46662906Y-43173731D01*
X46617690Y-43161615D01*
X46572475Y-43149500D01*
X46572474Y-43149500D01*
X44367293Y-43149500D01*
X44362269Y-43148253D01*
X44294912Y-43149500D01*
X44227525Y-43149500D01*
X44227523Y-43149500D01*
X44223405Y-43150042D01*
X44223146Y-43150061D01*
X44221456Y-43150316D01*
X44221455Y-43150315D01*
X44217350Y-43150934D01*
X44153691Y-43169261D01*
X44151482Y-43169875D01*
X44087512Y-43187016D01*
X44083682Y-43188602D01*
X44083683Y-43188603D01*
X44082085Y-43189264D01*
X44081878Y-43189369D01*
X44078061Y-43191033D01*
X44021274Y-43225235D01*
X44021273Y-43225234D01*
X44020229Y-43225862D01*
X43961985Y-43259491D01*
X43958325Y-43263150D01*
X43955049Y-43265123D01*
X43953885Y-43265825D01*
X43953883Y-43265827D01*
X43907882Y-43313561D01*
X43907883Y-43313562D01*
X43907087Y-43314387D01*
X43859491Y-43361985D01*
X43856903Y-43366464D01*
X43847885Y-43375824D01*
X38795028Y-48619354D01*
X38767738Y-48640698D01*
X38631287Y-48719477D01*
X38631282Y-48719481D01*
X38519481Y-48831282D01*
X38519475Y-48831290D01*
X38440426Y-48968209D01*
X38440423Y-48968216D01*
X38399500Y-49120943D01*
X38399500Y-49279057D01*
X38400723Y-49283619D01*
X38440423Y-49431783D01*
X38440426Y-49431790D01*
X38519475Y-49568709D01*
X38519479Y-49568714D01*
X38519480Y-49568716D01*
X38631284Y-49680520D01*
X38631285Y-49680521D01*
X38631287Y-49680522D01*
X38731849Y-49738581D01*
X38749100Y-49756674D01*
X38769116Y-49771657D01*
X38772796Y-49781525D01*
X38780064Y-49789147D01*
X38784795Y-49813695D01*
X38793533Y-49837121D01*
X38791294Y-49847411D01*
X38793288Y-49857754D01*
X38783994Y-49880967D01*
X38778681Y-49905394D01*
X38769082Y-49918217D01*
X38767320Y-49922619D01*
X38757531Y-49933649D01*
X38647356Y-50043825D01*
X38586033Y-50077310D01*
X38516341Y-50072326D01*
X38486040Y-50055914D01*
X38469323Y-50043576D01*
X38390794Y-49985619D01*
X38390792Y-49985618D01*
X38266880Y-49942258D01*
X38237461Y-49939500D01*
X37762546Y-49939500D01*
X37733120Y-49942258D01*
X37724320Y-49945338D01*
X37654541Y-49948899D01*
X37593915Y-49914169D01*
X37572026Y-49882875D01*
X37571091Y-49880967D01*
X37304990Y-49338119D01*
X37301162Y-49323833D01*
X37280128Y-49287401D01*
X37261609Y-49249622D01*
X37259813Y-49247565D01*
X37245845Y-49228021D01*
X37244486Y-49225667D01*
X37214735Y-49195916D01*
X37187072Y-49164221D01*
X37174793Y-49155974D01*
X37164333Y-49145514D01*
X37127896Y-49124477D01*
X37092973Y-49101022D01*
X37078977Y-49096234D01*
X37066167Y-49088838D01*
X37066166Y-49088837D01*
X37066165Y-49088837D01*
X37048724Y-49084163D01*
X37025528Y-49077948D01*
X36985722Y-49064331D01*
X36970964Y-49063328D01*
X36959309Y-49060205D01*
X36956680Y-49059500D01*
X36956676Y-49059500D01*
X36914602Y-49059500D01*
X36872630Y-49056649D01*
X36858117Y-49059500D01*
X36758801Y-49059500D01*
X36691762Y-49039815D01*
X36685167Y-49035270D01*
X36590794Y-48965619D01*
X36590792Y-48965618D01*
X36466880Y-48922258D01*
X36437461Y-48919500D01*
X35962546Y-48919500D01*
X35933122Y-48922258D01*
X35880085Y-48940816D01*
X35861145Y-48941782D01*
X35843128Y-48947710D01*
X35812227Y-48944278D01*
X35810306Y-48944377D01*
X35808050Y-48943815D01*
X35705528Y-48917269D01*
X35645563Y-48881409D01*
X35619570Y-48838186D01*
X35613852Y-48821843D01*
X35534999Y-48715001D01*
X35428157Y-48636148D01*
X35428156Y-48636147D01*
X35428154Y-48636146D01*
X35420003Y-48631838D01*
X35416692Y-48631288D01*
X35395810Y-48612378D01*
X35372924Y-48595961D01*
X35368993Y-48588094D01*
X35364902Y-48584389D01*
X35350948Y-48551974D01*
X35311166Y-48404631D01*
X35312695Y-48334782D01*
X35351747Y-48276844D01*
X35415922Y-48249217D01*
X35484847Y-48260672D01*
X35493999Y-48265580D01*
X35599805Y-48328152D01*
X35599814Y-48328156D01*
X35724999Y-48364525D01*
X35725000Y-48364525D01*
X36225000Y-48364525D01*
X36350185Y-48328156D01*
X36350191Y-48328154D01*
X36486108Y-48247773D01*
X36486116Y-48247767D01*
X36597767Y-48136116D01*
X36597773Y-48136108D01*
X36678155Y-48000188D01*
X36678156Y-48000185D01*
X36722210Y-47848553D01*
X36722211Y-47848547D01*
X36724999Y-47813118D01*
X36725000Y-47813105D01*
X36725000Y-47400000D01*
X36225000Y-47400000D01*
X36225000Y-48364525D01*
X35725000Y-48364525D01*
X35725000Y-48128110D01*
X35744685Y-48061071D01*
X35761320Y-48040428D01*
X35798524Y-48003224D01*
X35798528Y-48003220D01*
X35859719Y-47883126D01*
X35860135Y-47880500D01*
X35875500Y-47783493D01*
X35875500Y-46900000D01*
X36225000Y-46900000D01*
X36725000Y-46900000D01*
X36725000Y-46486894D01*
X36724999Y-46486881D01*
X36722211Y-46451452D01*
X36722210Y-46451446D01*
X36678156Y-46299814D01*
X36678155Y-46299811D01*
X36597773Y-46163891D01*
X36597767Y-46163883D01*
X36486116Y-46052232D01*
X36486108Y-46052226D01*
X36350188Y-45971844D01*
X36350187Y-45971843D01*
X36225000Y-45935472D01*
X36225000Y-46900000D01*
X35875500Y-46900000D01*
X35875500Y-46516506D01*
X35859720Y-46416878D01*
X35859719Y-46416876D01*
X35859719Y-46416874D01*
X35798528Y-46296780D01*
X35798526Y-46296778D01*
X35798523Y-46296774D01*
X35761319Y-46259570D01*
X35727834Y-46198247D01*
X35725000Y-46171889D01*
X35725000Y-45935472D01*
X35599812Y-45971843D01*
X35599811Y-45971844D01*
X35463891Y-46052226D01*
X35463883Y-46052232D01*
X35427937Y-46088180D01*
X35366615Y-46121666D01*
X35340255Y-46124500D01*
X35166507Y-46124500D01*
X35066875Y-46140280D01*
X35066874Y-46140280D01*
X35056290Y-46145673D01*
X34987620Y-46158566D01*
X34943710Y-46145673D01*
X34933124Y-46140280D01*
X34833493Y-46124500D01*
X34833488Y-46124500D01*
X34516512Y-46124500D01*
X34516507Y-46124500D01*
X34416875Y-46140280D01*
X34416874Y-46140280D01*
X34406290Y-46145673D01*
X34337620Y-46158566D01*
X34293710Y-46145673D01*
X34283124Y-46140280D01*
X34183493Y-46124500D01*
X34183488Y-46124500D01*
X33866512Y-46124500D01*
X33866507Y-46124500D01*
X33766878Y-46140279D01*
X33646778Y-46201473D01*
X33646774Y-46201476D01*
X33551476Y-46296774D01*
X33551473Y-46296778D01*
X33551472Y-46296780D01*
X33498625Y-46400499D01*
X33490279Y-46416878D01*
X33488557Y-46427754D01*
X33458627Y-46490889D01*
X33399315Y-46527819D01*
X33354102Y-46531775D01*
X32931779Y-46490773D01*
X32870128Y-46467124D01*
X32848885Y-46451446D01*
X32828157Y-46436148D01*
X32828155Y-46436147D01*
X32702826Y-46392291D01*
X32702814Y-46392289D01*
X32673070Y-46389500D01*
X32673066Y-46389500D01*
X32286934Y-46389500D01*
X32286930Y-46389500D01*
X32257185Y-46392289D01*
X32257173Y-46392291D01*
X32131844Y-46436147D01*
X32025001Y-46515001D01*
X31946147Y-46621844D01*
X31902291Y-46747173D01*
X31902289Y-46747185D01*
X31899500Y-46776929D01*
X31899500Y-47223070D01*
X31902289Y-47252814D01*
X31902291Y-47252826D01*
X31946147Y-47378155D01*
X31946148Y-47378157D01*
X32025001Y-47484999D01*
X32131843Y-47563852D01*
X32170003Y-47577204D01*
X32257173Y-47607708D01*
X32257177Y-47607708D01*
X32257181Y-47607710D01*
X32272057Y-47609105D01*
X32286930Y-47610500D01*
X32286934Y-47610500D01*
X32673070Y-47610500D01*
X32702809Y-47607711D01*
X32702809Y-47607710D01*
X32702819Y-47607710D01*
X32750854Y-47590901D01*
X32803784Y-47584523D01*
X33205413Y-47623516D01*
X33270236Y-47649587D01*
X33310674Y-47706565D01*
X33313888Y-47776361D01*
X33288316Y-47826765D01*
X32780525Y-48430329D01*
X32722303Y-48468956D01*
X32685639Y-48474500D01*
X32306898Y-48474500D01*
X32267853Y-48479188D01*
X32218438Y-48485122D01*
X32077656Y-48540639D01*
X31957077Y-48632077D01*
X31860514Y-48759416D01*
X31858686Y-48758030D01*
X31817361Y-48798326D01*
X31748906Y-48812315D01*
X31683755Y-48787073D01*
X31642593Y-48730615D01*
X31641607Y-48727755D01*
X31634359Y-48705882D01*
X31634356Y-48705875D01*
X31542315Y-48556654D01*
X31418345Y-48432684D01*
X31269124Y-48340643D01*
X31269119Y-48340641D01*
X31102697Y-48285494D01*
X31102690Y-48285493D01*
X30999986Y-48275000D01*
X30950000Y-48275000D01*
X30950000Y-49376000D01*
X30930315Y-49443039D01*
X30877511Y-49488794D01*
X30826000Y-49500000D01*
X30700000Y-49500000D01*
X30700000Y-49626000D01*
X30680315Y-49693039D01*
X30627511Y-49738794D01*
X30576000Y-49750000D01*
X29700001Y-49750000D01*
X29700001Y-50024986D01*
X29710494Y-50127697D01*
X29765641Y-50294119D01*
X29765643Y-50294124D01*
X29806525Y-50360403D01*
X29824965Y-50427796D01*
X29804042Y-50494459D01*
X29750401Y-50539229D01*
X29700986Y-50549500D01*
X28379386Y-50549500D01*
X28312347Y-50529815D01*
X28291705Y-50513181D01*
X26838069Y-49059545D01*
X26753537Y-48975013D01*
X29700000Y-48975013D01*
X29700000Y-49250000D01*
X30450000Y-49250000D01*
X30450000Y-48275000D01*
X30449999Y-48274999D01*
X30400029Y-48275000D01*
X30400011Y-48275001D01*
X30297302Y-48285494D01*
X30130880Y-48340641D01*
X30130875Y-48340643D01*
X29981654Y-48432684D01*
X29857684Y-48556654D01*
X29765643Y-48705875D01*
X29765641Y-48705880D01*
X29710494Y-48872302D01*
X29710493Y-48872309D01*
X29700000Y-48975013D01*
X26753537Y-48975013D01*
X26671960Y-48893436D01*
X25069408Y-47290883D01*
X25035923Y-47229560D01*
X25035472Y-47179014D01*
X25050500Y-47103465D01*
X25050500Y-46896535D01*
X25010130Y-46693580D01*
X24930941Y-46502402D01*
X24815977Y-46330345D01*
X24815975Y-46330342D01*
X24669657Y-46184024D01*
X24539593Y-46097119D01*
X24497598Y-46069059D01*
X24456974Y-46052232D01*
X24306420Y-45989870D01*
X24306412Y-45989868D01*
X24103469Y-45949500D01*
X24103465Y-45949500D01*
X23896535Y-45949500D01*
X23896530Y-45949500D01*
X23693587Y-45989868D01*
X23693579Y-45989870D01*
X23502401Y-46069059D01*
X23423389Y-46121852D01*
X23356712Y-46142729D01*
X23289332Y-46124244D01*
X23242642Y-46072264D01*
X23230500Y-46018749D01*
X23230500Y-44899986D01*
X26625001Y-44899986D01*
X26635494Y-45002697D01*
X26690641Y-45169119D01*
X26690643Y-45169124D01*
X26782684Y-45318345D01*
X26906654Y-45442315D01*
X27055875Y-45534356D01*
X27055880Y-45534358D01*
X27222302Y-45589505D01*
X27222309Y-45589506D01*
X27325019Y-45599999D01*
X27749999Y-45599999D01*
X27750000Y-45599998D01*
X27750000Y-44787500D01*
X26625001Y-44787500D01*
X26625001Y-44899986D01*
X23230500Y-44899986D01*
X23230500Y-43981250D01*
X23250185Y-43914211D01*
X23302989Y-43868456D01*
X23372147Y-43858512D01*
X23423390Y-43878148D01*
X23502400Y-43930940D01*
X23502401Y-43930940D01*
X23502402Y-43930941D01*
X23693580Y-44010130D01*
X23893091Y-44049815D01*
X23896530Y-44050499D01*
X23896534Y-44050500D01*
X23896535Y-44050500D01*
X24103466Y-44050500D01*
X24103467Y-44050499D01*
X24306420Y-44010130D01*
X24497598Y-43930941D01*
X24669655Y-43815977D01*
X24815977Y-43669655D01*
X24882419Y-43570214D01*
X24936029Y-43525412D01*
X24981010Y-43515189D01*
X26785998Y-43449554D01*
X26853708Y-43466789D01*
X26901352Y-43517896D01*
X26913802Y-43586647D01*
X26887106Y-43651216D01*
X26878186Y-43661153D01*
X26782682Y-43756657D01*
X26690643Y-43905875D01*
X26690641Y-43905880D01*
X26635494Y-44072302D01*
X26635493Y-44072309D01*
X26625000Y-44175013D01*
X26625000Y-44287500D01*
X27876000Y-44287500D01*
X27943039Y-44307185D01*
X27988794Y-44359989D01*
X28000000Y-44411500D01*
X28000000Y-44537500D01*
X28126000Y-44537500D01*
X28193039Y-44557185D01*
X28238794Y-44609989D01*
X28250000Y-44661500D01*
X28250000Y-45599999D01*
X28674972Y-45599999D01*
X28674986Y-45599998D01*
X28777695Y-45589506D01*
X28791138Y-45585051D01*
X28860967Y-45582646D01*
X28921010Y-45618375D01*
X28952206Y-45680893D01*
X28944649Y-45750353D01*
X28916984Y-45791273D01*
X28129274Y-46564018D01*
X28067633Y-46596913D01*
X28042438Y-46599500D01*
X27331898Y-46599500D01*
X27292853Y-46604188D01*
X27243438Y-46610122D01*
X27102656Y-46665639D01*
X26982077Y-46757077D01*
X26890639Y-46877656D01*
X26835122Y-47018438D01*
X26829694Y-47063642D01*
X26824500Y-47106898D01*
X26824500Y-47818102D01*
X26827168Y-47840319D01*
X26835122Y-47906561D01*
X26890639Y-48047343D01*
X26982077Y-48167922D01*
X27102656Y-48259360D01*
X27102657Y-48259360D01*
X27102658Y-48259361D01*
X27243436Y-48314877D01*
X27331898Y-48325500D01*
X27331903Y-48325500D01*
X28668097Y-48325500D01*
X28668102Y-48325500D01*
X28756564Y-48314877D01*
X28897342Y-48259361D01*
X29017922Y-48167922D01*
X29109361Y-48047342D01*
X29164877Y-47906564D01*
X29175500Y-47818102D01*
X29175500Y-47132058D01*
X29195185Y-47065019D01*
X29212664Y-47043540D01*
X29238254Y-47018436D01*
X30371931Y-45906299D01*
X30412576Y-45871596D01*
X30423490Y-45855719D01*
X30437248Y-45842224D01*
X30464420Y-45796185D01*
X30494693Y-45752152D01*
X30501126Y-45733993D01*
X30510923Y-45717395D01*
X30524110Y-45669998D01*
X30526680Y-45661864D01*
X30533493Y-45642635D01*
X30543099Y-45615524D01*
X30544613Y-45596312D01*
X30549779Y-45577750D01*
X30550291Y-45524316D01*
X30554494Y-45471023D01*
X30550984Y-45452070D01*
X30551169Y-45432809D01*
X30537835Y-45381068D01*
X30225926Y-43696759D01*
X30233074Y-43627256D01*
X30276664Y-43572651D01*
X30342856Y-43550281D01*
X30355272Y-43550402D01*
X30356889Y-43550498D01*
X30356898Y-43550500D01*
X31900778Y-43550500D01*
X31967817Y-43570185D01*
X32013572Y-43622989D01*
X32023516Y-43692147D01*
X32000548Y-43748133D01*
X31987310Y-43766071D01*
X31946147Y-43821844D01*
X31902291Y-43947173D01*
X31902289Y-43947185D01*
X31899500Y-43976929D01*
X31899500Y-44423070D01*
X31902289Y-44452814D01*
X31902291Y-44452826D01*
X31943229Y-44569815D01*
X31946148Y-44578157D01*
X32025001Y-44684999D01*
X32131843Y-44763852D01*
X32164282Y-44775203D01*
X32257173Y-44807708D01*
X32257177Y-44807708D01*
X32257181Y-44807710D01*
X32272057Y-44809105D01*
X32286930Y-44810500D01*
X32286934Y-44810500D01*
X32673070Y-44810500D01*
X32686289Y-44809260D01*
X32702819Y-44807710D01*
X32702823Y-44807708D01*
X32702826Y-44807708D01*
X32760575Y-44787500D01*
X32828157Y-44763852D01*
X32934999Y-44684999D01*
X33013852Y-44578157D01*
X33054370Y-44462364D01*
X33057708Y-44452826D01*
X33057708Y-44452823D01*
X33057710Y-44452819D01*
X33060500Y-44423066D01*
X33060500Y-44382103D01*
X33080185Y-44315064D01*
X33084859Y-44308295D01*
X33100263Y-44287500D01*
X33455282Y-43808222D01*
X33511001Y-43766071D01*
X33580667Y-43760734D01*
X33642158Y-43793909D01*
X33642602Y-43794351D01*
X33646774Y-43798523D01*
X33646778Y-43798526D01*
X33646780Y-43798528D01*
X33766874Y-43859719D01*
X33766876Y-43859719D01*
X33766878Y-43859720D01*
X33866507Y-43875500D01*
X33866512Y-43875500D01*
X34183493Y-43875500D01*
X34283122Y-43859720D01*
X34283123Y-43859719D01*
X34283126Y-43859719D01*
X34293704Y-43854328D01*
X34362372Y-43841432D01*
X34406294Y-43854328D01*
X34416874Y-43859719D01*
X34416875Y-43859719D01*
X34416877Y-43859720D01*
X34416876Y-43859720D01*
X34516507Y-43875500D01*
X34516512Y-43875500D01*
X34833493Y-43875500D01*
X34933122Y-43859720D01*
X34933123Y-43859719D01*
X34933126Y-43859719D01*
X34943704Y-43854328D01*
X35012372Y-43841432D01*
X35056294Y-43854328D01*
X35066874Y-43859719D01*
X35066875Y-43859719D01*
X35066877Y-43859720D01*
X35066876Y-43859720D01*
X35166507Y-43875500D01*
X35166512Y-43875500D01*
X35483493Y-43875500D01*
X35583122Y-43859720D01*
X35583123Y-43859719D01*
X35583126Y-43859719D01*
X35593704Y-43854328D01*
X35662372Y-43841432D01*
X35706294Y-43854328D01*
X35716874Y-43859719D01*
X35716875Y-43859719D01*
X35716877Y-43859720D01*
X35716876Y-43859720D01*
X35816507Y-43875500D01*
X35816512Y-43875500D01*
X36133493Y-43875500D01*
X36233121Y-43859720D01*
X36233121Y-43859719D01*
X36233126Y-43859719D01*
X36353220Y-43798528D01*
X36448528Y-43703220D01*
X36509719Y-43583126D01*
X36509720Y-43583122D01*
X36522078Y-43505101D01*
X36536668Y-43474324D01*
X36550838Y-43443297D01*
X36551613Y-43442798D01*
X36552008Y-43441967D01*
X36580946Y-43423948D01*
X36609616Y-43405523D01*
X36610813Y-43405350D01*
X36611319Y-43405036D01*
X36644551Y-43400500D01*
X36721637Y-43400500D01*
X36760179Y-43408165D01*
X36760365Y-43407473D01*
X36768214Y-43409576D01*
X36768216Y-43409577D01*
X36920943Y-43450500D01*
X36920945Y-43450500D01*
X37079055Y-43450500D01*
X37079057Y-43450500D01*
X37231784Y-43409577D01*
X37368716Y-43330520D01*
X37480520Y-43218716D01*
X37559577Y-43081784D01*
X37600500Y-42929057D01*
X37600500Y-42770943D01*
X37559577Y-42618216D01*
X37537816Y-42580524D01*
X37480524Y-42481290D01*
X37480518Y-42481282D01*
X37368717Y-42369481D01*
X37368709Y-42369475D01*
X37231790Y-42290426D01*
X37231786Y-42290424D01*
X37231784Y-42290423D01*
X37079057Y-42249500D01*
X36920943Y-42249500D01*
X36768216Y-42290423D01*
X36768214Y-42290423D01*
X36760365Y-42292527D01*
X36760253Y-42292111D01*
X36756572Y-42294477D01*
X36721637Y-42299500D01*
X36644551Y-42299500D01*
X36577512Y-42279815D01*
X36531757Y-42227011D01*
X36522078Y-42194899D01*
X36509720Y-42116877D01*
X36509719Y-42116875D01*
X36509719Y-42116874D01*
X36448528Y-41996780D01*
X36448526Y-41996778D01*
X36448523Y-41996774D01*
X36353225Y-41901476D01*
X36353221Y-41901473D01*
X36353220Y-41901472D01*
X36233126Y-41840281D01*
X36233124Y-41840280D01*
X36233121Y-41840279D01*
X36133493Y-41824500D01*
X36133488Y-41824500D01*
X35864182Y-41824500D01*
X35856296Y-41822184D01*
X35848178Y-41823463D01*
X35823263Y-41812484D01*
X35797143Y-41804815D01*
X35791761Y-41798604D01*
X35784240Y-41795290D01*
X35769215Y-41772584D01*
X35751388Y-41752011D01*
X35749223Y-41742373D01*
X35745683Y-41737023D01*
X35740193Y-41702158D01*
X35739160Y-41624921D01*
X35737944Y-41533987D01*
X35756730Y-41466693D01*
X35779232Y-41442367D01*
X35778431Y-41441566D01*
X35784995Y-41435001D01*
X35784999Y-41434999D01*
X35785001Y-41434995D01*
X35785004Y-41434993D01*
X35863851Y-41328158D01*
X35863852Y-41328157D01*
X35907708Y-41202826D01*
X35907708Y-41202823D01*
X35907710Y-41202819D01*
X35910500Y-41173066D01*
X35910500Y-40786934D01*
X35907710Y-40757181D01*
X35907708Y-40757177D01*
X35907708Y-40757173D01*
X35875443Y-40664968D01*
X35863852Y-40631843D01*
X35784999Y-40525001D01*
X35678157Y-40446148D01*
X35678155Y-40446147D01*
X35552826Y-40402291D01*
X35552814Y-40402289D01*
X35523070Y-40399500D01*
X35523066Y-40399500D01*
X35076934Y-40399500D01*
X35076930Y-40399500D01*
X35047185Y-40402289D01*
X35047173Y-40402291D01*
X34921844Y-40446147D01*
X34815001Y-40525001D01*
X34736147Y-40631844D01*
X34692291Y-40757173D01*
X34692289Y-40757185D01*
X34689500Y-40786929D01*
X34689500Y-41173070D01*
X34692289Y-41202814D01*
X34692291Y-41202826D01*
X34733882Y-41321681D01*
X34736148Y-41328157D01*
X34815001Y-41434999D01*
X34815003Y-41435000D01*
X34815006Y-41435004D01*
X34826613Y-41443570D01*
X34829122Y-41446874D01*
X34832922Y-41448549D01*
X34850074Y-41474470D01*
X34868864Y-41499217D01*
X34869842Y-41504343D01*
X34871479Y-41506817D01*
X34876969Y-41541682D01*
X34879071Y-41698842D01*
X34860285Y-41766138D01*
X34808097Y-41812595D01*
X34755082Y-41824500D01*
X34516507Y-41824500D01*
X34416875Y-41840280D01*
X34416874Y-41840280D01*
X34406290Y-41845673D01*
X34337620Y-41858566D01*
X34293710Y-41845673D01*
X34283124Y-41840280D01*
X34183493Y-41824500D01*
X34183488Y-41824500D01*
X33866512Y-41824500D01*
X33866507Y-41824500D01*
X33766878Y-41840279D01*
X33646778Y-41901473D01*
X33646774Y-41901476D01*
X33551476Y-41996774D01*
X33551473Y-41996778D01*
X33490279Y-42116878D01*
X33480052Y-42181448D01*
X33478028Y-42185715D01*
X33478287Y-42190433D01*
X33463203Y-42216989D01*
X33450122Y-42244583D01*
X33446111Y-42247079D01*
X33443779Y-42251187D01*
X33416734Y-42265371D01*
X33390810Y-42281513D01*
X33384928Y-42282053D01*
X33381903Y-42283640D01*
X33346662Y-42285567D01*
X33236166Y-42275801D01*
X33171120Y-42250291D01*
X33131729Y-42197774D01*
X33084361Y-42077658D01*
X33084360Y-42077657D01*
X33084360Y-42077656D01*
X32992922Y-41957077D01*
X32872343Y-41865639D01*
X32762148Y-41822184D01*
X32731564Y-41810123D01*
X32731563Y-41810122D01*
X32731561Y-41810122D01*
X32685926Y-41804642D01*
X32643102Y-41799500D01*
X30356898Y-41799500D01*
X30317853Y-41804188D01*
X30268438Y-41810122D01*
X30127656Y-41865639D01*
X30007077Y-41957077D01*
X29915638Y-42077658D01*
X29886023Y-42152756D01*
X29875435Y-42166363D01*
X29869266Y-42182462D01*
X29854426Y-42193364D01*
X29843117Y-42207900D01*
X29826618Y-42213795D01*
X29812959Y-42223831D01*
X29778406Y-42231023D01*
X29732403Y-42233899D01*
X29692573Y-42229916D01*
X29644328Y-42216989D01*
X29579057Y-42199500D01*
X29420943Y-42199500D01*
X29268216Y-42240422D01*
X29263212Y-42243311D01*
X29205730Y-42259835D01*
X24943271Y-42414835D01*
X24875561Y-42397600D01*
X24835663Y-42359808D01*
X24815977Y-42330345D01*
X24815975Y-42330343D01*
X24815973Y-42330340D01*
X24669658Y-42184025D01*
X24669654Y-42184022D01*
X24605609Y-42141228D01*
X24560804Y-42087615D01*
X24550500Y-42038126D01*
X24550500Y-40129895D01*
X24551911Y-40122565D01*
X24551058Y-40118144D01*
X24555457Y-40099986D01*
X29650001Y-40099986D01*
X29660494Y-40202697D01*
X29715641Y-40369119D01*
X29715643Y-40369124D01*
X29807684Y-40518345D01*
X29931654Y-40642315D01*
X30080875Y-40734356D01*
X30080880Y-40734358D01*
X30247302Y-40789505D01*
X30247309Y-40789506D01*
X30350019Y-40799999D01*
X31249999Y-40799999D01*
X31750000Y-40799999D01*
X32649972Y-40799999D01*
X32649986Y-40799998D01*
X32752697Y-40789505D01*
X32919119Y-40734358D01*
X32919124Y-40734356D01*
X33068345Y-40642315D01*
X33192315Y-40518345D01*
X33284356Y-40369124D01*
X33284358Y-40369119D01*
X33339505Y-40202697D01*
X33339506Y-40202690D01*
X33349999Y-40099986D01*
X33350000Y-40099973D01*
X33350000Y-39975000D01*
X31750000Y-39975000D01*
X31750000Y-40799999D01*
X31249999Y-40799999D01*
X31250000Y-40799998D01*
X31250000Y-39975000D01*
X29650001Y-39975000D01*
X29650001Y-40099986D01*
X24555457Y-40099986D01*
X24559368Y-40083845D01*
X24852900Y-39350013D01*
X29650000Y-39350013D01*
X29650000Y-39475000D01*
X31250000Y-39475000D01*
X31750000Y-39475000D01*
X33349999Y-39475000D01*
X33349999Y-39350028D01*
X33349998Y-39350013D01*
X33339505Y-39247302D01*
X33284358Y-39080880D01*
X33284356Y-39080875D01*
X33192315Y-38931654D01*
X33068345Y-38807684D01*
X32919124Y-38715643D01*
X32919119Y-38715641D01*
X32752697Y-38660494D01*
X32752690Y-38660493D01*
X32649986Y-38650000D01*
X31750000Y-38650000D01*
X31750000Y-39475000D01*
X31250000Y-39475000D01*
X31250000Y-38650000D01*
X30350028Y-38650000D01*
X30350012Y-38650001D01*
X30247302Y-38660494D01*
X30080880Y-38715641D01*
X30080875Y-38715643D01*
X29931654Y-38807684D01*
X29807684Y-38931654D01*
X29715643Y-39080875D01*
X29715641Y-39080880D01*
X29660494Y-39247302D01*
X29660493Y-39247309D01*
X29650000Y-39350013D01*
X24852900Y-39350013D01*
X25621204Y-37429251D01*
X25636618Y-37409639D01*
X25648547Y-37387731D01*
X25661444Y-37378051D01*
X25664377Y-37374320D01*
X25676762Y-37366553D01*
X25892769Y-37248264D01*
X25961023Y-37233330D01*
X26026517Y-37257668D01*
X26027252Y-37258221D01*
X26127656Y-37334360D01*
X26127657Y-37334360D01*
X26127658Y-37334361D01*
X26268436Y-37389877D01*
X26356898Y-37400500D01*
X26356903Y-37400500D01*
X28243097Y-37400500D01*
X28243102Y-37400500D01*
X28331564Y-37389877D01*
X28472342Y-37334361D01*
X28592922Y-37242922D01*
X28684361Y-37122342D01*
X28739877Y-36981564D01*
X28750500Y-36893102D01*
X28750500Y-36524500D01*
X28770185Y-36457461D01*
X28822989Y-36411706D01*
X28874500Y-36400500D01*
X35883196Y-36400500D01*
X35950235Y-36420185D01*
X35995990Y-36472989D01*
X35998550Y-36479010D01*
X36015637Y-36522339D01*
X36015638Y-36522341D01*
X36107077Y-36642922D01*
X36227656Y-36734360D01*
X36227657Y-36734360D01*
X36227658Y-36734361D01*
X36368436Y-36789877D01*
X36456898Y-36800500D01*
X36456903Y-36800500D01*
X38543097Y-36800500D01*
X38543102Y-36800500D01*
X38631564Y-36789877D01*
X38772342Y-36734361D01*
X38892922Y-36642922D01*
X38984361Y-36522342D01*
X39039877Y-36381564D01*
X39050500Y-36293102D01*
X39050500Y-35816429D01*
X39070185Y-35749390D01*
X39122989Y-35703635D01*
X39192147Y-35693691D01*
X39206584Y-35696652D01*
X39220943Y-35700500D01*
X39220945Y-35700500D01*
X39379055Y-35700500D01*
X39379057Y-35700500D01*
X39531784Y-35659577D01*
X39668716Y-35580520D01*
X39668721Y-35580514D01*
X39674443Y-35576125D01*
X39695765Y-35567881D01*
X39714996Y-35555523D01*
X39735272Y-35552607D01*
X39739612Y-35550930D01*
X39749931Y-35550500D01*
X39825500Y-35550500D01*
X39892539Y-35570185D01*
X39938294Y-35622989D01*
X39949500Y-35674500D01*
X39949500Y-36293102D01*
X39951546Y-36310139D01*
X39960122Y-36381561D01*
X39960122Y-36381563D01*
X39960123Y-36381564D01*
X39972010Y-36411706D01*
X40015639Y-36522343D01*
X40107077Y-36642922D01*
X40227656Y-36734360D01*
X40227657Y-36734360D01*
X40227658Y-36734361D01*
X40368436Y-36789877D01*
X40456898Y-36800500D01*
X40456903Y-36800500D01*
X42543097Y-36800500D01*
X42543102Y-36800500D01*
X42631564Y-36789877D01*
X42772342Y-36734361D01*
X42892922Y-36642922D01*
X42984361Y-36522342D01*
X43039877Y-36381564D01*
X43050500Y-36293102D01*
X43050500Y-35458680D01*
X43070185Y-35391641D01*
X43122989Y-35345886D01*
X43192147Y-35335942D01*
X43255703Y-35364967D01*
G37*
%TD.AperFunction*%
%TA.AperFunction,Conductor*%
G36*
X64188834Y-45222497D02*
G01*
X64244767Y-45264369D01*
X64269184Y-45329833D01*
X64269500Y-45338679D01*
X64269500Y-49795500D01*
X64249815Y-49862539D01*
X64197011Y-49908294D01*
X64145500Y-49919500D01*
X63762546Y-49919500D01*
X63733125Y-49922258D01*
X63733115Y-49922260D01*
X63609207Y-49965618D01*
X63503576Y-50043576D01*
X63425618Y-50149207D01*
X63382258Y-50273118D01*
X63382258Y-50273120D01*
X63379500Y-50302538D01*
X63379500Y-50345500D01*
X63359815Y-50412539D01*
X63307011Y-50458294D01*
X63255500Y-50469500D01*
X61374500Y-50469500D01*
X61307461Y-50449815D01*
X61261706Y-50397011D01*
X61250500Y-50345500D01*
X61250500Y-50065730D01*
X61247646Y-50035300D01*
X61247646Y-50035298D01*
X61207126Y-49919501D01*
X61202793Y-49907118D01*
X61160931Y-49850397D01*
X61136961Y-49784770D01*
X61152276Y-49716600D01*
X61197589Y-49670028D01*
X61201557Y-49667681D01*
X61201561Y-49667678D01*
X61317678Y-49551561D01*
X61317685Y-49551552D01*
X61401281Y-49410198D01*
X61447100Y-49252486D01*
X61447295Y-49250001D01*
X61447295Y-49250000D01*
X60099000Y-49250000D01*
X60031961Y-49230315D01*
X59986206Y-49177511D01*
X59975000Y-49126000D01*
X59975000Y-48874000D01*
X59994685Y-48806961D01*
X60047489Y-48761206D01*
X60099000Y-48750000D01*
X61447295Y-48750000D01*
X61447295Y-48749998D01*
X61447100Y-48747513D01*
X61401281Y-48589801D01*
X61317685Y-48448447D01*
X61317678Y-48448438D01*
X61201561Y-48332321D01*
X61201553Y-48332315D01*
X61197578Y-48329964D01*
X61149896Y-48278893D01*
X61137395Y-48210150D01*
X61160933Y-48149600D01*
X61202793Y-48092882D01*
X61231749Y-48010130D01*
X61247646Y-47964701D01*
X61247646Y-47964699D01*
X61250500Y-47934269D01*
X61250500Y-47525730D01*
X61247646Y-47495300D01*
X61247646Y-47495298D01*
X61211963Y-47393324D01*
X61202793Y-47367118D01*
X61122150Y-47257850D01*
X61036677Y-47194768D01*
X60994428Y-47139123D01*
X60988969Y-47069467D01*
X61022036Y-47007917D01*
X61036670Y-46995236D01*
X61122150Y-46932150D01*
X61202793Y-46822882D01*
X61225819Y-46757077D01*
X61247646Y-46694701D01*
X61247646Y-46694699D01*
X61250500Y-46664269D01*
X61250500Y-46255730D01*
X61247646Y-46225300D01*
X61247646Y-46225298D01*
X61202793Y-46097119D01*
X61202792Y-46097117D01*
X61190527Y-46080499D01*
X61122150Y-45987850D01*
X61036677Y-45924768D01*
X60994428Y-45869123D01*
X60988969Y-45799467D01*
X61022036Y-45737917D01*
X61036670Y-45725236D01*
X61122150Y-45662150D01*
X61202793Y-45552882D01*
X61226076Y-45486340D01*
X61266797Y-45429566D01*
X61331750Y-45403819D01*
X61400311Y-45417275D01*
X61430797Y-45439615D01*
X62255513Y-46264332D01*
X62255514Y-46264333D01*
X62335667Y-46344486D01*
X62413634Y-46389500D01*
X62433833Y-46401162D01*
X62543323Y-46430500D01*
X62543324Y-46430500D01*
X62543326Y-46430500D01*
X62756674Y-46430500D01*
X62756677Y-46430500D01*
X62866167Y-46401162D01*
X62866812Y-46400789D01*
X62867309Y-46400503D01*
X62867318Y-46400497D01*
X62964333Y-46344486D01*
X63044486Y-46264333D01*
X63044486Y-46264331D01*
X63054690Y-46254128D01*
X63054693Y-46254123D01*
X64057820Y-45250997D01*
X64119142Y-45217513D01*
X64188834Y-45222497D01*
G37*
%TD.AperFunction*%
%TA.AperFunction,Conductor*%
G36*
X53489368Y-49565244D02*
G01*
X53620943Y-49600500D01*
X53620945Y-49600500D01*
X53777871Y-49600500D01*
X53844910Y-49620185D01*
X53890665Y-49672989D01*
X53900609Y-49742147D01*
X53877641Y-49798132D01*
X53850630Y-49834732D01*
X53797207Y-49907117D01*
X53797206Y-49907119D01*
X53752353Y-50035298D01*
X53752353Y-50035300D01*
X53749500Y-50065730D01*
X53749500Y-50245500D01*
X53729815Y-50312539D01*
X53677011Y-50358294D01*
X53625500Y-50369500D01*
X52629681Y-50369500D01*
X52562642Y-50349815D01*
X52542000Y-50333181D01*
X52230499Y-50021680D01*
X52197014Y-49960357D01*
X52201998Y-49890665D01*
X52243870Y-49834732D01*
X52309334Y-49810315D01*
X52318180Y-49809999D01*
X52324624Y-49809999D01*
X52324649Y-49809998D01*
X52360910Y-49807145D01*
X52516196Y-49762030D01*
X52655372Y-49679722D01*
X52655380Y-49679716D01*
X52705936Y-49629160D01*
X52767259Y-49595674D01*
X52834569Y-49599797D01*
X52857181Y-49607710D01*
X52857189Y-49607710D01*
X52857190Y-49607711D01*
X52886930Y-49610500D01*
X52886934Y-49610500D01*
X53273070Y-49610500D01*
X53286289Y-49609260D01*
X53302819Y-49607710D01*
X53416345Y-49567984D01*
X53486123Y-49564422D01*
X53489368Y-49565244D01*
G37*
%TD.AperFunction*%
%TA.AperFunction,Conductor*%
G36*
X43986675Y-44922964D02*
G01*
X44043374Y-44963792D01*
X44068999Y-45028793D01*
X44069500Y-45039928D01*
X44069500Y-48453324D01*
X44069500Y-48566676D01*
X44089261Y-48640423D01*
X44098838Y-48676166D01*
X44098839Y-48676169D01*
X44155511Y-48774329D01*
X44155513Y-48774332D01*
X44155514Y-48774333D01*
X44235667Y-48854486D01*
X44333833Y-48911162D01*
X44443324Y-48940500D01*
X45441199Y-48940500D01*
X45508238Y-48960185D01*
X45514826Y-48964725D01*
X45609206Y-49034381D01*
X45650511Y-49048834D01*
X45733119Y-49077741D01*
X45740796Y-49078460D01*
X45762543Y-49080500D01*
X46237456Y-49080499D01*
X46266879Y-49077741D01*
X46390794Y-49034381D01*
X46485167Y-48964729D01*
X46550796Y-48940759D01*
X46558801Y-48940500D01*
X47056674Y-48940500D01*
X47056676Y-48940500D01*
X47166167Y-48911162D01*
X47264333Y-48854486D01*
X47344486Y-48774333D01*
X47401162Y-48676167D01*
X47430500Y-48566676D01*
X47430500Y-48004500D01*
X47450185Y-47937461D01*
X47502989Y-47891706D01*
X47554500Y-47880500D01*
X47920027Y-47880500D01*
X47987066Y-47900185D01*
X48032821Y-47952989D01*
X48035382Y-47959011D01*
X48040639Y-47972342D01*
X48132077Y-48092922D01*
X48252656Y-48184360D01*
X48252657Y-48184360D01*
X48252658Y-48184361D01*
X48393436Y-48239877D01*
X48481898Y-48250500D01*
X48481903Y-48250500D01*
X49518097Y-48250500D01*
X49518102Y-48250500D01*
X49606564Y-48239877D01*
X49747342Y-48184361D01*
X49867922Y-48092922D01*
X49867953Y-48092882D01*
X49917999Y-48026886D01*
X49974191Y-47985362D01*
X50028323Y-47978347D01*
X51501733Y-48115866D01*
X51566653Y-48141695D01*
X51607303Y-48198522D01*
X51610777Y-48268306D01*
X51577892Y-48327010D01*
X51470282Y-48434620D01*
X51470278Y-48434625D01*
X51387968Y-48573804D01*
X51387966Y-48573809D01*
X51342855Y-48729081D01*
X51342854Y-48729087D01*
X51341209Y-48749999D01*
X51341210Y-48750000D01*
X51996000Y-48750000D01*
X52063039Y-48769685D01*
X52108794Y-48822489D01*
X52120000Y-48874000D01*
X52120000Y-49126000D01*
X52100315Y-49193039D01*
X52047511Y-49238794D01*
X51996000Y-49250000D01*
X51341210Y-49250000D01*
X51335894Y-49255749D01*
X51325724Y-49304154D01*
X51276670Y-49353908D01*
X51216473Y-49369500D01*
X39892859Y-49369500D01*
X39825820Y-49349815D01*
X39780065Y-49297011D01*
X39770121Y-49227853D01*
X39799146Y-49164297D01*
X39803569Y-49159457D01*
X39837277Y-49124477D01*
X43856211Y-44953884D01*
X43916903Y-44919271D01*
X43986675Y-44922964D01*
G37*
%TD.AperFunction*%
%TA.AperFunction,Conductor*%
G36*
X45376063Y-44924176D02*
G01*
X45389075Y-44923157D01*
X45408944Y-44933831D01*
X45430581Y-44940185D01*
X45439125Y-44950046D01*
X45450625Y-44956224D01*
X45461569Y-44975947D01*
X45476336Y-44992989D01*
X45478193Y-45005905D01*
X45484526Y-45017318D01*
X45483070Y-45039823D01*
X45486280Y-45062147D01*
X45480755Y-45075614D01*
X45480016Y-45087042D01*
X45463312Y-45118134D01*
X45425618Y-45169207D01*
X45382258Y-45293118D01*
X45382258Y-45293120D01*
X45379500Y-45322538D01*
X45379500Y-45697453D01*
X45382258Y-45726874D01*
X45382260Y-45726884D01*
X45424401Y-45847314D01*
X45425619Y-45850794D01*
X45440972Y-45871596D01*
X45503576Y-45956423D01*
X45546159Y-45987850D01*
X45609206Y-46034381D01*
X45650511Y-46048834D01*
X45733119Y-46077741D01*
X45740796Y-46078460D01*
X45762543Y-46080500D01*
X46237456Y-46080499D01*
X46266879Y-46077741D01*
X46390794Y-46034381D01*
X46414114Y-46017168D01*
X46425743Y-46009555D01*
X46528015Y-45950510D01*
X46812320Y-45666203D01*
X46873640Y-45632720D01*
X46943332Y-45637704D01*
X46987680Y-45666205D01*
X47061985Y-45740510D01*
X47187515Y-45812984D01*
X47327526Y-45850500D01*
X47327529Y-45850500D01*
X47472471Y-45850500D01*
X47472474Y-45850500D01*
X47612485Y-45812984D01*
X47738015Y-45740510D01*
X48391706Y-45086819D01*
X48453029Y-45053334D01*
X48479387Y-45050500D01*
X50220613Y-45050500D01*
X50287652Y-45070185D01*
X50308294Y-45086819D01*
X51913905Y-46692430D01*
X51935737Y-46725105D01*
X51936359Y-46724746D01*
X52019477Y-46868712D01*
X52019479Y-46868715D01*
X52019480Y-46868716D01*
X52131284Y-46980520D01*
X52131286Y-46980521D01*
X52131290Y-46980524D01*
X52268211Y-47059575D01*
X52271502Y-47060938D01*
X52273851Y-47062831D01*
X52275254Y-47063641D01*
X52275127Y-47063859D01*
X52280278Y-47068010D01*
X52291091Y-47071185D01*
X52306993Y-47089537D01*
X52325907Y-47104778D01*
X52329466Y-47115473D01*
X52336846Y-47123989D01*
X52340302Y-47148026D01*
X52347973Y-47171072D01*
X52345186Y-47181991D01*
X52346790Y-47193147D01*
X52336700Y-47215239D01*
X52330695Y-47238771D01*
X52322447Y-47246450D01*
X52317765Y-47256703D01*
X52297333Y-47269833D01*
X52279559Y-47286383D01*
X52266942Y-47289364D01*
X52258987Y-47294477D01*
X52224052Y-47299500D01*
X52025813Y-47299500D01*
X52014290Y-47298963D01*
X51989679Y-47296666D01*
X50108730Y-47121109D01*
X50043811Y-47095281D01*
X50004900Y-47043138D01*
X49964618Y-46940989D01*
X49959361Y-46927657D01*
X49867922Y-46807077D01*
X49747343Y-46715639D01*
X49651192Y-46677722D01*
X49606564Y-46660123D01*
X49606563Y-46660122D01*
X49606561Y-46660122D01*
X49560926Y-46654642D01*
X49518102Y-46649500D01*
X48481898Y-46649500D01*
X48442853Y-46654188D01*
X48393438Y-46660122D01*
X48252656Y-46715639D01*
X48132077Y-46807077D01*
X48040639Y-46927657D01*
X48035382Y-46940989D01*
X47992477Y-46996133D01*
X47926569Y-47019327D01*
X47920027Y-47019500D01*
X46943324Y-47019500D01*
X46833833Y-47048838D01*
X46833830Y-47048839D01*
X46735670Y-47105511D01*
X46735665Y-47105515D01*
X46655515Y-47185665D01*
X46655511Y-47185670D01*
X46598839Y-47283830D01*
X46598838Y-47283833D01*
X46569500Y-47393324D01*
X46569500Y-47874278D01*
X46549815Y-47941317D01*
X46497011Y-47987072D01*
X46427853Y-47997016D01*
X46399838Y-47987905D01*
X46399565Y-47988688D01*
X46266880Y-47942258D01*
X46237461Y-47939500D01*
X45762546Y-47939500D01*
X45733125Y-47942258D01*
X45733115Y-47942260D01*
X45609207Y-47985618D01*
X45567634Y-48016300D01*
X45525574Y-48047343D01*
X45514833Y-48055270D01*
X45449204Y-48079241D01*
X45441199Y-48079500D01*
X45054500Y-48079500D01*
X44987461Y-48059815D01*
X44941706Y-48007011D01*
X44930500Y-47955500D01*
X44930500Y-45044500D01*
X44950185Y-44977461D01*
X45002989Y-44931706D01*
X45054500Y-44920500D01*
X45363542Y-44920500D01*
X45376063Y-44924176D01*
G37*
%TD.AperFunction*%
%TA.AperFunction,Conductor*%
G36*
X62208647Y-39556422D02*
G01*
X62229641Y-39557531D01*
X62241500Y-39566068D01*
X62255518Y-39570185D01*
X62269282Y-39586070D01*
X62286345Y-39598354D01*
X62298714Y-39620036D01*
X62301273Y-39622989D01*
X62303825Y-39628990D01*
X62319685Y-39669206D01*
X62340639Y-39722343D01*
X62432077Y-39842922D01*
X62552656Y-39934360D01*
X62552657Y-39934360D01*
X62552658Y-39934361D01*
X62693436Y-39989877D01*
X62781898Y-40000500D01*
X62781903Y-40000500D01*
X63393097Y-40000500D01*
X63393102Y-40000500D01*
X63481564Y-39989877D01*
X63548976Y-39963292D01*
X63567855Y-39961588D01*
X63585618Y-39954963D01*
X63601933Y-39958511D01*
X63618560Y-39957011D01*
X63635363Y-39965783D01*
X63653891Y-39969814D01*
X63678800Y-39988461D01*
X63680497Y-39989347D01*
X63682145Y-39990965D01*
X63730634Y-40039453D01*
X63735667Y-40044486D01*
X63735668Y-40044487D01*
X64055513Y-40364332D01*
X64055514Y-40364333D01*
X64135667Y-40444486D01*
X64135668Y-40444487D01*
X64135670Y-40444488D01*
X64156782Y-40456677D01*
X64233833Y-40501162D01*
X64343323Y-40530500D01*
X64343324Y-40530500D01*
X64970320Y-40530500D01*
X65037359Y-40550185D01*
X65058001Y-40566819D01*
X65333181Y-40841999D01*
X65366666Y-40903322D01*
X65369500Y-40929680D01*
X65369500Y-42688929D01*
X65349815Y-42755968D01*
X65297011Y-42801723D01*
X65227853Y-42811667D01*
X65213450Y-42808715D01*
X65211955Y-42808315D01*
X65152281Y-42771972D01*
X65121729Y-42709136D01*
X65120676Y-42680367D01*
X65120365Y-42680353D01*
X65120499Y-42677467D01*
X65120500Y-42677457D01*
X65120499Y-42302544D01*
X65117741Y-42273121D01*
X65074381Y-42149206D01*
X65035402Y-42096391D01*
X64996423Y-42043576D01*
X64921581Y-41988341D01*
X64890794Y-41965619D01*
X64890792Y-41965618D01*
X64766880Y-41922258D01*
X64737461Y-41919500D01*
X64262546Y-41919500D01*
X64233125Y-41922258D01*
X64233115Y-41922260D01*
X64109207Y-41965618D01*
X64001283Y-42045270D01*
X63935654Y-42069241D01*
X63927649Y-42069500D01*
X60936678Y-42069500D01*
X60869639Y-42049815D01*
X60823884Y-41997011D01*
X60813940Y-41927853D01*
X60831139Y-41880403D01*
X60884356Y-41794124D01*
X60884358Y-41794119D01*
X60939505Y-41627697D01*
X60939506Y-41627690D01*
X60949999Y-41524986D01*
X60950000Y-41524973D01*
X60950000Y-41250000D01*
X60074000Y-41250000D01*
X60006961Y-41230315D01*
X59961206Y-41177511D01*
X59950000Y-41126000D01*
X59950000Y-40874000D01*
X59969685Y-40806961D01*
X60022489Y-40761206D01*
X60074000Y-40750000D01*
X60949999Y-40750000D01*
X60949999Y-40475028D01*
X60949998Y-40475013D01*
X60939505Y-40372302D01*
X60884358Y-40205880D01*
X60884356Y-40205875D01*
X60792315Y-40056654D01*
X60668345Y-39932684D01*
X60519124Y-39840643D01*
X60519119Y-39840641D01*
X60372950Y-39792206D01*
X60315505Y-39752434D01*
X60288682Y-39687918D01*
X60300997Y-39619142D01*
X60348540Y-39567942D01*
X60411954Y-39550500D01*
X62188479Y-39550500D01*
X62208647Y-39556422D01*
G37*
%TD.AperFunction*%
%TA.AperFunction,Conductor*%
G36*
X52714071Y-26072594D02*
G01*
X52735403Y-26088583D01*
X53230107Y-26550307D01*
X53265686Y-26610440D01*
X53269500Y-26640958D01*
X53269500Y-31156675D01*
X53298838Y-31266166D01*
X53298839Y-31266169D01*
X53355511Y-31364329D01*
X53355515Y-31364334D01*
X53540681Y-31549500D01*
X53555513Y-31564332D01*
X53555514Y-31564333D01*
X53635667Y-31644486D01*
X53733833Y-31701162D01*
X53733837Y-31701163D01*
X53788576Y-31715831D01*
X53788577Y-31715831D01*
X53800146Y-31718930D01*
X53843323Y-31730500D01*
X53843324Y-31730500D01*
X58718750Y-31730500D01*
X58785789Y-31750185D01*
X58831544Y-31802989D01*
X58841488Y-31872147D01*
X58821852Y-31923390D01*
X58769059Y-32002399D01*
X58769059Y-32002400D01*
X58689870Y-32193579D01*
X58689868Y-32193587D01*
X58649500Y-32396530D01*
X58649500Y-32603469D01*
X58676091Y-32737152D01*
X58669864Y-32806744D01*
X58642155Y-32849024D01*
X57037434Y-34453746D01*
X56976111Y-34487231D01*
X56917661Y-34485840D01*
X56856678Y-34469500D01*
X56856677Y-34469500D01*
X56856676Y-34469500D01*
X55556677Y-34469500D01*
X55443323Y-34469500D01*
X55377952Y-34487016D01*
X55377951Y-34487015D01*
X55333837Y-34498836D01*
X55333830Y-34498839D01*
X55235670Y-34555511D01*
X55235667Y-34555514D01*
X55235666Y-34555515D01*
X55132151Y-34659031D01*
X55058001Y-34733181D01*
X54996678Y-34766666D01*
X54970320Y-34769500D01*
X54643323Y-34769500D01*
X54588577Y-34784169D01*
X54588576Y-34784168D01*
X54533834Y-34798837D01*
X54533829Y-34798839D01*
X54456782Y-34843323D01*
X54435670Y-34855511D01*
X54435665Y-34855515D01*
X53758001Y-35533181D01*
X53696678Y-35566666D01*
X53670320Y-35569500D01*
X51625120Y-35569500D01*
X51558081Y-35549815D01*
X51538682Y-35534407D01*
X51518034Y-35514333D01*
X49902259Y-33943440D01*
X49864333Y-33905514D01*
X49861667Y-33903974D01*
X49859458Y-33901827D01*
X49813418Y-33876103D01*
X49811903Y-33875243D01*
X49777725Y-33855511D01*
X49766167Y-33848838D01*
X49766165Y-33848837D01*
X49766161Y-33848835D01*
X49762515Y-33847325D01*
X49762510Y-33847323D01*
X49760792Y-33846611D01*
X49760500Y-33846537D01*
X49709293Y-33833585D01*
X49708398Y-33833358D01*
X49656676Y-33819500D01*
X49653598Y-33819500D01*
X49650609Y-33818744D01*
X49650608Y-33818744D01*
X49618926Y-33819190D01*
X49597804Y-33819488D01*
X49596058Y-33819500D01*
X49266500Y-33819500D01*
X49199461Y-33799815D01*
X49153706Y-33747011D01*
X49142500Y-33695500D01*
X49142500Y-32596867D01*
X49162185Y-32529828D01*
X49178865Y-32509139D01*
X49844223Y-31844549D01*
X49844333Y-31844486D01*
X49884427Y-31804391D01*
X49924333Y-31764532D01*
X49924337Y-31764524D01*
X49924479Y-31764339D01*
X49924486Y-31764333D01*
X49950599Y-31719101D01*
X49952939Y-31715049D01*
X49952977Y-31714983D01*
X49960967Y-31701162D01*
X49981066Y-31666398D01*
X49981067Y-31666395D01*
X49981159Y-31666173D01*
X49981159Y-31666171D01*
X49981162Y-31666167D01*
X49995830Y-31611419D01*
X49995869Y-31611356D01*
X49995849Y-31611351D01*
X50002438Y-31586819D01*
X50010467Y-31556925D01*
X50010467Y-31556920D01*
X50010479Y-31556831D01*
X50010496Y-31556699D01*
X50010498Y-31556683D01*
X50010500Y-31556676D01*
X50010500Y-31500248D01*
X50010533Y-31443571D01*
X50010500Y-31443447D01*
X50010500Y-26781785D01*
X50030185Y-26714746D01*
X50065610Y-26678683D01*
X50167742Y-26610440D01*
X50185908Y-26598302D01*
X50318302Y-26465908D01*
X50422322Y-26310231D01*
X50485439Y-26157852D01*
X50529280Y-26103450D01*
X50595574Y-26081385D01*
X50663273Y-26098664D01*
X50710884Y-26149801D01*
X50714561Y-26157853D01*
X50777676Y-26310228D01*
X50777681Y-26310237D01*
X50881697Y-26465907D01*
X50881700Y-26465911D01*
X51014088Y-26598299D01*
X51014092Y-26598302D01*
X51169762Y-26702318D01*
X51169768Y-26702321D01*
X51169769Y-26702322D01*
X51342749Y-26773973D01*
X51526379Y-26810499D01*
X51526383Y-26810500D01*
X51526384Y-26810500D01*
X51713617Y-26810500D01*
X51713618Y-26810499D01*
X51897251Y-26773973D01*
X52070231Y-26702322D01*
X52225908Y-26598302D01*
X52358302Y-26465908D01*
X52462322Y-26310231D01*
X52533973Y-26137251D01*
X52533973Y-26137248D01*
X52536237Y-26131784D01*
X52580078Y-26077380D01*
X52646372Y-26055315D01*
X52714071Y-26072594D01*
G37*
%TD.AperFunction*%
%TA.AperFunction,Conductor*%
G36*
X49102150Y-30905258D02*
G01*
X49142680Y-30962172D01*
X49149500Y-31002730D01*
X49149500Y-31270130D01*
X49129815Y-31337169D01*
X49113131Y-31357862D01*
X48453430Y-32016801D01*
X48452993Y-32017185D01*
X48407572Y-32062606D01*
X48367667Y-32102465D01*
X48367520Y-32102656D01*
X48367514Y-32102665D01*
X48367514Y-32102666D01*
X48339022Y-32152015D01*
X48310934Y-32200601D01*
X48310901Y-32200722D01*
X48310838Y-32200832D01*
X48310814Y-32200919D01*
X48310813Y-32200922D01*
X48296177Y-32255540D01*
X48296178Y-32255541D01*
X48296150Y-32255647D01*
X48281533Y-32310074D01*
X48281532Y-32310200D01*
X48281500Y-32310323D01*
X48281500Y-32366750D01*
X48281467Y-32423427D01*
X48281500Y-32423550D01*
X48281500Y-33745251D01*
X48261815Y-33812290D01*
X48238104Y-33837395D01*
X48238497Y-33837788D01*
X48144693Y-33931591D01*
X48144690Y-33931595D01*
X48088889Y-34041111D01*
X48074500Y-34131966D01*
X48074500Y-34368037D01*
X48088890Y-34458891D01*
X48089796Y-34461679D01*
X48089898Y-34465256D01*
X48090417Y-34468532D01*
X48089993Y-34468599D01*
X48091793Y-34531520D01*
X48089797Y-34538316D01*
X48088890Y-34541106D01*
X48074500Y-34631966D01*
X48074500Y-34851652D01*
X48054815Y-34918691D01*
X48002011Y-34964446D01*
X47932853Y-34974390D01*
X47869297Y-34945365D01*
X47862620Y-34938088D01*
X47862212Y-34938497D01*
X47768408Y-34844693D01*
X47768404Y-34844690D01*
X47768403Y-34844689D01*
X47658893Y-34788891D01*
X47658891Y-34788890D01*
X47658888Y-34788889D01*
X47568033Y-34774500D01*
X47006965Y-34774500D01*
X46973894Y-34779738D01*
X46904601Y-34770781D01*
X46851151Y-34725783D01*
X46830513Y-34659031D01*
X46830500Y-34657264D01*
X46830500Y-33089680D01*
X46850185Y-33022641D01*
X46866819Y-33001999D01*
X48904482Y-30964337D01*
X48904482Y-30964336D01*
X48904485Y-30964334D01*
X48909578Y-30955514D01*
X48918112Y-30940731D01*
X48968678Y-30892515D01*
X49037285Y-30879291D01*
X49102150Y-30905258D01*
G37*
%TD.AperFunction*%
%TA.AperFunction,Conductor*%
G36*
X48623273Y-26098664D02*
G01*
X48670884Y-26149801D01*
X48674561Y-26157853D01*
X48737676Y-26310228D01*
X48737681Y-26310237D01*
X48841697Y-26465907D01*
X48841700Y-26465911D01*
X48974088Y-26598299D01*
X48974096Y-26598305D01*
X49094390Y-26678683D01*
X49139196Y-26732295D01*
X49149500Y-26781785D01*
X49149500Y-28889785D01*
X49129815Y-28956824D01*
X49077011Y-29002579D01*
X49007853Y-29012523D01*
X48978048Y-29004346D01*
X48837255Y-28946028D01*
X48837243Y-28946025D01*
X48653620Y-28909500D01*
X48653616Y-28909500D01*
X48466384Y-28909500D01*
X48466379Y-28909500D01*
X48282756Y-28946025D01*
X48282748Y-28946027D01*
X48109771Y-29017676D01*
X48109762Y-29017681D01*
X47954092Y-29121697D01*
X47954088Y-29121700D01*
X47821700Y-29254088D01*
X47821697Y-29254092D01*
X47717681Y-29409762D01*
X47717676Y-29409771D01*
X47646027Y-29582748D01*
X47646025Y-29582756D01*
X47609500Y-29766379D01*
X47609500Y-29953620D01*
X47646025Y-30137243D01*
X47646027Y-30137251D01*
X47717676Y-30310228D01*
X47717681Y-30310237D01*
X47821697Y-30465907D01*
X47821700Y-30465911D01*
X47915803Y-30560014D01*
X47949288Y-30621337D01*
X47944304Y-30691029D01*
X47915803Y-30735376D01*
X46136240Y-32514940D01*
X46136199Y-32514981D01*
X46135669Y-32515512D01*
X46135667Y-32515514D01*
X46055514Y-32595667D01*
X46052708Y-32600526D01*
X46043240Y-32610228D01*
X46018947Y-32623878D01*
X45996441Y-32640310D01*
X45988906Y-32640758D01*
X45982328Y-32644455D01*
X45954509Y-32642804D01*
X45926694Y-32644460D01*
X45920115Y-32640764D01*
X45912581Y-32640318D01*
X45890070Y-32623889D01*
X45865776Y-32610244D01*
X45862238Y-32603577D01*
X45856143Y-32599129D01*
X45846088Y-32573140D01*
X45833027Y-32548525D01*
X45831769Y-32536130D01*
X45830932Y-32533966D01*
X45831345Y-32531948D01*
X45830500Y-32523618D01*
X45830500Y-28029680D01*
X45850185Y-27962641D01*
X45866819Y-27941999D01*
X46353306Y-27455512D01*
X46901123Y-26907694D01*
X46902553Y-26906289D01*
X46926652Y-26882988D01*
X46939991Y-26870091D01*
X46939995Y-26870083D01*
X46940449Y-26869514D01*
X46940459Y-26869501D01*
X46942882Y-26866451D01*
X46942882Y-26866450D01*
X46943663Y-26865467D01*
X46944044Y-26864908D01*
X46944480Y-26864338D01*
X46944485Y-26864334D01*
X46970468Y-26819327D01*
X46971517Y-26817547D01*
X46995424Y-26777703D01*
X47046795Y-26730346D01*
X47115615Y-26718279D01*
X47149202Y-26726940D01*
X47262749Y-26773973D01*
X47446379Y-26810499D01*
X47446383Y-26810500D01*
X47446384Y-26810500D01*
X47633617Y-26810500D01*
X47633618Y-26810499D01*
X47817251Y-26773973D01*
X47990231Y-26702322D01*
X48145908Y-26598302D01*
X48278302Y-26465908D01*
X48382322Y-26310231D01*
X48445439Y-26157852D01*
X48489280Y-26103450D01*
X48555574Y-26081385D01*
X48623273Y-26098664D01*
G37*
%TD.AperFunction*%
%TA.AperFunction,Conductor*%
G36*
X79642539Y-20320185D02*
G01*
X79688294Y-20372989D01*
X79699500Y-20424500D01*
X79699500Y-59575500D01*
X79679815Y-59642539D01*
X79627011Y-59688294D01*
X79575500Y-59699500D01*
X20424500Y-59699500D01*
X20357461Y-59679815D01*
X20311706Y-59627011D01*
X20300500Y-59575500D01*
X20300500Y-55878711D01*
X22149500Y-55878711D01*
X22149500Y-56121288D01*
X22181161Y-56361785D01*
X22243947Y-56596104D01*
X22336773Y-56820205D01*
X22336776Y-56820212D01*
X22458064Y-57030289D01*
X22458066Y-57030292D01*
X22458067Y-57030293D01*
X22605733Y-57222736D01*
X22605739Y-57222743D01*
X22777256Y-57394260D01*
X22777262Y-57394265D01*
X22969711Y-57541936D01*
X23179788Y-57663224D01*
X23403900Y-57756054D01*
X23638211Y-57818838D01*
X23818586Y-57842584D01*
X23878711Y-57850500D01*
X23878712Y-57850500D01*
X24121289Y-57850500D01*
X24169388Y-57844167D01*
X24361789Y-57818838D01*
X24596100Y-57756054D01*
X24820212Y-57663224D01*
X25030289Y-57541936D01*
X25222738Y-57394265D01*
X25394265Y-57222738D01*
X25531663Y-57043677D01*
X44309873Y-57043677D01*
X44309873Y-57043678D01*
X44344858Y-57069096D01*
X44520164Y-57158418D01*
X44707294Y-57219221D01*
X44901618Y-57250000D01*
X45098382Y-57250000D01*
X45292705Y-57219221D01*
X45479835Y-57158418D01*
X45655143Y-57069095D01*
X45690125Y-57043678D01*
X45690126Y-57043678D01*
X45000001Y-56353553D01*
X45000000Y-56353553D01*
X44309873Y-57043677D01*
X25531663Y-57043677D01*
X25541936Y-57030289D01*
X25663224Y-56820212D01*
X25756054Y-56596100D01*
X25818838Y-56361789D01*
X25850500Y-56121288D01*
X25850500Y-55901617D01*
X43750000Y-55901617D01*
X43750000Y-56098382D01*
X43780778Y-56292705D01*
X43841581Y-56479835D01*
X43930905Y-56655145D01*
X43956319Y-56690125D01*
X43956320Y-56690125D01*
X44646446Y-56000000D01*
X44646446Y-55999999D01*
X45353553Y-55999999D01*
X45353553Y-56000001D01*
X46043678Y-56690126D01*
X46043678Y-56690125D01*
X46069095Y-56655143D01*
X46158418Y-56479835D01*
X46219221Y-56292705D01*
X46250000Y-56098382D01*
X46250000Y-55901618D01*
X46248801Y-55894047D01*
X46248801Y-55894045D01*
X46246372Y-55878711D01*
X74149500Y-55878711D01*
X74149500Y-56121288D01*
X74181161Y-56361785D01*
X74243947Y-56596104D01*
X74336773Y-56820205D01*
X74336776Y-56820212D01*
X74458064Y-57030289D01*
X74458066Y-57030292D01*
X74458067Y-57030293D01*
X74605733Y-57222736D01*
X74605739Y-57222743D01*
X74777256Y-57394260D01*
X74777262Y-57394265D01*
X74969711Y-57541936D01*
X75179788Y-57663224D01*
X75403900Y-57756054D01*
X75638211Y-57818838D01*
X75818586Y-57842584D01*
X75878711Y-57850500D01*
X75878712Y-57850500D01*
X76121289Y-57850500D01*
X76169388Y-57844167D01*
X76361789Y-57818838D01*
X76596100Y-57756054D01*
X76820212Y-57663224D01*
X77030289Y-57541936D01*
X77222738Y-57394265D01*
X77394265Y-57222738D01*
X77541936Y-57030289D01*
X77663224Y-56820212D01*
X77756054Y-56596100D01*
X77818838Y-56361789D01*
X77850500Y-56121288D01*
X77850500Y-55878712D01*
X77818838Y-55638211D01*
X77756054Y-55403900D01*
X77663224Y-55179788D01*
X77541936Y-54969711D01*
X77450688Y-54850794D01*
X77394266Y-54777263D01*
X77394260Y-54777256D01*
X77222743Y-54605739D01*
X77222736Y-54605733D01*
X77030293Y-54458067D01*
X77030292Y-54458066D01*
X77030289Y-54458064D01*
X76820212Y-54336776D01*
X76785853Y-54322544D01*
X76596104Y-54243947D01*
X76361785Y-54181161D01*
X76121289Y-54149500D01*
X76121288Y-54149500D01*
X75878712Y-54149500D01*
X75878711Y-54149500D01*
X75638214Y-54181161D01*
X75403895Y-54243947D01*
X75179794Y-54336773D01*
X75179785Y-54336777D01*
X74969706Y-54458067D01*
X74777263Y-54605733D01*
X74777256Y-54605739D01*
X74605739Y-54777256D01*
X74605733Y-54777263D01*
X74458067Y-54969706D01*
X74336777Y-55179785D01*
X74336773Y-55179794D01*
X74243947Y-55403895D01*
X74181161Y-55638214D01*
X74149500Y-55878711D01*
X46246372Y-55878711D01*
X46219221Y-55707294D01*
X46158418Y-55520164D01*
X46069096Y-55344858D01*
X46043678Y-55309873D01*
X46043677Y-55309873D01*
X45353553Y-55999999D01*
X44646446Y-55999999D01*
X43956320Y-55309872D01*
X43956320Y-55309873D01*
X43930902Y-55344859D01*
X43930899Y-55344863D01*
X43841582Y-55520161D01*
X43780778Y-55707294D01*
X43750000Y-55901617D01*
X25850500Y-55901617D01*
X25850500Y-55878712D01*
X25818838Y-55638211D01*
X25756054Y-55403900D01*
X25663224Y-55179788D01*
X25541936Y-54969711D01*
X25531661Y-54956320D01*
X44309872Y-54956320D01*
X45000000Y-55646446D01*
X45000001Y-55646446D01*
X45690125Y-54956320D01*
X45690125Y-54956319D01*
X45655145Y-54930905D01*
X45479835Y-54841581D01*
X45292705Y-54780778D01*
X45098382Y-54750000D01*
X44901618Y-54750000D01*
X44707294Y-54780778D01*
X44520161Y-54841582D01*
X44344863Y-54930899D01*
X44344859Y-54930902D01*
X44309873Y-54956320D01*
X44309872Y-54956320D01*
X25531661Y-54956320D01*
X25450688Y-54850794D01*
X25394266Y-54777263D01*
X25394260Y-54777256D01*
X25222743Y-54605739D01*
X25222736Y-54605733D01*
X25030293Y-54458067D01*
X25030292Y-54458066D01*
X25030289Y-54458064D01*
X24820212Y-54336776D01*
X24785853Y-54322544D01*
X24596104Y-54243947D01*
X24361785Y-54181161D01*
X24121289Y-54149500D01*
X24121288Y-54149500D01*
X23878712Y-54149500D01*
X23878711Y-54149500D01*
X23638214Y-54181161D01*
X23403895Y-54243947D01*
X23179794Y-54336773D01*
X23179785Y-54336777D01*
X22969706Y-54458067D01*
X22777263Y-54605733D01*
X22777256Y-54605739D01*
X22605739Y-54777256D01*
X22605733Y-54777263D01*
X22458067Y-54969706D01*
X22336777Y-55179785D01*
X22336773Y-55179794D01*
X22243947Y-55403895D01*
X22181161Y-55638214D01*
X22149500Y-55878711D01*
X20300500Y-55878711D01*
X20300500Y-37443324D01*
X22369500Y-37443324D01*
X22369500Y-37446595D01*
X22369500Y-51456677D01*
X22381420Y-51501162D01*
X22398838Y-51566168D01*
X22398839Y-51566169D01*
X22455511Y-51664329D01*
X22455515Y-51664334D01*
X22542732Y-51751551D01*
X22542737Y-51751555D01*
X23955513Y-53164332D01*
X23955514Y-53164333D01*
X24035667Y-53244486D01*
X24100903Y-53282150D01*
X24133833Y-53301162D01*
X24243323Y-53330500D01*
X24243324Y-53330500D01*
X49170320Y-53330500D01*
X49237359Y-53350185D01*
X49258001Y-53366819D01*
X49853927Y-53962746D01*
X49861944Y-53976631D01*
X49872125Y-53985886D01*
X49886020Y-54018330D01*
X49893029Y-54044486D01*
X49898838Y-54066167D01*
X49902291Y-54072147D01*
X49955511Y-54164329D01*
X49955515Y-54164334D01*
X50042732Y-54251551D01*
X50042738Y-54251556D01*
X50343181Y-54552000D01*
X50376666Y-54613323D01*
X50379500Y-54639679D01*
X50379500Y-54697453D01*
X50382258Y-54726875D01*
X50382260Y-54726884D01*
X50425618Y-54850792D01*
X50503576Y-54956423D01*
X50556391Y-54995402D01*
X50609206Y-55034381D01*
X50650511Y-55048834D01*
X50733119Y-55077741D01*
X50740796Y-55078460D01*
X50762543Y-55080500D01*
X51237456Y-55080499D01*
X51266879Y-55077741D01*
X51390794Y-55034381D01*
X51496423Y-54956423D01*
X51574381Y-54850794D01*
X51604635Y-54764333D01*
X51617741Y-54726881D01*
X51617741Y-54726879D01*
X51617741Y-54726874D01*
X51620500Y-54697457D01*
X51620499Y-54322544D01*
X51617741Y-54293121D01*
X51574381Y-54169206D01*
X51503844Y-54073632D01*
X51479874Y-54008005D01*
X51495189Y-53939835D01*
X51503845Y-53926366D01*
X51574381Y-53830794D01*
X51600317Y-53756675D01*
X51617741Y-53706881D01*
X51619351Y-53699510D01*
X51622359Y-53700167D01*
X51642944Y-53648376D01*
X51699758Y-53607707D01*
X51769540Y-53604209D01*
X51828286Y-53637105D01*
X52191181Y-54000000D01*
X52755513Y-54564332D01*
X52755514Y-54564333D01*
X52835667Y-54644486D01*
X52873218Y-54666166D01*
X52933833Y-54701162D01*
X53043323Y-54730500D01*
X53043324Y-54730500D01*
X53043326Y-54730500D01*
X56056674Y-54730500D01*
X56056677Y-54730500D01*
X56166167Y-54701162D01*
X56172586Y-54697456D01*
X56264333Y-54644486D01*
X56344486Y-54564333D01*
X56344486Y-54564331D01*
X56354690Y-54554128D01*
X56354693Y-54554123D01*
X57957820Y-52950996D01*
X58019142Y-52917513D01*
X58088834Y-52922497D01*
X58144767Y-52964369D01*
X58169184Y-53029833D01*
X58169500Y-53038679D01*
X58169500Y-53256676D01*
X58194457Y-53349815D01*
X58198838Y-53366166D01*
X58198839Y-53366169D01*
X58255511Y-53464329D01*
X58255513Y-53464332D01*
X58255514Y-53464333D01*
X58335667Y-53544486D01*
X58335668Y-53544487D01*
X58555513Y-53764332D01*
X58555514Y-53764333D01*
X58635667Y-53844486D01*
X58635669Y-53844487D01*
X58635673Y-53844490D01*
X58729807Y-53898838D01*
X58729814Y-53898841D01*
X58733833Y-53901162D01*
X58843323Y-53930500D01*
X58843324Y-53930500D01*
X63356162Y-53930500D01*
X63423201Y-53950185D01*
X63468956Y-54002989D01*
X63478900Y-54072147D01*
X63455932Y-54128134D01*
X63425618Y-54169207D01*
X63382258Y-54293118D01*
X63382258Y-54293120D01*
X63379500Y-54322538D01*
X63379500Y-54697453D01*
X63382258Y-54726874D01*
X63382260Y-54726884D01*
X63425618Y-54850792D01*
X63503576Y-54956423D01*
X63556391Y-54995402D01*
X63609206Y-55034381D01*
X63650511Y-55048834D01*
X63733119Y-55077741D01*
X63740796Y-55078460D01*
X63762543Y-55080500D01*
X64237456Y-55080499D01*
X64266879Y-55077741D01*
X64390794Y-55034381D01*
X64496423Y-54956423D01*
X64496422Y-54956423D01*
X64498717Y-54954730D01*
X64564346Y-54930759D01*
X64572351Y-54930500D01*
X64756674Y-54930500D01*
X64756677Y-54930500D01*
X64866167Y-54901162D01*
X64964333Y-54844486D01*
X65044486Y-54764333D01*
X65044486Y-54764331D01*
X65054690Y-54754128D01*
X65054693Y-54754123D01*
X65844486Y-53964333D01*
X65869793Y-53920500D01*
X65901162Y-53866167D01*
X65915831Y-53811421D01*
X65930500Y-53756677D01*
X65930500Y-53643323D01*
X65930500Y-53243324D01*
X65928939Y-53237501D01*
X65928448Y-53235667D01*
X65928447Y-53235663D01*
X65923262Y-53216313D01*
X65901162Y-53133833D01*
X65844486Y-53035667D01*
X65085655Y-52276837D01*
X65074783Y-52256926D01*
X65060081Y-52239645D01*
X65058359Y-52226847D01*
X65052171Y-52215515D01*
X65053789Y-52192884D01*
X65050764Y-52170399D01*
X65056582Y-52153830D01*
X65057155Y-52145824D01*
X65061014Y-52136626D01*
X65063278Y-52131783D01*
X65101162Y-52066167D01*
X65107988Y-52040691D01*
X65130500Y-51956677D01*
X65130500Y-51843323D01*
X65130500Y-51829680D01*
X65150185Y-51762641D01*
X65166819Y-51741999D01*
X65337043Y-51571775D01*
X65544486Y-51364333D01*
X65556616Y-51343323D01*
X65601162Y-51266167D01*
X65608787Y-51237708D01*
X65619204Y-51198837D01*
X65626267Y-51172475D01*
X65630500Y-51156677D01*
X65630500Y-51043323D01*
X65630500Y-47829680D01*
X65650185Y-47762641D01*
X65666819Y-47741999D01*
X66129003Y-47279815D01*
X66644486Y-46764333D01*
X66701162Y-46666167D01*
X66730500Y-46556677D01*
X66730500Y-46443323D01*
X66730500Y-44515213D01*
X66750185Y-44448174D01*
X66802989Y-44402419D01*
X66872147Y-44392475D01*
X66929426Y-44416410D01*
X66990023Y-44462363D01*
X66990024Y-44462363D01*
X66990025Y-44462364D01*
X67124410Y-44515359D01*
X67208856Y-44525500D01*
X67565320Y-44525500D01*
X67632359Y-44545185D01*
X67653000Y-44561818D01*
X68355513Y-45264332D01*
X68355514Y-45264333D01*
X68435667Y-45344486D01*
X68473218Y-45366166D01*
X68533833Y-45401162D01*
X68643323Y-45430500D01*
X68643324Y-45430500D01*
X71475501Y-45430500D01*
X71542540Y-45450185D01*
X71588295Y-45502989D01*
X71599501Y-45554500D01*
X71599501Y-46144856D01*
X71599502Y-46144882D01*
X71602413Y-46169987D01*
X71602415Y-46169991D01*
X71647793Y-46272764D01*
X71647794Y-46272765D01*
X71727235Y-46352206D01*
X71830009Y-46397585D01*
X71855135Y-46400500D01*
X74144864Y-46400499D01*
X74144879Y-46400497D01*
X74144882Y-46400497D01*
X74169987Y-46397586D01*
X74169988Y-46397585D01*
X74169991Y-46397585D01*
X74272765Y-46352206D01*
X74352206Y-46272765D01*
X74397585Y-46169991D01*
X74400500Y-46144865D01*
X74400499Y-43855136D01*
X74400499Y-43855135D01*
X74400497Y-43855117D01*
X74397586Y-43830012D01*
X74397585Y-43830010D01*
X74397585Y-43830009D01*
X74352206Y-43727235D01*
X74272765Y-43647794D01*
X74204475Y-43617641D01*
X74169992Y-43602415D01*
X74144865Y-43599500D01*
X71855143Y-43599500D01*
X71855117Y-43599502D01*
X71830012Y-43602413D01*
X71830008Y-43602415D01*
X71727235Y-43647793D01*
X71647794Y-43727234D01*
X71602415Y-43830006D01*
X71602415Y-43830008D01*
X71599500Y-43855131D01*
X71599500Y-44445500D01*
X71579815Y-44512539D01*
X71527011Y-44558294D01*
X71475500Y-44569500D01*
X68929681Y-44569500D01*
X68862642Y-44549815D01*
X68842000Y-44533181D01*
X68311819Y-44003000D01*
X68297115Y-43976072D01*
X68280523Y-43950254D01*
X68279631Y-43944053D01*
X68278334Y-43941677D01*
X68275500Y-43915319D01*
X68275500Y-43684680D01*
X68295185Y-43617641D01*
X68311819Y-43596999D01*
X68827029Y-43081790D01*
X69344485Y-42564334D01*
X69348907Y-42556676D01*
X69401162Y-42466167D01*
X69407916Y-42440961D01*
X69430500Y-42356677D01*
X69430500Y-42243324D01*
X69430500Y-41329680D01*
X69439144Y-41300239D01*
X69445668Y-41270253D01*
X69449422Y-41265237D01*
X69450185Y-41262641D01*
X69466819Y-41241999D01*
X69736843Y-40971975D01*
X70044485Y-40664334D01*
X70045842Y-40661985D01*
X70101162Y-40566167D01*
X70118580Y-40501162D01*
X70130500Y-40456677D01*
X70130500Y-40343324D01*
X70130500Y-39874071D01*
X71400000Y-39874071D01*
X71400000Y-40125928D01*
X71439397Y-40374669D01*
X71517219Y-40614184D01*
X71631557Y-40838583D01*
X71705748Y-40940697D01*
X71705748Y-40940698D01*
X72435387Y-40211058D01*
X72440889Y-40231591D01*
X72519881Y-40368408D01*
X72631592Y-40480119D01*
X72768409Y-40559111D01*
X72788940Y-40564612D01*
X72059300Y-41294250D01*
X72161416Y-41368442D01*
X72385815Y-41482780D01*
X72625330Y-41560602D01*
X72874072Y-41600000D01*
X73125928Y-41600000D01*
X73374669Y-41560602D01*
X73614184Y-41482780D01*
X73838575Y-41368446D01*
X73838581Y-41368442D01*
X73940697Y-41294250D01*
X73940698Y-41294250D01*
X73211059Y-40564612D01*
X73231591Y-40559111D01*
X73368408Y-40480119D01*
X73480119Y-40368408D01*
X73559111Y-40231591D01*
X73564612Y-40211059D01*
X74294250Y-40940698D01*
X74294250Y-40940697D01*
X74368442Y-40838581D01*
X74368446Y-40838575D01*
X74482780Y-40614184D01*
X74560602Y-40374669D01*
X74600000Y-40125928D01*
X74600000Y-39874071D01*
X74560602Y-39625330D01*
X74482780Y-39385815D01*
X74368442Y-39161416D01*
X74294250Y-39059301D01*
X74294250Y-39059300D01*
X73564612Y-39788939D01*
X73559111Y-39768409D01*
X73480119Y-39631592D01*
X73368408Y-39519881D01*
X73231591Y-39440889D01*
X73211058Y-39435387D01*
X73940698Y-38705748D01*
X73838583Y-38631557D01*
X73614184Y-38517219D01*
X73374669Y-38439397D01*
X73125928Y-38400000D01*
X72874072Y-38400000D01*
X72625330Y-38439397D01*
X72385815Y-38517219D01*
X72161413Y-38631559D01*
X72059301Y-38705747D01*
X72059300Y-38705748D01*
X72788940Y-39435387D01*
X72768409Y-39440889D01*
X72631592Y-39519881D01*
X72519881Y-39631592D01*
X72440889Y-39768409D01*
X72435387Y-39788940D01*
X71705748Y-39059300D01*
X71705747Y-39059301D01*
X71631559Y-39161413D01*
X71517219Y-39385815D01*
X71439397Y-39625330D01*
X71400000Y-39874071D01*
X70130500Y-39874071D01*
X70130500Y-39543324D01*
X70122370Y-39512984D01*
X70101162Y-39433833D01*
X70055945Y-39355515D01*
X70044486Y-39335667D01*
X69964333Y-39255514D01*
X69964332Y-39255513D01*
X69656818Y-38947999D01*
X69643237Y-38923128D01*
X69626989Y-38899909D01*
X69625457Y-38890566D01*
X69623333Y-38886676D01*
X69620595Y-38865199D01*
X69620499Y-38862762D01*
X69620499Y-38802544D01*
X69617741Y-38773121D01*
X69574381Y-38649206D01*
X69511741Y-38564332D01*
X69496423Y-38543576D01*
X69399910Y-38472347D01*
X69390794Y-38465619D01*
X69390792Y-38465618D01*
X69266880Y-38422258D01*
X69237461Y-38419500D01*
X68762546Y-38419500D01*
X68733125Y-38422258D01*
X68733115Y-38422260D01*
X68609206Y-38465618D01*
X68600089Y-38472347D01*
X68534459Y-38496315D01*
X68466289Y-38480996D01*
X68438779Y-38460254D01*
X67962413Y-37983888D01*
X67951243Y-37963432D01*
X67936323Y-37945524D01*
X67934811Y-37933339D01*
X67928928Y-37922565D01*
X67930590Y-37899316D01*
X67927721Y-37876186D01*
X67933377Y-37860340D01*
X67933912Y-37852873D01*
X67938319Y-37842520D01*
X67940458Y-37838065D01*
X67940509Y-37838015D01*
X68012984Y-37712486D01*
X68025395Y-37666166D01*
X68050500Y-37572475D01*
X68050500Y-35697085D01*
X68070185Y-35630046D01*
X68115985Y-35590359D01*
X68114950Y-35588517D01*
X68122336Y-35584363D01*
X68122342Y-35584361D01*
X68242922Y-35492922D01*
X68334361Y-35372342D01*
X68389877Y-35231564D01*
X68399673Y-35149986D01*
X69400001Y-35149986D01*
X69410494Y-35252697D01*
X69465641Y-35419119D01*
X69465643Y-35419124D01*
X69557684Y-35568345D01*
X69681654Y-35692315D01*
X69830875Y-35784356D01*
X69830880Y-35784358D01*
X69997302Y-35839505D01*
X69997309Y-35839506D01*
X70100019Y-35849999D01*
X70224999Y-35849999D01*
X70725000Y-35849999D01*
X70849972Y-35849999D01*
X70849986Y-35849998D01*
X70952697Y-35839505D01*
X71119119Y-35784358D01*
X71119124Y-35784356D01*
X71268345Y-35692315D01*
X71392315Y-35568345D01*
X71484356Y-35419124D01*
X71484358Y-35419119D01*
X71539505Y-35252697D01*
X71539506Y-35252690D01*
X71549999Y-35149986D01*
X71550000Y-35149973D01*
X71550000Y-34250000D01*
X70725000Y-34250000D01*
X70725000Y-35849999D01*
X70224999Y-35849999D01*
X70225000Y-35849998D01*
X70225000Y-34250000D01*
X69400001Y-34250000D01*
X69400001Y-35149986D01*
X68399673Y-35149986D01*
X68400500Y-35143102D01*
X68400500Y-32856898D01*
X68399673Y-32850013D01*
X69400000Y-32850013D01*
X69400000Y-33750000D01*
X70225000Y-33750000D01*
X70725000Y-33750000D01*
X71549999Y-33750000D01*
X71549999Y-32850028D01*
X71549998Y-32850013D01*
X71539505Y-32747302D01*
X71484358Y-32580880D01*
X71484356Y-32580875D01*
X71392315Y-32431654D01*
X71268345Y-32307684D01*
X71119124Y-32215643D01*
X71119119Y-32215641D01*
X70952697Y-32160494D01*
X70952690Y-32160493D01*
X70849986Y-32150000D01*
X70725000Y-32150000D01*
X70725000Y-33750000D01*
X70225000Y-33750000D01*
X70225000Y-32150000D01*
X70100027Y-32150000D01*
X70100012Y-32150001D01*
X69997302Y-32160494D01*
X69830880Y-32215641D01*
X69830875Y-32215643D01*
X69681654Y-32307684D01*
X69557684Y-32431654D01*
X69465643Y-32580875D01*
X69465641Y-32580880D01*
X69410494Y-32747302D01*
X69410493Y-32747309D01*
X69400000Y-32850013D01*
X68399673Y-32850013D01*
X68389877Y-32768436D01*
X68334361Y-32627658D01*
X68334360Y-32627657D01*
X68334360Y-32627656D01*
X68242922Y-32507077D01*
X68122343Y-32415639D01*
X67981561Y-32360122D01*
X67935926Y-32354642D01*
X67893102Y-32349500D01*
X67156898Y-32349500D01*
X67117853Y-32354188D01*
X67068438Y-32360122D01*
X66927656Y-32415639D01*
X66807077Y-32507077D01*
X66715639Y-32627656D01*
X66660122Y-32768438D01*
X66655523Y-32806744D01*
X66649500Y-32856898D01*
X66649500Y-35143102D01*
X66652050Y-35164333D01*
X66660122Y-35231561D01*
X66660122Y-35231563D01*
X66660123Y-35231564D01*
X66664435Y-35242498D01*
X66715639Y-35372343D01*
X66807077Y-35492922D01*
X66860167Y-35533181D01*
X66900425Y-35563710D01*
X66941948Y-35619901D01*
X66949500Y-35662513D01*
X66949500Y-37220613D01*
X66940854Y-37250055D01*
X66934327Y-37280050D01*
X66930576Y-37285059D01*
X66929815Y-37287652D01*
X66913173Y-37308302D01*
X66907562Y-37313912D01*
X66874895Y-37335739D01*
X66875253Y-37336359D01*
X66731289Y-37419475D01*
X66731281Y-37419481D01*
X66619480Y-37531282D01*
X66619476Y-37531287D01*
X66561417Y-37631849D01*
X66510850Y-37680065D01*
X66442243Y-37693287D01*
X66377378Y-37667319D01*
X66366349Y-37657530D01*
X64966819Y-36258000D01*
X64933334Y-36196677D01*
X64930500Y-36170319D01*
X64930500Y-34443323D01*
X64930131Y-34441949D01*
X64928448Y-34435667D01*
X64901162Y-34333833D01*
X64899238Y-34330500D01*
X64844486Y-34235667D01*
X64764333Y-34155514D01*
X64764332Y-34155513D01*
X64566818Y-33957999D01*
X64533333Y-33896676D01*
X64530499Y-33870318D01*
X64530499Y-32043326D01*
X64530499Y-32043324D01*
X64501161Y-31933833D01*
X64444485Y-31835667D01*
X64364332Y-31755514D01*
X63564334Y-30955515D01*
X63564333Y-30955514D01*
X63564329Y-30955511D01*
X63466169Y-30898839D01*
X63466164Y-30898837D01*
X63457569Y-30896534D01*
X63457568Y-30896533D01*
X63379277Y-30875555D01*
X63356677Y-30869500D01*
X63356676Y-30869500D01*
X54254500Y-30869500D01*
X54187461Y-30849815D01*
X54141706Y-30797011D01*
X54130500Y-30745500D01*
X54130500Y-27604268D01*
X54150185Y-27537229D01*
X54202989Y-27491474D01*
X54272147Y-27481530D01*
X54335703Y-27510555D01*
X54361885Y-27542266D01*
X54386397Y-27584721D01*
X54386402Y-27584727D01*
X54386403Y-27584729D01*
X54533268Y-27776128D01*
X54533274Y-27776135D01*
X54703864Y-27946725D01*
X54703871Y-27946731D01*
X54745036Y-27978318D01*
X54895279Y-28093603D01*
X54895286Y-28093607D01*
X55104213Y-28214232D01*
X55104218Y-28214234D01*
X55104221Y-28214236D01*
X55327121Y-28306564D01*
X55560166Y-28369008D01*
X55799367Y-28400500D01*
X55799374Y-28400500D01*
X56040626Y-28400500D01*
X56040633Y-28400500D01*
X56279834Y-28369008D01*
X56512879Y-28306564D01*
X56735779Y-28214236D01*
X56944721Y-28093603D01*
X57136130Y-27946730D01*
X57306730Y-27776130D01*
X57453603Y-27584721D01*
X57574236Y-27375779D01*
X57666564Y-27152879D01*
X57729008Y-26919834D01*
X57760500Y-26680633D01*
X57760500Y-26439367D01*
X57729008Y-26200166D01*
X57666564Y-25967121D01*
X57574236Y-25744221D01*
X57574234Y-25744218D01*
X57574232Y-25744213D01*
X57453607Y-25535286D01*
X57453603Y-25535279D01*
X57345400Y-25394266D01*
X57306731Y-25343871D01*
X57306725Y-25343864D01*
X57136135Y-25173274D01*
X57136128Y-25173268D01*
X57033123Y-25094230D01*
X56991920Y-25037802D01*
X56987765Y-24968056D01*
X57021977Y-24907136D01*
X57039718Y-24892752D01*
X57139655Y-24825977D01*
X57285977Y-24679655D01*
X57400941Y-24507598D01*
X57480130Y-24316420D01*
X57520500Y-24113465D01*
X57520500Y-23878711D01*
X74149500Y-23878711D01*
X74149500Y-24121288D01*
X74181161Y-24361785D01*
X74243947Y-24596104D01*
X74336773Y-24820205D01*
X74336776Y-24820212D01*
X74458064Y-25030289D01*
X74458066Y-25030292D01*
X74458067Y-25030293D01*
X74605733Y-25222736D01*
X74605739Y-25222743D01*
X74777256Y-25394260D01*
X74777262Y-25394265D01*
X74969711Y-25541936D01*
X75179788Y-25663224D01*
X75403900Y-25756054D01*
X75638211Y-25818838D01*
X75818586Y-25842584D01*
X75878711Y-25850500D01*
X75878712Y-25850500D01*
X76121289Y-25850500D01*
X76169388Y-25844167D01*
X76361789Y-25818838D01*
X76596100Y-25756054D01*
X76820212Y-25663224D01*
X77030289Y-25541936D01*
X77222738Y-25394265D01*
X77394265Y-25222738D01*
X77541936Y-25030289D01*
X77663224Y-24820212D01*
X77756054Y-24596100D01*
X77818838Y-24361789D01*
X77850500Y-24121288D01*
X77850500Y-23878712D01*
X77818838Y-23638211D01*
X77756054Y-23403900D01*
X77663224Y-23179788D01*
X77541936Y-22969711D01*
X77394265Y-22777262D01*
X77394260Y-22777256D01*
X77222743Y-22605739D01*
X77222736Y-22605733D01*
X77030293Y-22458067D01*
X77030292Y-22458066D01*
X77030289Y-22458064D01*
X76826394Y-22340345D01*
X76820214Y-22336777D01*
X76820205Y-22336773D01*
X76596104Y-22243947D01*
X76361785Y-22181161D01*
X76121289Y-22149500D01*
X76121288Y-22149500D01*
X75878712Y-22149500D01*
X75878711Y-22149500D01*
X75638214Y-22181161D01*
X75403895Y-22243947D01*
X75179794Y-22336773D01*
X75179785Y-22336777D01*
X74969706Y-22458067D01*
X74777263Y-22605733D01*
X74777256Y-22605739D01*
X74605739Y-22777256D01*
X74605733Y-22777263D01*
X74458067Y-22969706D01*
X74336777Y-23179785D01*
X74336773Y-23179794D01*
X74243947Y-23403895D01*
X74181161Y-23638214D01*
X74149500Y-23878711D01*
X57520500Y-23878711D01*
X57520500Y-22906535D01*
X57480130Y-22703580D01*
X57400941Y-22512402D01*
X57285977Y-22340345D01*
X57285975Y-22340342D01*
X57139657Y-22194024D01*
X57053626Y-22136541D01*
X56967598Y-22079059D01*
X56776420Y-21999870D01*
X56776412Y-21999868D01*
X56573469Y-21959500D01*
X56573465Y-21959500D01*
X56366535Y-21959500D01*
X56366530Y-21959500D01*
X56163587Y-21999868D01*
X56163579Y-21999870D01*
X55972403Y-22079058D01*
X55800342Y-22194024D01*
X55654024Y-22340342D01*
X55539058Y-22512403D01*
X55459870Y-22703579D01*
X55459868Y-22703587D01*
X55419500Y-22906530D01*
X55419500Y-22945500D01*
X55399815Y-23012539D01*
X55347011Y-23058294D01*
X55295500Y-23069500D01*
X42844500Y-23069500D01*
X42777461Y-23049815D01*
X42731706Y-22997011D01*
X42720500Y-22945500D01*
X42720500Y-22906534D01*
X42720499Y-22906530D01*
X42680131Y-22703587D01*
X42680130Y-22703580D01*
X42600941Y-22512402D01*
X42485977Y-22340345D01*
X42485975Y-22340342D01*
X42339657Y-22194024D01*
X42253626Y-22136541D01*
X42167598Y-22079059D01*
X41976420Y-21999870D01*
X41976412Y-21999868D01*
X41773469Y-21959500D01*
X41773465Y-21959500D01*
X41566535Y-21959500D01*
X41566530Y-21959500D01*
X41363587Y-21999868D01*
X41363579Y-21999870D01*
X41172403Y-22079058D01*
X41000342Y-22194024D01*
X40854024Y-22340342D01*
X40739058Y-22512403D01*
X40659870Y-22703579D01*
X40659868Y-22703587D01*
X40619500Y-22906530D01*
X40619500Y-24113469D01*
X40659868Y-24316412D01*
X40659870Y-24316420D01*
X40739058Y-24507596D01*
X40854024Y-24679657D01*
X41000341Y-24825974D01*
X41000349Y-24825980D01*
X41100280Y-24892752D01*
X41145086Y-24946364D01*
X41153793Y-25015689D01*
X41123639Y-25078716D01*
X41106877Y-25094230D01*
X41003864Y-25173274D01*
X40833274Y-25343864D01*
X40833268Y-25343871D01*
X40686403Y-25535270D01*
X40686392Y-25535286D01*
X40565767Y-25744213D01*
X40565762Y-25744224D01*
X40473439Y-25967111D01*
X40473437Y-25967119D01*
X40473436Y-25967121D01*
X40428275Y-26135667D01*
X40410992Y-26200167D01*
X40379500Y-26439359D01*
X40379500Y-26680640D01*
X40399189Y-26830184D01*
X40410992Y-26919834D01*
X40466776Y-27128024D01*
X40473436Y-27152878D01*
X40473439Y-27152888D01*
X40565762Y-27375775D01*
X40565767Y-27375786D01*
X40686392Y-27584713D01*
X40686403Y-27584729D01*
X40833268Y-27776128D01*
X40833274Y-27776135D01*
X41003864Y-27946725D01*
X41003871Y-27946731D01*
X41045036Y-27978318D01*
X41195279Y-28093603D01*
X41195286Y-28093607D01*
X41404213Y-28214232D01*
X41404218Y-28214234D01*
X41404221Y-28214236D01*
X41627121Y-28306564D01*
X41860166Y-28369008D01*
X42099367Y-28400500D01*
X42099374Y-28400500D01*
X42340626Y-28400500D01*
X42340633Y-28400500D01*
X42579834Y-28369008D01*
X42812879Y-28306564D01*
X43035779Y-28214236D01*
X43244721Y-28093603D01*
X43436130Y-27946730D01*
X43606730Y-27776130D01*
X43727124Y-27619228D01*
X43783552Y-27578026D01*
X43853298Y-27573871D01*
X43914218Y-27608083D01*
X43946971Y-27669800D01*
X43949500Y-27694715D01*
X43949500Y-28420613D01*
X43929815Y-28487652D01*
X43913181Y-28508294D01*
X39508294Y-32913181D01*
X39481366Y-32927884D01*
X39455548Y-32944477D01*
X39449347Y-32945368D01*
X39446971Y-32946666D01*
X39420613Y-32949500D01*
X39179387Y-32949500D01*
X39112348Y-32929815D01*
X39091706Y-32913181D01*
X38338016Y-32159491D01*
X38338015Y-32159490D01*
X38212485Y-32087016D01*
X38212480Y-32087014D01*
X38147116Y-32069499D01*
X38147116Y-32069500D01*
X38109795Y-32059500D01*
X38072475Y-32049500D01*
X38072474Y-32049500D01*
X36379387Y-32049500D01*
X36312348Y-32029815D01*
X36291706Y-32013181D01*
X35938016Y-31659491D01*
X35938015Y-31659490D01*
X35812485Y-31587016D01*
X35745469Y-31569059D01*
X35745468Y-31569058D01*
X35692033Y-31554740D01*
X35672475Y-31549500D01*
X33427525Y-31549500D01*
X33354531Y-31569058D01*
X33354531Y-31569059D01*
X33287515Y-31587016D01*
X33287513Y-31587016D01*
X33287513Y-31587017D01*
X33161986Y-31659489D01*
X33161983Y-31659491D01*
X32533294Y-32288181D01*
X32471971Y-32321666D01*
X32445613Y-32324500D01*
X31754387Y-32324500D01*
X31687348Y-32304815D01*
X31666706Y-32288181D01*
X29938016Y-30559491D01*
X29938015Y-30559490D01*
X29812485Y-30487016D01*
X29812486Y-30487016D01*
X29777482Y-30477637D01*
X29672475Y-30449500D01*
X29672472Y-30449500D01*
X24461873Y-30449500D01*
X24394834Y-30429815D01*
X24358771Y-30394391D01*
X24315975Y-30330342D01*
X24169657Y-30184024D01*
X24083626Y-30126541D01*
X23997598Y-30069059D01*
X23806420Y-29989870D01*
X23806412Y-29989868D01*
X23603469Y-29949500D01*
X23603465Y-29949500D01*
X23396535Y-29949500D01*
X23396530Y-29949500D01*
X23193587Y-29989868D01*
X23193579Y-29989870D01*
X23002403Y-30069058D01*
X22830342Y-30184024D01*
X22684024Y-30330342D01*
X22569058Y-30502403D01*
X22489870Y-30693579D01*
X22489868Y-30693587D01*
X22449500Y-30896530D01*
X22449500Y-31103469D01*
X22489868Y-31306412D01*
X22489870Y-31306420D01*
X22569058Y-31497596D01*
X22684024Y-31669657D01*
X22830342Y-31815975D01*
X22830345Y-31815977D01*
X23002402Y-31930941D01*
X23193580Y-32010130D01*
X23360459Y-32043324D01*
X23396530Y-32050499D01*
X23396534Y-32050500D01*
X23396535Y-32050500D01*
X23603466Y-32050500D01*
X23603467Y-32050499D01*
X23806420Y-32010130D01*
X23997598Y-31930941D01*
X24169655Y-31815977D01*
X24315977Y-31669655D01*
X24358771Y-31605609D01*
X24412383Y-31560804D01*
X24461873Y-31550500D01*
X29320613Y-31550500D01*
X29387652Y-31570185D01*
X29408294Y-31586819D01*
X31138181Y-33316706D01*
X31171666Y-33378029D01*
X31174500Y-33404387D01*
X31174500Y-34168102D01*
X31180715Y-34219860D01*
X31182019Y-34230717D01*
X31170467Y-34299625D01*
X31123494Y-34351349D01*
X31058903Y-34369500D01*
X29329681Y-34369500D01*
X29262642Y-34349815D01*
X29242000Y-34333181D01*
X28851556Y-33942738D01*
X28851554Y-33942735D01*
X28764334Y-33855515D01*
X28764329Y-33855511D01*
X28666169Y-33798839D01*
X28666168Y-33798838D01*
X28638794Y-33791503D01*
X28556677Y-33769500D01*
X28556676Y-33769500D01*
X26156677Y-33769500D01*
X26043323Y-33769500D01*
X25988577Y-33784169D01*
X25988576Y-33784168D01*
X25933834Y-33798837D01*
X25933829Y-33798839D01*
X25856782Y-33843323D01*
X25835670Y-33855511D01*
X25835665Y-33855515D01*
X22455516Y-37235664D01*
X22455512Y-37235670D01*
X22418660Y-37299500D01*
X22398839Y-37333830D01*
X22398838Y-37333833D01*
X22390667Y-37364330D01*
X22370206Y-37440691D01*
X22369500Y-37443324D01*
X20300500Y-37443324D01*
X20300500Y-23878711D01*
X22149500Y-23878711D01*
X22149500Y-24121288D01*
X22181161Y-24361785D01*
X22243947Y-24596104D01*
X22336773Y-24820205D01*
X22336776Y-24820212D01*
X22458064Y-25030289D01*
X22458066Y-25030292D01*
X22458067Y-25030293D01*
X22605733Y-25222736D01*
X22605739Y-25222743D01*
X22777256Y-25394260D01*
X22777262Y-25394265D01*
X22969711Y-25541936D01*
X23179788Y-25663224D01*
X23403900Y-25756054D01*
X23638211Y-25818838D01*
X23818586Y-25842584D01*
X23878711Y-25850500D01*
X23878712Y-25850500D01*
X24121289Y-25850500D01*
X24169388Y-25844167D01*
X24361789Y-25818838D01*
X24596100Y-25756054D01*
X24820212Y-25663224D01*
X25030289Y-25541936D01*
X25222738Y-25394265D01*
X25394265Y-25222738D01*
X25541936Y-25030289D01*
X25663224Y-24820212D01*
X25756054Y-24596100D01*
X25818838Y-24361789D01*
X25850500Y-24121288D01*
X25850500Y-23878712D01*
X25818838Y-23638211D01*
X25756054Y-23403900D01*
X25663224Y-23179788D01*
X25541936Y-22969711D01*
X25394265Y-22777262D01*
X25394260Y-22777256D01*
X25222743Y-22605739D01*
X25222736Y-22605733D01*
X25030293Y-22458067D01*
X25030292Y-22458066D01*
X25030289Y-22458064D01*
X24826394Y-22340345D01*
X24820214Y-22336777D01*
X24820205Y-22336773D01*
X24596104Y-22243947D01*
X24361785Y-22181161D01*
X24121289Y-22149500D01*
X24121288Y-22149500D01*
X23878712Y-22149500D01*
X23878711Y-22149500D01*
X23638214Y-22181161D01*
X23403895Y-22243947D01*
X23179794Y-22336773D01*
X23179785Y-22336777D01*
X22969706Y-22458067D01*
X22777263Y-22605733D01*
X22777256Y-22605739D01*
X22605739Y-22777256D01*
X22605733Y-22777263D01*
X22458067Y-22969706D01*
X22336777Y-23179785D01*
X22336773Y-23179794D01*
X22243947Y-23403895D01*
X22181161Y-23638214D01*
X22149500Y-23878711D01*
X20300500Y-23878711D01*
X20300500Y-20424500D01*
X20320185Y-20357461D01*
X20372989Y-20311706D01*
X20424500Y-20300500D01*
X79575500Y-20300500D01*
X79642539Y-20320185D01*
G37*
%TD.AperFunction*%
%TD*%
D41*
X55300000Y-42100000D03*
X37000000Y-51500000D03*
X53700000Y-49000000D03*
X39000000Y-49200000D03*
X56900000Y-42100000D03*
X52500000Y-46500000D03*
X56300000Y-52300000D03*
X61500000Y-52100000D03*
X51000000Y-53100000D03*
X52200000Y-51800000D03*
X67000000Y-42700000D03*
X65099999Y-43400000D03*
X29500000Y-42800000D03*
X37000000Y-42850000D03*
X39300000Y-35100000D03*
X37700000Y-33500000D03*
X71800000Y-34000000D03*
X28950000Y-41150000D03*
X28810000Y-45670000D03*
X61200000Y-41000000D03*
X61700000Y-49000000D03*
X32030000Y-45120000D03*
X65000000Y-23000000D03*
X30000000Y-23000000D03*
X50480000Y-45550000D03*
X30000000Y-30000000D03*
X52630000Y-49920000D03*
X36980000Y-47150000D03*
X30000000Y-37000000D03*
X33600000Y-39730000D03*
X36220000Y-40540000D03*
X37460000Y-48610000D03*
X51000000Y-44000000D03*
X72000000Y-23000000D03*
X29620000Y-50240000D03*
X44000000Y-51000000D03*
X58000000Y-51000000D03*
X37000000Y-37000000D03*
X47288000Y-33400000D03*
X36700000Y-45000000D03*
X32030000Y-47920000D03*
X37000000Y-44000000D03*
X72000000Y-51000000D03*
X72000000Y-30000000D03*
X37000000Y-30000000D03*
X44000000Y-37000000D03*
X65000000Y-30000000D03*
X37000000Y-23000000D03*
X46500000Y-56000000D03*
X45460000Y-46610000D03*
X29310000Y-48000000D03*
X72000000Y-37000000D03*
X67099999Y-37900000D03*
X66000000Y-39000000D03*
X55000000Y-36000000D03*
X55000000Y-37500000D03*
D42*
X24000000Y-56000000D03*
X42220000Y-26560000D03*
X55920000Y-26560000D03*
X45500000Y-25860000D03*
X46520000Y-29860000D03*
X47540000Y-25860000D03*
X48560000Y-29860000D03*
X49580000Y-25860000D03*
X50600000Y-29860000D03*
X51620000Y-25860000D03*
X52640000Y-29860000D03*
D43*
X56470000Y-23510000D03*
X41670000Y-23510000D03*
D42*
X76000000Y-24000000D03*
X24000000Y-24000000D03*
X76000000Y-56000000D03*
X73000000Y-45000000D03*
X73000000Y-40000000D03*
M02*
