%TF.GenerationSoftware,KiCad,Pcbnew,10.0.4-10.0.4~ubuntu24.04.1*%
%TF.CreationDate,2026-09-03T12:13:21-07:00*%
%TF.ProjectId,crow_mic_pod_v3,63726f77-5f6d-4696-935f-706f645f7633,rev?*%
%TF.SameCoordinates,Original*%
%TF.FileFunction,Copper,L1,Top*%
%TF.FilePolarity,Positive*%
%FSLAX46Y46*%
G04 Gerber Fmt 4.6, Leading zero omitted, Abs format (unit mm)*
G04 Created by KiCad (PCBNEW 10.0.4-10.0.4~ubuntu24.04.1) date 2026-09-03 12:13:21*
%MOMM*%
%LPD*%
G01*
G04 APERTURE LIST*
G04 Aperture macros list*
%AMRoundRect*
0 Rectangle with rounded corners*
0 $1 Rounding radius*
0 $2 $3 $4 $5 $6 $7 $8 $9 X,Y pos of 4 corners*
0 Add a 4 corners polygon primitive as box body*
4,1,4,$2,$3,$4,$5,$6,$7,$8,$9,$2,$3,0*
0 Add four circle primitives for the rounded corners*
1,1,$1+$1,$2,$3*
1,1,$1+$1,$4,$5*
1,1,$1+$1,$6,$7*
1,1,$1+$1,$8,$9*
0 Add four rect primitives between the rounded corners*
20,1,$1+$1,$2,$3,$4,$5,0*
20,1,$1+$1,$4,$5,$6,$7,0*
20,1,$1+$1,$6,$7,$8,$9,0*
20,1,$1+$1,$8,$9,$2,$3,0*%
G04 Aperture macros list end*
%TA.AperFunction,SMDPad,CuDef*%
%ADD10RoundRect,0.135000X0.185000X-0.135000X0.185000X0.135000X-0.185000X0.135000X-0.185000X-0.135000X0*%
%TD*%
%TA.AperFunction,SMDPad,CuDef*%
%ADD11RoundRect,0.140000X0.140000X0.170000X-0.140000X0.170000X-0.140000X-0.170000X0.140000X-0.170000X0*%
%TD*%
%TA.AperFunction,ComponentPad*%
%ADD12R,2.200000X2.200000*%
%TD*%
%TA.AperFunction,ComponentPad*%
%ADD13C,2.200000*%
%TD*%
%TA.AperFunction,SMDPad,CuDef*%
%ADD14RoundRect,0.140000X0.170000X-0.140000X0.170000X0.140000X-0.170000X0.140000X-0.170000X-0.140000X0*%
%TD*%
%TA.AperFunction,SMDPad,CuDef*%
%ADD15RoundRect,0.225000X0.250000X-0.225000X0.250000X0.225000X-0.250000X0.225000X-0.250000X-0.225000X0*%
%TD*%
%TA.AperFunction,SMDPad,CuDef*%
%ADD16C,1.500000*%
%TD*%
%TA.AperFunction,SMDPad,CuDef*%
%ADD17RoundRect,0.150000X-0.825000X-0.150000X0.825000X-0.150000X0.825000X0.150000X-0.825000X0.150000X0*%
%TD*%
%TA.AperFunction,SMDPad,CuDef*%
%ADD18RoundRect,0.250000X0.250000X0.475000X-0.250000X0.475000X-0.250000X-0.475000X0.250000X-0.475000X0*%
%TD*%
%TA.AperFunction,SMDPad,CuDef*%
%ADD19RoundRect,0.125000X0.125000X-0.600000X0.125000X0.600000X-0.125000X0.600000X-0.125000X-0.600000X0*%
%TD*%
%TA.AperFunction,SMDPad,CuDef*%
%ADD20R,1.890000X1.570000*%
%TD*%
%TA.AperFunction,SMDPad,CuDef*%
%ADD21RoundRect,0.250000X-1.000000X-0.650000X1.000000X-0.650000X1.000000X0.650000X-1.000000X0.650000X0*%
%TD*%
%TA.AperFunction,SMDPad,CuDef*%
%ADD22RoundRect,0.250000X-0.250000X-0.475000X0.250000X-0.475000X0.250000X0.475000X-0.250000X0.475000X0*%
%TD*%
%TA.AperFunction,SMDPad,CuDef*%
%ADD23RoundRect,0.250000X-0.325000X-1.100000X0.325000X-1.100000X0.325000X1.100000X-0.325000X1.100000X0*%
%TD*%
%TA.AperFunction,SMDPad,CuDef*%
%ADD24RoundRect,0.250000X-0.262500X-0.450000X0.262500X-0.450000X0.262500X0.450000X-0.262500X0.450000X0*%
%TD*%
%TA.AperFunction,SMDPad,CuDef*%
%ADD25RoundRect,0.250000X0.475000X-0.250000X0.475000X0.250000X-0.475000X0.250000X-0.475000X-0.250000X0*%
%TD*%
%TA.AperFunction,SMDPad,CuDef*%
%ADD26RoundRect,0.250000X1.100000X-0.325000X1.100000X0.325000X-1.100000X0.325000X-1.100000X-0.325000X0*%
%TD*%
%TA.AperFunction,ComponentPad*%
%ADD27RoundRect,0.250001X-0.499999X-0.759999X0.499999X-0.759999X0.499999X0.759999X-0.499999X0.759999X0*%
%TD*%
%TA.AperFunction,ComponentPad*%
%ADD28O,1.500000X2.020000*%
%TD*%
%TA.AperFunction,SMDPad,CuDef*%
%ADD29RoundRect,0.250000X-0.900000X1.000000X-0.900000X-1.000000X0.900000X-1.000000X0.900000X1.000000X0*%
%TD*%
%TA.AperFunction,SMDPad,CuDef*%
%ADD30RoundRect,0.087500X-0.250000X-0.087500X0.250000X-0.087500X0.250000X0.087500X-0.250000X0.087500X0*%
%TD*%
%TA.AperFunction,SMDPad,CuDef*%
%ADD31RoundRect,0.250000X-0.375000X-0.625000X0.375000X-0.625000X0.375000X0.625000X-0.375000X0.625000X0*%
%TD*%
%TA.AperFunction,SMDPad,CuDef*%
%ADD32RoundRect,0.140000X-0.140000X-0.170000X0.140000X-0.170000X0.140000X0.170000X-0.140000X0.170000X0*%
%TD*%
%TA.AperFunction,SMDPad,CuDef*%
%ADD33RoundRect,0.250000X0.625000X-0.312500X0.625000X0.312500X-0.625000X0.312500X-0.625000X-0.312500X0*%
%TD*%
%TA.AperFunction,ViaPad*%
%ADD34C,0.600000*%
%TD*%
%TA.AperFunction,Conductor*%
%ADD35C,0.260000*%
%TD*%
%TA.AperFunction,Conductor*%
%ADD36C,0.300000*%
%TD*%
%TA.AperFunction,Conductor*%
%ADD37C,0.250000*%
%TD*%
%TA.AperFunction,Conductor*%
%ADD38C,0.500000*%
%TD*%
%TA.AperFunction,Conductor*%
%ADD39C,0.400000*%
%TD*%
%ADD40C,0.300000*%
%ADD41C,0.350000*%
G04 APERTURE END LIST*
D10*
%TO.P,R7,1*%
%TO.N,VREF_RAW*%
X46000000Y-48510000D03*
%TO.P,R7,2*%
%TO.N,GND*%
X46000000Y-47490000D03*
%TD*%
D11*
%TO.P,C2,1*%
%TO.N,VIN_PROTECTED*%
X32480000Y-44200000D03*
%TO.P,C2,2*%
%TO.N,GND*%
X31520000Y-44200000D03*
%TD*%
D10*
%TO.P,R5,1*%
%TO.N,MIC_AC*%
X64500000Y-43510000D03*
%TO.P,R5,2*%
%TO.N,VREF*%
X64500000Y-42490000D03*
%TD*%
D12*
%TO.P,MK1,1*%
%TO.N,MIC_RAW*%
X73000000Y-45000000D03*
D13*
%TO.P,MK1,2*%
%TO.N,GND*%
X73000000Y-40000000D03*
%TD*%
D14*
%TO.P,C4,1*%
%TO.N,LDO_NR*%
X35300000Y-40980000D03*
%TO.P,C4,2*%
%TO.N,GND*%
X35300000Y-40020000D03*
%TD*%
D10*
%TO.P,R6,1*%
%TO.N,5V_QUIET*%
X46000000Y-45510000D03*
%TO.P,R6,2*%
%TO.N,VREF_RAW*%
X46000000Y-44490000D03*
%TD*%
D15*
%TO.P,C8,1*%
%TO.N,MIC_RAW*%
X67500000Y-43775000D03*
%TO.P,C8,2*%
%TO.N,MIC_AC*%
X67500000Y-42225000D03*
%TD*%
D16*
%TO.P,TP6,1*%
%TO.N,AUDIO_N*%
X62900000Y-32500000D03*
%TD*%
D17*
%TO.P,U1,1*%
%TO.N,VREF*%
X55025000Y-45190000D03*
%TO.P,U1,2*%
X55025000Y-46460000D03*
%TO.P,U1,3*%
%TO.N,VREF_RAW*%
X55025000Y-47730000D03*
%TO.P,U1,4*%
%TO.N,5V_QUIET*%
X55025000Y-49000000D03*
%TO.P,U1,5*%
%TO.N,VREF*%
X55025000Y-50270000D03*
%TO.P,U1,6*%
%TO.N,PRE_FB*%
X55025000Y-51540000D03*
%TO.P,U1,7*%
%TO.N,PRE_OUT*%
X55025000Y-52810000D03*
%TO.P,U1,8*%
%TO.N,OUTP_DRV*%
X59975000Y-52810000D03*
%TO.P,U1,9*%
%TO.N,OUTP_FB*%
X59975000Y-51540000D03*
%TO.P,U1,10*%
%TO.N,VREF*%
X59975000Y-50270000D03*
%TO.P,U1,11*%
%TO.N,GND*%
X59975000Y-49000000D03*
%TO.P,U1,12*%
%TO.N,VREF*%
X59975000Y-47730000D03*
%TO.P,U1,13*%
%TO.N,SPARE_BUF*%
X59975000Y-46460000D03*
%TO.P,U1,14*%
X59975000Y-45190000D03*
%TD*%
D18*
%TO.P,C5,1*%
%TO.N,5V_QUIET*%
X32600000Y-49500000D03*
%TO.P,C5,2*%
%TO.N,GND*%
X30700000Y-49500000D03*
%TD*%
D19*
%TO.P,U2,1*%
%TO.N,5V_QUIET*%
X34025000Y-47150000D03*
%TO.P,U2,2*%
%TO.N,LDO_FB*%
X34675000Y-47150000D03*
%TO.P,U2,3*%
%TO.N,unconnected-(U2-NC-Pad3)*%
X35325000Y-47150000D03*
%TO.P,U2,4*%
%TO.N,GND*%
X35975000Y-47150000D03*
%TO.P,U2,5*%
%TO.N,VIN_PROTECTED*%
X35975000Y-42850000D03*
%TO.P,U2,6*%
%TO.N,LDO_NR*%
X35325000Y-42850000D03*
%TO.P,U2,7*%
%TO.N,unconnected-(U2-DNC-Pad7)*%
X34675000Y-42850000D03*
%TO.P,U2,8*%
%TO.N,VIN_PROTECTED*%
X34025000Y-42850000D03*
D20*
%TO.P,U2,9*%
%TO.N,GND*%
X35000000Y-45000000D03*
%TD*%
D16*
%TO.P,TP1,1*%
%TO.N,12V_POD*%
X23500000Y-31000000D03*
%TD*%
%TO.P,TP4,1*%
%TO.N,VREF*%
X24000000Y-51000000D03*
%TD*%
D21*
%TO.P,D1,1*%
%TO.N,VIN_PROTECTED*%
X37500000Y-34500000D03*
%TO.P,D1,2*%
%TO.N,12V_FUSED*%
X41500000Y-34500000D03*
%TD*%
D22*
%TO.P,C11,1*%
%TO.N,5V_QUIET*%
X58050000Y-41000000D03*
%TO.P,C11,2*%
%TO.N,GND*%
X59950000Y-41000000D03*
%TD*%
D23*
%TO.P,C7,1*%
%TO.N,MIC_BIAS*%
X67525000Y-34000000D03*
%TO.P,C7,2*%
%TO.N,GND*%
X70475000Y-34000000D03*
%TD*%
D24*
%TO.P,R12,1*%
%TO.N,OUTP_DRV*%
X56087500Y-36000000D03*
%TO.P,R12,2*%
%TO.N,AUDIO_P*%
X57912500Y-36000000D03*
%TD*%
D10*
%TO.P,R8,1*%
%TO.N,MIC_AC*%
X51000000Y-51510000D03*
%TO.P,R8,2*%
%TO.N,PRE_FB*%
X51000000Y-50490000D03*
%TD*%
%TO.P,R9,1*%
%TO.N,PRE_OUT*%
X51000000Y-54510000D03*
%TO.P,R9,2*%
%TO.N,PRE_FB*%
X51000000Y-53490000D03*
%TD*%
%TO.P,R1,1*%
%TO.N,5V_QUIET*%
X36200000Y-50510000D03*
%TO.P,R1,2*%
%TO.N,LDO_FB*%
X36200000Y-49490000D03*
%TD*%
D24*
%TO.P,R13,1*%
%TO.N,PRE_OUT*%
X61087500Y-36000000D03*
%TO.P,R13,2*%
%TO.N,AUDIO_N*%
X62912500Y-36000000D03*
%TD*%
D25*
%TO.P,C9,1*%
%TO.N,VREF_RAW*%
X49000000Y-47450000D03*
%TO.P,C9,2*%
%TO.N,GND*%
X49000000Y-45550000D03*
%TD*%
D26*
%TO.P,C1,1*%
%TO.N,VIN_PROTECTED*%
X31500000Y-42675000D03*
%TO.P,C1,2*%
%TO.N,GND*%
X31500000Y-39725000D03*
%TD*%
D27*
%TO.P,J1,1*%
%TO.N,12V_POD*%
X45500000Y-28420000D03*
D28*
%TO.P,J1,2*%
%TO.N,GND*%
X48500000Y-28420000D03*
%TO.P,J1,3*%
%TO.N,AUDIO_P*%
X51500000Y-28420000D03*
%TO.P,J1,4*%
%TO.N,AUDIO_N*%
X54500000Y-28420000D03*
%TD*%
D11*
%TO.P,C6,1*%
%TO.N,5V_QUIET*%
X32480000Y-47000000D03*
%TO.P,C6,2*%
%TO.N,GND*%
X31520000Y-47000000D03*
%TD*%
D29*
%TO.P,D2,1*%
%TO.N,VIN_PROTECTED*%
X27300000Y-35850000D03*
%TO.P,D2,2*%
%TO.N,GND*%
X27300000Y-40150000D03*
%TD*%
D24*
%TO.P,R3,1*%
%TO.N,5V_QUIET*%
X63087500Y-39000000D03*
%TO.P,R3,2*%
%TO.N,MIC_BIAS*%
X64912500Y-39000000D03*
%TD*%
D10*
%TO.P,R2,1*%
%TO.N,LDO_FB*%
X38000000Y-50510000D03*
%TO.P,R2,2*%
%TO.N,GND*%
X38000000Y-49490000D03*
%TD*%
%TO.P,R11,1*%
%TO.N,OUTP_DRV*%
X64000000Y-54510000D03*
%TO.P,R11,2*%
%TO.N,OUTP_FB*%
X64000000Y-53490000D03*
%TD*%
D16*
%TO.P,TP3,1*%
%TO.N,5V_QUIET*%
X24000000Y-47000000D03*
%TD*%
D30*
%TO.P,U3,1*%
%TO.N,unconnected-(U3-NC1-Pad1)*%
X51687500Y-30650000D03*
%TO.P,U3,2*%
%TO.N,unconnected-(U3-NC2-Pad2)*%
X51687500Y-31150000D03*
%TO.P,U3,3*%
%TO.N,AUDIO_P*%
X51687500Y-31650000D03*
%TO.P,U3,4*%
%TO.N,GND*%
X53112500Y-31650000D03*
%TO.P,U3,5*%
%TO.N,AUDIO_N*%
X53112500Y-30650000D03*
%TD*%
D10*
%TO.P,R10,1*%
%TO.N,PRE_OUT*%
X64000000Y-51510000D03*
%TO.P,R10,2*%
%TO.N,OUTP_FB*%
X64000000Y-50490000D03*
%TD*%
D16*
%TO.P,TP5,1*%
%TO.N,AUDIO_P*%
X57900000Y-32500000D03*
%TD*%
D31*
%TO.P,F1,1*%
%TO.N,12V_POD*%
X32100000Y-33500000D03*
%TO.P,F1,2*%
%TO.N,12V_FUSED*%
X34900000Y-33500000D03*
%TD*%
D10*
%TO.P,R4,1*%
%TO.N,MIC_BIAS*%
X69000000Y-40010000D03*
%TO.P,R4,2*%
%TO.N,MIC_RAW*%
X69000000Y-38990000D03*
%TD*%
D32*
%TO.P,C3,1*%
%TO.N,5V_QUIET*%
X34120000Y-49200000D03*
%TO.P,C3,2*%
%TO.N,LDO_FB*%
X35080000Y-49200000D03*
%TD*%
D33*
%TO.P,R14,1*%
%TO.N,VIN_PROTECTED*%
X28000000Y-47462500D03*
%TO.P,R14,2*%
%TO.N,GND*%
X28000000Y-44537500D03*
%TD*%
D16*
%TO.P,TP7,1*%
%TO.N,GND*%
X45000000Y-56000000D03*
%TD*%
%TO.P,TP2,1*%
%TO.N,VIN_PROTECTED*%
X24000000Y-43000000D03*
%TD*%
D11*
%TO.P,C10,1*%
%TO.N,5V_QUIET*%
X53080000Y-49000000D03*
%TO.P,C10,2*%
%TO.N,GND*%
X52120000Y-49000000D03*
%TD*%
D34*
%TO.N,GND*%
X51000000Y-44000000D03*
X71800000Y-34000000D03*
X29620000Y-50240000D03*
X61200000Y-41000000D03*
X50480000Y-45550000D03*
X33600000Y-39730000D03*
X52630000Y-49920000D03*
X65000000Y-30000000D03*
X44000000Y-51000000D03*
X29310000Y-48000000D03*
X36980000Y-47150000D03*
X37000000Y-30000000D03*
X44000000Y-37000000D03*
X30000000Y-30000000D03*
X28810000Y-45670000D03*
X46500000Y-56000000D03*
X37460000Y-48610000D03*
X54050000Y-32110000D03*
X72000000Y-51000000D03*
X61700000Y-49000000D03*
X65000000Y-37000000D03*
X65000000Y-23000000D03*
X36700000Y-45000000D03*
X37000000Y-37000000D03*
X51000000Y-37000000D03*
X72000000Y-37000000D03*
X29200000Y-40150000D03*
X23000000Y-44000000D03*
X30000000Y-23000000D03*
X37000000Y-44000000D03*
X32030000Y-47920000D03*
X72000000Y-30000000D03*
X37000000Y-23000000D03*
X30000000Y-37000000D03*
X36220000Y-40540000D03*
X32030000Y-45120000D03*
X72000000Y-23000000D03*
X23000000Y-37000000D03*
X45460000Y-46610000D03*
%TO.N,VIN_PROTECTED*%
X37000000Y-42850000D03*
X30000000Y-42783000D03*
%TO.N,MIC_AC*%
X65099999Y-43400000D03*
X66500000Y-43200000D03*
%TO.N,VREF*%
X61600000Y-45900000D03*
X56300000Y-50300000D03*
X58200000Y-50300000D03*
X62500000Y-45000000D03*
%TO.N,5V_QUIET*%
X54500000Y-48600000D03*
X37000000Y-51500000D03*
X56900000Y-42100000D03*
X55300000Y-42100000D03*
X39000000Y-49200000D03*
X52800000Y-46900000D03*
%TO.N,PRE_OUT*%
X53800000Y-53100000D03*
X53800000Y-54500000D03*
%TO.N,OUTP_DRV*%
X57700000Y-45700000D03*
X56800000Y-44800000D03*
%TD*%
%TO.N,VREF_RAW*%
D35*
X46000000Y-44490000D02*
X44500000Y-44490000D01*
X46000000Y-48510000D02*
X47000000Y-48510000D01*
X49000000Y-47450000D02*
X52000000Y-47730000D01*
X52000000Y-47730000D02*
X55025000Y-47730000D01*
X44500000Y-48510000D02*
X46000000Y-48510000D01*
X44500000Y-44490000D02*
X44500000Y-48510000D01*
X47000000Y-47450000D02*
X49000000Y-47450000D01*
X47000000Y-48510000D02*
X47000000Y-47450000D01*
%TO.N,GND*%
D36*
X46000000Y-47490000D02*
X45460000Y-46610000D01*
X27300000Y-40150000D02*
X29200000Y-40150000D01*
D37*
X30510000Y-49000000D02*
X29310000Y-48000000D01*
D36*
X70475000Y-34000000D02*
X71800000Y-34000000D01*
X30700000Y-49500000D02*
X29620000Y-50240000D01*
X52120000Y-49000000D02*
X52630000Y-49920000D01*
X31520000Y-47000000D02*
X32030000Y-47920000D01*
X59950000Y-41000000D02*
X61200000Y-41000000D01*
X35975000Y-47150000D02*
X36980000Y-47150000D01*
X49000000Y-45550000D02*
X50480000Y-45550000D01*
X35000000Y-45000000D02*
X36700000Y-45000000D01*
X45000000Y-56000000D02*
X46500000Y-56000000D01*
X31520000Y-44200000D02*
X32030000Y-45120000D01*
X38000000Y-49490000D02*
X37460000Y-48610000D01*
X31500000Y-39725000D02*
X33600000Y-39730000D01*
X28000000Y-44537500D02*
X28810000Y-45670000D01*
X53112500Y-31650000D02*
X54050000Y-32110000D01*
X59975000Y-49000000D02*
X61700000Y-49000000D01*
X35300000Y-40020000D02*
X36220000Y-40540000D01*
%TO.N,VIN_PROTECTED*%
D38*
X33400000Y-42850000D02*
X31500000Y-42675000D01*
X30000000Y-42783000D02*
X30000000Y-45500000D01*
X27300000Y-35850000D02*
X25200000Y-37000000D01*
X24000000Y-43000000D02*
X30000000Y-42783000D01*
X35975000Y-42850000D02*
X37000000Y-42850000D01*
X25200000Y-37000000D02*
X24000000Y-40000000D01*
X24000000Y-40000000D02*
X24000000Y-43000000D01*
X33400000Y-42850000D02*
X32479999Y-44200000D01*
X34025000Y-42850000D02*
X33400000Y-42850000D01*
X30000000Y-45500000D02*
X28000000Y-47462000D01*
X37500000Y-34500000D02*
X36800000Y-35850000D01*
X30000000Y-42783000D02*
X31500000Y-42675000D01*
X36800000Y-35850000D02*
X27300000Y-35850000D01*
%TO.N,MIC_AC*%
D35*
X65200000Y-43500000D02*
X62700000Y-46000000D01*
X55800000Y-53800000D02*
X53300000Y-53800000D01*
X57000000Y-52600000D02*
X55800000Y-53800000D01*
X61100000Y-44500000D02*
X58000000Y-44500000D01*
X65250000Y-43510000D02*
X65200000Y-43500000D01*
X57000000Y-45500000D02*
X57000000Y-52600000D01*
X53300000Y-53800000D02*
X51000000Y-51500000D01*
X62600000Y-46000000D02*
X61100000Y-44500000D01*
X58000000Y-44500000D02*
X57000000Y-45500000D01*
X67500000Y-42200000D02*
X67500000Y-42225000D01*
X64500000Y-43510000D02*
X65250000Y-43510000D01*
X62700000Y-46000000D02*
X62600000Y-46000000D01*
X66500000Y-43200000D02*
X67500000Y-42200000D01*
%TO.N,VREF*%
X55000000Y-50300000D02*
X55500000Y-50300000D01*
X58300000Y-49100000D02*
X58600000Y-48800000D01*
X55025000Y-46460000D02*
X53500000Y-46460000D01*
X37100000Y-52300000D02*
X25300000Y-52300000D01*
X53500000Y-46500000D02*
X53500000Y-46460000D01*
X39500000Y-49800000D02*
X38700000Y-50600000D01*
X56400000Y-46600000D02*
X55000000Y-45200000D01*
X63800000Y-43100000D02*
X64400000Y-42500000D01*
X25300000Y-52300000D02*
X24000000Y-51000000D01*
X55950000Y-49850000D02*
X56400000Y-49400000D01*
X56000000Y-49900000D02*
X56200000Y-50100000D01*
X58200000Y-50300000D02*
X60000000Y-50300000D01*
X60000000Y-50300000D02*
X59975000Y-50270000D01*
X58600000Y-48800000D02*
X58600000Y-48600000D01*
X61000000Y-47200000D02*
X61900000Y-46300000D01*
X60000000Y-47700000D02*
X59975000Y-47730000D01*
X59500000Y-47700000D02*
X60000000Y-47700000D01*
X38700000Y-50600000D02*
X38700000Y-50900000D01*
X55000000Y-45200000D02*
X55025000Y-45190000D01*
X55500000Y-50300000D02*
X55950000Y-49850000D01*
X56200000Y-50100000D02*
X56200000Y-50200000D01*
X52400000Y-50800000D02*
X51400000Y-49800000D01*
X37200000Y-52200000D02*
X37100000Y-52300000D01*
X60500000Y-47200000D02*
X61000000Y-47200000D01*
X55000000Y-50300000D02*
X54500000Y-50800000D01*
X56400000Y-49400000D02*
X56400000Y-46600000D01*
X38700000Y-50900000D02*
X37400000Y-52200000D01*
X63800000Y-43700000D02*
X63800000Y-43100000D01*
X53700000Y-46500000D02*
X53500000Y-46500000D01*
X60000000Y-47700000D02*
X60500000Y-47200000D01*
X61900000Y-46300000D02*
X61900000Y-46200000D01*
X61900000Y-46200000D02*
X61600000Y-45900000D01*
X58600000Y-48600000D02*
X59500000Y-47700000D01*
X51400000Y-49800000D02*
X39500000Y-49800000D01*
X58300000Y-49600000D02*
X58300000Y-49100000D01*
X55000000Y-45200000D02*
X53700000Y-46500000D01*
X54500000Y-50800000D02*
X52400000Y-50800000D01*
X55025000Y-50270000D02*
X55000000Y-50300000D01*
X59000000Y-50300000D02*
X58300000Y-49600000D01*
X37400000Y-52200000D02*
X37200000Y-52200000D01*
X64400000Y-42500000D02*
X64500000Y-42500000D01*
X62500000Y-45000000D02*
X63800000Y-43700000D01*
%TO.N,MIC_RAW*%
X69000000Y-41100000D02*
X69700000Y-40400000D01*
X73000000Y-45000000D02*
X71800000Y-43800000D01*
X69700000Y-39600000D02*
X69100000Y-39000000D01*
X71800000Y-43800000D02*
X69000000Y-43800000D01*
X69000000Y-43800000D02*
X67500000Y-43800000D01*
X69700000Y-40400000D02*
X69700000Y-39600000D01*
X67500000Y-43800000D02*
X67500000Y-43775000D01*
X69000000Y-43800000D02*
X69000000Y-41100000D01*
X69100000Y-39000000D02*
X69000000Y-39000000D01*
%TO.N,LDO_NR*%
X35325000Y-42850000D02*
X35300000Y-40980000D01*
%TO.N,5V_QUIET*%
D38*
X55300000Y-43000000D02*
X55300000Y-42100000D01*
X53500000Y-44800000D02*
X55300000Y-43000000D01*
X39000000Y-49200000D02*
X43800000Y-44400000D01*
X34025000Y-47150000D02*
X33600000Y-48000000D01*
X58000000Y-41000000D02*
X60000000Y-39000000D01*
X43800000Y-44200000D02*
X44300000Y-43700000D01*
X52800000Y-46100000D02*
X53500000Y-45400000D01*
X33400000Y-47150000D02*
X34120000Y-49200000D01*
X43800000Y-44400000D02*
X43800000Y-44200000D01*
X54900000Y-49000000D02*
X55025000Y-49000000D01*
X28100000Y-51100000D02*
X24000000Y-47000000D01*
X47400000Y-45300000D02*
X48200000Y-44500000D01*
X46700000Y-45000000D02*
X46700000Y-45100000D01*
X52500000Y-46500000D02*
X52800000Y-46200000D01*
X46500000Y-43700000D02*
X46900000Y-44100000D01*
X52500000Y-46500000D02*
X52800000Y-46900000D01*
X50500000Y-44500000D02*
X52500000Y-46500000D01*
X32600000Y-49500000D02*
X33000000Y-51100000D01*
X60000000Y-39000000D02*
X63087000Y-39000000D01*
D39*
X35200000Y-50510000D02*
X36200000Y-50510000D01*
D38*
X33600000Y-48000000D02*
X32600000Y-49500000D01*
X46900000Y-44100000D02*
X46900000Y-44800000D01*
X48200000Y-44500000D02*
X50500000Y-44500000D01*
X46700000Y-45100000D02*
X46300000Y-45500000D01*
X33000000Y-51100000D02*
X28100000Y-51100000D01*
X34025000Y-47150000D02*
X32479999Y-47000000D01*
D39*
X34120000Y-49430000D02*
X35200000Y-50510000D01*
D38*
X46300000Y-45500000D02*
X46000000Y-45510000D01*
X46900000Y-44800000D02*
X46700000Y-45000000D01*
D39*
X36200000Y-50510000D02*
X37000000Y-51500000D01*
D38*
X54500000Y-48600000D02*
X54900000Y-49000000D01*
X52800000Y-46200000D02*
X52800000Y-46100000D01*
X44300000Y-43700000D02*
X46500000Y-43700000D01*
X53500000Y-45400000D02*
X53500000Y-44800000D01*
X58000000Y-41000000D02*
X58050000Y-41000000D01*
X56900000Y-42100000D02*
X58000000Y-41000000D01*
X55025000Y-49000000D02*
X53080000Y-49000000D01*
X34025000Y-47150000D02*
X33400000Y-47150000D01*
D39*
X34120000Y-49200000D02*
X34120000Y-49430000D01*
D38*
X46900000Y-44800000D02*
X47400000Y-45300000D01*
%TO.N,AUDIO_N*%
D35*
X54500000Y-30650000D02*
X54500000Y-31300000D01*
X53112000Y-30650000D02*
X54500000Y-30650000D01*
X54500000Y-28420000D02*
X53112000Y-29500000D01*
X62900000Y-31300000D02*
X62900000Y-32500000D01*
X53112000Y-29500000D02*
X53112000Y-30650000D01*
X54500000Y-31300000D02*
X62900000Y-31300000D01*
X62900000Y-32500000D02*
X62913000Y-36000000D01*
%TO.N,PRE_FB*%
X51000000Y-50500000D02*
X50600000Y-50900000D01*
X50500000Y-50900000D02*
X50300000Y-51100000D01*
X51900000Y-51300000D02*
X51100000Y-50500000D01*
X51100000Y-50500000D02*
X51000000Y-50500000D01*
X50300000Y-52800000D02*
X51000000Y-53500000D01*
X50600000Y-50900000D02*
X50500000Y-50900000D01*
X55025000Y-51540000D02*
X55000000Y-51500000D01*
X54800000Y-51300000D02*
X51900000Y-51300000D01*
X55000000Y-51500000D02*
X54800000Y-51300000D01*
X50300000Y-51100000D02*
X50300000Y-52800000D01*
%TO.N,PRE_OUT*%
X64000000Y-51800000D02*
X65500000Y-53300000D01*
X64700000Y-44800000D02*
X65800000Y-43700000D01*
X65200000Y-40100000D02*
X64400000Y-40100000D01*
X53800000Y-54500000D02*
X51000000Y-54500000D01*
X64400000Y-51100000D02*
X64500000Y-51100000D01*
X65500000Y-54100000D02*
X64400000Y-55200000D01*
X65800000Y-40700000D02*
X65200000Y-40100000D01*
X62800000Y-37100000D02*
X62200000Y-37100000D01*
X55200000Y-54500000D02*
X53800000Y-54500000D01*
X55025000Y-52810000D02*
X53500000Y-52810000D01*
X55900000Y-55200000D02*
X55200000Y-54500000D01*
X62200000Y-37100000D02*
X61100000Y-36000000D01*
X64000000Y-38300000D02*
X62800000Y-37100000D01*
X64700000Y-50900000D02*
X64700000Y-44800000D01*
X64000000Y-51500000D02*
X64000000Y-51800000D01*
X64000000Y-39700000D02*
X64000000Y-38300000D01*
X65800000Y-43700000D02*
X65800000Y-40700000D01*
X64400000Y-55200000D02*
X55900000Y-55200000D01*
X65500000Y-53300000D02*
X65500000Y-54100000D01*
X64500000Y-51100000D02*
X64700000Y-50900000D01*
X64000000Y-51500000D02*
X64400000Y-51100000D01*
X64400000Y-40100000D02*
X64000000Y-39700000D01*
%TO.N,OUTP_DRV*%
X57500000Y-50800000D02*
X57500000Y-45900000D01*
X56800000Y-44800000D02*
X56100000Y-44100000D01*
X59975000Y-52810000D02*
X60000000Y-52800000D01*
X56100000Y-44100000D02*
X56100000Y-36000000D01*
X60000000Y-52800000D02*
X61700000Y-54500000D01*
X61700000Y-54500000D02*
X64000000Y-54500000D01*
X57500000Y-45900000D02*
X57700000Y-45700000D01*
X59000000Y-52300000D02*
X57500000Y-50800000D01*
X60000000Y-52800000D02*
X59500000Y-52300000D01*
X59500000Y-52300000D02*
X59000000Y-52300000D01*
%TO.N,OUTP_FB*%
X65000000Y-53490000D02*
X64900000Y-53500000D01*
X60500000Y-51500000D02*
X60000000Y-51500000D01*
X61100000Y-50900000D02*
X60500000Y-51500000D01*
X63500000Y-50900000D02*
X63300000Y-51100000D01*
X63300000Y-51100000D02*
X63300000Y-51900000D01*
X64000000Y-50500000D02*
X63600000Y-50900000D01*
X60000000Y-51500000D02*
X59975000Y-51540000D01*
X63500000Y-50900000D02*
X61100000Y-50900000D01*
X63600000Y-50900000D02*
X63500000Y-50900000D01*
X64000000Y-53490000D02*
X65000000Y-53490000D01*
X63300000Y-51900000D02*
X64900000Y-53500000D01*
%TO.N,SPARE_BUF*%
X60000000Y-46500000D02*
X60000000Y-45200000D01*
X59975000Y-46460000D02*
X60000000Y-46500000D01*
X60000000Y-45200000D02*
X59975000Y-45190000D01*
%TO.N,LDO_FB*%
X34675000Y-47150000D02*
X34675000Y-48000000D01*
X36900000Y-49490000D02*
X37400000Y-50510000D01*
X36200000Y-49490000D02*
X36900000Y-49490000D01*
X34675000Y-48000000D02*
X35080000Y-49200000D01*
X37400000Y-50510000D02*
X38000000Y-50510000D01*
X35080000Y-49200000D02*
X36200000Y-49490000D01*
%TO.N,12V_POD*%
D38*
X37200000Y-28400000D02*
X45500000Y-28400000D01*
X32100000Y-33500000D02*
X29600000Y-31000000D01*
X29600000Y-31000000D02*
X23500000Y-31000000D01*
X32100000Y-33500000D02*
X37200000Y-28400000D01*
%TO.N,12V_FUSED*%
X35300000Y-33100000D02*
X34900000Y-33500000D01*
X41500000Y-34500000D02*
X40500000Y-33500000D01*
X38900000Y-33100000D02*
X35300000Y-33100000D01*
X40500000Y-33500000D02*
X39300000Y-33500000D01*
X39300000Y-33500000D02*
X38900000Y-33100000D01*
%TO.N,MIC_BIAS*%
X68100000Y-39300000D02*
X68300000Y-39500000D01*
X67525000Y-34000000D02*
X67500000Y-34000000D01*
X68100000Y-39000000D02*
X64900000Y-39000000D01*
X67500000Y-34000000D02*
X69000000Y-35500000D01*
X68300000Y-39600000D02*
X68700000Y-40000000D01*
X69000000Y-37700000D02*
X68100000Y-38600000D01*
X68100000Y-38600000D02*
X68100000Y-39000000D01*
X68300000Y-39500000D02*
X68300000Y-39600000D01*
X69000000Y-35500000D02*
X69000000Y-37700000D01*
X68700000Y-40000000D02*
X69000000Y-40000000D01*
X68100000Y-39000000D02*
X68100000Y-39300000D01*
%TO.N,AUDIO_P*%
D37*
X50900000Y-31650000D02*
X51688000Y-31650000D01*
X51688000Y-31650000D02*
X51400000Y-31650000D01*
D35*
X57900000Y-32500000D02*
X57913000Y-36000000D01*
X57900000Y-33000000D02*
X57900000Y-32500000D01*
X51400000Y-33000000D02*
X57900000Y-33000000D01*
D37*
X50900000Y-30650000D02*
X50900000Y-31650000D01*
X51400000Y-31650000D02*
X51400000Y-33000000D01*
X51500000Y-28420000D02*
X50900000Y-30650000D01*
%TD*%
%TA.AperFunction,Conductor*%
%TO.N,GND*%
G36*
X64188834Y-45222497D02*
G01*
X64244767Y-45264369D01*
X64269184Y-45329833D01*
X64269500Y-45338679D01*
X64269500Y-49795500D01*
X64249815Y-49862539D01*
X64197011Y-49908294D01*
X64145500Y-49919500D01*
X63762546Y-49919500D01*
X63733125Y-49922258D01*
X63733115Y-49922260D01*
X63609207Y-49965618D01*
X63503576Y-50043576D01*
X63425618Y-50149207D01*
X63382258Y-50273118D01*
X63382258Y-50273120D01*
X63379500Y-50302538D01*
X63379500Y-50345500D01*
X63359815Y-50412539D01*
X63307011Y-50458294D01*
X63255500Y-50469500D01*
X61374500Y-50469500D01*
X61307461Y-50449815D01*
X61261706Y-50397011D01*
X61250500Y-50345500D01*
X61250500Y-50065730D01*
X61247646Y-50035300D01*
X61247646Y-50035298D01*
X61207126Y-49919501D01*
X61202793Y-49907118D01*
X61160931Y-49850397D01*
X61136961Y-49784770D01*
X61152276Y-49716600D01*
X61197589Y-49670028D01*
X61201557Y-49667681D01*
X61201561Y-49667678D01*
X61317678Y-49551561D01*
X61317685Y-49551552D01*
X61401281Y-49410198D01*
X61447100Y-49252486D01*
X61447295Y-49250001D01*
X61447295Y-49250000D01*
X60099000Y-49250000D01*
X60031961Y-49230315D01*
X59986206Y-49177511D01*
X59975000Y-49126000D01*
X59975000Y-48874000D01*
X59994685Y-48806961D01*
X60047489Y-48761206D01*
X60099000Y-48750000D01*
X61447295Y-48750000D01*
X61447295Y-48749998D01*
X61447100Y-48747513D01*
X61401281Y-48589801D01*
X61317685Y-48448447D01*
X61317678Y-48448438D01*
X61201561Y-48332321D01*
X61201553Y-48332315D01*
X61197578Y-48329964D01*
X61149896Y-48278893D01*
X61137395Y-48210150D01*
X61160933Y-48149600D01*
X61202793Y-48092882D01*
X61231749Y-48010130D01*
X61247646Y-47964701D01*
X61247646Y-47964699D01*
X61250500Y-47934269D01*
X61250500Y-47609681D01*
X61259143Y-47580246D01*
X61265666Y-47550257D01*
X61269422Y-47545239D01*
X61270185Y-47542642D01*
X61286817Y-47522002D01*
X61344486Y-47464333D01*
X61344487Y-47464330D01*
X62244485Y-46564334D01*
X62248907Y-46556676D01*
X62301162Y-46466167D01*
X62301163Y-46466162D01*
X62303863Y-46461486D01*
X62354430Y-46413270D01*
X62423037Y-46400046D01*
X62443336Y-46403708D01*
X62543323Y-46430500D01*
X62543324Y-46430500D01*
X62543326Y-46430500D01*
X62756674Y-46430500D01*
X62756677Y-46430500D01*
X62866167Y-46401162D01*
X62866812Y-46400789D01*
X62867309Y-46400503D01*
X62867318Y-46400497D01*
X62964333Y-46344486D01*
X63044486Y-46264333D01*
X63044486Y-46264331D01*
X63054690Y-46254128D01*
X63054693Y-46254123D01*
X64057820Y-45250997D01*
X64119142Y-45217513D01*
X64188834Y-45222497D01*
G37*
%TD.AperFunction*%
%TA.AperFunction,Conductor*%
G36*
X53903206Y-49570185D02*
G01*
X53948961Y-49622989D01*
X53958905Y-49692147D01*
X53929880Y-49755703D01*
X53909805Y-49774265D01*
X53877850Y-49797850D01*
X53877849Y-49797851D01*
X53797207Y-49907117D01*
X53797206Y-49907119D01*
X53752353Y-50035298D01*
X53752353Y-50035300D01*
X53749500Y-50065730D01*
X53749500Y-50245500D01*
X53729815Y-50312539D01*
X53677011Y-50358294D01*
X53625500Y-50369500D01*
X52629681Y-50369500D01*
X52562642Y-50349815D01*
X52542000Y-50333181D01*
X52230499Y-50021680D01*
X52197014Y-49960357D01*
X52201998Y-49890665D01*
X52243870Y-49834732D01*
X52309334Y-49810315D01*
X52318180Y-49809999D01*
X52324624Y-49809999D01*
X52324649Y-49809998D01*
X52360910Y-49807145D01*
X52516196Y-49762030D01*
X52655372Y-49679722D01*
X52655380Y-49679716D01*
X52705936Y-49629160D01*
X52767259Y-49595674D01*
X52834569Y-49599797D01*
X52857181Y-49607710D01*
X52857189Y-49607710D01*
X52857190Y-49607711D01*
X52886930Y-49610500D01*
X52886934Y-49610500D01*
X53273070Y-49610500D01*
X53286289Y-49609260D01*
X53302819Y-49607710D01*
X53302823Y-49607708D01*
X53302826Y-49607708D01*
X53436928Y-49560783D01*
X53437389Y-49562101D01*
X53484173Y-49550500D01*
X53836167Y-49550500D01*
X53903206Y-49570185D01*
G37*
%TD.AperFunction*%
%TA.AperFunction,Conductor*%
G36*
X43988834Y-45092205D02*
G01*
X44044767Y-45134077D01*
X44069184Y-45199541D01*
X44069500Y-45208387D01*
X44069500Y-48566676D01*
X44089261Y-48640423D01*
X44098838Y-48676166D01*
X44098839Y-48676169D01*
X44155511Y-48774329D01*
X44155513Y-48774332D01*
X44155514Y-48774333D01*
X44235667Y-48854486D01*
X44333833Y-48911162D01*
X44443324Y-48940500D01*
X44556676Y-48940500D01*
X45441199Y-48940500D01*
X45508238Y-48960185D01*
X45514826Y-48964725D01*
X45609206Y-49034381D01*
X45650511Y-49048834D01*
X45733119Y-49077741D01*
X45740796Y-49078460D01*
X45762543Y-49080500D01*
X46237456Y-49080499D01*
X46266879Y-49077741D01*
X46390794Y-49034381D01*
X46485167Y-48964729D01*
X46550796Y-48940759D01*
X46558801Y-48940500D01*
X47056674Y-48940500D01*
X47056676Y-48940500D01*
X47166167Y-48911162D01*
X47264333Y-48854486D01*
X47344486Y-48774333D01*
X47401162Y-48676167D01*
X47430500Y-48566676D01*
X47430500Y-48004500D01*
X47450185Y-47937461D01*
X47502989Y-47891706D01*
X47554500Y-47880500D01*
X47920027Y-47880500D01*
X47987066Y-47900185D01*
X48032821Y-47952989D01*
X48035382Y-47959011D01*
X48040639Y-47972342D01*
X48132077Y-48092922D01*
X48252656Y-48184360D01*
X48252657Y-48184360D01*
X48252658Y-48184361D01*
X48393436Y-48239877D01*
X48481898Y-48250500D01*
X48481903Y-48250500D01*
X49518097Y-48250500D01*
X49518102Y-48250500D01*
X49606564Y-48239877D01*
X49747342Y-48184361D01*
X49867922Y-48092922D01*
X49867953Y-48092882D01*
X49917999Y-48026886D01*
X49974191Y-47985362D01*
X50028323Y-47978347D01*
X51501733Y-48115866D01*
X51566653Y-48141695D01*
X51607303Y-48198522D01*
X51610777Y-48268306D01*
X51577892Y-48327010D01*
X51470282Y-48434620D01*
X51470278Y-48434625D01*
X51387968Y-48573804D01*
X51387966Y-48573809D01*
X51342855Y-48729081D01*
X51342854Y-48729087D01*
X51341209Y-48749999D01*
X51341210Y-48750000D01*
X51996000Y-48750000D01*
X52063039Y-48769685D01*
X52108794Y-48822489D01*
X52120000Y-48874000D01*
X52120000Y-49126000D01*
X52100315Y-49193039D01*
X52047511Y-49238794D01*
X51996000Y-49250000D01*
X51341210Y-49250000D01*
X51335894Y-49255749D01*
X51325724Y-49304154D01*
X51276670Y-49353908D01*
X51216473Y-49369500D01*
X39908387Y-49369500D01*
X39841348Y-49349815D01*
X39795593Y-49297011D01*
X39785649Y-49227853D01*
X39814674Y-49164297D01*
X39820706Y-49157819D01*
X43857819Y-45120706D01*
X43919142Y-45087221D01*
X43988834Y-45092205D01*
G37*
%TD.AperFunction*%
%TA.AperFunction,Conductor*%
G36*
X45430581Y-44940185D02*
G01*
X45476336Y-44992989D01*
X45486280Y-45062147D01*
X45463312Y-45118134D01*
X45425618Y-45169207D01*
X45382258Y-45293118D01*
X45382258Y-45293120D01*
X45379500Y-45322538D01*
X45379500Y-45697453D01*
X45382258Y-45726874D01*
X45382260Y-45726884D01*
X45425336Y-45849986D01*
X45425619Y-45850794D01*
X45433388Y-45861320D01*
X45503576Y-45956423D01*
X45527547Y-45974114D01*
X45609206Y-46034381D01*
X45647495Y-46047779D01*
X45733119Y-46077741D01*
X45740796Y-46078460D01*
X45762543Y-46080500D01*
X46237456Y-46080499D01*
X46266879Y-46077741D01*
X46298376Y-46066719D01*
X46324842Y-46057459D01*
X46355074Y-46050964D01*
X46360420Y-46050500D01*
X46372474Y-46050500D01*
X46378248Y-46048952D01*
X46389095Y-46048011D01*
X46389223Y-46048036D01*
X46390764Y-46047780D01*
X46390775Y-46047780D01*
X46451343Y-46029366D01*
X46512485Y-46012984D01*
X46520549Y-46008327D01*
X46529457Y-46005620D01*
X46581461Y-45973238D01*
X46584964Y-45971138D01*
X46610452Y-45956423D01*
X46638015Y-45940510D01*
X46644600Y-45933924D01*
X46652503Y-45929004D01*
X46695743Y-45882781D01*
X46862321Y-45716203D01*
X46923641Y-45682720D01*
X46993333Y-45687704D01*
X47037680Y-45716205D01*
X47061985Y-45740510D01*
X47187515Y-45812984D01*
X47327526Y-45850500D01*
X47327529Y-45850500D01*
X47472471Y-45850500D01*
X47472474Y-45850500D01*
X47612485Y-45812984D01*
X47612486Y-45812982D01*
X47620335Y-45810880D01*
X47620790Y-45812581D01*
X47680343Y-45806170D01*
X47742827Y-45837435D01*
X47778489Y-45897518D01*
X47781704Y-45915600D01*
X47785494Y-45952697D01*
X47840641Y-46119119D01*
X47840643Y-46119124D01*
X47932684Y-46268345D01*
X48056654Y-46392315D01*
X48205876Y-46484356D01*
X48227755Y-46491606D01*
X48285201Y-46531378D01*
X48312025Y-46595893D01*
X48299711Y-46664669D01*
X48258393Y-46709166D01*
X48259416Y-46710514D01*
X48132077Y-46807077D01*
X48040639Y-46927657D01*
X48035382Y-46940989D01*
X47992477Y-46996133D01*
X47926569Y-47019327D01*
X47920027Y-47019500D01*
X46943324Y-47019500D01*
X46833833Y-47048838D01*
X46833830Y-47048839D01*
X46735670Y-47105511D01*
X46735665Y-47105515D01*
X46655515Y-47185665D01*
X46655511Y-47185670D01*
X46598839Y-47283830D01*
X46598838Y-47283833D01*
X46569500Y-47393324D01*
X46569500Y-47874278D01*
X46549815Y-47941317D01*
X46497011Y-47987072D01*
X46427853Y-47997016D01*
X46399838Y-47987905D01*
X46399565Y-47988688D01*
X46266880Y-47942258D01*
X46237461Y-47939500D01*
X45762546Y-47939500D01*
X45733125Y-47942258D01*
X45733115Y-47942260D01*
X45609207Y-47985618D01*
X45567634Y-48016300D01*
X45525574Y-48047343D01*
X45514833Y-48055270D01*
X45449204Y-48079241D01*
X45441199Y-48079500D01*
X45054500Y-48079500D01*
X44987461Y-48059815D01*
X44941706Y-48007011D01*
X44930500Y-47955500D01*
X44930500Y-45044500D01*
X44950185Y-44977461D01*
X45002989Y-44931706D01*
X45054500Y-44920500D01*
X45363542Y-44920500D01*
X45430581Y-44940185D01*
G37*
%TD.AperFunction*%
%TA.AperFunction,Conductor*%
G36*
X50430202Y-45209173D02*
G01*
X50436680Y-45215205D01*
X52076841Y-46855366D01*
X52088360Y-46868647D01*
X52200873Y-47018665D01*
X52221447Y-47060970D01*
X52242526Y-47139633D01*
X52240190Y-47140258D01*
X52246342Y-47197528D01*
X52215061Y-47260004D01*
X52154969Y-47295651D01*
X52124314Y-47299500D01*
X52025813Y-47299500D01*
X52014290Y-47298963D01*
X51989679Y-47296666D01*
X50108730Y-47121109D01*
X50043811Y-47095281D01*
X50004900Y-47043138D01*
X49961159Y-46932217D01*
X49959361Y-46927657D01*
X49867922Y-46807077D01*
X49740584Y-46710514D01*
X49741970Y-46708685D01*
X49701679Y-46667372D01*
X49687683Y-46598919D01*
X49712918Y-46533765D01*
X49769372Y-46492598D01*
X49772245Y-46491606D01*
X49794122Y-46484356D01*
X49794124Y-46484356D01*
X49943345Y-46392315D01*
X50067315Y-46268345D01*
X50159356Y-46119124D01*
X50159358Y-46119119D01*
X50214505Y-45952697D01*
X50214506Y-45952690D01*
X50224999Y-45849986D01*
X50225000Y-45849973D01*
X50225000Y-45800000D01*
X49124000Y-45800000D01*
X49056961Y-45780315D01*
X49011206Y-45727511D01*
X49000000Y-45676000D01*
X49000000Y-45424000D01*
X49019685Y-45356961D01*
X49072489Y-45311206D01*
X49124000Y-45300000D01*
X50224999Y-45300000D01*
X50226198Y-45298800D01*
X50244684Y-45235847D01*
X50297488Y-45190092D01*
X50366646Y-45180148D01*
X50430202Y-45209173D01*
G37*
%TD.AperFunction*%
%TA.AperFunction,Conductor*%
G36*
X62255518Y-39570185D02*
G01*
X62301273Y-39622989D01*
X62303825Y-39628990D01*
X62326100Y-39685474D01*
X62340639Y-39722343D01*
X62432077Y-39842922D01*
X62552656Y-39934360D01*
X62552657Y-39934360D01*
X62552658Y-39934361D01*
X62693436Y-39989877D01*
X62781898Y-40000500D01*
X62781903Y-40000500D01*
X63393097Y-40000500D01*
X63393102Y-40000500D01*
X63481564Y-39989877D01*
X63548976Y-39963292D01*
X63567855Y-39961588D01*
X63585618Y-39954963D01*
X63601933Y-39958511D01*
X63618560Y-39957011D01*
X63635363Y-39965783D01*
X63653891Y-39969814D01*
X63678800Y-39988461D01*
X63680497Y-39989347D01*
X63682145Y-39990965D01*
X63721839Y-40030658D01*
X63735667Y-40044486D01*
X63735668Y-40044487D01*
X64055513Y-40364332D01*
X64055514Y-40364333D01*
X64135667Y-40444486D01*
X64135668Y-40444487D01*
X64135670Y-40444488D01*
X64156782Y-40456677D01*
X64233833Y-40501162D01*
X64343323Y-40530500D01*
X64343324Y-40530500D01*
X64970320Y-40530500D01*
X65037359Y-40550185D01*
X65058001Y-40566819D01*
X65333181Y-40841999D01*
X65366666Y-40903322D01*
X65369500Y-40929680D01*
X65369500Y-42688929D01*
X65349815Y-42755968D01*
X65297011Y-42801723D01*
X65227853Y-42811667D01*
X65213450Y-42808715D01*
X65211955Y-42808315D01*
X65152281Y-42771972D01*
X65121729Y-42709136D01*
X65120676Y-42680367D01*
X65120365Y-42680353D01*
X65120499Y-42677467D01*
X65120500Y-42677457D01*
X65120499Y-42302544D01*
X65117741Y-42273121D01*
X65110978Y-42253795D01*
X65105015Y-42236753D01*
X65074381Y-42149206D01*
X65021576Y-42077658D01*
X64996423Y-42043576D01*
X64924860Y-41990761D01*
X64890794Y-41965619D01*
X64890792Y-41965618D01*
X64766880Y-41922258D01*
X64737461Y-41919500D01*
X64262546Y-41919500D01*
X64233125Y-41922258D01*
X64233115Y-41922260D01*
X64109207Y-41965618D01*
X64003576Y-42043576D01*
X63925618Y-42149207D01*
X63882258Y-42273118D01*
X63882258Y-42273120D01*
X63879500Y-42302538D01*
X63879500Y-42360319D01*
X63859815Y-42427358D01*
X63843181Y-42448000D01*
X63455515Y-42835665D01*
X63455513Y-42835668D01*
X63413591Y-42908279D01*
X63413589Y-42908282D01*
X63407125Y-42919480D01*
X63398838Y-42933833D01*
X63370522Y-43039511D01*
X63369657Y-43042735D01*
X63369653Y-43042750D01*
X63369500Y-43043324D01*
X63369500Y-43470319D01*
X63349815Y-43537358D01*
X63333181Y-43558000D01*
X62528001Y-44363181D01*
X62466678Y-44396666D01*
X62440320Y-44399500D01*
X62420943Y-44399500D01*
X62268216Y-44440423D01*
X62268209Y-44440426D01*
X62131290Y-44519475D01*
X62131282Y-44519481D01*
X62017472Y-44633292D01*
X61956149Y-44666777D01*
X61886457Y-44661793D01*
X61842110Y-44633292D01*
X61451556Y-44242738D01*
X61451554Y-44242735D01*
X61364334Y-44155515D01*
X61364329Y-44155511D01*
X61266169Y-44098839D01*
X61266168Y-44098838D01*
X61238794Y-44091503D01*
X61156677Y-44069500D01*
X61156676Y-44069500D01*
X57943324Y-44069500D01*
X57833833Y-44098838D01*
X57833830Y-44098839D01*
X57754768Y-44144486D01*
X57735670Y-44155512D01*
X57735664Y-44155516D01*
X57457889Y-44433291D01*
X57396566Y-44466776D01*
X57326874Y-44461792D01*
X57282527Y-44433291D01*
X57168717Y-44319481D01*
X57168709Y-44319475D01*
X57031790Y-44240426D01*
X57031786Y-44240424D01*
X57031784Y-44240423D01*
X56879057Y-44199500D01*
X56879056Y-44199500D01*
X56859681Y-44199500D01*
X56792642Y-44179815D01*
X56772000Y-44163181D01*
X56566819Y-43958000D01*
X56533334Y-43896677D01*
X56530500Y-43870319D01*
X56530500Y-42784275D01*
X56550185Y-42717236D01*
X56602989Y-42671481D01*
X56672147Y-42661537D01*
X56686572Y-42664495D01*
X56820943Y-42700500D01*
X56820946Y-42700500D01*
X56979055Y-42700500D01*
X56979057Y-42700500D01*
X57131784Y-42659577D01*
X57268716Y-42580520D01*
X57380520Y-42468716D01*
X57459577Y-42331784D01*
X57459577Y-42331780D01*
X57463640Y-42324745D01*
X57464262Y-42325104D01*
X57486092Y-42292431D01*
X57716705Y-42061819D01*
X57778028Y-42028334D01*
X57804386Y-42025500D01*
X58343097Y-42025500D01*
X58343102Y-42025500D01*
X58431564Y-42014877D01*
X58572342Y-41959361D01*
X58692922Y-41867922D01*
X58725850Y-41824500D01*
X58789486Y-41740584D01*
X58791317Y-41741972D01*
X58832607Y-41701689D01*
X58901058Y-41687682D01*
X58966216Y-41712905D01*
X59007394Y-41769351D01*
X59008391Y-41772241D01*
X59015640Y-41794115D01*
X59015643Y-41794124D01*
X59107684Y-41943345D01*
X59231654Y-42067315D01*
X59380875Y-42159356D01*
X59380880Y-42159358D01*
X59547302Y-42214505D01*
X59547309Y-42214506D01*
X59650019Y-42224999D01*
X60200000Y-42224999D01*
X60249972Y-42224999D01*
X60249986Y-42224998D01*
X60352697Y-42214505D01*
X60519119Y-42159358D01*
X60519124Y-42159356D01*
X60668345Y-42067315D01*
X60792315Y-41943345D01*
X60884356Y-41794124D01*
X60884358Y-41794119D01*
X60939505Y-41627697D01*
X60939506Y-41627690D01*
X60949999Y-41524986D01*
X60950000Y-41524973D01*
X60950000Y-41250000D01*
X60200000Y-41250000D01*
X60200000Y-42224999D01*
X59650019Y-42224999D01*
X59699999Y-42224998D01*
X59700000Y-42224998D01*
X59700000Y-41124000D01*
X59719685Y-41056961D01*
X59772489Y-41011206D01*
X59824000Y-41000000D01*
X59950000Y-41000000D01*
X59950000Y-40874000D01*
X59969685Y-40806961D01*
X60022489Y-40761206D01*
X60074000Y-40750000D01*
X60949999Y-40750000D01*
X60949999Y-40475028D01*
X60949998Y-40475013D01*
X60939505Y-40372302D01*
X60884358Y-40205880D01*
X60884356Y-40205875D01*
X60792315Y-40056654D01*
X60668345Y-39932684D01*
X60519124Y-39840643D01*
X60519119Y-39840641D01*
X60372950Y-39792206D01*
X60315505Y-39752434D01*
X60288682Y-39687918D01*
X60300997Y-39619142D01*
X60348540Y-39567942D01*
X60411954Y-39550500D01*
X62188479Y-39550500D01*
X62255518Y-39570185D01*
G37*
%TD.AperFunction*%
%TA.AperFunction,Conductor*%
G36*
X52530701Y-30954634D02*
G01*
X52537379Y-30961911D01*
X52537788Y-30961503D01*
X52631591Y-31055306D01*
X52631595Y-31055309D01*
X52631597Y-31055311D01*
X52741107Y-31111109D01*
X52741109Y-31111109D01*
X52741111Y-31111110D01*
X52768670Y-31115474D01*
X52831967Y-31125500D01*
X53393032Y-31125499D01*
X53393037Y-31125499D01*
X53393037Y-31125498D01*
X53483893Y-31111109D01*
X53517442Y-31094014D01*
X53573737Y-31080500D01*
X53945500Y-31080500D01*
X54012539Y-31100185D01*
X54058294Y-31152989D01*
X54069500Y-31204500D01*
X54069500Y-31243324D01*
X54069500Y-31356676D01*
X54090417Y-31434737D01*
X54098838Y-31466166D01*
X54098839Y-31466169D01*
X54155511Y-31564329D01*
X54155513Y-31564332D01*
X54155514Y-31564333D01*
X54235667Y-31644486D01*
X54333833Y-31701162D01*
X54443324Y-31730500D01*
X56918750Y-31730500D01*
X56985789Y-31750185D01*
X57031544Y-31802989D01*
X57041488Y-31872147D01*
X57021852Y-31923390D01*
X56969059Y-32002399D01*
X56969059Y-32002400D01*
X56889870Y-32193579D01*
X56889868Y-32193587D01*
X56849500Y-32396530D01*
X56849500Y-32445500D01*
X56829815Y-32512539D01*
X56777011Y-32558294D01*
X56725500Y-32569500D01*
X51949500Y-32569500D01*
X51940814Y-32566949D01*
X51931853Y-32568238D01*
X51907812Y-32557259D01*
X51882461Y-32549815D01*
X51876533Y-32542974D01*
X51868297Y-32539213D01*
X51854007Y-32516978D01*
X51836706Y-32497011D01*
X51834418Y-32486496D01*
X51830523Y-32480435D01*
X51825500Y-32445500D01*
X51825500Y-32249499D01*
X51845185Y-32182460D01*
X51897989Y-32136705D01*
X51949500Y-32125499D01*
X51968037Y-32125499D01*
X51968037Y-32125498D01*
X52013462Y-32118304D01*
X52058888Y-32111110D01*
X52058889Y-32111110D01*
X52058890Y-32111109D01*
X52058893Y-32111109D01*
X52168403Y-32055311D01*
X52255311Y-31968403D01*
X52311109Y-31858893D01*
X52325500Y-31768033D01*
X52325499Y-31531968D01*
X52325499Y-31531962D01*
X52311109Y-31441107D01*
X52310203Y-31438317D01*
X52310100Y-31434737D01*
X52309583Y-31431468D01*
X52310005Y-31431401D01*
X52308208Y-31368476D01*
X52310204Y-31361680D01*
X52311107Y-31358896D01*
X52311109Y-31358893D01*
X52325500Y-31268033D01*
X52325499Y-31048347D01*
X52345183Y-30981308D01*
X52397987Y-30935553D01*
X52467145Y-30925609D01*
X52530701Y-30954634D01*
G37*
%TD.AperFunction*%
%TA.AperFunction,Conductor*%
G36*
X79642539Y-20320185D02*
G01*
X79688294Y-20372989D01*
X79699500Y-20424500D01*
X79699500Y-59575500D01*
X79679815Y-59642539D01*
X79627011Y-59688294D01*
X79575500Y-59699500D01*
X20424500Y-59699500D01*
X20357461Y-59679815D01*
X20311706Y-59627011D01*
X20300500Y-59575500D01*
X20300500Y-55878711D01*
X22149500Y-55878711D01*
X22149500Y-56121288D01*
X22181161Y-56361785D01*
X22243947Y-56596104D01*
X22336773Y-56820205D01*
X22336776Y-56820212D01*
X22458064Y-57030289D01*
X22458066Y-57030292D01*
X22458067Y-57030293D01*
X22605733Y-57222736D01*
X22605739Y-57222743D01*
X22777256Y-57394260D01*
X22777262Y-57394265D01*
X22969711Y-57541936D01*
X23179788Y-57663224D01*
X23403900Y-57756054D01*
X23638211Y-57818838D01*
X23818586Y-57842584D01*
X23878711Y-57850500D01*
X23878712Y-57850500D01*
X24121289Y-57850500D01*
X24169388Y-57844167D01*
X24361789Y-57818838D01*
X24596100Y-57756054D01*
X24820212Y-57663224D01*
X25030289Y-57541936D01*
X25222738Y-57394265D01*
X25394265Y-57222738D01*
X25531663Y-57043677D01*
X44309873Y-57043677D01*
X44309873Y-57043678D01*
X44344858Y-57069096D01*
X44520164Y-57158418D01*
X44707294Y-57219221D01*
X44901618Y-57250000D01*
X45098382Y-57250000D01*
X45292705Y-57219221D01*
X45479835Y-57158418D01*
X45655143Y-57069095D01*
X45690125Y-57043678D01*
X45690126Y-57043678D01*
X45000001Y-56353553D01*
X45000000Y-56353553D01*
X44309873Y-57043677D01*
X25531663Y-57043677D01*
X25541936Y-57030289D01*
X25663224Y-56820212D01*
X25756054Y-56596100D01*
X25818838Y-56361789D01*
X25850500Y-56121288D01*
X25850500Y-55901617D01*
X43750000Y-55901617D01*
X43750000Y-56098382D01*
X43780778Y-56292705D01*
X43841581Y-56479835D01*
X43930905Y-56655145D01*
X43956319Y-56690125D01*
X43956320Y-56690125D01*
X44646446Y-56000000D01*
X44646446Y-55999999D01*
X45353553Y-55999999D01*
X45353553Y-56000001D01*
X46043678Y-56690126D01*
X46043678Y-56690125D01*
X46069095Y-56655143D01*
X46158418Y-56479835D01*
X46219221Y-56292705D01*
X46250000Y-56098382D01*
X46250000Y-55901618D01*
X46248801Y-55894047D01*
X46248801Y-55894045D01*
X46246372Y-55878711D01*
X74149500Y-55878711D01*
X74149500Y-56121288D01*
X74181161Y-56361785D01*
X74243947Y-56596104D01*
X74336773Y-56820205D01*
X74336776Y-56820212D01*
X74458064Y-57030289D01*
X74458066Y-57030292D01*
X74458067Y-57030293D01*
X74605733Y-57222736D01*
X74605739Y-57222743D01*
X74777256Y-57394260D01*
X74777262Y-57394265D01*
X74969711Y-57541936D01*
X75179788Y-57663224D01*
X75403900Y-57756054D01*
X75638211Y-57818838D01*
X75818586Y-57842584D01*
X75878711Y-57850500D01*
X75878712Y-57850500D01*
X76121289Y-57850500D01*
X76169388Y-57844167D01*
X76361789Y-57818838D01*
X76596100Y-57756054D01*
X76820212Y-57663224D01*
X77030289Y-57541936D01*
X77222738Y-57394265D01*
X77394265Y-57222738D01*
X77541936Y-57030289D01*
X77663224Y-56820212D01*
X77756054Y-56596100D01*
X77818838Y-56361789D01*
X77850500Y-56121288D01*
X77850500Y-55878712D01*
X77818838Y-55638211D01*
X77756054Y-55403900D01*
X77663224Y-55179788D01*
X77541936Y-54969711D01*
X77450688Y-54850794D01*
X77394266Y-54777263D01*
X77394260Y-54777256D01*
X77222743Y-54605739D01*
X77222736Y-54605733D01*
X77030293Y-54458067D01*
X77030292Y-54458066D01*
X77030289Y-54458064D01*
X76820212Y-54336776D01*
X76785853Y-54322544D01*
X76596104Y-54243947D01*
X76361785Y-54181161D01*
X76121289Y-54149500D01*
X76121288Y-54149500D01*
X75878712Y-54149500D01*
X75878711Y-54149500D01*
X75638214Y-54181161D01*
X75403895Y-54243947D01*
X75179794Y-54336773D01*
X75179785Y-54336777D01*
X74969706Y-54458067D01*
X74777263Y-54605733D01*
X74777256Y-54605739D01*
X74605739Y-54777256D01*
X74605733Y-54777263D01*
X74458067Y-54969706D01*
X74336777Y-55179785D01*
X74336773Y-55179794D01*
X74243947Y-55403895D01*
X74181161Y-55638214D01*
X74149500Y-55878711D01*
X46246372Y-55878711D01*
X46219221Y-55707294D01*
X46158418Y-55520164D01*
X46069096Y-55344858D01*
X46043678Y-55309873D01*
X46043677Y-55309873D01*
X45353553Y-55999999D01*
X44646446Y-55999999D01*
X43956320Y-55309872D01*
X43956320Y-55309873D01*
X43930902Y-55344859D01*
X43930899Y-55344863D01*
X43841582Y-55520161D01*
X43780778Y-55707294D01*
X43750000Y-55901617D01*
X25850500Y-55901617D01*
X25850500Y-55878712D01*
X25818838Y-55638211D01*
X25756054Y-55403900D01*
X25663224Y-55179788D01*
X25541936Y-54969711D01*
X25531661Y-54956320D01*
X44309872Y-54956320D01*
X45000000Y-55646446D01*
X45000001Y-55646446D01*
X45690125Y-54956320D01*
X45690125Y-54956319D01*
X45655145Y-54930905D01*
X45479835Y-54841581D01*
X45292705Y-54780778D01*
X45098382Y-54750000D01*
X44901618Y-54750000D01*
X44707294Y-54780778D01*
X44520161Y-54841582D01*
X44344863Y-54930899D01*
X44344859Y-54930902D01*
X44309873Y-54956320D01*
X44309872Y-54956320D01*
X25531661Y-54956320D01*
X25450688Y-54850794D01*
X25394266Y-54777263D01*
X25394260Y-54777256D01*
X25222743Y-54605739D01*
X25222736Y-54605733D01*
X25030293Y-54458067D01*
X25030292Y-54458066D01*
X25030289Y-54458064D01*
X24820212Y-54336776D01*
X24785853Y-54322544D01*
X24596104Y-54243947D01*
X24361785Y-54181161D01*
X24121289Y-54149500D01*
X24121288Y-54149500D01*
X23878712Y-54149500D01*
X23878711Y-54149500D01*
X23638214Y-54181161D01*
X23403895Y-54243947D01*
X23179794Y-54336773D01*
X23179785Y-54336777D01*
X22969706Y-54458067D01*
X22777263Y-54605733D01*
X22777256Y-54605739D01*
X22605739Y-54777256D01*
X22605733Y-54777263D01*
X22458067Y-54969706D01*
X22336777Y-55179785D01*
X22336773Y-55179794D01*
X22243947Y-55403895D01*
X22181161Y-55638214D01*
X22149500Y-55878711D01*
X20300500Y-55878711D01*
X20300500Y-46896530D01*
X22949500Y-46896530D01*
X22949500Y-47103469D01*
X22989868Y-47306412D01*
X22989870Y-47306420D01*
X23068107Y-47495301D01*
X23069059Y-47497598D01*
X23105724Y-47552472D01*
X23184024Y-47669657D01*
X23330342Y-47815975D01*
X23330345Y-47815977D01*
X23502402Y-47930941D01*
X23693580Y-48010130D01*
X23880659Y-48047342D01*
X23896530Y-48050499D01*
X23896534Y-48050500D01*
X23896535Y-48050500D01*
X24103465Y-48050500D01*
X24179012Y-48035472D01*
X24248600Y-48041698D01*
X24290883Y-48069408D01*
X26028621Y-49807145D01*
X27761986Y-51540510D01*
X27881198Y-51609337D01*
X27881200Y-51609338D01*
X27881199Y-51609338D01*
X27883980Y-51610943D01*
X27887515Y-51612984D01*
X27935068Y-51625726D01*
X27994727Y-51662090D01*
X28025256Y-51724937D01*
X28016961Y-51794313D01*
X27972476Y-51848191D01*
X27905924Y-51869465D01*
X27902973Y-51869500D01*
X25529681Y-51869500D01*
X25462642Y-51849815D01*
X25442000Y-51833181D01*
X25241754Y-51632935D01*
X25040597Y-51431779D01*
X25007113Y-51370457D01*
X25009445Y-51312495D01*
X25008942Y-51312395D01*
X25009578Y-51309194D01*
X25009623Y-51308090D01*
X25010125Y-51306430D01*
X25010130Y-51306420D01*
X25050500Y-51103465D01*
X25050500Y-50896535D01*
X25010130Y-50693580D01*
X24930941Y-50502402D01*
X24815977Y-50330345D01*
X24815975Y-50330342D01*
X24669657Y-50184024D01*
X24583626Y-50126541D01*
X24497598Y-50069059D01*
X24489561Y-50065730D01*
X24306420Y-49989870D01*
X24306412Y-49989868D01*
X24103469Y-49949500D01*
X24103465Y-49949500D01*
X23896535Y-49949500D01*
X23896530Y-49949500D01*
X23693587Y-49989868D01*
X23693579Y-49989870D01*
X23502403Y-50069058D01*
X23330342Y-50184024D01*
X23184024Y-50330342D01*
X23069058Y-50502403D01*
X22989870Y-50693579D01*
X22989868Y-50693587D01*
X22949500Y-50896530D01*
X22949500Y-51103469D01*
X22989868Y-51306412D01*
X22989870Y-51306420D01*
X23067279Y-51493302D01*
X23069059Y-51497598D01*
X23113050Y-51563435D01*
X23184024Y-51669657D01*
X23330342Y-51815975D01*
X23330345Y-51815977D01*
X23502402Y-51930941D01*
X23693580Y-52010130D01*
X23846754Y-52040598D01*
X23896530Y-52050499D01*
X23896534Y-52050500D01*
X23896535Y-52050500D01*
X24103466Y-52050500D01*
X24103467Y-52050499D01*
X24306420Y-52010130D01*
X24306430Y-52010125D01*
X24308090Y-52009623D01*
X24309013Y-52009614D01*
X24312395Y-52008942D01*
X24312522Y-52009582D01*
X24377957Y-52008991D01*
X24431779Y-52040597D01*
X24955513Y-52564332D01*
X24955514Y-52564333D01*
X25035667Y-52644486D01*
X25035668Y-52644487D01*
X25035670Y-52644488D01*
X25084750Y-52672824D01*
X25133833Y-52701162D01*
X25243324Y-52730500D01*
X25243326Y-52730500D01*
X37156674Y-52730500D01*
X37156677Y-52730500D01*
X37266167Y-52701162D01*
X37281149Y-52692512D01*
X37359785Y-52647111D01*
X37421783Y-52630500D01*
X37456674Y-52630500D01*
X37456677Y-52630500D01*
X37566167Y-52601162D01*
X37588401Y-52588324D01*
X37588404Y-52588324D01*
X37664326Y-52544490D01*
X37664325Y-52544490D01*
X37664333Y-52544486D01*
X37744486Y-52464333D01*
X37744486Y-52464331D01*
X37754690Y-52454128D01*
X37754693Y-52454123D01*
X39044486Y-51164333D01*
X39058817Y-51139511D01*
X39101162Y-51066167D01*
X39130500Y-50956676D01*
X39130500Y-50829680D01*
X39150185Y-50762641D01*
X39166819Y-50741999D01*
X39642000Y-50266819D01*
X39703323Y-50233334D01*
X39729681Y-50230500D01*
X50255500Y-50230500D01*
X50264185Y-50233050D01*
X50273147Y-50231762D01*
X50297187Y-50242740D01*
X50322539Y-50250185D01*
X50328466Y-50257025D01*
X50336703Y-50260787D01*
X50350992Y-50283021D01*
X50368294Y-50302989D01*
X50370581Y-50313503D01*
X50374477Y-50319565D01*
X50379500Y-50354500D01*
X50379500Y-50400880D01*
X50359815Y-50467919D01*
X50317501Y-50508267D01*
X50256783Y-50543323D01*
X50256782Y-50543323D01*
X50235670Y-50555511D01*
X50235665Y-50555515D01*
X49955516Y-50835664D01*
X49955514Y-50835666D01*
X49955514Y-50835667D01*
X49911927Y-50911162D01*
X49911926Y-50911162D01*
X49898839Y-50933830D01*
X49898838Y-50933831D01*
X49871553Y-51035663D01*
X49871552Y-51035667D01*
X49869500Y-51043323D01*
X49869500Y-52856677D01*
X49886333Y-52919500D01*
X49886334Y-52919502D01*
X49898836Y-52966164D01*
X49898837Y-52966165D01*
X49898838Y-52966167D01*
X49909208Y-52984129D01*
X49955511Y-53064329D01*
X49955515Y-53064334D01*
X50042732Y-53151551D01*
X50042738Y-53151556D01*
X50343181Y-53452000D01*
X50376666Y-53513323D01*
X50379500Y-53539680D01*
X50379500Y-53677453D01*
X50382258Y-53706874D01*
X50382260Y-53706884D01*
X50425619Y-53830794D01*
X50425619Y-53830795D01*
X50496154Y-53926367D01*
X50520125Y-53991996D01*
X50504809Y-54060166D01*
X50496154Y-54073633D01*
X50425619Y-54169204D01*
X50425619Y-54169205D01*
X50382258Y-54293118D01*
X50382258Y-54293120D01*
X50379500Y-54322538D01*
X50379500Y-54697453D01*
X50382258Y-54726874D01*
X50382260Y-54726884D01*
X50425618Y-54850792D01*
X50503576Y-54956423D01*
X50556391Y-54995402D01*
X50609206Y-55034381D01*
X50650511Y-55048834D01*
X50733119Y-55077741D01*
X50740796Y-55078460D01*
X50762543Y-55080500D01*
X51237456Y-55080499D01*
X51266879Y-55077741D01*
X51390794Y-55034381D01*
X51496423Y-54956423D01*
X51496422Y-54956423D01*
X51498717Y-54954730D01*
X51564346Y-54930759D01*
X51572351Y-54930500D01*
X53329902Y-54930500D01*
X53396941Y-54950185D01*
X53417583Y-54966819D01*
X53431284Y-54980520D01*
X53431286Y-54980521D01*
X53431290Y-54980524D01*
X53524575Y-55034381D01*
X53568216Y-55059577D01*
X53720943Y-55100500D01*
X53720945Y-55100500D01*
X53879055Y-55100500D01*
X53879057Y-55100500D01*
X54031784Y-55059577D01*
X54168716Y-54980520D01*
X54182417Y-54966819D01*
X54243740Y-54933334D01*
X54270098Y-54930500D01*
X54970320Y-54930500D01*
X55037359Y-54950185D01*
X55058000Y-54966818D01*
X55555513Y-55464332D01*
X55555514Y-55464333D01*
X55635667Y-55544486D01*
X55733833Y-55601162D01*
X55843323Y-55630500D01*
X55843324Y-55630500D01*
X55843326Y-55630500D01*
X64456674Y-55630500D01*
X64456677Y-55630500D01*
X64566167Y-55601162D01*
X64664333Y-55544486D01*
X64744486Y-55464333D01*
X64744486Y-55464331D01*
X64754690Y-55454128D01*
X64754693Y-55454123D01*
X65844486Y-54364333D01*
X65901162Y-54266167D01*
X65930500Y-54156677D01*
X65930500Y-54043323D01*
X65930500Y-53243324D01*
X65929743Y-53240500D01*
X65901162Y-53133833D01*
X65856223Y-53055997D01*
X65849700Y-53044699D01*
X65844487Y-53035669D01*
X65844487Y-53035668D01*
X65817760Y-53008941D01*
X65764333Y-52955514D01*
X65764332Y-52955513D01*
X64650959Y-51842140D01*
X64617474Y-51780817D01*
X64614728Y-51749785D01*
X64615332Y-51733762D01*
X64617741Y-51726879D01*
X64620500Y-51697457D01*
X64620499Y-51596766D01*
X64620587Y-51594445D01*
X64630976Y-51563435D01*
X64640183Y-51532081D01*
X64642091Y-51530260D01*
X64642784Y-51528195D01*
X64652096Y-51520720D01*
X64682496Y-51491733D01*
X64764333Y-51444486D01*
X64844486Y-51364333D01*
X64844486Y-51364332D01*
X64861914Y-51346904D01*
X64861919Y-51346897D01*
X65044486Y-51164333D01*
X65058817Y-51139511D01*
X65101162Y-51066167D01*
X65130500Y-50956676D01*
X65130500Y-45029680D01*
X65150185Y-44962641D01*
X65166819Y-44941999D01*
X65599984Y-44508834D01*
X66144486Y-43964333D01*
X66201162Y-43866167D01*
X66201164Y-43866158D01*
X66204271Y-43858660D01*
X66206415Y-43859548D01*
X66236562Y-43810076D01*
X66299406Y-43779540D01*
X66352070Y-43782045D01*
X66420943Y-43800500D01*
X66420946Y-43800500D01*
X66579052Y-43800500D01*
X66579057Y-43800500D01*
X66579061Y-43800498D01*
X66584305Y-43799808D01*
X66653341Y-43810569D01*
X66705601Y-43856944D01*
X66724500Y-43922746D01*
X66724500Y-44041144D01*
X66728242Y-44072302D01*
X66734640Y-44125588D01*
X66787636Y-44259976D01*
X66874921Y-44375078D01*
X66990023Y-44462363D01*
X66990024Y-44462363D01*
X66990025Y-44462364D01*
X67124410Y-44515359D01*
X67208856Y-44525500D01*
X67208862Y-44525500D01*
X67791138Y-44525500D01*
X67791144Y-44525500D01*
X67875590Y-44515359D01*
X68009975Y-44462364D01*
X68125078Y-44375078D01*
X68197501Y-44279575D01*
X68253694Y-44238051D01*
X68296305Y-44230500D01*
X68943324Y-44230500D01*
X69056676Y-44230500D01*
X71475500Y-44230500D01*
X71542539Y-44250185D01*
X71588294Y-44302989D01*
X71599500Y-44354500D01*
X71599500Y-46144856D01*
X71599502Y-46144882D01*
X71602413Y-46169987D01*
X71602415Y-46169991D01*
X71647793Y-46272764D01*
X71647794Y-46272765D01*
X71727235Y-46352206D01*
X71830009Y-46397585D01*
X71855135Y-46400500D01*
X74144864Y-46400499D01*
X74144879Y-46400497D01*
X74144882Y-46400497D01*
X74169987Y-46397586D01*
X74169988Y-46397585D01*
X74169991Y-46397585D01*
X74272765Y-46352206D01*
X74352206Y-46272765D01*
X74397585Y-46169991D01*
X74400500Y-46144865D01*
X74400499Y-43855136D01*
X74400497Y-43855117D01*
X74397586Y-43830012D01*
X74397585Y-43830010D01*
X74397585Y-43830009D01*
X74352206Y-43727235D01*
X74272765Y-43647794D01*
X74241699Y-43634077D01*
X74169992Y-43602415D01*
X74144868Y-43599500D01*
X74144865Y-43599500D01*
X72259680Y-43599500D01*
X72230239Y-43590855D01*
X72200253Y-43584332D01*
X72195237Y-43580577D01*
X72192641Y-43579815D01*
X72171999Y-43563181D01*
X72151556Y-43542738D01*
X72151554Y-43542735D01*
X72064334Y-43455515D01*
X72064329Y-43455511D01*
X71966169Y-43398839D01*
X71966168Y-43398838D01*
X71966167Y-43398838D01*
X71897020Y-43380310D01*
X71897019Y-43380309D01*
X71856678Y-43369500D01*
X71856677Y-43369500D01*
X71856676Y-43369500D01*
X69554500Y-43369500D01*
X69487461Y-43349815D01*
X69441706Y-43297011D01*
X69430500Y-43245500D01*
X69430500Y-41329680D01*
X69439144Y-41300239D01*
X69445668Y-41270253D01*
X69449422Y-41265237D01*
X69450185Y-41262641D01*
X69466819Y-41241999D01*
X69736843Y-40971975D01*
X70044485Y-40664334D01*
X70045842Y-40661985D01*
X70101162Y-40566167D01*
X70118580Y-40501162D01*
X70130500Y-40456677D01*
X70130500Y-40343324D01*
X70130500Y-39874071D01*
X71400000Y-39874071D01*
X71400000Y-40125928D01*
X71439397Y-40374669D01*
X71517219Y-40614184D01*
X71631557Y-40838583D01*
X71705748Y-40940697D01*
X71705748Y-40940698D01*
X72435387Y-40211058D01*
X72440889Y-40231591D01*
X72519881Y-40368408D01*
X72631592Y-40480119D01*
X72768409Y-40559111D01*
X72788940Y-40564612D01*
X72059300Y-41294250D01*
X72161416Y-41368442D01*
X72385815Y-41482780D01*
X72625330Y-41560602D01*
X72874072Y-41600000D01*
X73125928Y-41600000D01*
X73374669Y-41560602D01*
X73614184Y-41482780D01*
X73838575Y-41368446D01*
X73838581Y-41368442D01*
X73940697Y-41294250D01*
X73940698Y-41294250D01*
X73211059Y-40564612D01*
X73231591Y-40559111D01*
X73368408Y-40480119D01*
X73480119Y-40368408D01*
X73559111Y-40231591D01*
X73564612Y-40211059D01*
X74294250Y-40940698D01*
X74294250Y-40940697D01*
X74368442Y-40838581D01*
X74368446Y-40838575D01*
X74482780Y-40614184D01*
X74560602Y-40374669D01*
X74600000Y-40125928D01*
X74600000Y-39874071D01*
X74560602Y-39625330D01*
X74482780Y-39385815D01*
X74368442Y-39161416D01*
X74294250Y-39059301D01*
X74294250Y-39059300D01*
X73564612Y-39788939D01*
X73559111Y-39768409D01*
X73480119Y-39631592D01*
X73368408Y-39519881D01*
X73231591Y-39440889D01*
X73211058Y-39435387D01*
X73940698Y-38705748D01*
X73838583Y-38631557D01*
X73614184Y-38517219D01*
X73374669Y-38439397D01*
X73125928Y-38400000D01*
X72874072Y-38400000D01*
X72625330Y-38439397D01*
X72385815Y-38517219D01*
X72161413Y-38631559D01*
X72059301Y-38705747D01*
X72059300Y-38705748D01*
X72788940Y-39435387D01*
X72768409Y-39440889D01*
X72631592Y-39519881D01*
X72519881Y-39631592D01*
X72440889Y-39768409D01*
X72435387Y-39788940D01*
X71705748Y-39059300D01*
X71705747Y-39059301D01*
X71631559Y-39161413D01*
X71517219Y-39385815D01*
X71439397Y-39625330D01*
X71400000Y-39874071D01*
X70130500Y-39874071D01*
X70130500Y-39543324D01*
X70122370Y-39512984D01*
X70101162Y-39433833D01*
X70055945Y-39355515D01*
X70044486Y-39335667D01*
X69964333Y-39255514D01*
X69964332Y-39255513D01*
X69656818Y-38947999D01*
X69643237Y-38923128D01*
X69626989Y-38899909D01*
X69625457Y-38890566D01*
X69623333Y-38886676D01*
X69620595Y-38865199D01*
X69620499Y-38862762D01*
X69620499Y-38802544D01*
X69617741Y-38773121D01*
X69574381Y-38649206D01*
X69535402Y-38596391D01*
X69496423Y-38543576D01*
X69435647Y-38498722D01*
X69390794Y-38465619D01*
X69344729Y-38449500D01*
X69297128Y-38432843D01*
X69240353Y-38392121D01*
X69214606Y-38327168D01*
X69228063Y-38258606D01*
X69250401Y-38228122D01*
X69440510Y-38038015D01*
X69512984Y-37912485D01*
X69516636Y-37898854D01*
X69524503Y-37869499D01*
X69534018Y-37833985D01*
X69550500Y-37772475D01*
X69550500Y-35833593D01*
X69570185Y-35766554D01*
X69622989Y-35720799D01*
X69692147Y-35710855D01*
X69739597Y-35728055D01*
X69830869Y-35784353D01*
X69830880Y-35784358D01*
X69997302Y-35839505D01*
X69997309Y-35839506D01*
X70100019Y-35849999D01*
X70224999Y-35849999D01*
X70725000Y-35849999D01*
X70849972Y-35849999D01*
X70849986Y-35849998D01*
X70952697Y-35839505D01*
X71119119Y-35784358D01*
X71119124Y-35784356D01*
X71268345Y-35692315D01*
X71392315Y-35568345D01*
X71484356Y-35419124D01*
X71484358Y-35419119D01*
X71539505Y-35252697D01*
X71539506Y-35252690D01*
X71549999Y-35149986D01*
X71550000Y-35149973D01*
X71550000Y-34250000D01*
X70725000Y-34250000D01*
X70725000Y-35849999D01*
X70224999Y-35849999D01*
X70225000Y-35849998D01*
X70225000Y-34250000D01*
X69400000Y-34250000D01*
X69400000Y-34822113D01*
X69380315Y-34889153D01*
X69327511Y-34934907D01*
X69258353Y-34944851D01*
X69194797Y-34915826D01*
X69188319Y-34909794D01*
X68436819Y-34158294D01*
X68403334Y-34096971D01*
X68400500Y-34070613D01*
X68400500Y-32856903D01*
X68400500Y-32856898D01*
X68399673Y-32850013D01*
X69400000Y-32850013D01*
X69400000Y-33750000D01*
X70225000Y-33750000D01*
X70725000Y-33750000D01*
X71549999Y-33750000D01*
X71549999Y-32850028D01*
X71549998Y-32850013D01*
X71539505Y-32747302D01*
X71484358Y-32580880D01*
X71484356Y-32580875D01*
X71392315Y-32431654D01*
X71268345Y-32307684D01*
X71119124Y-32215643D01*
X71119119Y-32215641D01*
X70952697Y-32160494D01*
X70952690Y-32160493D01*
X70849986Y-32150000D01*
X70725000Y-32150000D01*
X70725000Y-33750000D01*
X70225000Y-33750000D01*
X70225000Y-32150000D01*
X70100027Y-32150000D01*
X70100012Y-32150001D01*
X69997302Y-32160494D01*
X69830880Y-32215641D01*
X69830875Y-32215643D01*
X69681654Y-32307684D01*
X69557684Y-32431654D01*
X69465643Y-32580875D01*
X69465641Y-32580880D01*
X69410494Y-32747302D01*
X69410493Y-32747309D01*
X69400000Y-32850013D01*
X68399673Y-32850013D01*
X68389877Y-32768436D01*
X68334361Y-32627658D01*
X68334360Y-32627657D01*
X68334360Y-32627656D01*
X68242922Y-32507077D01*
X68122343Y-32415639D01*
X67981561Y-32360122D01*
X67935926Y-32354642D01*
X67893102Y-32349500D01*
X67156898Y-32349500D01*
X67117853Y-32354188D01*
X67068438Y-32360122D01*
X66927656Y-32415639D01*
X66807077Y-32507077D01*
X66715639Y-32627656D01*
X66660122Y-32768438D01*
X66654188Y-32817853D01*
X66649500Y-32856898D01*
X66649500Y-35143102D01*
X66651768Y-35161985D01*
X66660122Y-35231561D01*
X66715639Y-35372343D01*
X66807077Y-35492922D01*
X66927656Y-35584360D01*
X66927657Y-35584360D01*
X66927658Y-35584361D01*
X67068436Y-35639877D01*
X67156898Y-35650500D01*
X67156903Y-35650500D01*
X67893097Y-35650500D01*
X67893102Y-35650500D01*
X67981564Y-35639877D01*
X68122342Y-35584361D01*
X68140546Y-35570556D01*
X68140921Y-35570413D01*
X68141162Y-35570092D01*
X68173475Y-35558039D01*
X68205855Y-35545732D01*
X68206249Y-35545815D01*
X68206626Y-35545675D01*
X68240394Y-35553020D01*
X68274219Y-35560159D01*
X68274637Y-35560470D01*
X68274899Y-35560527D01*
X68303153Y-35581678D01*
X68413181Y-35691706D01*
X68446666Y-35753029D01*
X68449500Y-35779387D01*
X68449500Y-37420613D01*
X68429815Y-37487652D01*
X68413181Y-37508294D01*
X67659491Y-38261983D01*
X67659487Y-38261988D01*
X67604819Y-38356678D01*
X67587024Y-38387500D01*
X67536457Y-38435715D01*
X67479637Y-38449500D01*
X65811521Y-38449500D01*
X65744482Y-38429815D01*
X65698727Y-38377011D01*
X65696174Y-38371009D01*
X65659361Y-38277658D01*
X65659360Y-38277657D01*
X65659360Y-38277656D01*
X65567922Y-38157077D01*
X65447343Y-38065639D01*
X65310147Y-38011536D01*
X65306564Y-38010123D01*
X65306563Y-38010122D01*
X65306561Y-38010122D01*
X65260926Y-38004642D01*
X65218102Y-37999500D01*
X64606898Y-37999500D01*
X64573713Y-38003485D01*
X64518436Y-38010122D01*
X64451023Y-38036707D01*
X64432141Y-38038411D01*
X64414381Y-38045036D01*
X64398065Y-38041487D01*
X64381437Y-38042988D01*
X64364633Y-38034214D01*
X64346108Y-38030185D01*
X64321196Y-38011536D01*
X64319501Y-38010651D01*
X64317854Y-38009034D01*
X64264334Y-37955515D01*
X64264332Y-37955513D01*
X63859004Y-37550185D01*
X63431785Y-37122967D01*
X63398301Y-37061645D01*
X63403285Y-36991954D01*
X63444542Y-36936483D01*
X63447338Y-36934362D01*
X63447342Y-36934361D01*
X63567922Y-36842922D01*
X63659361Y-36722342D01*
X63714877Y-36581564D01*
X63725500Y-36493102D01*
X63725500Y-35506898D01*
X63714877Y-35418436D01*
X63659361Y-35277658D01*
X63659360Y-35277657D01*
X63659360Y-35277656D01*
X63567922Y-35157077D01*
X63447341Y-35065638D01*
X63447339Y-35065637D01*
X63418071Y-35054095D01*
X63362927Y-35011189D01*
X63339734Y-34945281D01*
X63339562Y-34939233D01*
X63334363Y-33539522D01*
X63353798Y-33472411D01*
X63393449Y-33435697D01*
X63392533Y-33434325D01*
X63398258Y-33430500D01*
X63569655Y-33315977D01*
X63715977Y-33169655D01*
X63830941Y-32997598D01*
X63910130Y-32806420D01*
X63950500Y-32603465D01*
X63950500Y-32396535D01*
X63910130Y-32193580D01*
X63830941Y-32002402D01*
X63715977Y-31830345D01*
X63715975Y-31830342D01*
X63569655Y-31684022D01*
X63397599Y-31569059D01*
X63396046Y-31568229D01*
X63395384Y-31567579D01*
X63392533Y-31565674D01*
X63392894Y-31565133D01*
X63346202Y-31519266D01*
X63330500Y-31458871D01*
X63330500Y-31243326D01*
X63330500Y-31243324D01*
X63301162Y-31133833D01*
X63270370Y-31080500D01*
X63244488Y-31035670D01*
X63244484Y-31035665D01*
X63164334Y-30955515D01*
X63164329Y-30955511D01*
X63066169Y-30898839D01*
X63066168Y-30898838D01*
X63066167Y-30898838D01*
X62956676Y-30869500D01*
X62956675Y-30869500D01*
X55054500Y-30869500D01*
X54987461Y-30849815D01*
X54941706Y-30797011D01*
X54930500Y-30745500D01*
X54930500Y-30593326D01*
X54930500Y-30593324D01*
X54901162Y-30483833D01*
X54844486Y-30385667D01*
X54764333Y-30305514D01*
X54764332Y-30305513D01*
X54764329Y-30305511D01*
X54666169Y-30248839D01*
X54666168Y-30248838D01*
X54666167Y-30248838D01*
X54556676Y-30219500D01*
X54556675Y-30219500D01*
X53666500Y-30219500D01*
X53599461Y-30199815D01*
X53553706Y-30147011D01*
X53542500Y-30095500D01*
X53542500Y-29771127D01*
X53543452Y-29767881D01*
X53542672Y-29764589D01*
X53553230Y-29734583D01*
X53562185Y-29704088D01*
X53565073Y-29700926D01*
X53565864Y-29698681D01*
X53590346Y-29673267D01*
X53753184Y-29546563D01*
X53818176Y-29520932D01*
X53886714Y-29534508D01*
X53898217Y-29541328D01*
X54002400Y-29610940D01*
X54002401Y-29610940D01*
X54002402Y-29610941D01*
X54193580Y-29690130D01*
X54396530Y-29730499D01*
X54396534Y-29730500D01*
X54396535Y-29730500D01*
X54603466Y-29730500D01*
X54603467Y-29730499D01*
X54806420Y-29690130D01*
X54997598Y-29610941D01*
X55169655Y-29495977D01*
X55222308Y-29443324D01*
X55315976Y-29349657D01*
X55358890Y-29285430D01*
X55430941Y-29177598D01*
X55510130Y-28986420D01*
X55550500Y-28783465D01*
X55550500Y-28056535D01*
X55510130Y-27853580D01*
X55430941Y-27662402D01*
X55315977Y-27490345D01*
X55315975Y-27490342D01*
X55169657Y-27344024D01*
X55054496Y-27267077D01*
X54997598Y-27229059D01*
X54868631Y-27175639D01*
X54806420Y-27149870D01*
X54806412Y-27149868D01*
X54603469Y-27109500D01*
X54603465Y-27109500D01*
X54396535Y-27109500D01*
X54396530Y-27109500D01*
X54193587Y-27149868D01*
X54193579Y-27149870D01*
X54002403Y-27229058D01*
X53830342Y-27344024D01*
X53684024Y-27490342D01*
X53569058Y-27662403D01*
X53489870Y-27853579D01*
X53489868Y-27853587D01*
X53449500Y-28056530D01*
X53449500Y-28631291D01*
X53429815Y-28698330D01*
X53401648Y-28729156D01*
X52877788Y-29136769D01*
X52871045Y-29142015D01*
X52847667Y-29155514D01*
X52826515Y-29176664D01*
X52820432Y-29181398D01*
X52820430Y-29181398D01*
X52802905Y-29195035D01*
X52802896Y-29195045D01*
X52791764Y-29209754D01*
X52791765Y-29209755D01*
X52786603Y-29216576D01*
X52767514Y-29235667D01*
X52752555Y-29261574D01*
X52747906Y-29267719D01*
X52747904Y-29267720D01*
X52734504Y-29285430D01*
X52734501Y-29285436D01*
X52727550Y-29302542D01*
X52724337Y-29310450D01*
X52710838Y-29333833D01*
X52703098Y-29362714D01*
X52700197Y-29369855D01*
X52700195Y-29369863D01*
X52691833Y-29390444D01*
X52691832Y-29390446D01*
X52691832Y-29390448D01*
X52688487Y-29417244D01*
X52681500Y-29443324D01*
X52681500Y-29473239D01*
X52680546Y-29480884D01*
X52677795Y-29502929D01*
X52680327Y-29521207D01*
X52681500Y-29538221D01*
X52681500Y-30145251D01*
X52661815Y-30212290D01*
X52638104Y-30237395D01*
X52638497Y-30237788D01*
X52544693Y-30331591D01*
X52544690Y-30331596D01*
X52544689Y-30331597D01*
X52512694Y-30394391D01*
X52510485Y-30398727D01*
X52462510Y-30449523D01*
X52394689Y-30466318D01*
X52328554Y-30443780D01*
X52289515Y-30398727D01*
X52287306Y-30394391D01*
X52255311Y-30331597D01*
X52255307Y-30331593D01*
X52255306Y-30331591D01*
X52168408Y-30244693D01*
X52168404Y-30244690D01*
X52168403Y-30244689D01*
X52058893Y-30188891D01*
X52058891Y-30188890D01*
X52058888Y-30188889D01*
X51968033Y-30174500D01*
X51630342Y-30174500D01*
X51606296Y-30167439D01*
X51581411Y-30164438D01*
X51573344Y-30157763D01*
X51563303Y-30154815D01*
X51546893Y-30135877D01*
X51527580Y-30119897D01*
X51524402Y-30109921D01*
X51517548Y-30102011D01*
X51513981Y-30077203D01*
X51506374Y-30053322D01*
X51508277Y-30037539D01*
X51507604Y-30032853D01*
X51510601Y-30018282D01*
X51518246Y-29989868D01*
X51567148Y-29808116D01*
X51603574Y-29748495D01*
X51662698Y-29718718D01*
X51683578Y-29714564D01*
X51806420Y-29690130D01*
X51997598Y-29610941D01*
X52169655Y-29495977D01*
X52222308Y-29443324D01*
X52315976Y-29349657D01*
X52358890Y-29285430D01*
X52430941Y-29177598D01*
X52510130Y-28986420D01*
X52550500Y-28783465D01*
X52550500Y-28056535D01*
X52510130Y-27853580D01*
X52430941Y-27662402D01*
X52315977Y-27490345D01*
X52315975Y-27490342D01*
X52169657Y-27344024D01*
X52054496Y-27267077D01*
X51997598Y-27229059D01*
X51868631Y-27175639D01*
X51806420Y-27149870D01*
X51806412Y-27149868D01*
X51603469Y-27109500D01*
X51603465Y-27109500D01*
X51396535Y-27109500D01*
X51396530Y-27109500D01*
X51193587Y-27149868D01*
X51193579Y-27149870D01*
X51002403Y-27229058D01*
X50830342Y-27344024D01*
X50684024Y-27490342D01*
X50569058Y-27662403D01*
X50489870Y-27853579D01*
X50489868Y-27853587D01*
X50449500Y-28056530D01*
X50449500Y-28783469D01*
X50489868Y-28986412D01*
X50489870Y-28986420D01*
X50554319Y-29142014D01*
X50569059Y-29177598D01*
X50595102Y-29216574D01*
X50684024Y-29349657D01*
X50732004Y-29397636D01*
X50765490Y-29458959D01*
X50764066Y-29517536D01*
X50505744Y-30477631D01*
X50503608Y-30485569D01*
X50503497Y-30485763D01*
X50489065Y-30539621D01*
X50474555Y-30593549D01*
X50474504Y-30593942D01*
X50474500Y-30593971D01*
X50474500Y-30649688D01*
X50474434Y-30713091D01*
X50474500Y-30714094D01*
X50474500Y-31706018D01*
X50486335Y-31750185D01*
X50503497Y-31814236D01*
X50503498Y-31814239D01*
X50512795Y-31830342D01*
X50559515Y-31911263D01*
X50638737Y-31990485D01*
X50735763Y-32046503D01*
X50843982Y-32075500D01*
X50850500Y-32075500D01*
X50917539Y-32095185D01*
X50963294Y-32147989D01*
X50974500Y-32199500D01*
X50974500Y-32908340D01*
X50970276Y-32940425D01*
X50969500Y-32943324D01*
X50969500Y-33056676D01*
X50970255Y-33059491D01*
X50998838Y-33166166D01*
X50998839Y-33166169D01*
X51055511Y-33264329D01*
X51055513Y-33264332D01*
X51055514Y-33264333D01*
X51135667Y-33344486D01*
X51233833Y-33401162D01*
X51343324Y-33430500D01*
X57349412Y-33430500D01*
X57416451Y-33450185D01*
X57462206Y-33502989D01*
X57473411Y-33554039D01*
X57478562Y-34940992D01*
X57459127Y-35008105D01*
X57406493Y-35054055D01*
X57400071Y-35056800D01*
X57383312Y-35063409D01*
X57377655Y-35065640D01*
X57257077Y-35157077D01*
X57165639Y-35277656D01*
X57135665Y-35353663D01*
X57115353Y-35405171D01*
X57072449Y-35460314D01*
X57006541Y-35483507D01*
X56938556Y-35467386D01*
X56890080Y-35417070D01*
X56884648Y-35405178D01*
X56834361Y-35277658D01*
X56834360Y-35277657D01*
X56834360Y-35277656D01*
X56742922Y-35157077D01*
X56622343Y-35065639D01*
X56481561Y-35010122D01*
X56435926Y-35004642D01*
X56393102Y-34999500D01*
X55781898Y-34999500D01*
X55742853Y-35004188D01*
X55693438Y-35010122D01*
X55552656Y-35065639D01*
X55432077Y-35157077D01*
X55340639Y-35277656D01*
X55285122Y-35418438D01*
X55280094Y-35460314D01*
X55274500Y-35506898D01*
X55274500Y-36493102D01*
X55279245Y-36532612D01*
X55285122Y-36581561D01*
X55340639Y-36722343D01*
X55432077Y-36842922D01*
X55552655Y-36934359D01*
X55552658Y-36934361D01*
X55590990Y-36949477D01*
X55646133Y-36992381D01*
X55669327Y-37058289D01*
X55669500Y-37064831D01*
X55669500Y-41415724D01*
X55649815Y-41482763D01*
X55597011Y-41528518D01*
X55527853Y-41538462D01*
X55513407Y-41535499D01*
X55379057Y-41499500D01*
X55220943Y-41499500D01*
X55068216Y-41540423D01*
X55068209Y-41540426D01*
X54931290Y-41619475D01*
X54931282Y-41619481D01*
X54819481Y-41731282D01*
X54819475Y-41731290D01*
X54740426Y-41868209D01*
X54740423Y-41868216D01*
X54699500Y-42020943D01*
X54699500Y-42179057D01*
X54740423Y-42331784D01*
X54742527Y-42339636D01*
X54741832Y-42339822D01*
X54749500Y-42378362D01*
X54749500Y-42720613D01*
X54729815Y-42787652D01*
X54713181Y-42808294D01*
X53059491Y-44461983D01*
X53059487Y-44461988D01*
X52998157Y-44568217D01*
X52987018Y-44587510D01*
X52987016Y-44587513D01*
X52986484Y-44589500D01*
X52949500Y-44727525D01*
X52949500Y-44727527D01*
X52949500Y-45120613D01*
X52929815Y-45187652D01*
X52913181Y-45208294D01*
X52537681Y-45583794D01*
X52476358Y-45617279D01*
X52406666Y-45612295D01*
X52362319Y-45583794D01*
X50838016Y-44059491D01*
X50838015Y-44059490D01*
X50712485Y-43987016D01*
X50632631Y-43965619D01*
X50632630Y-43965618D01*
X50588593Y-43953818D01*
X50572475Y-43949500D01*
X48127525Y-43949500D01*
X48067369Y-43965618D01*
X48067369Y-43965619D01*
X47987515Y-43987016D01*
X47987513Y-43987016D01*
X47987513Y-43987017D01*
X47861986Y-44059489D01*
X47861983Y-44059491D01*
X47662181Y-44259294D01*
X47600858Y-44292779D01*
X47531166Y-44287795D01*
X47475233Y-44245923D01*
X47450816Y-44180459D01*
X47450500Y-44171613D01*
X47450500Y-44027527D01*
X47450500Y-44027525D01*
X47412984Y-43887515D01*
X47412982Y-43887512D01*
X47412982Y-43887510D01*
X47412981Y-43887509D01*
X47394291Y-43855137D01*
X47394289Y-43855135D01*
X47386378Y-43841432D01*
X47340510Y-43761985D01*
X46838015Y-43259490D01*
X46712485Y-43187016D01*
X46712480Y-43187014D01*
X46667351Y-43174921D01*
X46667351Y-43174922D01*
X46619912Y-43162211D01*
X46572475Y-43149500D01*
X44227525Y-43149500D01*
X44132649Y-43174922D01*
X44132648Y-43174921D01*
X44087519Y-43187014D01*
X44087514Y-43187016D01*
X43961986Y-43259489D01*
X43961983Y-43259491D01*
X43359489Y-43861985D01*
X43311660Y-43944829D01*
X43311659Y-43944831D01*
X43304967Y-43956423D01*
X43287016Y-43987515D01*
X43249500Y-44127525D01*
X43249500Y-44139891D01*
X43243646Y-44158262D01*
X43234445Y-44171883D01*
X43229815Y-44187651D01*
X43213181Y-44208293D01*
X38807567Y-48613906D01*
X38774894Y-48635740D01*
X38775253Y-48636361D01*
X38768218Y-48640422D01*
X38768216Y-48640423D01*
X38706307Y-48676166D01*
X38631285Y-48719479D01*
X38631282Y-48719481D01*
X38519481Y-48831282D01*
X38519475Y-48831290D01*
X38440426Y-48968209D01*
X38440423Y-48968216D01*
X38399500Y-49120943D01*
X38399500Y-49279057D01*
X38400723Y-49283619D01*
X38440423Y-49431783D01*
X38440426Y-49431790D01*
X38519475Y-49568709D01*
X38519479Y-49568714D01*
X38519480Y-49568716D01*
X38631284Y-49680520D01*
X38631285Y-49680521D01*
X38631287Y-49680522D01*
X38731849Y-49738581D01*
X38749100Y-49756674D01*
X38769116Y-49771657D01*
X38772796Y-49781525D01*
X38780064Y-49789147D01*
X38784795Y-49813695D01*
X38793533Y-49837121D01*
X38791294Y-49847411D01*
X38793288Y-49857754D01*
X38783994Y-49880967D01*
X38778681Y-49905394D01*
X38769082Y-49918217D01*
X38767320Y-49922619D01*
X38757531Y-49933649D01*
X38647356Y-50043825D01*
X38586033Y-50077310D01*
X38516341Y-50072326D01*
X38486040Y-50055914D01*
X38469323Y-50043576D01*
X38390794Y-49985619D01*
X38390792Y-49985618D01*
X38266880Y-49942258D01*
X38237461Y-49939500D01*
X37762546Y-49939500D01*
X37733120Y-49942258D01*
X37724320Y-49945338D01*
X37654541Y-49948899D01*
X37593915Y-49914169D01*
X37572026Y-49882875D01*
X37571091Y-49880967D01*
X37304990Y-49338119D01*
X37301162Y-49323833D01*
X37280128Y-49287401D01*
X37261609Y-49249622D01*
X37259813Y-49247565D01*
X37245845Y-49228021D01*
X37244486Y-49225667D01*
X37214735Y-49195916D01*
X37187072Y-49164221D01*
X37174793Y-49155974D01*
X37164333Y-49145514D01*
X37127896Y-49124477D01*
X37092973Y-49101022D01*
X37078977Y-49096234D01*
X37066167Y-49088838D01*
X37066166Y-49088837D01*
X37066165Y-49088837D01*
X37048724Y-49084163D01*
X37025528Y-49077948D01*
X36985722Y-49064331D01*
X36970964Y-49063328D01*
X36959309Y-49060205D01*
X36956680Y-49059500D01*
X36956676Y-49059500D01*
X36914602Y-49059500D01*
X36872630Y-49056649D01*
X36858117Y-49059500D01*
X36758801Y-49059500D01*
X36691762Y-49039815D01*
X36685167Y-49035270D01*
X36590794Y-48965619D01*
X36590792Y-48965618D01*
X36466880Y-48922258D01*
X36437461Y-48919500D01*
X35962546Y-48919500D01*
X35933122Y-48922258D01*
X35880085Y-48940816D01*
X35861145Y-48941782D01*
X35843128Y-48947710D01*
X35812227Y-48944278D01*
X35810306Y-48944377D01*
X35808050Y-48943815D01*
X35705528Y-48917269D01*
X35645563Y-48881409D01*
X35619570Y-48838186D01*
X35613852Y-48821843D01*
X35534999Y-48715001D01*
X35428157Y-48636148D01*
X35389960Y-48622782D01*
X35387255Y-48620841D01*
X35383944Y-48620500D01*
X35359062Y-48600620D01*
X35333185Y-48582060D01*
X35331184Y-48578347D01*
X35329358Y-48576888D01*
X35313428Y-48545397D01*
X35254546Y-48370931D01*
X35251760Y-48301121D01*
X35287160Y-48240883D01*
X35349507Y-48209346D01*
X35419008Y-48216523D01*
X35459717Y-48243601D01*
X35463883Y-48247767D01*
X35463891Y-48247773D01*
X35599808Y-48328154D01*
X35599814Y-48328156D01*
X35724999Y-48364525D01*
X35725000Y-48364525D01*
X36225000Y-48364525D01*
X36350185Y-48328156D01*
X36350191Y-48328154D01*
X36486108Y-48247773D01*
X36486116Y-48247767D01*
X36597767Y-48136116D01*
X36597773Y-48136108D01*
X36678155Y-48000188D01*
X36678156Y-48000185D01*
X36722210Y-47848553D01*
X36722211Y-47848547D01*
X36724999Y-47813118D01*
X36725000Y-47813105D01*
X36725000Y-47400000D01*
X36225000Y-47400000D01*
X36225000Y-48364525D01*
X35725000Y-48364525D01*
X35725000Y-48128110D01*
X35744685Y-48061071D01*
X35761320Y-48040428D01*
X35798524Y-48003224D01*
X35798528Y-48003220D01*
X35859719Y-47883126D01*
X35860546Y-47877903D01*
X35875500Y-47783493D01*
X35875500Y-46900000D01*
X36225000Y-46900000D01*
X36725000Y-46900000D01*
X36725000Y-46486894D01*
X36724999Y-46486881D01*
X36722211Y-46451452D01*
X36722210Y-46451446D01*
X36678156Y-46299814D01*
X36678155Y-46299811D01*
X36597773Y-46163891D01*
X36597767Y-46163883D01*
X36486116Y-46052232D01*
X36486108Y-46052226D01*
X36350188Y-45971844D01*
X36350187Y-45971843D01*
X36225000Y-45935472D01*
X36225000Y-46900000D01*
X35875500Y-46900000D01*
X35875500Y-46516506D01*
X35859720Y-46416878D01*
X35859719Y-46416876D01*
X35859719Y-46416874D01*
X35798528Y-46296780D01*
X35798526Y-46296778D01*
X35798523Y-46296774D01*
X35761319Y-46259570D01*
X35727834Y-46198247D01*
X35725000Y-46171889D01*
X35725000Y-45935472D01*
X35599812Y-45971843D01*
X35599811Y-45971844D01*
X35463891Y-46052226D01*
X35463883Y-46052232D01*
X35427937Y-46088180D01*
X35366615Y-46121666D01*
X35340255Y-46124500D01*
X35166507Y-46124500D01*
X35066875Y-46140280D01*
X35066874Y-46140280D01*
X35056290Y-46145673D01*
X34987620Y-46158566D01*
X34943710Y-46145673D01*
X34933124Y-46140280D01*
X34833493Y-46124500D01*
X34833488Y-46124500D01*
X34516512Y-46124500D01*
X34516507Y-46124500D01*
X34416875Y-46140280D01*
X34416874Y-46140280D01*
X34406290Y-46145673D01*
X34337620Y-46158566D01*
X34293710Y-46145673D01*
X34283124Y-46140280D01*
X34183493Y-46124500D01*
X34183488Y-46124500D01*
X33866512Y-46124500D01*
X33866507Y-46124500D01*
X33766878Y-46140279D01*
X33646778Y-46201473D01*
X33646774Y-46201476D01*
X33551476Y-46296774D01*
X33551473Y-46296778D01*
X33551472Y-46296780D01*
X33498625Y-46400499D01*
X33490279Y-46416878D01*
X33488557Y-46427754D01*
X33458627Y-46490889D01*
X33399315Y-46527819D01*
X33354102Y-46531775D01*
X32931779Y-46490773D01*
X32870128Y-46467124D01*
X32848885Y-46451446D01*
X32828157Y-46436148D01*
X32828155Y-46436147D01*
X32702826Y-46392291D01*
X32702814Y-46392289D01*
X32673070Y-46389500D01*
X32673066Y-46389500D01*
X32286934Y-46389500D01*
X32286930Y-46389500D01*
X32257185Y-46392289D01*
X32257173Y-46392291D01*
X32131844Y-46436147D01*
X32025001Y-46515001D01*
X31946147Y-46621844D01*
X31902291Y-46747173D01*
X31902289Y-46747185D01*
X31899500Y-46776929D01*
X31899500Y-47223070D01*
X31902289Y-47252814D01*
X31902291Y-47252826D01*
X31946147Y-47378155D01*
X31946148Y-47378157D01*
X32025001Y-47484999D01*
X32131843Y-47563852D01*
X32170003Y-47577204D01*
X32257173Y-47607708D01*
X32257177Y-47607708D01*
X32257181Y-47607710D01*
X32272057Y-47609105D01*
X32286930Y-47610500D01*
X32286934Y-47610500D01*
X32673070Y-47610500D01*
X32702809Y-47607711D01*
X32702809Y-47607710D01*
X32702819Y-47607710D01*
X32750854Y-47590901D01*
X32761852Y-47589575D01*
X32768530Y-47586147D01*
X32803782Y-47584523D01*
X32896202Y-47593495D01*
X32961025Y-47619566D01*
X33001213Y-47675825D01*
X33033597Y-47768030D01*
X33037240Y-47837804D01*
X33019777Y-47877903D01*
X32658858Y-48419283D01*
X32605293Y-48464144D01*
X32555684Y-48474500D01*
X32306898Y-48474500D01*
X32267853Y-48479188D01*
X32218438Y-48485122D01*
X32077656Y-48540639D01*
X31957077Y-48632077D01*
X31860514Y-48759416D01*
X31858686Y-48758030D01*
X31817361Y-48798326D01*
X31748906Y-48812315D01*
X31683755Y-48787073D01*
X31642593Y-48730615D01*
X31641607Y-48727755D01*
X31634359Y-48705882D01*
X31634356Y-48705875D01*
X31542315Y-48556654D01*
X31418345Y-48432684D01*
X31269124Y-48340643D01*
X31269119Y-48340641D01*
X31102697Y-48285494D01*
X31102690Y-48285493D01*
X30999986Y-48275000D01*
X30950000Y-48275000D01*
X30950000Y-49376000D01*
X30930315Y-49443039D01*
X30877511Y-49488794D01*
X30826000Y-49500000D01*
X30700000Y-49500000D01*
X30700000Y-49626000D01*
X30680315Y-49693039D01*
X30627511Y-49738794D01*
X30576000Y-49750000D01*
X29700001Y-49750000D01*
X29700001Y-50024986D01*
X29710494Y-50127697D01*
X29765641Y-50294119D01*
X29765643Y-50294124D01*
X29806525Y-50360403D01*
X29824965Y-50427796D01*
X29804042Y-50494459D01*
X29750401Y-50539229D01*
X29700986Y-50549500D01*
X28379386Y-50549500D01*
X28312347Y-50529815D01*
X28291705Y-50513181D01*
X26838069Y-49059545D01*
X26753537Y-48975013D01*
X29700000Y-48975013D01*
X29700000Y-49250000D01*
X30450000Y-49250000D01*
X30450000Y-48275000D01*
X30449999Y-48274999D01*
X30400029Y-48275000D01*
X30400011Y-48275001D01*
X30297302Y-48285494D01*
X30130880Y-48340641D01*
X30130875Y-48340643D01*
X29981654Y-48432684D01*
X29857684Y-48556654D01*
X29765643Y-48705875D01*
X29765641Y-48705880D01*
X29710494Y-48872302D01*
X29710493Y-48872309D01*
X29700000Y-48975013D01*
X26753537Y-48975013D01*
X26671960Y-48893436D01*
X25069408Y-47290883D01*
X25035923Y-47229560D01*
X25035472Y-47179014D01*
X25050500Y-47103465D01*
X25050500Y-46896535D01*
X25010130Y-46693580D01*
X24930941Y-46502402D01*
X24815977Y-46330345D01*
X24815975Y-46330342D01*
X24669657Y-46184024D01*
X24539593Y-46097119D01*
X24497598Y-46069059D01*
X24496772Y-46068717D01*
X24306420Y-45989870D01*
X24306412Y-45989868D01*
X24103469Y-45949500D01*
X24103465Y-45949500D01*
X23896535Y-45949500D01*
X23896530Y-45949500D01*
X23693587Y-45989868D01*
X23693579Y-45989870D01*
X23502403Y-46069058D01*
X23330342Y-46184024D01*
X23184024Y-46330342D01*
X23069058Y-46502403D01*
X22989870Y-46693579D01*
X22989868Y-46693587D01*
X22949500Y-46896530D01*
X20300500Y-46896530D01*
X20300500Y-44899986D01*
X26625001Y-44899986D01*
X26635494Y-45002697D01*
X26690641Y-45169119D01*
X26690643Y-45169124D01*
X26782684Y-45318345D01*
X26906654Y-45442315D01*
X27055875Y-45534356D01*
X27055880Y-45534358D01*
X27222302Y-45589505D01*
X27222309Y-45589506D01*
X27325019Y-45599999D01*
X27749999Y-45599999D01*
X27750000Y-45599998D01*
X27750000Y-44787500D01*
X26625001Y-44787500D01*
X26625001Y-44899986D01*
X20300500Y-44899986D01*
X20300500Y-30896530D01*
X22449500Y-30896530D01*
X22449500Y-31103469D01*
X22489868Y-31306412D01*
X22489870Y-31306420D01*
X22556040Y-31466169D01*
X22569059Y-31497598D01*
X22616253Y-31568229D01*
X22684024Y-31669657D01*
X22830342Y-31815975D01*
X22830345Y-31815977D01*
X23002402Y-31930941D01*
X23193580Y-32010130D01*
X23376431Y-32046501D01*
X23396530Y-32050499D01*
X23396534Y-32050500D01*
X23396535Y-32050500D01*
X23603466Y-32050500D01*
X23603467Y-32050499D01*
X23806420Y-32010130D01*
X23997598Y-31930941D01*
X24169655Y-31815977D01*
X24315977Y-31669655D01*
X24358771Y-31605609D01*
X24412383Y-31560804D01*
X24461873Y-31550500D01*
X29320613Y-31550500D01*
X29387652Y-31570185D01*
X29408294Y-31586819D01*
X31138181Y-33316706D01*
X31171666Y-33378029D01*
X31174500Y-33404387D01*
X31174500Y-34168102D01*
X31180126Y-34214954D01*
X31185122Y-34256561D01*
X31240639Y-34397343D01*
X31332077Y-34517922D01*
X31452656Y-34609360D01*
X31452657Y-34609360D01*
X31452658Y-34609361D01*
X31593436Y-34664877D01*
X31681898Y-34675500D01*
X31681903Y-34675500D01*
X32518097Y-34675500D01*
X32518102Y-34675500D01*
X32606564Y-34664877D01*
X32747342Y-34609361D01*
X32867922Y-34517922D01*
X32959361Y-34397342D01*
X33014877Y-34256564D01*
X33025500Y-34168102D01*
X33025500Y-33404387D01*
X33045185Y-33337348D01*
X33061819Y-33316706D01*
X33391509Y-32987016D01*
X33791092Y-32587432D01*
X33852413Y-32553949D01*
X33922104Y-32558933D01*
X33978038Y-32600805D01*
X34002455Y-32666269D01*
X33994127Y-32720602D01*
X33985122Y-32743436D01*
X33978485Y-32798713D01*
X33974500Y-32831898D01*
X33974500Y-34168102D01*
X33980126Y-34214954D01*
X33985122Y-34256561D01*
X34040639Y-34397343D01*
X34132077Y-34517922D01*
X34252656Y-34609360D01*
X34252657Y-34609360D01*
X34252658Y-34609361D01*
X34393436Y-34664877D01*
X34481898Y-34675500D01*
X34481903Y-34675500D01*
X35318097Y-34675500D01*
X35318102Y-34675500D01*
X35406564Y-34664877D01*
X35547342Y-34609361D01*
X35667922Y-34517922D01*
X35726696Y-34440416D01*
X35782888Y-34398894D01*
X35852609Y-34394342D01*
X35913724Y-34428207D01*
X35946827Y-34489736D01*
X35949500Y-34515342D01*
X35949500Y-35175500D01*
X35929815Y-35242539D01*
X35877011Y-35288294D01*
X35825500Y-35299500D01*
X28874500Y-35299500D01*
X28807461Y-35279815D01*
X28761706Y-35227011D01*
X28750500Y-35175500D01*
X28750500Y-34806903D01*
X28750500Y-34806898D01*
X28739877Y-34718436D01*
X28684361Y-34577658D01*
X28684360Y-34577657D01*
X28684360Y-34577656D01*
X28592922Y-34457077D01*
X28472343Y-34365639D01*
X28331561Y-34310122D01*
X28285926Y-34304642D01*
X28243102Y-34299500D01*
X26356898Y-34299500D01*
X26317853Y-34304188D01*
X26268438Y-34310122D01*
X26127656Y-34365639D01*
X26007077Y-34457077D01*
X25915639Y-34577656D01*
X25860122Y-34718438D01*
X25854188Y-34767853D01*
X25849500Y-34806898D01*
X25849500Y-34806903D01*
X25849500Y-35943211D01*
X25829815Y-36010250D01*
X25785059Y-36051971D01*
X24964034Y-36501578D01*
X24964033Y-36501577D01*
X24958787Y-36504449D01*
X24916533Y-36522560D01*
X24895507Y-36539104D01*
X24886478Y-36544049D01*
X24886473Y-36544053D01*
X24872018Y-36551969D01*
X24872015Y-36551971D01*
X24843070Y-36579635D01*
X24843071Y-36579636D01*
X24838756Y-36583759D01*
X24802621Y-36612195D01*
X24786590Y-36633620D01*
X24779151Y-36640732D01*
X24767240Y-36652118D01*
X24767234Y-36652125D01*
X24746441Y-36686331D01*
X24739774Y-36696197D01*
X24715791Y-36728254D01*
X24715788Y-36728261D01*
X24709667Y-36743561D01*
X24705844Y-36753116D01*
X24691945Y-36775985D01*
X24679042Y-36820123D01*
X24676826Y-36825665D01*
X23506826Y-39750665D01*
X23499084Y-39766609D01*
X23487016Y-39787511D01*
X23487016Y-39787512D01*
X23478633Y-39818798D01*
X23473991Y-39832753D01*
X23461956Y-39862840D01*
X23459098Y-39886802D01*
X23458046Y-39895629D01*
X23449500Y-39927525D01*
X23449500Y-39967287D01*
X23448627Y-39974605D01*
X23448626Y-39974607D01*
X23448627Y-39974607D01*
X23444790Y-40006767D01*
X23444790Y-40006768D01*
X23448233Y-40030658D01*
X23449500Y-40048342D01*
X23449500Y-42038126D01*
X23429815Y-42105165D01*
X23394391Y-42141228D01*
X23330345Y-42184022D01*
X23330341Y-42184025D01*
X23184024Y-42330342D01*
X23069058Y-42502403D01*
X22989870Y-42693579D01*
X22989868Y-42693587D01*
X22949500Y-42896530D01*
X22949500Y-43103469D01*
X22989868Y-43306412D01*
X22989870Y-43306420D01*
X23059418Y-43474324D01*
X23069059Y-43497598D01*
X23104407Y-43550500D01*
X23184024Y-43669657D01*
X23330342Y-43815975D01*
X23330345Y-43815977D01*
X23502402Y-43930941D01*
X23693580Y-44010130D01*
X23849464Y-44041137D01*
X23896530Y-44050499D01*
X23896534Y-44050500D01*
X23896535Y-44050500D01*
X24103466Y-44050500D01*
X24103467Y-44050499D01*
X24306420Y-44010130D01*
X24497598Y-43930941D01*
X24669655Y-43815977D01*
X24815977Y-43669655D01*
X24882289Y-43570409D01*
X24935899Y-43525607D01*
X24980904Y-43515383D01*
X26785460Y-43450118D01*
X26853164Y-43467367D01*
X26900798Y-43518482D01*
X26913234Y-43587236D01*
X26886526Y-43651800D01*
X26877621Y-43661718D01*
X26782682Y-43756657D01*
X26690643Y-43905875D01*
X26690641Y-43905880D01*
X26635494Y-44072302D01*
X26635493Y-44072309D01*
X26625000Y-44175013D01*
X26625000Y-44287500D01*
X27876000Y-44287500D01*
X27943039Y-44307185D01*
X27988794Y-44359989D01*
X28000000Y-44411500D01*
X28000000Y-44537500D01*
X28126000Y-44537500D01*
X28193039Y-44557185D01*
X28238794Y-44609989D01*
X28250000Y-44661500D01*
X28250000Y-45599999D01*
X28674972Y-45599999D01*
X28674986Y-45599998D01*
X28777694Y-45589506D01*
X28791141Y-45585050D01*
X28860969Y-45582646D01*
X28921012Y-45618376D01*
X28952207Y-45680895D01*
X28944649Y-45750355D01*
X28916985Y-45791273D01*
X28129274Y-46564018D01*
X28067633Y-46596913D01*
X28042438Y-46599500D01*
X27331898Y-46599500D01*
X27292853Y-46604188D01*
X27243438Y-46610122D01*
X27102656Y-46665639D01*
X26982077Y-46757077D01*
X26890639Y-46877656D01*
X26835122Y-47018438D01*
X26832157Y-47043136D01*
X26824500Y-47106898D01*
X26824500Y-47818102D01*
X26826866Y-47837804D01*
X26835122Y-47906561D01*
X26890639Y-48047343D01*
X26982077Y-48167922D01*
X27102656Y-48259360D01*
X27102657Y-48259360D01*
X27102658Y-48259361D01*
X27243436Y-48314877D01*
X27331898Y-48325500D01*
X27331903Y-48325500D01*
X28668097Y-48325500D01*
X28668102Y-48325500D01*
X28756564Y-48314877D01*
X28897342Y-48259361D01*
X29017922Y-48167922D01*
X29109361Y-48047342D01*
X29164877Y-47906564D01*
X29175500Y-47818102D01*
X29175500Y-47132058D01*
X29195185Y-47065019D01*
X29212664Y-47043540D01*
X29330791Y-46927657D01*
X30335692Y-45941849D01*
X30338015Y-45940509D01*
X30387354Y-45891169D01*
X30437248Y-45842224D01*
X30437248Y-45842223D01*
X30437372Y-45842102D01*
X30438526Y-45840599D01*
X30439244Y-45839673D01*
X30440417Y-45838173D01*
X30440507Y-45838016D01*
X30440509Y-45838015D01*
X30475156Y-45778001D01*
X30475686Y-45777095D01*
X30510923Y-45717395D01*
X30510927Y-45717378D01*
X30512169Y-45714463D01*
X30512169Y-45714462D01*
X30512940Y-45712650D01*
X30530909Y-45645585D01*
X30530911Y-45645576D01*
X30531065Y-45645003D01*
X30549779Y-45577750D01*
X30549803Y-45575080D01*
X30550500Y-45572483D01*
X30550500Y-45502568D01*
X30551169Y-45432809D01*
X30550500Y-45430212D01*
X30550500Y-44676211D01*
X30570185Y-44609172D01*
X30622989Y-44563417D01*
X30692147Y-44553473D01*
X30755703Y-44582498D01*
X30783171Y-44619968D01*
X30783997Y-44619480D01*
X30870278Y-44765374D01*
X30870285Y-44765383D01*
X30984616Y-44879714D01*
X30984625Y-44879721D01*
X31123804Y-44962031D01*
X31270000Y-45004504D01*
X31270000Y-44324000D01*
X31289685Y-44256961D01*
X31342489Y-44211206D01*
X31394000Y-44200000D01*
X31646000Y-44200000D01*
X31713039Y-44219685D01*
X31758794Y-44272489D01*
X31770000Y-44324000D01*
X31770000Y-45004503D01*
X31916195Y-44962031D01*
X32055372Y-44879722D01*
X32055380Y-44879716D01*
X32105936Y-44829160D01*
X32167259Y-44795674D01*
X32234569Y-44799797D01*
X32257181Y-44807710D01*
X32257189Y-44807710D01*
X32257190Y-44807711D01*
X32286930Y-44810500D01*
X32286934Y-44810500D01*
X32673070Y-44810500D01*
X32686289Y-44809260D01*
X32702819Y-44807710D01*
X32702823Y-44807708D01*
X32702826Y-44807708D01*
X32760575Y-44787500D01*
X32828157Y-44763852D01*
X32934999Y-44684999D01*
X33013852Y-44578157D01*
X33051357Y-44470975D01*
X33057708Y-44452826D01*
X33057708Y-44452823D01*
X33057710Y-44452819D01*
X33059541Y-44433291D01*
X33060500Y-44423070D01*
X33060500Y-44363954D01*
X33080185Y-44296915D01*
X33082032Y-44294124D01*
X33121869Y-44235667D01*
X33427476Y-43787221D01*
X33481494Y-43742910D01*
X33550896Y-43734836D01*
X33613645Y-43765566D01*
X33617625Y-43769373D01*
X33646775Y-43798524D01*
X33646778Y-43798526D01*
X33646780Y-43798528D01*
X33766874Y-43859719D01*
X33766876Y-43859719D01*
X33766878Y-43859720D01*
X33866507Y-43875500D01*
X33866512Y-43875500D01*
X34183493Y-43875500D01*
X34283122Y-43859720D01*
X34283123Y-43859719D01*
X34283126Y-43859719D01*
X34293704Y-43854328D01*
X34362372Y-43841432D01*
X34406294Y-43854328D01*
X34416874Y-43859719D01*
X34416875Y-43859719D01*
X34416877Y-43859720D01*
X34416876Y-43859720D01*
X34516507Y-43875500D01*
X34516512Y-43875500D01*
X34833493Y-43875500D01*
X34933122Y-43859720D01*
X34933123Y-43859719D01*
X34933126Y-43859719D01*
X34943704Y-43854328D01*
X35012372Y-43841432D01*
X35056294Y-43854328D01*
X35066874Y-43859719D01*
X35066875Y-43859719D01*
X35066877Y-43859720D01*
X35066876Y-43859720D01*
X35166507Y-43875500D01*
X35166512Y-43875500D01*
X35483493Y-43875500D01*
X35583122Y-43859720D01*
X35583123Y-43859719D01*
X35583126Y-43859719D01*
X35593704Y-43854328D01*
X35662372Y-43841432D01*
X35706294Y-43854328D01*
X35716874Y-43859719D01*
X35716875Y-43859719D01*
X35716877Y-43859720D01*
X35716876Y-43859720D01*
X35816507Y-43875500D01*
X35816512Y-43875500D01*
X36133493Y-43875500D01*
X36233121Y-43859720D01*
X36233121Y-43859719D01*
X36233126Y-43859719D01*
X36353220Y-43798528D01*
X36448528Y-43703220D01*
X36509719Y-43583126D01*
X36510123Y-43580577D01*
X36522078Y-43505101D01*
X36536668Y-43474324D01*
X36550838Y-43443297D01*
X36551613Y-43442798D01*
X36552008Y-43441967D01*
X36580946Y-43423948D01*
X36609616Y-43405523D01*
X36610813Y-43405350D01*
X36611319Y-43405036D01*
X36644551Y-43400500D01*
X36721637Y-43400500D01*
X36760179Y-43408165D01*
X36760365Y-43407473D01*
X36768214Y-43409576D01*
X36768216Y-43409577D01*
X36920943Y-43450500D01*
X36920945Y-43450500D01*
X37079055Y-43450500D01*
X37079057Y-43450500D01*
X37231784Y-43409577D01*
X37368716Y-43330520D01*
X37480520Y-43218716D01*
X37559577Y-43081784D01*
X37600500Y-42929057D01*
X37600500Y-42770943D01*
X37559577Y-42618216D01*
X37553125Y-42607041D01*
X37480524Y-42481290D01*
X37480518Y-42481282D01*
X37368717Y-42369481D01*
X37368709Y-42369475D01*
X37231790Y-42290426D01*
X37231786Y-42290424D01*
X37231784Y-42290423D01*
X37079057Y-42249500D01*
X36920943Y-42249500D01*
X36768216Y-42290423D01*
X36768214Y-42290423D01*
X36760365Y-42292527D01*
X36760253Y-42292111D01*
X36756572Y-42294477D01*
X36721637Y-42299500D01*
X36644551Y-42299500D01*
X36577512Y-42279815D01*
X36531757Y-42227011D01*
X36522078Y-42194899D01*
X36509720Y-42116877D01*
X36509719Y-42116875D01*
X36509719Y-42116874D01*
X36448528Y-41996780D01*
X36448526Y-41996778D01*
X36448523Y-41996774D01*
X36353225Y-41901476D01*
X36353221Y-41901473D01*
X36353220Y-41901472D01*
X36233126Y-41840281D01*
X36233124Y-41840280D01*
X36233121Y-41840279D01*
X36133493Y-41824500D01*
X36133488Y-41824500D01*
X35864182Y-41824500D01*
X35856296Y-41822184D01*
X35848178Y-41823463D01*
X35823263Y-41812484D01*
X35797143Y-41804815D01*
X35791761Y-41798604D01*
X35784240Y-41795290D01*
X35769215Y-41772584D01*
X35751388Y-41752011D01*
X35749223Y-41742373D01*
X35745683Y-41737023D01*
X35740193Y-41702158D01*
X35739098Y-41620264D01*
X35737944Y-41533987D01*
X35756730Y-41466693D01*
X35779232Y-41442367D01*
X35778431Y-41441566D01*
X35784995Y-41435001D01*
X35784999Y-41434999D01*
X35785001Y-41434995D01*
X35785004Y-41434993D01*
X35863851Y-41328158D01*
X35863852Y-41328157D01*
X35907708Y-41202826D01*
X35907708Y-41202823D01*
X35907710Y-41202819D01*
X35910500Y-41173066D01*
X35910500Y-40786934D01*
X35907710Y-40757181D01*
X35907708Y-40757177D01*
X35907708Y-40757173D01*
X35875443Y-40664968D01*
X35863852Y-40631843D01*
X35784999Y-40525001D01*
X35678157Y-40446148D01*
X35678155Y-40446147D01*
X35552826Y-40402291D01*
X35552814Y-40402289D01*
X35523070Y-40399500D01*
X35523066Y-40399500D01*
X35076934Y-40399500D01*
X35076930Y-40399500D01*
X35047185Y-40402289D01*
X35047173Y-40402291D01*
X34921844Y-40446147D01*
X34815001Y-40525001D01*
X34736147Y-40631844D01*
X34692291Y-40757173D01*
X34692289Y-40757185D01*
X34689500Y-40786929D01*
X34689500Y-41173070D01*
X34692289Y-41202814D01*
X34692291Y-41202826D01*
X34736147Y-41328155D01*
X34736148Y-41328157D01*
X34815001Y-41434999D01*
X34815003Y-41435000D01*
X34815006Y-41435004D01*
X34826613Y-41443570D01*
X34829122Y-41446874D01*
X34832922Y-41448549D01*
X34850074Y-41474470D01*
X34868864Y-41499217D01*
X34869842Y-41504343D01*
X34871479Y-41506817D01*
X34876969Y-41541682D01*
X34879071Y-41698842D01*
X34860285Y-41766138D01*
X34808097Y-41812595D01*
X34755082Y-41824500D01*
X34516507Y-41824500D01*
X34416875Y-41840280D01*
X34416874Y-41840280D01*
X34406290Y-41845673D01*
X34337620Y-41858566D01*
X34293710Y-41845673D01*
X34283124Y-41840280D01*
X34183493Y-41824500D01*
X34183488Y-41824500D01*
X33866512Y-41824500D01*
X33866507Y-41824500D01*
X33766878Y-41840279D01*
X33646778Y-41901473D01*
X33646774Y-41901476D01*
X33551476Y-41996774D01*
X33551473Y-41996778D01*
X33490279Y-42116878D01*
X33479008Y-42188040D01*
X33476884Y-42192519D01*
X33477137Y-42197471D01*
X33462065Y-42223778D01*
X33449078Y-42251175D01*
X33444869Y-42253795D01*
X33442405Y-42258097D01*
X33415502Y-42272080D01*
X33389766Y-42288105D01*
X33383607Y-42288659D01*
X33380410Y-42290321D01*
X33345162Y-42292118D01*
X33238278Y-42282273D01*
X33173326Y-42256523D01*
X33134297Y-42204288D01*
X33084361Y-42077658D01*
X33084360Y-42077657D01*
X33084360Y-42077656D01*
X32992922Y-41957077D01*
X32872343Y-41865639D01*
X32762148Y-41822184D01*
X32731564Y-41810123D01*
X32731563Y-41810122D01*
X32731561Y-41810122D01*
X32685926Y-41804642D01*
X32643102Y-41799500D01*
X30356898Y-41799500D01*
X30317853Y-41804188D01*
X30268438Y-41810122D01*
X30127656Y-41865639D01*
X30007077Y-41957077D01*
X29915638Y-42077657D01*
X29891699Y-42138362D01*
X29891505Y-42138610D01*
X29891476Y-42138922D01*
X29870097Y-42166123D01*
X29848792Y-42193505D01*
X29848430Y-42193692D01*
X29848302Y-42193856D01*
X29846272Y-42194812D01*
X29816936Y-42210038D01*
X29812727Y-42211496D01*
X29768216Y-42223423D01*
X29753086Y-42232157D01*
X29741914Y-42236028D01*
X29726770Y-42236753D01*
X29705805Y-42242779D01*
X24943370Y-42415021D01*
X24875663Y-42397772D01*
X24835786Y-42359992D01*
X24815977Y-42330345D01*
X24815974Y-42330342D01*
X24815972Y-42330339D01*
X24669658Y-42184025D01*
X24669654Y-42184022D01*
X24605609Y-42141228D01*
X24560804Y-42087615D01*
X24550500Y-42038126D01*
X24550500Y-40129895D01*
X24551911Y-40122565D01*
X24551058Y-40118144D01*
X24555457Y-40099986D01*
X29650001Y-40099986D01*
X29660494Y-40202697D01*
X29715641Y-40369119D01*
X29715643Y-40369124D01*
X29807684Y-40518345D01*
X29931654Y-40642315D01*
X30080875Y-40734356D01*
X30080880Y-40734358D01*
X30247302Y-40789505D01*
X30247309Y-40789506D01*
X30350019Y-40799999D01*
X31249999Y-40799999D01*
X31750000Y-40799999D01*
X32649972Y-40799999D01*
X32649986Y-40799998D01*
X32752697Y-40789505D01*
X32919119Y-40734358D01*
X32919124Y-40734356D01*
X33068345Y-40642315D01*
X33192315Y-40518345D01*
X33284356Y-40369124D01*
X33284358Y-40369119D01*
X33339505Y-40202697D01*
X33339506Y-40202690D01*
X33349999Y-40099986D01*
X33350000Y-40099973D01*
X33350000Y-39975000D01*
X31750000Y-39975000D01*
X31750000Y-40799999D01*
X31249999Y-40799999D01*
X31250000Y-40799998D01*
X31250000Y-39975000D01*
X29650001Y-39975000D01*
X29650001Y-40099986D01*
X24555457Y-40099986D01*
X24559368Y-40083845D01*
X24852900Y-39350013D01*
X29650000Y-39350013D01*
X29650000Y-39475000D01*
X31250000Y-39475000D01*
X31750000Y-39475000D01*
X33349999Y-39475000D01*
X33349999Y-39350028D01*
X33349998Y-39350013D01*
X33339505Y-39247302D01*
X33284358Y-39080880D01*
X33284356Y-39080875D01*
X33192315Y-38931654D01*
X33068345Y-38807684D01*
X32919124Y-38715643D01*
X32919119Y-38715641D01*
X32752697Y-38660494D01*
X32752690Y-38660493D01*
X32649986Y-38650000D01*
X31750000Y-38650000D01*
X31750000Y-39475000D01*
X31250000Y-39475000D01*
X31250000Y-38650000D01*
X30350028Y-38650000D01*
X30350012Y-38650001D01*
X30247302Y-38660494D01*
X30080880Y-38715641D01*
X30080875Y-38715643D01*
X29931654Y-38807684D01*
X29807684Y-38931654D01*
X29715643Y-39080875D01*
X29715641Y-39080880D01*
X29660494Y-39247302D01*
X29660493Y-39247309D01*
X29650000Y-39350013D01*
X24852900Y-39350013D01*
X25621204Y-37429251D01*
X25636618Y-37409639D01*
X25648547Y-37387731D01*
X25661444Y-37378051D01*
X25664377Y-37374320D01*
X25676762Y-37366553D01*
X25892769Y-37248264D01*
X25961023Y-37233330D01*
X26026517Y-37257668D01*
X26027252Y-37258221D01*
X26127656Y-37334360D01*
X26127657Y-37334360D01*
X26127658Y-37334361D01*
X26268436Y-37389877D01*
X26356898Y-37400500D01*
X26356903Y-37400500D01*
X28243097Y-37400500D01*
X28243102Y-37400500D01*
X28331564Y-37389877D01*
X28472342Y-37334361D01*
X28592922Y-37242922D01*
X28684361Y-37122342D01*
X28739877Y-36981564D01*
X28750500Y-36893102D01*
X28750500Y-36524500D01*
X28770185Y-36457461D01*
X28822989Y-36411706D01*
X28874500Y-36400500D01*
X36740163Y-36400500D01*
X36752499Y-36403214D01*
X36812443Y-36400500D01*
X36872475Y-36400500D01*
X36884681Y-36397229D01*
X36897300Y-36396658D01*
X36954504Y-36378520D01*
X37012485Y-36362984D01*
X37012492Y-36362979D01*
X37016281Y-36361411D01*
X37031734Y-36354596D01*
X37035463Y-36352849D01*
X37035470Y-36352848D01*
X37086036Y-36320519D01*
X37138015Y-36290509D01*
X37146946Y-36281576D01*
X37157591Y-36274771D01*
X37157590Y-36274771D01*
X37157593Y-36274770D01*
X37198071Y-36230452D01*
X37240509Y-36188015D01*
X37246825Y-36177074D01*
X37255347Y-36167745D01*
X37282977Y-36114457D01*
X37312984Y-36062485D01*
X37316253Y-36050281D01*
X37454141Y-35784356D01*
X37462923Y-35767420D01*
X37511258Y-35716967D01*
X37573004Y-35700500D01*
X38543097Y-35700500D01*
X38543102Y-35700500D01*
X38631564Y-35689877D01*
X38772342Y-35634361D01*
X38892922Y-35542922D01*
X38984361Y-35422342D01*
X39039877Y-35281564D01*
X39050500Y-35193102D01*
X39050500Y-34164665D01*
X39070185Y-34097626D01*
X39122989Y-34051871D01*
X39192147Y-34041927D01*
X39206576Y-34044886D01*
X39227525Y-34050500D01*
X39825500Y-34050500D01*
X39892539Y-34070185D01*
X39938294Y-34122989D01*
X39949500Y-34174500D01*
X39949500Y-35193102D01*
X39953572Y-35227011D01*
X39960122Y-35281561D01*
X40015639Y-35422343D01*
X40107077Y-35542922D01*
X40227656Y-35634360D01*
X40227657Y-35634360D01*
X40227658Y-35634361D01*
X40368436Y-35689877D01*
X40456898Y-35700500D01*
X40456903Y-35700500D01*
X42543097Y-35700500D01*
X42543102Y-35700500D01*
X42631564Y-35689877D01*
X42772342Y-35634361D01*
X42892922Y-35542922D01*
X42984361Y-35422342D01*
X43039877Y-35281564D01*
X43050500Y-35193102D01*
X43050500Y-33806898D01*
X43039877Y-33718436D01*
X42984361Y-33577658D01*
X42984360Y-33577657D01*
X42984360Y-33577656D01*
X42892922Y-33457077D01*
X42772343Y-33365639D01*
X42648257Y-33316706D01*
X42631564Y-33310123D01*
X42631563Y-33310122D01*
X42631561Y-33310122D01*
X42585926Y-33304642D01*
X42543102Y-33299500D01*
X42543097Y-33299500D01*
X41129387Y-33299500D01*
X41062348Y-33279815D01*
X41041706Y-33263181D01*
X40838016Y-33059491D01*
X40838015Y-33059490D01*
X40712485Y-32987016D01*
X40712486Y-32987016D01*
X40677482Y-32977637D01*
X40572475Y-32949500D01*
X40572472Y-32949500D01*
X39579387Y-32949500D01*
X39512348Y-32929815D01*
X39491706Y-32913181D01*
X39238016Y-32659491D01*
X39238015Y-32659490D01*
X39112485Y-32587016D01*
X39112480Y-32587014D01*
X39047116Y-32569499D01*
X39047116Y-32569500D01*
X39005294Y-32558294D01*
X38972475Y-32549500D01*
X38972474Y-32549500D01*
X35780640Y-32549500D01*
X35713601Y-32529815D01*
X35681837Y-32500427D01*
X35667921Y-32482077D01*
X35547343Y-32390639D01*
X35406561Y-32335122D01*
X35360926Y-32329642D01*
X35318102Y-32324500D01*
X34481898Y-32324500D01*
X34448713Y-32328485D01*
X34393436Y-32335122D01*
X34370602Y-32344127D01*
X34301015Y-32350406D01*
X34239080Y-32318068D01*
X34204460Y-32257378D01*
X34208147Y-32187606D01*
X34237432Y-32141092D01*
X37391706Y-28986819D01*
X37453029Y-28953334D01*
X37479387Y-28950500D01*
X44325501Y-28950500D01*
X44392540Y-28970185D01*
X44438295Y-29022989D01*
X44449501Y-29074500D01*
X44449501Y-29223098D01*
X44454121Y-29261575D01*
X44460123Y-29311562D01*
X44515639Y-29452342D01*
X44515640Y-29452344D01*
X44607077Y-29572922D01*
X44657213Y-29610941D01*
X44727658Y-29664361D01*
X44868436Y-29719876D01*
X44956901Y-29730500D01*
X46043098Y-29730499D01*
X46131564Y-29719876D01*
X46272342Y-29664361D01*
X46392922Y-29572922D01*
X46484361Y-29452342D01*
X46539876Y-29311564D01*
X46550500Y-29223099D01*
X46550499Y-27616902D01*
X46539876Y-27528436D01*
X46484361Y-27387658D01*
X46484359Y-27387655D01*
X46392922Y-27267077D01*
X46272344Y-27175640D01*
X46272342Y-27175639D01*
X46131564Y-27120124D01*
X46131561Y-27120123D01*
X46043099Y-27109500D01*
X44956908Y-27109500D01*
X44868437Y-27120123D01*
X44727657Y-27175639D01*
X44727655Y-27175640D01*
X44607077Y-27267077D01*
X44515640Y-27387655D01*
X44460124Y-27528437D01*
X44460123Y-27528438D01*
X44449500Y-27616900D01*
X44449500Y-27725500D01*
X44429815Y-27792539D01*
X44377011Y-27838294D01*
X44325500Y-27849500D01*
X37127525Y-27849500D01*
X37022517Y-27877637D01*
X36987514Y-27887016D01*
X36861986Y-27959489D01*
X36861983Y-27959491D01*
X32533294Y-32288181D01*
X32471971Y-32321666D01*
X32445613Y-32324500D01*
X31754387Y-32324500D01*
X31687348Y-32304815D01*
X31666706Y-32288181D01*
X29938016Y-30559491D01*
X29938015Y-30559490D01*
X29812485Y-30487016D01*
X29812483Y-30487015D01*
X29800603Y-30483832D01*
X29800603Y-30483831D01*
X29695923Y-30455783D01*
X29672475Y-30449500D01*
X29672474Y-30449500D01*
X24461873Y-30449500D01*
X24394834Y-30429815D01*
X24358771Y-30394391D01*
X24315975Y-30330342D01*
X24169657Y-30184024D01*
X24058753Y-30109921D01*
X23997598Y-30069059D01*
X23921502Y-30037539D01*
X23806420Y-29989870D01*
X23806412Y-29989868D01*
X23603469Y-29949500D01*
X23603465Y-29949500D01*
X23396535Y-29949500D01*
X23396530Y-29949500D01*
X23193587Y-29989868D01*
X23193579Y-29989870D01*
X23002403Y-30069058D01*
X22830342Y-30184024D01*
X22684024Y-30330342D01*
X22569058Y-30502403D01*
X22489870Y-30693579D01*
X22489868Y-30693587D01*
X22449500Y-30896530D01*
X20300500Y-30896530D01*
X20300500Y-23878711D01*
X22149500Y-23878711D01*
X22149500Y-24121288D01*
X22181161Y-24361785D01*
X22243947Y-24596104D01*
X22272024Y-24663887D01*
X22336776Y-24820212D01*
X22458064Y-25030289D01*
X22458066Y-25030292D01*
X22458067Y-25030293D01*
X22605733Y-25222736D01*
X22605739Y-25222743D01*
X22777256Y-25394260D01*
X22777262Y-25394265D01*
X22969711Y-25541936D01*
X23179788Y-25663224D01*
X23403900Y-25756054D01*
X23638211Y-25818838D01*
X23818586Y-25842584D01*
X23878711Y-25850500D01*
X23878712Y-25850500D01*
X24121289Y-25850500D01*
X24169388Y-25844167D01*
X24361789Y-25818838D01*
X24596100Y-25756054D01*
X24820212Y-25663224D01*
X25030289Y-25541936D01*
X25222738Y-25394265D01*
X25394265Y-25222738D01*
X25541936Y-25030289D01*
X25663224Y-24820212D01*
X25756054Y-24596100D01*
X25818838Y-24361789D01*
X25850500Y-24121288D01*
X25850500Y-23985258D01*
X45899500Y-23985258D01*
X45899500Y-24214741D01*
X45924446Y-24404215D01*
X45929452Y-24442238D01*
X45929453Y-24442240D01*
X45988842Y-24663887D01*
X46076650Y-24875876D01*
X46076656Y-24875888D01*
X46165801Y-25030293D01*
X46191392Y-25074617D01*
X46331081Y-25256661D01*
X46331089Y-25256670D01*
X46493330Y-25418911D01*
X46493338Y-25418918D01*
X46675382Y-25558607D01*
X46675385Y-25558608D01*
X46675388Y-25558611D01*
X46874112Y-25673344D01*
X46874117Y-25673346D01*
X46874123Y-25673349D01*
X46965480Y-25711190D01*
X47086113Y-25761158D01*
X47307762Y-25820548D01*
X47535266Y-25850500D01*
X47535273Y-25850500D01*
X47764727Y-25850500D01*
X47764734Y-25850500D01*
X47992238Y-25820548D01*
X48213887Y-25761158D01*
X48425888Y-25673344D01*
X48624612Y-25558611D01*
X48806661Y-25418919D01*
X48806665Y-25418914D01*
X48806670Y-25418911D01*
X48968911Y-25256670D01*
X48968914Y-25256665D01*
X48968919Y-25256661D01*
X49108611Y-25074612D01*
X49223344Y-24875888D01*
X49311158Y-24663887D01*
X49370548Y-24442238D01*
X49400500Y-24214734D01*
X49400500Y-23985266D01*
X49400499Y-23985258D01*
X50599500Y-23985258D01*
X50599500Y-24214741D01*
X50624446Y-24404215D01*
X50629452Y-24442238D01*
X50629453Y-24442240D01*
X50688842Y-24663887D01*
X50776650Y-24875876D01*
X50776656Y-24875888D01*
X50865801Y-25030293D01*
X50891392Y-25074617D01*
X51031081Y-25256661D01*
X51031089Y-25256670D01*
X51193330Y-25418911D01*
X51193338Y-25418918D01*
X51375382Y-25558607D01*
X51375385Y-25558608D01*
X51375388Y-25558611D01*
X51574112Y-25673344D01*
X51574117Y-25673346D01*
X51574123Y-25673349D01*
X51665480Y-25711190D01*
X51786113Y-25761158D01*
X52007762Y-25820548D01*
X52235266Y-25850500D01*
X52235273Y-25850500D01*
X52464727Y-25850500D01*
X52464734Y-25850500D01*
X52692238Y-25820548D01*
X52913887Y-25761158D01*
X53125888Y-25673344D01*
X53324612Y-25558611D01*
X53506661Y-25418919D01*
X53506665Y-25418914D01*
X53506670Y-25418911D01*
X53668911Y-25256670D01*
X53668914Y-25256665D01*
X53668919Y-25256661D01*
X53808611Y-25074612D01*
X53923344Y-24875888D01*
X54011158Y-24663887D01*
X54070548Y-24442238D01*
X54100500Y-24214734D01*
X54100500Y-23985266D01*
X54086472Y-23878711D01*
X74149500Y-23878711D01*
X74149500Y-24121288D01*
X74181161Y-24361785D01*
X74243947Y-24596104D01*
X74272024Y-24663887D01*
X74336776Y-24820212D01*
X74458064Y-25030289D01*
X74458066Y-25030292D01*
X74458067Y-25030293D01*
X74605733Y-25222736D01*
X74605739Y-25222743D01*
X74777256Y-25394260D01*
X74777262Y-25394265D01*
X74969711Y-25541936D01*
X75179788Y-25663224D01*
X75403900Y-25756054D01*
X75638211Y-25818838D01*
X75818586Y-25842584D01*
X75878711Y-25850500D01*
X75878712Y-25850500D01*
X76121289Y-25850500D01*
X76169388Y-25844167D01*
X76361789Y-25818838D01*
X76596100Y-25756054D01*
X76820212Y-25663224D01*
X77030289Y-25541936D01*
X77222738Y-25394265D01*
X77394265Y-25222738D01*
X77541936Y-25030289D01*
X77663224Y-24820212D01*
X77756054Y-24596100D01*
X77818838Y-24361789D01*
X77850500Y-24121288D01*
X77850500Y-23878712D01*
X77818838Y-23638211D01*
X77756054Y-23403900D01*
X77663224Y-23179788D01*
X77541936Y-22969711D01*
X77397202Y-22781089D01*
X77394266Y-22777263D01*
X77394260Y-22777256D01*
X77222743Y-22605739D01*
X77222736Y-22605733D01*
X77030293Y-22458067D01*
X77030292Y-22458066D01*
X77030289Y-22458064D01*
X76820212Y-22336776D01*
X76820205Y-22336773D01*
X76596104Y-22243947D01*
X76361785Y-22181161D01*
X76121289Y-22149500D01*
X76121288Y-22149500D01*
X75878712Y-22149500D01*
X75878711Y-22149500D01*
X75638214Y-22181161D01*
X75403895Y-22243947D01*
X75179794Y-22336773D01*
X75179785Y-22336777D01*
X74969706Y-22458067D01*
X74777263Y-22605733D01*
X74777256Y-22605739D01*
X74605739Y-22777256D01*
X74605733Y-22777263D01*
X74458067Y-22969706D01*
X74336777Y-23179785D01*
X74336773Y-23179794D01*
X74243947Y-23403895D01*
X74181161Y-23638214D01*
X74149500Y-23878711D01*
X54086472Y-23878711D01*
X54070548Y-23757762D01*
X54011158Y-23536113D01*
X53923344Y-23324112D01*
X53808611Y-23125388D01*
X53808608Y-23125385D01*
X53808607Y-23125382D01*
X53668918Y-22943338D01*
X53668911Y-22943330D01*
X53506670Y-22781089D01*
X53506661Y-22781081D01*
X53324617Y-22641392D01*
X53125890Y-22526657D01*
X53125876Y-22526650D01*
X52913887Y-22438842D01*
X52692238Y-22379452D01*
X52654215Y-22374446D01*
X52464741Y-22349500D01*
X52464734Y-22349500D01*
X52235266Y-22349500D01*
X52235258Y-22349500D01*
X52018715Y-22378009D01*
X52007762Y-22379452D01*
X51914076Y-22404554D01*
X51786112Y-22438842D01*
X51574123Y-22526650D01*
X51574109Y-22526657D01*
X51375382Y-22641392D01*
X51193338Y-22781081D01*
X51031081Y-22943338D01*
X50891392Y-23125382D01*
X50776657Y-23324109D01*
X50776650Y-23324123D01*
X50688842Y-23536112D01*
X50629453Y-23757759D01*
X50629451Y-23757770D01*
X50599500Y-23985258D01*
X49400499Y-23985258D01*
X49370548Y-23757762D01*
X49311158Y-23536113D01*
X49223344Y-23324112D01*
X49108611Y-23125388D01*
X49108608Y-23125385D01*
X49108607Y-23125382D01*
X48968918Y-22943338D01*
X48968911Y-22943330D01*
X48806670Y-22781089D01*
X48806661Y-22781081D01*
X48624617Y-22641392D01*
X48425890Y-22526657D01*
X48425876Y-22526650D01*
X48213887Y-22438842D01*
X47992238Y-22379452D01*
X47954215Y-22374446D01*
X47764741Y-22349500D01*
X47764734Y-22349500D01*
X47535266Y-22349500D01*
X47535258Y-22349500D01*
X47318715Y-22378009D01*
X47307762Y-22379452D01*
X47214076Y-22404554D01*
X47086112Y-22438842D01*
X46874123Y-22526650D01*
X46874109Y-22526657D01*
X46675382Y-22641392D01*
X46493338Y-22781081D01*
X46331081Y-22943338D01*
X46191392Y-23125382D01*
X46076657Y-23324109D01*
X46076650Y-23324123D01*
X45988842Y-23536112D01*
X45929453Y-23757759D01*
X45929451Y-23757770D01*
X45899500Y-23985258D01*
X25850500Y-23985258D01*
X25850500Y-23878712D01*
X25818838Y-23638211D01*
X25756054Y-23403900D01*
X25663224Y-23179788D01*
X25541936Y-22969711D01*
X25397202Y-22781089D01*
X25394266Y-22777263D01*
X25394260Y-22777256D01*
X25222743Y-22605739D01*
X25222736Y-22605733D01*
X25030293Y-22458067D01*
X25030292Y-22458066D01*
X25030289Y-22458064D01*
X24820212Y-22336776D01*
X24820205Y-22336773D01*
X24596104Y-22243947D01*
X24361785Y-22181161D01*
X24121289Y-22149500D01*
X24121288Y-22149500D01*
X23878712Y-22149500D01*
X23878711Y-22149500D01*
X23638214Y-22181161D01*
X23403895Y-22243947D01*
X23179794Y-22336773D01*
X23179785Y-22336777D01*
X22969706Y-22458067D01*
X22777263Y-22605733D01*
X22777256Y-22605739D01*
X22605739Y-22777256D01*
X22605733Y-22777263D01*
X22458067Y-22969706D01*
X22336777Y-23179785D01*
X22336773Y-23179794D01*
X22243947Y-23403895D01*
X22181161Y-23638214D01*
X22149500Y-23878711D01*
X20300500Y-23878711D01*
X20300500Y-20424500D01*
X20320185Y-20357461D01*
X20372989Y-20311706D01*
X20424500Y-20300500D01*
X79575500Y-20300500D01*
X79642539Y-20320185D01*
G37*
%TD.AperFunction*%
%TD*%
D40*
X51000000Y-44000000D03*
X71800000Y-34000000D03*
X29620000Y-50240000D03*
X61200000Y-41000000D03*
X50480000Y-45550000D03*
X33600000Y-39730000D03*
X52630000Y-49920000D03*
X65000000Y-30000000D03*
X44000000Y-51000000D03*
X29310000Y-48000000D03*
X36980000Y-47150000D03*
X37000000Y-30000000D03*
X44000000Y-37000000D03*
X30000000Y-30000000D03*
X28810000Y-45670000D03*
X46500000Y-56000000D03*
X37460000Y-48610000D03*
X54050000Y-32110000D03*
X72000000Y-51000000D03*
X61700000Y-49000000D03*
X65000000Y-37000000D03*
X65000000Y-23000000D03*
X36700000Y-45000000D03*
X37000000Y-37000000D03*
X51000000Y-37000000D03*
X72000000Y-37000000D03*
X29200000Y-40150000D03*
X23000000Y-44000000D03*
X30000000Y-23000000D03*
X37000000Y-44000000D03*
X32030000Y-47920000D03*
X72000000Y-30000000D03*
X37000000Y-23000000D03*
X30000000Y-37000000D03*
X36220000Y-40540000D03*
X32030000Y-45120000D03*
X72000000Y-23000000D03*
X23000000Y-37000000D03*
X45460000Y-46610000D03*
X37000000Y-42850000D03*
X30000000Y-42783000D03*
X65099999Y-43400000D03*
X66500000Y-43200000D03*
X61600000Y-45900000D03*
X56300000Y-50300000D03*
X58200000Y-50300000D03*
X62500000Y-45000000D03*
X54500000Y-48600000D03*
X37000000Y-51500000D03*
X56900000Y-42100000D03*
X55300000Y-42100000D03*
X39000000Y-49200000D03*
X52800000Y-46900000D03*
X53800000Y-53100000D03*
X53800000Y-54500000D03*
X57700000Y-45700000D03*
X56800000Y-44800000D03*
D41*
X73000000Y-45000000D03*
X73000000Y-40000000D03*
X24000000Y-56000000D03*
X47650000Y-24100000D03*
X52350000Y-24100000D03*
X45500000Y-28420000D03*
X48500000Y-28420000D03*
X51500000Y-28420000D03*
X54500000Y-28420000D03*
X76000000Y-56000000D03*
X24000000Y-24000000D03*
X76000000Y-24000000D03*
M02*
