M48
; DRILL file KiCad 10.0.4-10.0.4~ubuntu24.04.1 date 2026-09-03T12:13:21
; FORMAT={-:-/ absolute / metric / decimal}
; #@! TF.CreationDate,2026-09-03T12:13:21-07:00
; #@! TF.GenerationSoftware,Kicad,Pcbnew,10.0.4-10.0.4~ubuntu24.04.1
; #@! TF.FileFunction,Plated,1,2,PTH
FMAT,2
METRIC
; #@! TA.AperFunction,Plated,PTH,ViaDrill
T1C0.300
; #@! TA.AperFunction,Plated,PTH,ComponentDrill
T2C1.020
; #@! TA.AperFunction,Plated,PTH,ComponentDrill
T3C1.200
%
G90
G05
T1
X23.0Y-37.0
X23.0Y-44.0
X28.81Y-45.67
X29.2Y-40.15
X29.31Y-48.0
X29.62Y-50.24
X30.0Y-23.0
X30.0Y-30.0
X30.0Y-37.0
X30.0Y-42.783
X32.03Y-45.12
X32.03Y-47.92
X33.6Y-39.73
X36.22Y-40.54
X36.7Y-45.0
X36.98Y-47.15
X37.0Y-23.0
X37.0Y-30.0
X37.0Y-37.0
X37.0Y-42.85
X37.0Y-44.0
X37.0Y-51.5
X37.46Y-48.61
X39.0Y-49.2
X44.0Y-37.0
X44.0Y-51.0
X45.46Y-46.61
X46.5Y-56.0
X50.48Y-45.55
X51.0Y-37.0
X51.0Y-44.0
X52.63Y-49.92
X52.8Y-46.9
X53.8Y-53.1
X53.8Y-54.5
X54.05Y-32.11
X54.5Y-48.6
X55.3Y-42.1
X56.3Y-50.3
X56.8Y-44.8
X56.9Y-42.1
X57.7Y-45.7
X58.2Y-50.3
X61.2Y-41.0
X61.6Y-45.9
X61.7Y-49.0
X62.5Y-45.0
X65.0Y-23.0
X65.0Y-30.0
X65.0Y-37.0
X65.1Y-43.4
X66.5Y-43.2
X71.8Y-34.0
X72.0Y-23.0
X72.0Y-30.0
X72.0Y-37.0
X72.0Y-51.0
T2
X45.5Y-28.42
X48.5Y-28.42
X51.5Y-28.42
X54.5Y-28.42
T3
X73.0Y-40.0
X73.0Y-45.0
M30
