#VRML V2.0 utf8
# Source-owned dimension-derived geometry; NOT manufacturer CAD.
# Reproduce with03_src/build_package_models.py; see provenance.md.
# Units: one coordinate unit is2.54mm; nativeY=-footprintY.
# solid insulator_reference_envelope
Shape {
 appearance Appearance { material Material { diffuseColor 0.075 0.075 0.08 } }
 geometry IndexedFaceSet { solid TRUE
  coord Coordinate { point [
   -0.381889764 0.393700787 0.000000000,
   1.169291339 0.393700787 0.000000000,
   1.169291339 -4.330708661 0.000000000,
   -0.381889764 -4.330708661 0.000000000,
   -0.381889764 0.393700787 0.590551181,
   1.169291339 0.393700787 0.590551181,
   1.169291339 -4.330708661 0.590551181,
   -0.381889764 -4.330708661 0.590551181,
  ] }
  coordIndex [
   0, 1, 2, 3, -1,
   7, 6, 5, 4, -1,
   0, 4, 5, 1, -1,
   1, 5, 6, 2, -1,
   2, 6, 7, 3, -1,
   3, 7, 4, 0, -1,
  ]
 }
}
# solid terminal_1
Shape {
 appearance Appearance { material Material { diffuseColor 0.7 0.7 0.72 } }
 geometry IndexedFaceSet { solid TRUE
  coord Coordinate { point [
   -0.098425197 0.098425197 -1.377952756,
   0.098425197 0.098425197 -1.377952756,
   0.098425197 -0.098425197 -1.377952756,
   -0.098425197 -0.098425197 -1.377952756,
   -0.098425197 0.098425197 1.850393701,
   0.098425197 0.098425197 1.850393701,
   0.098425197 -0.098425197 1.850393701,
   -0.098425197 -0.098425197 1.850393701,
  ] }
  coordIndex [
   0, 1, 2, 3, -1,
   7, 6, 5, 4, -1,
   0, 4, 5, 1, -1,
   1, 5, 6, 2, -1,
   2, 6, 7, 3, -1,
   3, 7, 4, 0, -1,
  ]
 }
}
# solid terminal_2
Shape {
 appearance Appearance { material Material { diffuseColor 0.7 0.7 0.72 } }
 geometry IndexedFaceSet { solid TRUE
  coord Coordinate { point [
   0.688976378 0.098425197 -1.377952756,
   0.885826772 0.098425197 -1.377952756,
   0.885826772 -0.098425197 -1.377952756,
   0.688976378 -0.098425197 -1.377952756,
   0.688976378 0.098425197 1.850393701,
   0.885826772 0.098425197 1.850393701,
   0.885826772 -0.098425197 1.850393701,
   0.688976378 -0.098425197 1.850393701,
  ] }
  coordIndex [
   0, 1, 2, 3, -1,
   7, 6, 5, 4, -1,
   0, 4, 5, 1, -1,
   1, 5, 6, 2, -1,
   2, 6, 7, 3, -1,
   3, 7, 4, 0, -1,
  ]
 }
}
# solid terminal_3
Shape {
 appearance Appearance { material Material { diffuseColor 0.7 0.7 0.72 } }
 geometry IndexedFaceSet { solid TRUE
  coord Coordinate { point [
   -0.098425197 -0.688976378 -1.377952756,
   0.098425197 -0.688976378 -1.377952756,
   0.098425197 -0.885826772 -1.377952756,
   -0.098425197 -0.885826772 -1.377952756,
   -0.098425197 -0.688976378 1.850393701,
   0.098425197 -0.688976378 1.850393701,
   0.098425197 -0.885826772 1.850393701,
   -0.098425197 -0.885826772 1.850393701,
  ] }
  coordIndex [
   0, 1, 2, 3, -1,
   7, 6, 5, 4, -1,
   0, 4, 5, 1, -1,
   1, 5, 6, 2, -1,
   2, 6, 7, 3, -1,
   3, 7, 4, 0, -1,
  ]
 }
}
# solid terminal_4
Shape {
 appearance Appearance { material Material { diffuseColor 0.7 0.7 0.72 } }
 geometry IndexedFaceSet { solid TRUE
  coord Coordinate { point [
   0.688976378 -0.688976378 -1.377952756,
   0.885826772 -0.688976378 -1.377952756,
   0.885826772 -0.885826772 -1.377952756,
   0.688976378 -0.885826772 -1.377952756,
   0.688976378 -0.688976378 1.850393701,
   0.885826772 -0.688976378 1.850393701,
   0.885826772 -0.885826772 1.850393701,
   0.688976378 -0.885826772 1.850393701,
  ] }
  coordIndex [
   0, 1, 2, 3, -1,
   7, 6, 5, 4, -1,
   0, 4, 5, 1, -1,
   1, 5, 6, 2, -1,
   2, 6, 7, 3, -1,
   3, 7, 4, 0, -1,
  ]
 }
}
# solid terminal_5
Shape {
 appearance Appearance { material Material { diffuseColor 0.7 0.7 0.72 } }
 geometry IndexedFaceSet { solid TRUE
  coord Coordinate { point [
   -0.098425197 -1.476377953 -1.377952756,
   0.098425197 -1.476377953 -1.377952756,
   0.098425197 -1.673228346 -1.377952756,
   -0.098425197 -1.673228346 -1.377952756,
   -0.098425197 -1.476377953 1.850393701,
   0.098425197 -1.476377953 1.850393701,
   0.098425197 -1.673228346 1.850393701,
   -0.098425197 -1.673228346 1.850393701,
  ] }
  coordIndex [
   0, 1, 2, 3, -1,
   7, 6, 5, 4, -1,
   0, 4, 5, 1, -1,
   1, 5, 6, 2, -1,
   2, 6, 7, 3, -1,
   3, 7, 4, 0, -1,
  ]
 }
}
# solid terminal_6
Shape {
 appearance Appearance { material Material { diffuseColor 0.7 0.7 0.72 } }
 geometry IndexedFaceSet { solid TRUE
  coord Coordinate { point [
   0.688976378 -1.476377953 -1.377952756,
   0.885826772 -1.476377953 -1.377952756,
   0.885826772 -1.673228346 -1.377952756,
   0.688976378 -1.673228346 -1.377952756,
   0.688976378 -1.476377953 1.850393701,
   0.885826772 -1.476377953 1.850393701,
   0.885826772 -1.673228346 1.850393701,
   0.688976378 -1.673228346 1.850393701,
  ] }
  coordIndex [
   0, 1, 2, 3, -1,
   7, 6, 5, 4, -1,
   0, 4, 5, 1, -1,
   1, 5, 6, 2, -1,
   2, 6, 7, 3, -1,
   3, 7, 4, 0, -1,
  ]
 }
}
# solid terminal_7
Shape {
 appearance Appearance { material Material { diffuseColor 0.7 0.7 0.72 } }
 geometry IndexedFaceSet { solid TRUE
  coord Coordinate { point [
   -0.098425197 -2.263779528 -1.377952756,
   0.098425197 -2.263779528 -1.377952756,
   0.098425197 -2.460629921 -1.377952756,
   -0.098425197 -2.460629921 -1.377952756,
   -0.098425197 -2.263779528 1.850393701,
   0.098425197 -2.263779528 1.850393701,
   0.098425197 -2.460629921 1.850393701,
   -0.098425197 -2.460629921 1.850393701,
  ] }
  coordIndex [
   0, 1, 2, 3, -1,
   7, 6, 5, 4, -1,
   0, 4, 5, 1, -1,
   1, 5, 6, 2, -1,
   2, 6, 7, 3, -1,
   3, 7, 4, 0, -1,
  ]
 }
}
# solid terminal_8
Shape {
 appearance Appearance { material Material { diffuseColor 0.7 0.7 0.72 } }
 geometry IndexedFaceSet { solid TRUE
  coord Coordinate { point [
   0.688976378 -2.263779528 -1.377952756,
   0.885826772 -2.263779528 -1.377952756,
   0.885826772 -2.460629921 -1.377952756,
   0.688976378 -2.460629921 -1.377952756,
   0.688976378 -2.263779528 1.850393701,
   0.885826772 -2.263779528 1.850393701,
   0.885826772 -2.460629921 1.850393701,
   0.688976378 -2.460629921 1.850393701,
  ] }
  coordIndex [
   0, 1, 2, 3, -1,
   7, 6, 5, 4, -1,
   0, 4, 5, 1, -1,
   1, 5, 6, 2, -1,
   2, 6, 7, 3, -1,
   3, 7, 4, 0, -1,
  ]
 }
}
# solid terminal_9
Shape {
 appearance Appearance { material Material { diffuseColor 0.7 0.7 0.72 } }
 geometry IndexedFaceSet { solid TRUE
  coord Coordinate { point [
   -0.098425197 -3.051181102 -1.377952756,
   0.098425197 -3.051181102 -1.377952756,
   0.098425197 -3.248031496 -1.377952756,
   -0.098425197 -3.248031496 -1.377952756,
   -0.098425197 -3.051181102 1.850393701,
   0.098425197 -3.051181102 1.850393701,
   0.098425197 -3.248031496 1.850393701,
   -0.098425197 -3.248031496 1.850393701,
  ] }
  coordIndex [
   0, 1, 2, 3, -1,
   7, 6, 5, 4, -1,
   0, 4, 5, 1, -1,
   1, 5, 6, 2, -1,
   2, 6, 7, 3, -1,
   3, 7, 4, 0, -1,
  ]
 }
}
# solid terminal_10
Shape {
 appearance Appearance { material Material { diffuseColor 0.7 0.7 0.72 } }
 geometry IndexedFaceSet { solid TRUE
  coord Coordinate { point [
   0.688976378 -3.051181102 -1.377952756,
   0.885826772 -3.051181102 -1.377952756,
   0.885826772 -3.248031496 -1.377952756,
   0.688976378 -3.248031496 -1.377952756,
   0.688976378 -3.051181102 1.850393701,
   0.885826772 -3.051181102 1.850393701,
   0.885826772 -3.248031496 1.850393701,
   0.688976378 -3.248031496 1.850393701,
  ] }
  coordIndex [
   0, 1, 2, 3, -1,
   7, 6, 5, 4, -1,
   0, 4, 5, 1, -1,
   1, 5, 6, 2, -1,
   2, 6, 7, 3, -1,
   3, 7, 4, 0, -1,
  ]
 }
}
# solid terminal_11
Shape {
 appearance Appearance { material Material { diffuseColor 0.7 0.7 0.72 } }
 geometry IndexedFaceSet { solid TRUE
  coord Coordinate { point [
   -0.098425197 -3.838582677 -1.377952756,
   0.098425197 -3.838582677 -1.377952756,
   0.098425197 -4.035433071 -1.377952756,
   -0.098425197 -4.035433071 -1.377952756,
   -0.098425197 -3.838582677 1.850393701,
   0.098425197 -3.838582677 1.850393701,
   0.098425197 -4.035433071 1.850393701,
   -0.098425197 -4.035433071 1.850393701,
  ] }
  coordIndex [
   0, 1, 2, 3, -1,
   7, 6, 5, 4, -1,
   0, 4, 5, 1, -1,
   1, 5, 6, 2, -1,
   2, 6, 7, 3, -1,
   3, 7, 4, 0, -1,
  ]
 }
}
# solid terminal_12
Shape {
 appearance Appearance { material Material { diffuseColor 0.7 0.7 0.72 } }
 geometry IndexedFaceSet { solid TRUE
  coord Coordinate { point [
   0.688976378 -3.838582677 -1.377952756,
   0.885826772 -3.838582677 -1.377952756,
   0.885826772 -4.035433071 -1.377952756,
   0.688976378 -4.035433071 -1.377952756,
   0.688976378 -3.838582677 1.850393701,
   0.885826772 -3.838582677 1.850393701,
   0.885826772 -4.035433071 1.850393701,
   0.688976378 -4.035433071 1.850393701,
  ] }
  coordIndex [
   0, 1, 2, 3, -1,
   7, 6, 5, 4, -1,
   0, 4, 5, 1, -1,
   1, 5, 6, 2, -1,
   2, 6, 7, 3, -1,
   3, 7, 4, 0, -1,
  ]
 }
}
