#VRML V2.0 utf8
# 3D model generated by easyeda2kicad.py (https://github.com/uPesy/easyeda2kicad.py)

Shape{
    appearance Appearance {
        material  Material 	{
            diffuseColor 0.11372549019607843 0.11372549019607843 0.11372549019607843
            specularColor 0.058823529411764705 0.058823529411764705 0.058823529411764705
            ambientIntensity 0.1137
            transparency 0.0
            shininess 0.5
        }
    }
    geometry IndexedFaceSet {
        ccw TRUE
        solid FALSE
        coord DEF co Coordinate {
            point [
                0.9941 -0.8441 0.1181, 0.6562 -0.8441 0.1181, 0.6562 -0.6422 0.1181, -0.4528 0.0984 0.1181, -0.4528 0.3937 0.1181, -0.3505 0.3937 0.1181, 2.4902 -3.5039 0.1181, 0.6562 -3.5039 0.1181, 0.6562 -3.2087 0.1181, 0.0963 -0.6397 0.1181, -0.0098 0.3937 0.1181, 0.112 -0.6406 0.1181, 0.2136 0.3937 0.1181, 0.1187 -0.6422 0.1181, 0.1268 -0.8431 0.1181, 0.1503 -0.8341 0.1181, 0.2136 -0.8441 0.1181, 0.1694 -0.8204 0.1181, 0.1773 -0.8122 0.1181, 0.1916 -0.7906 0.1181, 0.1909 -0.6943 0.1181, 0.1774 -0.6749 0.1181, 0.2136 -0.6422 0.1181, 0.1569 -0.6569 0.1181, 0.1361 -0.6463 0.1181, 0.1995 -0.768 0.1181, 0.2022 -0.742 0.1181, 0.199 -0.7151 0.1181, 0.1181 -0.8441 0.1181, 0.2136 -3.2087 0.1181, 0.0961 -0.8466 0.1181, 0.0862 -0.8463 0.1181, -0.0098 -3.2087 0.1181, 0.0712 -0.8441 0.1181, 0.0104 -0.8054 0.1181, 0.0278 -0.8236 0.1181, -0.0098 -0.8441 0.1181, 0.0482 -0.8364 0.1181, 0.0706 -0.844 0.1181, 0.0744 -0.6422 0.1181, 0.0677 -0.643 0.1181, -0.0098 -0.6422 0.1181, 0.0497 -0.6491 0.1181, 0.0283 -0.6621 0.1181, 0.0162 -0.6736 0.1181, 0.0104 -0.6809 0.1181, 0.1841 -0.7341 0.1181, 0.1846 -0.7434 0.1181, 0.0974 -0.6599 0.1181, 0.1799 -0.715 0.1181, 0.1651 -0.7968 0.1181, 0.1509 -0.8098 0.1181, 0.0259 -0.7936 0.1181, 0.0417 -0.6774 0.1181, 0.0368 -0.8046 0.1181, 0.0602 -0.667 0.1181, 0.0542 -0.8166 0.1181, 0.0731 -0.8237 0.1181, 0.1207 -0.6627 0.1181, 0.1408 -0.6705 0.1181, 0.182 -0.7651 0.1181, 0.1757 -0.7814 0.1181, 0.0688 -0.6639 0.1181, 0.0905 -0.6601 0.1181, 0.1118 -0.8254 0.1181, 0.1318 -0.8202 0.1181, 0.0962 -0.8265 0.1181, 0.1589 -0.6833 0.1181, 0.1711 -0.6975 0.1181, -3.0807 -0.1207 0.1181, -2.7657 -0.1207 0.1181, -2.1506 -0.6422 0.1181, -2.1506 -0.8441 0.1181, -2.1506 -3.2087 0.1181, -2.7854 -3.2087 0.1181, 0.9941 -2.9134 0.1181, 1.1909 -2.9134 0.1181, 1.2011 -1.7981 0.1181, 1.2183 -1.7287 0.1181, 3.0807 -2.9134 0.1181, 3.0807 -0.8441 0.1181, 1.2183 -1.6572 0.1181, 1.2011 -1.5877 0.1181, 2.7854 -3.2087 0.1181, 1.1909 -1.8216 0.1181, 0.7165 -0.1181 0.1181, 0.7165 0.0984 0.1181, 0.7283 0.0984 0.1181, 0.7283 0.3937 0.1181, 1.6339 0.3937 0.1181, 1.6339 0.0984 0.1181, 1.6457 0.0984 0.1181, 1.1909 -0.4152 0.1181, 1.6457 -0.1181 0.1181, 1.1909 -0.6422 0.1181, 1.8976 0.0984 0.1181, 1.9094 0.0984 0.1181, 1.8976 -0.1181 0.1181, 3.0807 -0.6422 0.1181, 3.0807 -0.1207 0.1181, 2.7657 -0.1207 0.1181, 2.7657 0.3937 0.1181, 1.9094 0.3937 0.1181, 0.4528 0.0984 0.1181, 0.4528 0.3937 0.1181, 0.4646 0.0984 0.1181, 0.4646 -0.1181 0.1181, 0.6562 -0.1181 0.1181, -0.772 0.3937 0.1181, -0.7283 0.3937 0.1181, -0.7283 0.0984 0.1181, -0.7165 0.0984 0.1181, -0.7165 -0.1181 0.1181, -0.772 -0.6422 0.1181, -1.6339 0.0984 0.1181, -1.6339 0.3937 0.1181, -1.9094 0.3937 0.1181, -2.1506 0.3937 0.1181, -2.7657 0.3937 0.1181, -1.1909 -0.4152 0.1181, -1.6457 -0.1181 0.1181, -1.6457 0.0984 0.1181, -1.9094 0.0984 0.1181, -1.8976 0.0984 0.1181, -1.8976 -0.1181 0.1181, -0.772 -3.2087 0.1181, -1.1909 -2.9134 0.1181, -1.1909 -1.8216 0.1181, -1.2011 -1.7981 0.1181, -1.2183 -1.7287 0.1181, -1.2183 -1.6572 0.1181, -1.2011 -1.5877 0.1181, -1.1909 -0.6422 0.1181, -1.1909 -0.8441 0.1181, -1.1909 -1.5642 0.1181, -0.9941 -0.4152 0.1181, -0.9941 -0.6422 0.1181, -0.772 -0.8441 0.1181, -0.9941 -0.8441 0.1181, -0.9941 -2.9134 0.1181, 1.1909 -0.8441 0.1181, 1.1909 -1.5642 0.1181, 0.9941 -0.4152 0.1181, 0.9941 -0.6422 0.1181, -2.4902 -3.5039 0.1181, -2.1506 -3.5039 0.1181, -0.772 -3.5039 0.1181, -0.3505 -3.5039 0.1181, -0.3505 -3.2087 0.1181, -0.1587 -3.5039 0.1181, -0.1587 -3.2087 0.1181, -0.0098 -3.5039 0.1181, 0.2136 -3.5039 0.1181, -0.3505 -0.8441 0.1181, -0.1587 -0.8441 0.1181, 0.2249 -0.8214 0.1181, 0.2249 -0.8416 0.1181, 0.3183 -0.8416 0.1181, 0.3006 -0.8214 0.1181, 0.3006 -0.6447 0.1181, 0.3183 -0.6447 0.1181, -0.1587 -0.6422 0.1181, -0.141 -0.6649 0.1181, -0.141 -0.6447 0.1181, -0.03 -0.6447 0.1181, -0.03 -0.8416 0.1181, -0.141 -0.7457 0.1181, -0.0476 -0.7457 0.1181, -0.0476 -0.8214 0.1181, -0.141 -0.8214 0.1181, -0.141 -0.7255 0.1181, -0.0476 -0.7255 0.1181, -0.0476 -0.6649 0.1181, -0.141 -0.8416 0.1181, 0.0259 -0.6927 0.1181, -0.3274 -0.7939 0.1181, -0.314 -0.8142 0.1181, -0.2992 -0.8272 0.1181, -0.2844 -0.8348 0.1181, -0.3505 -0.6422 0.1181, -0.2785 -0.6518 0.1181, -0.2985 -0.6619 0.1181, -0.2161 -0.6447 0.1181, -0.2476 -0.6459 0.1181, -0.2604 -0.8403 0.1181, -0.2373 -0.8416 0.1181, -0.1763 -0.8416 0.1181, -0.1763 -0.6447 0.1181, -0.3128 -0.6744 0.1181, -0.3254 -0.6922 0.1181, -0.3336 -0.7127 0.1181, -0.3376 -0.7365 0.1181, -0.3379 -0.7457 0.1181, -0.3351 -0.772 0.1181, -0.5306 -0.8416 0.1181, -0.5498 -0.8416 0.1181, -0.459 -0.6447 0.1181, -0.4646 -0.1181 0.1181, -0.5015 -0.7785 0.1181, -0.4123 -0.7785 0.1181, -0.3824 -0.8416 0.1181, -0.3631 -0.8416 0.1181, -0.4565 -0.6447 0.1181, -3.0807 -0.6422 0.1181, -3.0807 -0.8441 0.1181, -3.0807 -2.9134 0.1181, -0.1587 0.3937 0.1181, -0.4646 0.0984 0.1181, -0.9941 -1.98 -0.0394, -0.9941 -2.9134 -0.0394, -1.0611 -1.9551 -0.0394, -1.1909 -2.9134 -0.0394, -1.1909 -1.8216 -0.0394, -1.1677 -1.8613 -0.0394, -1.1201 -1.9147 -0.0394, -0.9941 -1.4058 -1.1811, -0.9941 -1.4058 -0.0394, -0.9941 -1.5404 -1.3075, -0.9941 -0.4152 -0.0394, -0.9941 -1.8122 -1.3386, -0.9941 -1.5736 -1.3386, -0.9941 -1.8454 -1.3075, -0.9941 -1.98 -1.1811, -1.1909 -0.4152 -0.0394, -1.1909 -1.5642 -0.0394, 1.1909 -1.8216 -0.0394, 1.1909 -2.9134 -0.0394, 1.1677 -1.8613 -0.0394, 1.1201 -1.9147 -0.0394, 0.9941 -2.9134 -0.0394, 0.9941 -1.98 -0.0394, 1.0611 -1.9551 -0.0394, 0.9941 -0.4152 -0.0394, 0.9941 -1.4058 -0.0394, 0.9941 -1.4058 -1.1811, 0.9941 -1.5404 -1.3075, 0.9941 -1.98 -1.1811, 0.9941 -1.8454 -1.3075, 0.9941 -1.8122 -1.3386, 0.9941 -1.5736 -1.3386, 1.1909 -1.5642 -0.0394, 1.1909 -0.4152 -0.0394, 3.0807 -2.9134 1.4449, 3.0807 -2.9134 1.6811, 2.4902 -3.5039 1.4449, 2.4902 -3.5039 1.6811, -3.0807 -2.9134 0.6181, -2.4902 -3.5039 0.6181, -0.7283 0.3937 1.3407, -1.6339 0.3937 1.3407, -0.7283 0.3937 1.6811, -1.6339 0.3937 1.6811, -0.4528 0.3937 1.6811, 0.4528 0.3937 1.6811, -0.4528 0.3937 1.3407, 0.4528 0.3937 1.3407, 0.7283 0.3937 1.6811, 1.6339 0.3937 1.6811, 0.7283 0.3937 1.3407, 1.6339 0.3937 1.3407, -1.6339 0.3937 0.3608, -0.7283 0.3937 0.3608, -0.4528 0.3937 0.3608, 0.4528 0.3937 0.3608, 0.7283 0.3937 0.3608, 1.6339 0.3937 0.3608, -1.9094 -0.0984 1.3407, -1.9094 0.0984 1.3407, -1.0433 -0.0984 1.3407, -1.6339 0.0984 1.3407, -1.0433 0.0984 1.3407, -0.7283 0.0984 1.3407, -0.4528 0.0984 1.3407, 0.4528 0.0984 1.3407, 0.7283 0.0984 1.3407, 1.6339 0.0984 1.3407, -0.7283 0.0984 0.3608, -1.0433 0.0984 0.3608, -1.0433 -0.0984 0.3608, -1.6339 0.0984 0.3608, -1.6457 -0.0984 0.3608, -1.6457 0.0984 0.3608, -0.4528 0.0984 0.3608, 0.4528 0.0984 0.3608, 0.7283 0.0984 0.3608, 1.6339 0.0984 0.3608
            ]
        }
        coordIndex [
            0,1,2,-1,3,4,5,-1,6,7,8,-1,9,10,11,-1,11,10,12,-1,11,12,13,-1,14,15,16,-1,15,17,16,-1,16,17,18,-1,16,18,19,-1,20,21,22,-1,22,21,23,-1,22,23,24,-1,19,25,16,-1,16,25,26,-1,16,26,22,-1,22,26,27,-1,22,27,20,-1,14,16,28,-1,28,16,29,-1,28,29,30,-1,30,29,31,-1,31,29,32,-1,31,32,33,-1,34,35,36,-1,36,35,37,-1,36,37,38,-1,39,40,41,-1,41,40,42,-1,42,43,41,-1,41,43,44,-1,41,44,45,-1,46,47,48,-1,46,48,49,-1,48,50,51,-1,52,53,54,-1,54,53,55,-1,54,55,56,-1,56,55,57,-1,48,58,59,-1,47,60,48,-1,48,60,61,-1,48,61,50,-1,62,63,64,-1,64,63,48,-1,64,48,65,-1,65,48,51,-1,62,64,55,-1,55,64,66,-1,55,66,57,-1,59,67,48,-1,48,67,68,-1,48,68,49,-1,69,70,71,-1,72,73,74,-1,1,0,8,-1,8,0,75,-1,8,75,76,-1,77,78,79,-1,79,78,80,-1,80,78,81,-1,80,81,82,-1,6,8,83,-1,83,8,76,-1,83,76,79,-1,79,76,84,-1,79,84,77,-1,85,86,87,-1,88,89,90,-1,90,91,92,-1,92,91,93,-1,92,93,94,-1,95,96,97,-1,97,96,98,-1,97,98,93,-1,99,98,100,-1,100,98,96,-1,100,96,101,-1,101,96,102,-1,24,13,22,-1,22,13,12,-1,22,12,103,-1,103,12,104,-1,103,105,22,-1,22,105,106,-1,22,106,2,-1,2,106,107,-1,2,107,85,-1,108,109,110,-1,111,112,110,-1,110,112,113,-1,110,113,108,-1,114,115,108,-1,116,71,117,-1,117,71,70,-1,117,70,118,-1,119,120,121,-1,116,122,71,-1,71,122,123,-1,71,123,124,-1,125,73,126,-1,127,126,128,-1,128,126,73,-1,128,73,129,-1,129,73,72,-1,129,72,130,-1,130,72,131,-1,120,119,124,-1,124,119,132,-1,124,132,71,-1,71,132,133,-1,71,133,72,-1,72,133,134,-1,72,134,131,-1,121,114,119,-1,119,114,108,-1,119,108,135,-1,135,108,113,-1,135,113,136,-1,136,113,137,-1,136,137,138,-1,138,137,139,-1,93,98,94,-1,94,98,80,-1,94,80,140,-1,140,80,82,-1,140,82,141,-1,88,90,87,-1,87,90,92,-1,87,92,85,-1,85,92,142,-1,85,142,2,-1,2,142,143,-1,2,143,0,-1,144,74,145,-1,145,74,73,-1,145,73,146,-1,146,73,125,-1,146,125,147,-1,147,125,148,-1,147,148,149,-1,149,148,150,-1,149,150,151,-1,151,150,32,-1,151,32,152,-1,152,32,29,-1,126,139,125,-1,125,139,137,-1,125,137,148,-1,148,137,153,-1,148,153,150,-1,150,153,154,-1,150,154,32,-1,32,154,36,-1,32,36,33,-1,33,36,38,-1,22,155,16,-1,16,155,156,-1,16,156,157,-1,158,155,159,-1,159,155,22,-1,159,22,160,-1,160,22,2,-1,160,2,157,-1,157,2,1,-1,157,1,16,-1,16,1,8,-1,16,8,29,-1,29,8,7,-1,29,7,152,-1,154,161,162,-1,162,161,163,-1,163,161,164,-1,164,161,41,-1,164,41,165,-1,166,167,168,-1,168,169,166,-1,166,169,154,-1,166,154,170,-1,170,154,162,-1,170,162,171,-1,171,162,172,-1,169,173,154,-1,154,173,165,-1,154,165,36,-1,36,165,41,-1,36,41,34,-1,34,41,45,-1,34,45,52,-1,52,45,174,-1,52,174,53,-1,175,176,153,-1,153,176,177,-1,153,177,178,-1,179,180,181,-1,161,182,179,-1,179,182,183,-1,179,183,180,-1,178,184,153,-1,153,184,185,-1,153,185,154,-1,154,185,186,-1,154,186,161,-1,161,186,187,-1,161,187,182,-1,181,188,179,-1,179,188,189,-1,179,189,190,-1,190,191,179,-1,179,191,192,-1,179,192,153,-1,153,192,193,-1,153,193,175,-1,194,153,195,-1,195,153,137,-1,195,137,196,-1,196,137,113,-1,196,113,179,-1,179,113,112,-1,179,112,197,-1,198,199,194,-1,194,199,200,-1,194,200,153,-1,153,200,201,-1,153,201,179,-1,179,201,202,-1,179,202,196,-1,69,71,203,-1,203,71,72,-1,203,72,204,-1,204,72,74,-1,204,74,205,-1,9,39,10,-1,10,39,41,-1,10,41,206,-1,206,41,161,-1,206,161,5,-1,5,161,179,-1,5,179,3,-1,3,179,197,-1,3,197,207,-1,208,209,210,-1,210,209,211,-1,212,213,211,-1,211,213,214,-1,211,214,210,-1,215,216,217,-1,217,216,208,-1,135,136,218,-1,218,136,138,-1,218,138,216,-1,216,138,139,-1,216,139,208,-1,208,139,209,-1,219,220,221,-1,221,220,217,-1,221,217,222,-1,222,217,208,-1,132,119,223,-1,224,134,223,-1,223,134,133,-1,223,133,132,-1,211,126,212,-1,212,126,127,-1,225,226,227,-1,227,226,228,-1,229,230,226,-1,226,230,231,-1,226,231,228,-1,230,229,75,-1,143,142,232,-1,143,232,0,-1,0,232,233,-1,0,233,75,-1,75,233,230,-1,230,233,234,-1,230,234,235,-1,236,230,237,-1,237,230,235,-1,237,235,238,-1,238,235,239,-1,76,226,84,-1,84,226,225,-1,141,240,140,-1,140,240,241,-1,140,241,94,-1,94,241,92,-1,242,243,244,-1,244,243,245,-1,246,205,247,-1,247,205,74,-1,247,74,144,-1,248,249,250,-1,250,249,251,-1,252,253,254,-1,254,253,255,-1,256,257,258,-1,258,257,259,-1,115,260,109,-1,109,260,261,-1,10,262,12,-1,12,262,263,-1,12,263,104,-1,10,206,262,-1,262,206,5,-1,262,5,4,-1,88,264,89,-1,89,264,265,-1,266,267,268,-1,268,267,269,-1,268,269,270,-1,270,269,249,-1,270,249,271,-1,271,249,248,-1,254,255,272,-1,272,255,273,-1,258,259,274,-1,274,259,275,-1,276,261,277,-1,277,261,260,-1,277,260,278,-1,278,260,279,-1,278,279,280,-1,280,279,281,-1,282,283,262,-1,262,283,263,-1,284,285,264,-1,264,285,265,-1,
        ]
    }
}
Shape{
    appearance Appearance {
        material  Material 	{
            diffuseColor 0.7529411764705882 0.7529411764705882 0.7529411764705882
            specularColor 0.3764705882352941 0.3764705882352941 0.3764705882352941
            ambientIntensity 0.7529
            transparency 0.0
            shininess 0.5
        }
    }
    geometry IndexedFaceSet {
        ccw TRUE
        solid FALSE
        coord DEF co Coordinate {
            point [
                -1.9094 0.0984 0.1181, -1.9094 0.0984 0.3608, -1.8976 0.0984 0.1181, -1.8976 0.0984 0.3608, -1.9094 -0.0984 0.3608, -1.8976 -0.0984 0.3608
            ]
        }
        coordIndex [
            0,1,2,-1,2,1,3,-1,1,4,3,-1,3,4,5,-1,
        ]
    }
}
Shape{
    appearance Appearance {
        material  Material 	{
            diffuseColor 0.11372549019607843 0.11372549019607843 0.11372549019607843
            specularColor 0.058823529411764705 0.058823529411764705 0.058823529411764705
            ambientIntensity 0.1137
            transparency 0.0
            shininess 0.5
        }
    }
    geometry IndexedFaceSet {
        ccw TRUE
        solid FALSE
        coord DEF co Coordinate {
            point [
                -0.7283 0.0984 0.3608, -1.0433 0.0984 0.3608, -1.0433 0.0984 1.3407, -0.7165 0.0984 1.2634, -0.7165 0.0984 0.1181, -0.7283 0.0984 0.1181, -0.4528 0.0984 1.6811, -0.4528 0.0984 1.3407, -0.7283 0.0984 1.6811, -0.7283 0.0984 1.3407, 0.7283 0.0984 1.6811, 0.7283 0.0984 1.3407, 0.4528 0.0984 1.6811, 0.4528 0.0984 1.3407, -0.4528 0.0984 0.3608, 0.4646 0.0984 1.2634, 0.4528 0.0984 0.3608, 0.4646 0.0984 0.1181, 0.4528 0.0984 0.1181, -0.4646 0.0984 1.2634, 1.9094 0.0984 1.6811, 1.9094 0.0984 1.3407, 1.6339 0.0984 1.6811, 1.6339 0.0984 1.3407, -0.4528 0.0984 0.1181, -0.4646 0.0984 0.1181, 0.7165 0.0984 1.2634, 1.9094 0.0984 0.1181, 1.8976 0.0984 0.1181, 1.9094 0.0984 0.3608, 1.8976 0.0984 1.2634, 3.0807 0.0984 0.3608, 3.0807 0.0984 1.3407, 0.7283 0.0984 0.3608, 1.6457 0.0984 1.2634, 1.6339 0.0984 0.3608, 1.6457 0.0984 0.1181, 1.6339 0.0984 0.1181, 0.7283 0.0984 0.1181, 0.7165 0.0984 0.1181
            ]
        }
        coordIndex [
            0,1,2,-1,3,4,0,-1,0,4,5,-1,6,7,8,-1,8,7,9,-1,10,11,12,-1,12,11,13,-1,14,15,16,-1,16,15,17,-1,16,17,18,-1,0,2,3,-1,3,2,9,-1,3,9,19,-1,19,9,7,-1,19,7,13,-1,20,21,22,-1,22,21,23,-1,24,25,14,-1,14,25,19,-1,14,19,15,-1,15,19,13,-1,15,13,26,-1,26,13,11,-1,26,11,23,-1,27,28,29,-1,29,28,30,-1,29,30,31,-1,31,30,32,-1,33,34,35,-1,35,34,36,-1,35,36,37,-1,38,39,33,-1,33,39,26,-1,33,26,34,-1,34,26,23,-1,34,23,30,-1,30,23,21,-1,30,21,32,-1,
        ]
    }
}
Shape{
    appearance Appearance {
        material  Material 	{
            diffuseColor 0.7529411764705882 0.7529411764705882 0.7529411764705882
            specularColor 0.3764705882352941 0.3764705882352941 0.3764705882352941
            ambientIntensity 0.7529
            transparency 0.0
            shininess 0.5
        }
    }
    geometry IndexedFaceSet {
        ccw TRUE
        solid FALSE
        coord DEF co Coordinate {
            point [
                -1.6457 0.0984 0.3608, -1.6339 0.0984 0.3608, -1.6457 0.0984 0.1181, -1.6339 0.0984 0.1181
            ]
        }
        coordIndex [
            0,1,2,-1,2,1,3,-1,
        ]
    }
}
Shape{
    appearance Appearance {
        material  Material 	{
            diffuseColor 0.11372549019607843 0.11372549019607843 0.11372549019607843
            specularColor 0.058823529411764705 0.058823529411764705 0.058823529411764705
            ambientIntensity 0.1137
            transparency 0.0
            shininess 0.5
        }
    }
    geometry IndexedFaceSet {
        ccw TRUE
        solid FALSE
        coord DEF co Coordinate {
            point [
                -1.9094 0.0984 0.3608, -3.0807 0.0984 0.3608, -1.9094 0.0984 1.3407, -3.0807 0.0984 1.3407, -0.9941 -0.4152 -0.0394, -0.9941 -1.4058 -0.0394, -1.1909 -0.4152 -0.0394, -1.0611 -1.4308 -0.0394, -1.1201 -1.4711 -0.0394, -1.1677 -1.5245 -0.0394, -1.1909 -1.5642 -0.0394, -1.1909 -2.9134 -0.0394, -0.9941 -2.9134 -0.0394, -1.1909 -2.9134 0.1181, -0.9941 -2.9134 0.1181, -1.9094 0.3937 1.3407, -3.0807 0.3937 1.3407, -1.9094 0.3937 1.6811, -3.0807 0.3937 1.6811, -2.7657 0.3937 -0.0394, -3.0807 0.3937 -0.0394, -2.7657 0.3937 0.1181, -3.0807 0.3937 0.3608, -2.1506 0.3937 0.1181, -1.9094 0.3937 0.3608, -1.9094 0.3937 0.1181, 1.9094 0.3937 1.6811, 3.0807 0.3937 1.6811, 1.9094 0.3937 1.3407, 3.0807 0.3937 1.3407, -1.9094 0.0984 1.6811, -0.7283 0.0984 1.6811, -0.7283 0.3937 1.6811, -1.6339 0.3937 1.6811, 1.9094 0.0984 1.6811, 1.6339 0.0984 1.6811, 1.6339 0.3937 1.6811, 0.7283 0.3937 1.6811, -0.3937 -3.2087 1.6811, -2.4902 -3.5039 1.6811, 0.3937 -3.2087 1.6811, 2.4902 -3.5039 1.6811, 0.3937 -2.2384 1.6811, 3.0807 -2.9134 1.6811, -3.0807 -2.9134 1.6811, -1.6339 0.0984 1.6811, -0.3937 -2.2384 1.6811, 0.7283 0.0984 1.6811, 0.4528 0.0984 1.6811, 0.4528 0.3937 1.6811, -0.4528 0.3937 1.6811, -0.4528 0.0984 1.6811, 3.0807 0.0984 1.3407, 3.0807 0.3937 -0.0394, 3.0807 0.3937 0.3608, 3.0807 0.0984 0.3608, 3.0807 -2.9134 1.4449, 3.0807 -2.9134 0.6181, 3.0807 -0.8441 0.1181, 3.0807 -2.9134 0.1181, 3.0807 -0.1207 -0.0394, 3.0807 -0.1207 0.1181, 3.0807 -0.6422 0.1181, 1.9094 0.3937 0.1181, 1.9094 0.3937 0.3608, 2.7657 0.3937 0.1181, 2.7657 0.3937 -0.0394, -3.0807 -0.1207 -0.0394, -3.0807 -0.1207 0.1181, -3.0807 -0.6422 0.1181, -3.0807 -0.8441 0.1181, -3.0807 -2.9134 1.4449, -3.0807 -2.9134 0.6181, -3.0807 -2.9134 0.1181, -2.3228 -3.5039 0.6181, -2.4902 -3.5039 0.1181, -2.1506 -3.5039 0.1181, 1.2205 -3.5039 1.4449, 2.3228 -3.5039 1.4449, 2.4902 -3.5039 1.4449, 2.3228 -3.5039 0.6181, 2.4902 -3.5039 0.6181, -1.1417 -3.5039 1.4449, -0.0394 -3.5039 1.4449, 2.4902 -3.5039 0.1181, 2.0472 -3.5039 0.3425, 1.2205 -3.5039 0.3425, -0.5899 -3.5039 0.1181, -1.2205 -3.5039 0.3425, -2.0472 -3.5039 0.3425, -1.1417 -3.5039 0.3425, -1.2205 -3.5039 1.4449, -2.3228 -3.5039 1.4449, -2.4902 -3.5039 1.4449, -2.4902 -3.5039 0.6181, 0.2136 -3.5039 0.1181, 0.4741 -3.5039 0.1181, 0.8661 -3.5039 0.3425, 1.1417 -3.5039 0.6181, 1.1417 -3.5039 1.4449, 0.0394 -3.5039 1.4449, 0.0394 -3.5039 0.3425, -0.0394 -3.5039 0.3425, -0.3505 -3.5039 0.1181, -0.1587 -3.5039 0.1181, -0.0098 -3.5039 0.1181, 1.1909 -0.4152 -0.0394, 1.1909 -1.5642 -0.0394, 1.1677 -1.5245 -0.0394, 0.9941 -1.4058 -0.0394, 0.9941 -0.4152 -0.0394, 1.0611 -1.4308 -0.0394, 1.1201 -1.4711 -0.0394, 2.7854 -3.2087 0.1181, -0.3937 -2.8659 2.1535, 0.3937 -2.8659 2.1535, -0.3937 -2.5796 2.1535, 0.3937 -2.5796 2.1535, -0.3937 -2.5796 2.0467, 0.3937 -2.5796 2.0467, -0.3937 -2.5585 1.9333, 0.3937 -2.5585 1.9333, -0.3937 -2.4979 1.8351, 0.3937 -2.4979 1.8351, -0.3937 -2.406 1.7653, 0.3937 -2.406 1.7653, 1.9094 0.0984 1.3407, 1.9094 0.0984 0.3608, -1.6339 0.0984 1.3407, -1.6339 0.0984 0.1181, -1.6339 0.0984 0.3608, -1.6339 0.3937 0.1181, -1.6339 0.3937 0.3608, -1.9094 0.0984 0.1181, -1.6339 0.3937 1.3407, -2.3228 -0.3543 0.6181, -2.3228 -0.3543 1.4449, -1.2205 -0.3543 1.4449, -1.2205 -0.3543 0.3425, -2.0472 -0.3543 0.3425, -1.8976 -0.3543 0.7902, -1.6457 -0.3543 0.7902, -1.6457 -0.3543 1.0422, -1.8976 -0.3543 1.0422, 1.1909 -2.9134 0.1181, 0.9941 -2.9134 0.1181, 1.1909 -2.9134 -0.0394, 0.9941 -2.9134 -0.0394
            ]
        }
        coordIndex [
            0,1,2,-1,2,1,3,-1,4,5,6,-1,6,5,7,-1,7,8,6,-1,6,8,9,-1,6,9,10,-1,11,12,13,-1,13,12,14,-1,15,16,17,-1,17,16,18,-1,19,20,21,-1,21,20,22,-1,21,22,23,-1,23,22,24,-1,23,24,25,-1,2,3,15,-1,15,3,16,-1,24,22,0,-1,0,22,1,-1,26,27,28,-1,28,27,29,-1,30,17,18,-1,31,32,33,-1,27,26,34,-1,35,36,37,-1,38,39,40,-1,40,39,41,-1,40,41,42,-1,42,41,43,-1,18,44,30,-1,30,44,39,-1,30,39,45,-1,45,39,38,-1,45,38,46,-1,47,48,46,-1,37,47,35,-1,35,47,46,-1,35,46,34,-1,34,46,42,-1,34,42,27,-1,27,42,43,-1,49,50,51,-1,33,45,31,-1,31,45,46,-1,31,46,51,-1,51,46,48,-1,51,48,49,-1,52,29,27,-1,53,54,55,-1,27,43,52,-1,52,43,56,-1,52,56,55,-1,55,56,57,-1,55,57,58,-1,58,57,59,-1,60,53,61,-1,61,53,55,-1,61,55,62,-1,62,55,58,-1,63,64,65,-1,65,64,54,-1,65,54,66,-1,66,54,53,-1,20,67,68,-1,20,68,22,-1,44,18,3,-1,3,18,16,-1,22,68,1,-1,1,68,69,-1,1,69,70,-1,44,3,71,-1,71,3,1,-1,71,1,72,-1,72,1,70,-1,72,70,73,-1,74,75,76,-1,39,77,41,-1,41,77,78,-1,41,78,79,-1,79,78,80,-1,79,80,81,-1,39,82,83,-1,81,80,84,-1,84,80,85,-1,84,85,86,-1,87,88,76,-1,76,88,89,-1,76,89,74,-1,90,82,91,-1,91,82,39,-1,91,39,92,-1,92,39,93,-1,92,93,74,-1,74,93,94,-1,74,94,75,-1,95,96,97,-1,96,84,97,-1,97,84,86,-1,97,86,98,-1,98,86,77,-1,98,77,99,-1,99,77,39,-1,99,39,100,-1,100,39,83,-1,100,83,101,-1,101,83,102,-1,91,88,90,-1,90,88,87,-1,90,87,102,-1,102,87,103,-1,102,103,104,-1,97,101,95,-1,95,101,102,-1,95,102,105,-1,105,102,104,-1,106,107,108,-1,109,110,111,-1,111,110,106,-1,111,106,112,-1,112,106,108,-1,81,84,57,-1,57,84,113,-1,57,113,59,-1,93,39,71,-1,71,39,44,-1,114,38,115,-1,115,38,40,-1,116,114,117,-1,117,114,115,-1,118,116,119,-1,119,116,117,-1,118,119,120,-1,120,119,121,-1,120,121,122,-1,122,121,123,-1,122,123,124,-1,124,123,125,-1,46,124,42,-1,42,124,125,-1,120,122,38,-1,38,122,124,-1,38,124,46,-1,114,116,38,-1,38,116,118,-1,38,118,120,-1,123,40,125,-1,125,40,42,-1,117,115,119,-1,119,115,40,-1,119,40,121,-1,121,40,123,-1,28,29,126,-1,126,29,52,-1,127,55,64,-1,64,55,54,-1,2,30,128,-1,128,30,45,-1,129,130,131,-1,131,130,132,-1,25,24,133,-1,133,24,0,-1,30,2,17,-1,17,2,15,-1,33,134,45,-1,45,134,128,-1,135,136,74,-1,74,136,92,-1,136,137,92,-1,92,137,91,-1,137,138,91,-1,91,138,88,-1,89,88,139,-1,139,88,138,-1,136,135,140,-1,140,135,139,-1,140,139,141,-1,141,139,138,-1,141,138,142,-1,142,138,137,-1,142,137,143,-1,143,137,136,-1,143,136,140,-1,144,145,146,-1,146,145,147,-1,
        ]
    }
}
Shape{
    appearance Appearance {
        material  Material 	{
            diffuseColor 0.7529411764705882 0.7529411764705882 0.7529411764705882
            specularColor 0.3764705882352941 0.3764705882352941 0.3764705882352941
            ambientIntensity 0.7529
            transparency 0.0
            shininess 0.5
        }
    }
    geometry IndexedFaceSet {
        ccw TRUE
        solid FALSE
        coord DEF co Coordinate {
            point [
                -1.9094 -0.0984 1.3407, -1.9094 -0.0984 0.3608, -1.9094 0.0984 1.3407, -1.9094 0.0984 0.3608
            ]
        }
        coordIndex [
            0,1,2,-1,2,1,3,-1,
        ]
    }
}
Shape{
    appearance Appearance {
        material  Material 	{
            diffuseColor 0.11372549019607843 0.11372549019607843 0.11372549019607843
            specularColor 0.058823529411764705 0.058823529411764705 0.058823529411764705
            ambientIntensity 0.1137
            transparency 0.0
            shininess 0.5
        }
    }
    geometry IndexedFaceSet {
        ccw TRUE
        solid FALSE
        coord DEF co Coordinate {
            point [
                -1.0433 -0.0984 0.3608, -1.0433 -0.0984 1.3407, -1.0433 0.0984 0.3608, -1.0433 0.0984 1.3407, -1.8976 -0.0984 0.3608, -1.9094 -0.0984 0.3608, -1.8976 -0.0984 1.2949, -1.9094 -0.0984 1.3407, -1.6457 -0.0984 1.2949, -1.6457 -0.0984 0.3608
            ]
        }
        coordIndex [
            0,1,2,-1,2,1,3,-1,4,5,6,-1,6,5,7,-1,6,7,8,-1,8,7,1,-1,8,1,9,-1,9,1,0,-1,
        ]
    }
}
Shape{
    appearance Appearance {
        material  Material 	{
            diffuseColor 0.7529411764705882 0.7529411764705882 0.7529411764705882
            specularColor 0.3764705882352941 0.3764705882352941 0.3764705882352941
            ambientIntensity 0.7529
            transparency 0.0
            shininess 0.5
        }
    }
    geometry IndexedFaceSet {
        ccw TRUE
        solid FALSE
        coord DEF co Coordinate {
            point [
                -1.6457 -0.0394 -1.2913, -1.6457 -0.1181 -1.2126, -1.8976 -0.0394 -1.2913, -1.8976 -0.1181 -1.2126, -1.6457 0.0551 -1.2913, -1.8976 0.0551 -1.2913, -1.6457 0.1339 -1.2126, -1.8976 0.1339 -1.2126, -1.6457 0.1339 1.2511, -1.8976 0.1339 1.2511, -1.6457 0.0079 1.2949, -1.8976 0.0079 1.2949, -1.8976 -0.1181 0.1181, -1.8976 0.0984 0.1181, -1.8976 0.0984 0.3608, -1.8976 -0.0984 0.3608, -1.8976 -0.0984 1.2949, -1.6457 -0.0984 1.2949, -1.6457 -0.0984 0.3608, -1.6457 0.0984 0.3608, -1.6457 0.0984 0.1181, -1.6457 -0.1181 0.1181, -1.6457 -1.7111 0.9634, -1.6457 -1.6324 1.0422, -1.8976 -1.7111 0.9634, -1.8976 -1.6324 1.0422, -1.6457 -1.7111 0.8689, -1.8976 -1.7111 0.8689, -1.6457 -1.6324 0.7902, -1.8976 -1.6324 0.7902, -1.6457 -0.3543 0.7902, -1.8976 -0.3543 0.7902, -1.8976 -0.3543 1.0422, -1.6457 -0.3543 1.0422
            ]
        }
        coordIndex [
            0,1,2,-1,2,1,3,-1,4,0,5,-1,5,0,2,-1,6,4,7,-1,7,4,5,-1,8,6,9,-1,9,6,7,-1,10,8,11,-1,11,8,9,-1,2,3,5,-1,5,3,12,-1,5,12,7,-1,7,12,13,-1,7,13,9,-1,9,13,14,-1,9,14,11,-1,11,14,15,-1,11,15,16,-1,17,18,10,-1,10,18,19,-1,10,19,8,-1,8,19,20,-1,1,0,21,-1,21,0,4,-1,21,4,20,-1,20,4,6,-1,20,6,8,-1,10,11,17,-1,17,11,16,-1,12,3,21,-1,21,3,1,-1,22,23,24,-1,24,23,25,-1,26,22,27,-1,27,22,24,-1,28,26,29,-1,29,26,27,-1,30,28,31,-1,31,28,29,-1,25,23,32,-1,32,23,33,-1,26,28,22,-1,22,28,30,-1,22,30,23,-1,23,30,33,-1,24,25,27,-1,27,25,32,-1,27,32,29,-1,29,32,31,-1,
        ]
    }
}
Shape{
    appearance Appearance {
        material  Material 	{
            diffuseColor 0.11372549019607843 0.11372549019607843 0.11372549019607843
            specularColor 0.058823529411764705 0.058823529411764705 0.058823529411764705
            ambientIntensity 0.1137
            transparency 0.0
            shininess 0.5
        }
    }
    geometry IndexedFaceSet {
        ccw TRUE
        solid FALSE
        coord DEF co Coordinate {
            point [
                1.9094 0.0984 0.1181, 1.9094 0.0984 0.3608, 1.9094 0.3937 0.1181, 1.9094 0.3937 0.3608, 1.6339 0.3937 0.1181, 1.6339 0.3937 0.3608, 1.6339 0.0984 0.1181, 1.6339 0.0984 0.3608, 0.7283 0.0984 0.1181, 0.7283 0.0984 0.3608, 0.7283 0.3937 0.1181, 0.7283 0.3937 0.3608, 0.4528 0.3937 0.1181, 0.4528 0.3937 0.3608, 0.4528 0.0984 0.1181, 0.4528 0.0984 0.3608, -0.4528 0.0984 0.1181, -0.4528 0.0984 0.3608, -0.4528 0.3937 0.1181, -0.4528 0.3937 0.3608, -0.7283 0.3937 0.1181, -0.7283 0.3937 0.3608, -0.7283 0.0984 0.1181, -0.7283 0.0984 0.3608, 1.6339 0.0984 1.6811, 1.6339 0.0984 1.3407, 1.6339 0.3937 1.6811, 1.6339 0.3937 1.3407, 1.9094 0.3937 1.6811, 1.9094 0.3937 1.3407, 1.9094 0.0984 1.6811, 1.9094 0.0984 1.3407, 0.4528 0.0984 1.6811, 0.4528 0.0984 1.3407, 0.4528 0.3937 1.6811, 0.4528 0.3937 1.3407, 0.7283 0.3937 1.6811, 0.7283 0.3937 1.3407, 0.7283 0.0984 1.6811, 0.7283 0.0984 1.3407, -0.7283 0.0984 1.6811, -0.7283 0.0984 1.3407, -0.7283 0.3937 1.6811, -0.7283 0.3937 1.3407, -0.4528 0.3937 1.6811, -0.4528 0.3937 1.3407, -0.4528 0.0984 1.6811, -0.4528 0.0984 1.3407, 1.2205 -0.3543 0.3425, 1.2205 -0.3543 1.4449, 1.2205 -3.5039 0.3425, 1.2205 -3.5039 1.4449, 2.3228 -0.3543 1.4449, 2.3228 -3.5039 1.4449, 2.3228 -3.5039 0.6181, 2.3228 -0.3543 0.6181, 2.0472 -0.3543 0.3425, 2.0472 -3.5039 0.3425, 1.8976 -0.3543 0.7902, 1.8976 -0.3543 1.0422, 1.6457 -0.3543 1.0422, 1.6457 -0.3543 0.7902, 0.0394 -0.3543 0.3425, 0.0394 -0.3543 1.4449, 0.0394 -3.5039 0.3425, 0.0394 -3.5039 1.4449, 1.1417 -0.3543 1.4449, 1.1417 -3.5039 1.4449, 1.1417 -3.5039 0.6181, 1.1417 -0.3543 0.6181, 0.8661 -0.3543 0.3425, 0.8661 -3.5039 0.3425, 0.7165 -0.3543 0.7902, 0.7165 -0.3543 1.0422, 0.4646 -0.3543 1.0422, 0.4646 -0.3543 0.7902, -1.1417 -0.3543 0.3425, -1.1417 -0.3543 1.4449, -1.1417 -3.5039 0.3425, -1.1417 -3.5039 1.4449, -0.0394 -0.3543 1.4449, -0.0394 -3.5039 1.4449, -0.0394 -0.3543 0.3425, -0.0394 -3.5039 0.3425, -0.4646 -0.3543 1.0422, -0.7165 -0.3543 1.0422, -0.7165 -0.3543 0.7902, -0.4646 -0.3543 0.7902
            ]
        }
        coordIndex [
            0,1,2,-1,2,1,3,-1,4,5,6,-1,6,5,7,-1,8,9,10,-1,10,9,11,-1,12,13,14,-1,14,13,15,-1,16,17,18,-1,18,17,19,-1,20,21,22,-1,22,21,23,-1,24,25,26,-1,26,25,27,-1,28,29,30,-1,30,29,31,-1,32,33,34,-1,34,33,35,-1,36,37,38,-1,38,37,39,-1,40,41,42,-1,42,41,43,-1,44,45,46,-1,46,45,47,-1,48,49,50,-1,50,49,51,-1,49,52,51,-1,51,52,53,-1,54,53,55,-1,55,53,52,-1,56,48,57,-1,57,48,50,-1,48,56,58,-1,58,56,55,-1,58,55,59,-1,59,55,52,-1,59,52,60,-1,60,52,49,-1,60,49,61,-1,61,49,48,-1,61,48,58,-1,62,63,64,-1,64,63,65,-1,63,66,65,-1,65,66,67,-1,68,67,69,-1,69,67,66,-1,70,62,71,-1,71,62,64,-1,62,70,72,-1,72,70,69,-1,72,69,73,-1,73,69,66,-1,73,66,74,-1,74,66,63,-1,74,63,75,-1,75,63,62,-1,75,62,72,-1,76,77,78,-1,78,77,79,-1,77,80,79,-1,79,80,81,-1,80,82,81,-1,81,82,83,-1,82,76,83,-1,83,76,78,-1,84,80,85,-1,85,80,77,-1,85,77,86,-1,86,77,76,-1,86,76,87,-1,87,76,82,-1,87,82,84,-1,84,82,80,-1,
        ]
    }
}
Shape{
    appearance Appearance {
        material  Material 	{
            diffuseColor 0.7529411764705882 0.7529411764705882 0.7529411764705882
            specularColor 0.3764705882352941 0.3764705882352941 0.3764705882352941
            ambientIntensity 0.7529
            transparency 0.0
            shininess 0.5
        }
    }
    geometry IndexedFaceSet {
        ccw TRUE
        solid FALSE
        coord DEF co Coordinate {
            point [
                -0.4646 -1.7111 0.9634, -0.4646 -1.6324 1.0422, -0.7165 -1.7111 0.9634, -0.7165 -1.6324 1.0422, -0.4646 -1.7111 0.8689, -0.7165 -1.7111 0.8689, -0.4646 -1.6324 0.7902, -0.7165 -1.6324 0.7902, -0.4646 -0.3543 0.7902, -0.4646 -0.3543 1.0422, -0.7165 -0.3543 1.0422, -0.7165 -0.3543 0.7902, -0.4646 0.0984 1.2634, -0.4646 0.1339 1.2511, -0.7165 0.0984 1.2634, -0.7165 0.1339 1.2511, -0.7165 -0.1181 0.1181, -0.7165 -0.1181 -1.2126, -0.5899 -0.1181 0.1181, -0.4646 -0.1181 -1.2126, -0.4646 -0.1181 0.1181, -0.4646 0.0984 0.1181, -0.4646 -0.0394 -1.2913, -0.4646 0.0551 -1.2913, -0.4646 0.1339 -1.2126, -0.7165 -0.0394 -1.2913, -0.7165 0.0551 -1.2913, -0.7165 0.1339 -1.2126, -0.7165 0.0984 0.1181, 0.7165 -1.7111 0.9634, 0.7165 -1.6324 1.0422, 0.4646 -1.7111 0.9634, 0.4646 -1.6324 1.0422, 0.7165 -1.7111 0.8689, 0.4646 -1.7111 0.8689, 0.7165 -1.6324 0.7902, 0.4646 -1.6324 0.7902, 0.7165 -0.3543 0.7902, 0.7165 -0.3543 1.0422, 0.4646 -0.3543 1.0422, 0.4646 -0.3543 0.7902, 0.7165 0.0984 1.2634, 0.7165 0.1339 1.2511, 0.4646 0.0984 1.2634, 0.4646 0.1339 1.2511, 0.4646 -0.1181 0.1181, 0.4646 -0.1181 -1.2126, 0.4741 -0.1181 0.1181, 0.7165 -0.1181 -1.2126, 0.7165 -0.1181 0.1181, 0.7165 0.0984 0.1181, 0.7165 -0.0394 -1.2913, 0.7165 0.0551 -1.2913, 0.7165 0.1339 -1.2126, 0.4646 -0.0394 -1.2913, 0.4646 0.0551 -1.2913, 0.4646 0.1339 -1.2126, 0.4646 0.0984 0.1181, 1.8976 -1.7111 0.9634, 1.8976 -1.6324 1.0422, 1.6457 -1.7111 0.9634, 1.6457 -1.6324 1.0422, 1.8976 -1.7111 0.8689, 1.6457 -1.7111 0.8689, 1.8976 -1.6324 0.7902, 1.6457 -1.6324 0.7902, 1.8976 -0.3543 0.7902, 1.8976 -0.3543 1.0422, 1.6457 -0.3543 1.0422, 1.6457 -0.3543 0.7902, 1.8976 0.0984 1.2634, 1.8976 0.1339 1.2511, 1.6457 0.0984 1.2634, 1.6457 0.1339 1.2511, 1.6457 -0.1181 0.1181, 1.6457 -0.1181 -1.2126, 1.8976 -0.1181 0.1181, 1.8976 -0.1181 -1.2126, 1.8976 0.0984 0.1181, 1.8976 -0.0394 -1.2913, 1.8976 0.0551 -1.2913, 1.8976 0.1339 -1.2126, 1.6457 -0.0394 -1.2913, 1.6457 0.0551 -1.2913, 1.6457 0.1339 -1.2126, 1.6457 0.0984 0.1181
            ]
        }
        coordIndex [
            0,1,2,-1,2,1,3,-1,4,0,5,-1,5,0,2,-1,6,4,7,-1,7,4,5,-1,4,6,0,-1,0,6,8,-1,0,8,1,-1,1,8,9,-1,2,3,5,-1,5,3,10,-1,5,10,7,-1,7,10,11,-1,3,1,10,-1,10,1,9,-1,8,6,11,-1,11,6,7,-1,12,13,14,-1,14,13,15,-1,16,17,18,-1,18,17,19,-1,18,19,20,-1,13,12,21,-1,19,22,20,-1,20,22,23,-1,20,23,21,-1,21,23,24,-1,21,24,13,-1,25,17,26,-1,26,17,16,-1,26,16,27,-1,27,16,28,-1,27,28,15,-1,15,28,14,-1,22,19,25,-1,25,19,17,-1,23,22,26,-1,26,22,25,-1,24,23,27,-1,27,23,26,-1,13,24,15,-1,15,24,27,-1,29,30,31,-1,31,30,32,-1,33,29,34,-1,34,29,31,-1,35,33,36,-1,36,33,34,-1,33,35,29,-1,29,35,37,-1,29,37,30,-1,30,37,38,-1,31,32,34,-1,34,32,39,-1,34,39,36,-1,36,39,40,-1,32,30,39,-1,39,30,38,-1,37,35,40,-1,40,35,36,-1,41,42,43,-1,43,42,44,-1,45,46,47,-1,47,46,48,-1,47,48,49,-1,42,41,50,-1,48,51,49,-1,49,51,52,-1,49,52,50,-1,50,52,53,-1,50,53,42,-1,54,46,55,-1,55,46,45,-1,55,45,56,-1,56,45,57,-1,56,57,44,-1,44,57,43,-1,51,48,54,-1,54,48,46,-1,52,51,55,-1,55,51,54,-1,53,52,56,-1,56,52,55,-1,42,53,44,-1,44,53,56,-1,58,59,60,-1,60,59,61,-1,62,58,63,-1,63,58,60,-1,64,62,65,-1,65,62,63,-1,62,64,58,-1,58,64,66,-1,58,66,59,-1,59,66,67,-1,60,61,63,-1,63,61,68,-1,63,68,65,-1,65,68,69,-1,61,59,68,-1,68,59,67,-1,66,64,69,-1,69,64,65,-1,70,71,72,-1,72,71,73,-1,74,75,76,-1,76,75,77,-1,71,70,78,-1,77,79,76,-1,76,79,80,-1,76,80,78,-1,78,80,81,-1,78,81,71,-1,82,75,83,-1,83,75,74,-1,83,74,84,-1,84,74,85,-1,84,85,73,-1,73,85,72,-1,79,77,82,-1,82,77,75,-1,80,79,83,-1,83,79,82,-1,81,80,84,-1,84,80,83,-1,71,81,73,-1,73,81,84,-1,
        ]
    }
}
Shape{
    appearance Appearance {
        material  Material 	{
            diffuseColor 0.11372549019607843 0.11372549019607843 0.11372549019607843
            specularColor 0.058823529411764705 0.058823529411764705 0.058823529411764705
            ambientIntensity 0.1137
            transparency 0.0
            shininess 0.5
        }
    }
    geometry IndexedFaceSet {
        ccw TRUE
        solid FALSE
        coord DEF co Coordinate {
            point [
                -2.4902 -2.9134 0.6181, -3.0807 -2.9134 0.6181, -2.4902 -3.5039 0.6181, -2.4902 -2.9134 1.4449, -2.4902 -3.5039 1.4449, -3.0807 -2.9134 1.4449, 2.4902 -2.9134 1.4449, 3.0807 -2.9134 1.4449, 2.4902 -3.5039 1.4449, 2.4902 -2.9134 0.6181, 2.4902 -3.5039 0.6181, 3.0807 -2.9134 0.6181, -1.1909 -0.4152 -0.0394, -1.1909 -0.4152 0.1181, -0.9941 -0.4152 -0.0394, -0.9941 -0.4152 0.1181, 0.9941 -0.4152 -0.0394, 0.9941 -0.4152 0.1181, 1.1909 -0.4152 -0.0394, 1.1909 -0.4152 0.1181, 2.7657 -0.1207 -0.0394, 3.0807 -0.1207 -0.0394, 2.7657 -0.1207 0.1181, 3.0807 -0.1207 0.1181, 2.7657 0.3937 -0.0394, 2.7657 0.3937 0.1181, 3.0807 0.3937 -0.0394, -2.7657 -0.1207 -0.0394, -2.7657 0.3937 -0.0394, -2.7657 -0.1207 0.1181, -2.7657 0.3937 0.1181, -3.0807 -0.1207 -0.0394, -3.0807 -0.1207 0.1181, -3.0807 0.3937 -0.0394, 1.2182 -1.6572 -1.1811, 1.2183 -1.6572 0.1181, 1.2183 -1.7287 0.1181, 0.9941 -1.98 -1.1811, 1.0577 -1.9568 -1.1811, 0.9941 -1.98 -0.0394, 1.0611 -1.9551 -0.0394, 1.0609 -1.9547 -1.1811, 1.1179 -1.9167 -1.1811, 1.1201 -1.9147 -0.0394, 1.1199 -1.9145 -1.1811, 1.1665 -1.8631 -1.1811, 1.1677 -1.8613 -0.0394, 1.2011 -1.7981 0.1181, 1.1909 -1.8216 0.1181, 1.1909 -1.8216 -0.0394, 1.1909 -1.5642 0.1181, 1.2011 -1.5877 0.1181, 1.1909 -1.5642 -0.0394, 1.201 -1.5878 -1.1811, 1.1677 -1.5245 -0.0394, 1.2006 -1.5865 -1.1811, 1.1675 -1.5246 -1.1811, 1.1201 -1.4711 -0.0394, 1.1665 -1.5227 -1.1811, 1.1199 -1.4714 -1.1811, 1.0611 -1.4308 -0.0394, 1.1179 -1.4692 -1.1811, 1.0609 -1.4311 -1.1811, 0.9941 -1.4058 -0.0394, 1.0577 -1.429 -1.1811, 0.9941 -1.4058 -1.1811, 1.2182 -1.6567 -1.1811, 1.1675 -1.8612 -1.1811, 1.2006 -1.7993 -1.1811, 1.201 -1.798 -1.1811, 1.2182 -1.7291 -1.1811, 1.2182 -1.7287 -1.1811, 1.0378 -1.7723 -1.3386, 1.0151 -1.7973 -1.3386, 1.0151 -1.5885 -1.3386, 0.9941 -1.8122 -1.3386, 0.9941 -1.5736 -1.3386, 1.0537 -1.6433 -1.3386, 1.062 -1.676 -1.3386, 1.062 -1.7098 -1.3386, 1.0378 -1.6135 -1.3386, 1.0537 -1.7426 -1.3386, -1.2182 -1.7287 -1.1811, -1.2183 -1.7287 0.1181, -1.2183 -1.6572 0.1181, -0.9941 -1.4058 -1.1811, -1.0577 -1.429 -1.1811, -0.9941 -1.4058 -0.0394, -1.0611 -1.4308 -0.0394, -1.0609 -1.4311 -1.1811, -1.1179 -1.4692 -1.1811, -1.1201 -1.4711 -0.0394, -1.1199 -1.4714 -1.1811, -1.1665 -1.5227 -1.1811, -1.1677 -1.5245 -0.0394, -1.2011 -1.5877 0.1181, -1.1909 -1.5642 0.1181, -1.1909 -1.5642 -0.0394, -1.1909 -1.8216 0.1181, -1.2011 -1.7981 0.1181, -1.1909 -1.8216 -0.0394, -1.201 -1.798 -1.1811, -1.1677 -1.8613 -0.0394, -1.2006 -1.7993 -1.1811, -1.1675 -1.8612 -1.1811, -1.1201 -1.9147 -0.0394, -1.1665 -1.8631 -1.1811, -1.1199 -1.9145 -1.1811, -1.0611 -1.9551 -0.0394, -1.1179 -1.9167 -1.1811, -1.0609 -1.9547 -1.1811, -0.9941 -1.98 -0.0394, -1.0577 -1.9568 -1.1811, -0.9941 -1.98 -1.1811, -1.2182 -1.7291 -1.1811, -1.1675 -1.5246 -1.1811, -1.2006 -1.5865 -1.1811, -1.201 -1.5878 -1.1811, -1.2182 -1.6567 -1.1811, -1.2182 -1.6572 -1.1811, -1.0151 -1.5885 -1.3386, -0.9941 -1.5736 -1.3386, -1.0151 -1.7973 -1.3386, -0.9941 -1.8122 -1.3386, -1.0378 -1.6135 -1.3386, -1.0378 -1.7723 -1.3386, -1.0537 -1.7426 -1.3386, -1.062 -1.7098 -1.3386, -1.062 -1.676 -1.3386, -1.0537 -1.6433 -1.3386
            ]
        }
        coordIndex [
            0,1,2,-1,3,4,5,-1,3,0,4,-1,4,0,2,-1,5,1,3,-1,3,1,0,-1,6,7,8,-1,9,10,11,-1,9,6,10,-1,10,6,8,-1,11,7,9,-1,9,7,6,-1,12,13,14,-1,14,13,15,-1,16,17,18,-1,18,17,19,-1,20,21,22,-1,22,21,23,-1,24,20,25,-1,25,20,22,-1,20,24,21,-1,21,24,26,-1,27,28,29,-1,29,28,30,-1,31,27,32,-1,32,27,29,-1,28,27,33,-1,33,27,31,-1,34,35,36,-1,37,38,39,-1,39,38,40,-1,38,41,40,-1,40,41,42,-1,40,42,43,-1,42,44,43,-1,43,44,45,-1,43,45,46,-1,47,48,49,-1,50,51,52,-1,52,51,53,-1,52,53,54,-1,53,55,54,-1,54,55,56,-1,54,56,57,-1,56,58,57,-1,57,58,59,-1,57,59,60,-1,59,61,60,-1,60,61,62,-1,60,62,63,-1,63,62,64,-1,63,64,65,-1,35,34,51,-1,51,34,66,-1,51,66,53,-1,45,67,46,-1,46,67,68,-1,46,68,49,-1,49,68,69,-1,49,69,47,-1,47,69,70,-1,47,70,36,-1,36,70,71,-1,36,71,34,-1,72,73,74,-1,74,73,75,-1,74,75,76,-1,77,78,79,-1,77,79,80,-1,80,79,74,-1,74,79,81,-1,74,81,72,-1,82,83,84,-1,85,86,87,-1,87,86,88,-1,86,89,88,-1,88,89,90,-1,88,90,91,-1,90,92,91,-1,91,92,93,-1,91,93,94,-1,95,96,97,-1,98,99,100,-1,100,99,101,-1,100,101,102,-1,101,103,102,-1,102,103,104,-1,102,104,105,-1,104,106,105,-1,105,106,107,-1,105,107,108,-1,107,109,108,-1,108,109,110,-1,108,110,111,-1,111,110,112,-1,111,112,113,-1,83,82,99,-1,99,82,114,-1,99,114,101,-1,93,115,94,-1,94,115,116,-1,94,116,97,-1,97,116,117,-1,97,117,95,-1,95,117,118,-1,95,118,84,-1,84,118,119,-1,84,119,82,-1,120,121,122,-1,122,121,123,-1,120,122,124,-1,124,122,125,-1,124,125,126,-1,126,127,124,-1,124,127,128,-1,124,128,129,-1,
        ]
    }
}
Shape{
    appearance Appearance {
        material  Material 	{
            diffuseColor 0.7529411764705882 0.7529411764705882 0.7529411764705882
            specularColor 0.3764705882352941 0.3764705882352941 0.3764705882352941
            ambientIntensity 0.7529
            transparency 0.0
            shininess 0.5
        }
    }
    geometry IndexedFaceSet {
        ccw TRUE
        solid FALSE
        coord DEF co Coordinate {
            point [
                -0.4565 -0.6447 0.1378, -0.459 -0.6447 0.1378, -0.4565 -0.6447 0.1181, -0.459 -0.6447 0.1181, -0.5498 -0.8416 0.1378, -0.5498 -0.8416 0.1181, -0.5306 -0.8416 0.1378, -0.5306 -0.8416 0.1181, -0.5015 -0.7785 0.1378, -0.5015 -0.7785 0.1181, -0.4123 -0.7785 0.1378, -0.4123 -0.7785 0.1181, -0.3824 -0.8416 0.1378, -0.3824 -0.8416 0.1181, -0.3631 -0.8416 0.1378, -0.3631 -0.8416 0.1181, -0.4922 -0.7583 0.1378, -0.4219 -0.7583 0.1378, -0.4575 -0.6831 0.1378, -0.4922 -0.7583 0.1181, -0.4575 -0.6831 0.1181, -0.4219 -0.7583 0.1181, -0.2373 -0.8416 0.1378, -0.1763 -0.8416 0.1378, -0.2373 -0.8416 0.1181, -0.1763 -0.8416 0.1181, -0.1763 -0.6447 0.1378, -0.1763 -0.6447 0.1181, -0.2161 -0.6447 0.1378, -0.2161 -0.6447 0.1181, -0.2785 -0.6518 0.1378, -0.2785 -0.6518 0.1181, -0.2476 -0.6459 0.1181, -0.2476 -0.6459 0.1378, -0.3379 -0.7457 0.1378, -0.3379 -0.7457 0.1181, -0.3376 -0.7365 0.1181, -0.3376 -0.7365 0.1378, -0.3336 -0.7127 0.1181, -0.3336 -0.7127 0.1378, -0.3254 -0.6922 0.1181, -0.3254 -0.6922 0.1378, -0.3128 -0.6744 0.1181, -0.3128 -0.6744 0.1378, -0.2985 -0.6619 0.1181, -0.2985 -0.6619 0.1378, -0.2604 -0.8403 0.1181, -0.2604 -0.8403 0.1378, -0.2844 -0.8348 0.1181, -0.2844 -0.8348 0.1378, -0.2992 -0.8272 0.1181, -0.2992 -0.8272 0.1378, -0.314 -0.8142 0.1181, -0.314 -0.8142 0.1378, -0.3274 -0.7939 0.1181, -0.3274 -0.7939 0.1378, -0.3351 -0.772 0.1181, -0.3351 -0.772 0.1378, -0.2383 -0.6659 0.1378, -0.2683 -0.6705 0.1378, -0.2772 -0.6737 0.1378, -0.2919 -0.6823 0.1378, -0.3033 -0.6934 0.1378, -0.3123 -0.7078 0.1378, -0.318 -0.7247 0.1378, -0.3202 -0.7456 0.1378, -0.32 -0.7511 0.1378, -0.3166 -0.7719 0.1378, -0.31 -0.7868 0.1378, -0.3003 -0.7997 0.1378, -0.2886 -0.8092 0.1378, -0.2729 -0.8164 0.1378, -0.2449 -0.8206 0.1378, -0.2166 -0.8214 0.1378, -0.194 -0.8214 0.1378, -0.194 -0.6649 0.1378, -0.2078 -0.6649 0.1378, -0.194 -0.6649 0.1181, -0.194 -0.8214 0.1181, -0.2078 -0.6649 0.1181, -0.2383 -0.6659 0.1181, -0.2683 -0.6705 0.1181, -0.2772 -0.6737 0.1181, -0.2919 -0.6823 0.1181, -0.3033 -0.6934 0.1181, -0.3123 -0.7078 0.1181, -0.318 -0.7247 0.1181, -0.3202 -0.7456 0.1181, -0.32 -0.7511 0.1181, -0.3166 -0.7719 0.1181, -0.31 -0.7868 0.1181, -0.3003 -0.7997 0.1181, -0.2886 -0.8092 0.1181, -0.2729 -0.8164 0.1181, -0.2449 -0.8206 0.1181, -0.2166 -0.8214 0.1181, -0.03 -0.8416 0.1378, -0.03 -0.6447 0.1378, -0.03 -0.8416 0.1181, -0.03 -0.6447 0.1181, -0.141 -0.6447 0.1378, -0.141 -0.6447 0.1181, -0.141 -0.6649 0.1378, -0.141 -0.6649 0.1181, -0.0476 -0.6649 0.1378, -0.0476 -0.6649 0.1181, -0.0476 -0.7255 0.1378, -0.0476 -0.7255 0.1181, -0.141 -0.7255 0.1378, -0.141 -0.7255 0.1181, -0.141 -0.7457 0.1378, -0.141 -0.7457 0.1181, -0.0476 -0.7457 0.1378, -0.0476 -0.7457 0.1181, -0.0476 -0.8214 0.1378, -0.0476 -0.8214 0.1181, -0.141 -0.8214 0.1378, -0.141 -0.8214 0.1181, -0.141 -0.8416 0.1378, -0.141 -0.8416 0.1181, 0.0963 -0.6397 0.1181, 0.0963 -0.6397 0.1378, 0.0744 -0.6422 0.1181, 0.0677 -0.643 0.1378, 0.0677 -0.643 0.1181, 0.0497 -0.6491 0.1378, 0.0497 -0.6491 0.1181, 0.0283 -0.6621 0.1378, 0.0283 -0.6621 0.1181, 0.0162 -0.6736 0.1378, 0.0162 -0.6736 0.1181, 0.0104 -0.6809 0.1378, 0.0104 -0.6809 0.1181, 0.0259 -0.6927 0.1378, 0.0259 -0.6927 0.1181, 0.0974 -0.6599 0.1378, 0.0974 -0.6599 0.1181, 0.0905 -0.6601 0.1181, 0.0905 -0.6601 0.1378, 0.0688 -0.6639 0.1181, 0.0688 -0.6639 0.1378, 0.0602 -0.667 0.1181, 0.0602 -0.667 0.1378, 0.0417 -0.6774 0.1181, 0.0417 -0.6774 0.1378, 0.1846 -0.7434 0.1378, 0.1846 -0.7434 0.1181, 0.1841 -0.7341 0.1181, 0.1841 -0.7341 0.1378, 0.1799 -0.715 0.1181, 0.1799 -0.715 0.1378, 0.1711 -0.6975 0.1181, 0.1711 -0.6975 0.1378, 0.1589 -0.6833 0.1181, 0.1589 -0.6833 0.1378, 0.1408 -0.6705 0.1181, 0.1408 -0.6705 0.1378, 0.1207 -0.6627 0.1181, 0.1207 -0.6627 0.1378, 0.0962 -0.8265 0.1378, 0.0962 -0.8265 0.1181, 0.1118 -0.8254 0.1181, 0.1118 -0.8254 0.1378, 0.1318 -0.8202 0.1181, 0.1318 -0.8202 0.1378, 0.1509 -0.8098 0.1181, 0.1509 -0.8098 0.1378, 0.1651 -0.7968 0.1181, 0.1651 -0.7968 0.1378, 0.1757 -0.7814 0.1181, 0.1757 -0.7814 0.1378, 0.182 -0.7651 0.1181, 0.182 -0.7651 0.1378, 0.0259 -0.7936 0.1378, 0.0259 -0.7936 0.1181, 0.0368 -0.8046 0.1181, 0.0368 -0.8046 0.1378, 0.0542 -0.8166 0.1181, 0.0542 -0.8166 0.1378, 0.0731 -0.8237 0.1181, 0.0731 -0.8237 0.1378, 0.0104 -0.8054 0.1378, 0.0104 -0.8054 0.1181, 0.0961 -0.8466 0.1378, 0.0961 -0.8466 0.1181, 0.0862 -0.8463 0.1181, 0.0862 -0.8463 0.1378, 0.0712 -0.8441 0.1181, 0.0706 -0.844 0.1378, 0.0706 -0.844 0.1181, 0.0482 -0.8364 0.1181, 0.0482 -0.8364 0.1378, 0.0278 -0.8236 0.1181, 0.0278 -0.8236 0.1378, 0.1181 -0.8441 0.1181, 0.1268 -0.8431 0.1378, 0.1268 -0.8431 0.1181, 0.1503 -0.8341 0.1378, 0.1503 -0.8341 0.1181, 0.1694 -0.8204 0.1378, 0.1694 -0.8204 0.1181, 0.1773 -0.8122 0.1378, 0.1773 -0.8122 0.1181, 0.2022 -0.742 0.1378, 0.2022 -0.742 0.1181, 0.1995 -0.768 0.1181, 0.1995 -0.768 0.1378, 0.1916 -0.7906 0.1181, 0.1916 -0.7906 0.1378, 0.112 -0.6406 0.1181, 0.112 -0.6406 0.1378, 0.1187 -0.6422 0.1181, 0.1361 -0.6463 0.1378, 0.1361 -0.6463 0.1181, 0.1569 -0.6569 0.1181, 0.1569 -0.6569 0.1378, 0.1774 -0.6749 0.1181, 0.1774 -0.6749 0.1378, 0.1909 -0.6943 0.1181, 0.1909 -0.6943 0.1378, 0.199 -0.7151 0.1181, 0.199 -0.7151 0.1378, 0.3183 -0.8416 0.1378, 0.3183 -0.6447 0.1378, 0.3183 -0.8416 0.1181, 0.3183 -0.6447 0.1181, 0.3006 -0.6447 0.1378, 0.3006 -0.6447 0.1181, 0.3006 -0.8214 0.1378, 0.3006 -0.8214 0.1181, 0.2249 -0.8214 0.1378, 0.2249 -0.8214 0.1181, 0.2249 -0.8416 0.1378, 0.2249 -0.8416 0.1181
            ]
        }
        coordIndex [
            0,1,2,-1,2,1,3,-1,1,4,3,-1,3,4,5,-1,4,6,5,-1,5,6,7,-1,6,8,7,-1,7,8,9,-1,8,10,9,-1,9,10,11,-1,10,12,11,-1,11,12,13,-1,12,14,13,-1,13,14,15,-1,14,0,15,-1,15,0,2,-1,16,4,1,-1,0,17,1,-1,1,17,18,-1,1,18,16,-1,14,12,10,-1,6,4,8,-1,8,4,16,-1,8,16,10,-1,10,16,17,-1,10,17,14,-1,14,17,0,-1,16,18,19,-1,19,18,20,-1,17,16,21,-1,21,16,19,-1,18,17,20,-1,20,17,21,-1,22,23,24,-1,24,23,25,-1,23,26,25,-1,25,26,27,-1,26,28,27,-1,27,28,29,-1,30,31,32,-1,30,32,33,-1,33,32,29,-1,33,29,28,-1,34,35,36,-1,34,36,37,-1,37,36,38,-1,37,38,39,-1,39,38,40,-1,39,40,41,-1,41,40,42,-1,41,42,43,-1,43,42,44,-1,43,44,45,-1,45,44,31,-1,45,31,30,-1,22,24,46,-1,22,46,47,-1,47,46,48,-1,47,48,49,-1,49,48,50,-1,49,50,51,-1,51,50,52,-1,51,52,53,-1,53,52,54,-1,53,54,55,-1,55,54,56,-1,55,56,57,-1,57,56,35,-1,57,35,34,-1,58,59,30,-1,30,59,60,-1,30,60,45,-1,45,60,61,-1,45,61,43,-1,43,61,62,-1,43,62,41,-1,41,62,63,-1,41,63,39,-1,39,63,64,-1,39,64,37,-1,37,64,65,-1,37,65,34,-1,34,65,66,-1,34,66,57,-1,57,66,67,-1,57,67,55,-1,55,67,68,-1,55,68,53,-1,53,68,69,-1,53,69,51,-1,51,69,70,-1,51,70,49,-1,49,70,71,-1,49,71,47,-1,47,71,72,-1,47,72,22,-1,22,72,73,-1,22,73,23,-1,23,73,74,-1,23,74,26,-1,26,74,75,-1,26,75,28,-1,28,75,76,-1,28,76,33,-1,33,76,58,-1,33,58,30,-1,75,74,77,-1,77,74,78,-1,76,75,79,-1,79,75,77,-1,76,79,80,-1,76,80,58,-1,58,80,81,-1,58,81,59,-1,59,81,82,-1,59,82,60,-1,60,82,83,-1,60,83,61,-1,61,83,84,-1,61,84,62,-1,62,84,85,-1,62,85,63,-1,63,85,86,-1,63,86,64,-1,64,86,87,-1,64,87,65,-1,65,87,88,-1,65,88,66,-1,66,88,89,-1,66,89,67,-1,67,89,90,-1,67,90,68,-1,68,90,91,-1,68,91,69,-1,69,91,92,-1,69,92,70,-1,70,92,93,-1,70,93,71,-1,71,93,94,-1,71,94,72,-1,72,94,95,-1,72,95,73,-1,74,73,78,-1,78,73,95,-1,96,97,98,-1,98,97,99,-1,97,100,99,-1,99,100,101,-1,100,102,101,-1,101,102,103,-1,102,104,103,-1,103,104,105,-1,104,106,105,-1,105,106,107,-1,106,108,107,-1,107,108,109,-1,108,110,109,-1,109,110,111,-1,110,112,111,-1,111,112,113,-1,112,114,113,-1,113,114,115,-1,114,116,115,-1,115,116,117,-1,116,118,117,-1,117,118,119,-1,118,96,119,-1,119,96,98,-1,96,118,116,-1,116,114,96,-1,96,114,112,-1,96,112,97,-1,102,100,104,-1,104,100,97,-1,104,97,106,-1,106,97,112,-1,106,112,108,-1,108,112,110,-1,120,121,122,-1,122,121,123,-1,122,123,124,-1,124,123,125,-1,124,125,126,-1,126,125,127,-1,126,127,128,-1,128,127,129,-1,128,129,130,-1,130,129,131,-1,130,131,132,-1,131,133,132,-1,132,133,134,-1,135,136,137,-1,135,137,138,-1,138,137,139,-1,138,139,140,-1,140,139,141,-1,140,141,142,-1,142,141,143,-1,142,143,144,-1,144,143,134,-1,144,134,133,-1,145,146,147,-1,145,147,148,-1,148,147,149,-1,148,149,150,-1,150,149,151,-1,150,151,152,-1,152,151,153,-1,152,153,154,-1,154,153,155,-1,154,155,156,-1,156,155,157,-1,156,157,158,-1,158,157,136,-1,158,136,135,-1,159,160,161,-1,159,161,162,-1,162,161,163,-1,162,163,164,-1,164,163,165,-1,164,165,166,-1,166,165,167,-1,166,167,168,-1,168,167,169,-1,168,169,170,-1,170,169,171,-1,170,171,172,-1,172,171,146,-1,172,146,145,-1,173,174,175,-1,173,175,176,-1,176,175,177,-1,176,177,178,-1,178,177,179,-1,178,179,180,-1,180,179,160,-1,180,160,159,-1,173,181,174,-1,174,181,182,-1,183,184,185,-1,183,185,186,-1,186,185,187,-1,186,187,188,-1,187,189,188,-1,188,189,190,-1,188,190,191,-1,191,190,192,-1,191,192,193,-1,193,192,182,-1,193,182,181,-1,184,183,194,-1,194,183,195,-1,194,195,196,-1,196,195,197,-1,196,197,198,-1,198,197,199,-1,198,199,200,-1,200,199,201,-1,200,201,202,-1,203,204,205,-1,203,205,206,-1,206,205,207,-1,206,207,208,-1,208,207,202,-1,208,202,201,-1,121,120,209,-1,121,209,210,-1,210,209,211,-1,210,211,212,-1,211,213,212,-1,212,213,214,-1,212,214,215,-1,215,214,216,-1,215,216,217,-1,217,216,218,-1,217,218,219,-1,219,218,220,-1,219,220,221,-1,221,220,204,-1,221,204,203,-1,133,131,129,-1,181,173,193,-1,193,173,176,-1,193,176,191,-1,191,176,178,-1,191,178,188,-1,188,178,180,-1,188,180,186,-1,186,180,159,-1,133,129,144,-1,144,129,127,-1,144,127,142,-1,142,127,125,-1,142,125,140,-1,140,125,123,-1,140,123,138,-1,138,123,121,-1,138,121,135,-1,135,121,210,-1,135,210,158,-1,158,210,212,-1,158,212,156,-1,156,212,215,-1,156,215,154,-1,154,215,217,-1,154,217,152,-1,152,217,219,-1,152,219,150,-1,150,219,221,-1,150,221,148,-1,148,221,203,-1,148,203,145,-1,145,203,172,-1,172,203,206,-1,172,206,170,-1,170,206,208,-1,170,208,168,-1,168,208,201,-1,168,201,166,-1,166,201,199,-1,166,199,164,-1,164,199,197,-1,164,197,162,-1,162,197,195,-1,162,195,159,-1,159,195,183,-1,159,183,186,-1,222,223,224,-1,224,223,225,-1,223,226,225,-1,225,226,227,-1,226,228,227,-1,227,228,229,-1,228,230,229,-1,229,230,231,-1,230,232,231,-1,231,232,233,-1,232,222,233,-1,233,222,224,-1,226,223,228,-1,228,223,222,-1,228,222,230,-1,230,222,232,-1,
        ]
    }
}
Shape{
    appearance Appearance {
        material  Material 	{
            diffuseColor 0.11372549019607843 0.11372549019607843 0.11372549019607843
            specularColor 0.058823529411764705 0.058823529411764705 0.058823529411764705
            ambientIntensity 0.1137
            transparency 0.0
            shininess 0.5
        }
    }
    geometry IndexedFaceSet {
        ccw TRUE
        solid FALSE
        coord DEF co Coordinate {
            point [
                -0.4575 -0.6831 0.1181, -0.4219 -0.7583 0.1181, -0.4922 -0.7583 0.1181, -0.194 -0.6649 0.1181, -0.194 -0.8214 0.1181, -0.2078 -0.6649 0.1181, -0.2166 -0.8214 0.1181, -0.2383 -0.6659 0.1181, -0.2449 -0.8206 0.1181, -0.2683 -0.6705 0.1181, -0.31 -0.7868 0.1181, -0.3166 -0.7719 0.1181, -0.32 -0.7511 0.1181, -0.3202 -0.7456 0.1181, -0.2729 -0.8164 0.1181, -0.2886 -0.8092 0.1181, -0.3003 -0.7997 0.1181, -0.318 -0.7247 0.1181, -0.3123 -0.7078 0.1181, -0.3033 -0.6934 0.1181, -0.2919 -0.6823 0.1181, -0.2772 -0.6737 0.1181, -2.3228 -3.5039 0.6181, -2.0472 -3.5039 0.3425, -2.3228 -0.3543 0.6181, -2.0472 -0.3543 0.3425, 0.8661 -3.5039 0.3425, 1.1417 -3.5039 0.6181, 0.8661 -0.3543 0.3425, 1.1417 -0.3543 0.6181, 2.0472 -3.5039 0.3425, 2.3228 -3.5039 0.6181, 2.0472 -0.3543 0.3425, 2.3228 -0.3543 0.6181, -0.9941 -1.98 -1.1811, -1.0577 -1.9568 -1.1811, -0.9941 -1.8454 -1.3075, -0.9941 -1.5404 -1.3075, -0.9941 -1.5736 -1.3386, -1.0151 -1.5885 -1.3386, -1.0609 -1.4311 -1.1811, -1.0577 -1.429 -1.1811, -0.9941 -1.4058 -1.1811, -1.0151 -1.7973 -1.3386, -0.9941 -1.8122 -1.3386, -1.0609 -1.9547 -1.1811, -1.1179 -1.9167 -1.1811, -1.1199 -1.9145 -1.1811, -1.0378 -1.7723 -1.3386, -1.1665 -1.8631 -1.1811, -1.1675 -1.8612 -1.1811, -1.0537 -1.7426 -1.3386, -1.2006 -1.7993 -1.1811, -1.201 -1.798 -1.1811, -1.062 -1.7098 -1.3386, -1.2182 -1.7291 -1.1811, -1.062 -1.676 -1.3386, -1.2182 -1.7287 -1.1811, -1.2182 -1.6572 -1.1811, -1.2182 -1.6567 -1.1811, -1.201 -1.5878 -1.1811, -1.0537 -1.6433 -1.3386, -1.2006 -1.5865 -1.1811, -1.1675 -1.5246 -1.1811, -1.0378 -1.6135 -1.3386, -1.1665 -1.5227 -1.1811, -1.1199 -1.4714 -1.1811, -1.1179 -1.4692 -1.1811, 0.9941 -1.4058 -1.1811, 1.0577 -1.429 -1.1811, 0.9941 -1.5404 -1.3075, 0.9941 -1.8454 -1.3075, 0.9941 -1.8122 -1.3386, 1.0151 -1.7973 -1.3386, 1.0609 -1.9547 -1.1811, 1.0577 -1.9568 -1.1811, 0.9941 -1.98 -1.1811, 1.0151 -1.5885 -1.3386, 0.9941 -1.5736 -1.3386, 1.0609 -1.4311 -1.1811, 1.1179 -1.4692 -1.1811, 1.1199 -1.4714 -1.1811, 1.0378 -1.6135 -1.3386, 1.1665 -1.5227 -1.1811, 1.1675 -1.5246 -1.1811, 1.0537 -1.6433 -1.3386, 1.2006 -1.5865 -1.1811, 1.201 -1.5878 -1.1811, 1.062 -1.676 -1.3386, 1.2182 -1.6567 -1.1811, 1.062 -1.7098 -1.3386, 1.2182 -1.6572 -1.1811, 1.2182 -1.7287 -1.1811, 1.2182 -1.7291 -1.1811, 1.201 -1.798 -1.1811, 1.0537 -1.7426 -1.3386, 1.2006 -1.7993 -1.1811, 1.1675 -1.8612 -1.1811, 1.0378 -1.7723 -1.3386, 1.1665 -1.8631 -1.1811, 1.1199 -1.9145 -1.1811, 1.1179 -1.9167 -1.1811
            ]
        }
        coordIndex [
            0,1,2,-1,3,4,5,-1,5,4,6,-1,5,6,7,-1,7,6,8,-1,7,8,9,-1,10,11,8,-1,8,11,12,-1,8,12,13,-1,14,15,8,-1,8,15,16,-1,8,16,10,-1,13,17,8,-1,8,17,18,-1,8,18,19,-1,19,20,8,-1,8,20,21,-1,8,21,9,-1,22,23,24,-1,24,23,25,-1,26,27,28,-1,28,27,29,-1,30,31,32,-1,32,31,33,-1,34,35,36,-1,37,38,39,-1,39,40,37,-1,37,40,41,-1,37,41,42,-1,43,44,36,-1,35,45,36,-1,36,45,46,-1,36,46,43,-1,43,46,47,-1,43,47,48,-1,47,49,48,-1,48,49,50,-1,48,50,51,-1,50,52,51,-1,51,52,53,-1,51,53,54,-1,54,53,55,-1,54,55,56,-1,56,55,57,-1,56,57,58,-1,58,59,56,-1,56,59,60,-1,56,60,61,-1,60,62,61,-1,61,62,63,-1,61,63,64,-1,63,65,64,-1,64,65,66,-1,64,66,39,-1,39,66,67,-1,39,67,40,-1,68,69,70,-1,71,72,73,-1,73,74,71,-1,71,74,75,-1,71,75,76,-1,77,78,70,-1,69,79,70,-1,70,79,80,-1,70,80,77,-1,77,80,81,-1,77,81,82,-1,81,83,82,-1,82,83,84,-1,82,84,85,-1,84,86,85,-1,85,86,87,-1,85,87,88,-1,88,87,89,-1,88,89,90,-1,90,89,91,-1,90,91,92,-1,92,93,90,-1,90,93,94,-1,90,94,95,-1,94,96,95,-1,95,96,97,-1,95,97,98,-1,97,99,98,-1,98,99,100,-1,98,100,73,-1,73,100,101,-1,73,101,74,-1,
        ]
    }
}