M48
; DRILL file KiCad 10.0.4-10.0.4~ubuntu24.04.1 date 2026-09-16T02:30:11
; FORMAT={-:-/ absolute / metric / decimal}
; #@! TF.CreationDate,2026-09-16T02:30:11-07:00
; #@! TF.GenerationSoftware,Kicad,Pcbnew,10.0.4-10.0.4~ubuntu24.04.1
; #@! TF.FileFunction,Plated,1,4,PTH
FMAT,2
METRIC
; #@! TA.AperFunction,Plated,PTH,ViaDrill
T1C0.200
; #@! TA.AperFunction,Plated,PTH,ViaDrill
T2C0.300
; #@! TA.AperFunction,Plated,PTH,ComponentDrill
T3C0.750
; #@! TA.AperFunction,Plated,PTH,ComponentDrill
T4C0.800
; #@! TA.AperFunction,Plated,PTH,ComponentDrill
T5C1.000
; #@! TA.AperFunction,Plated,PTH,ComponentDrill
T6C1.020
%
G90
G05
T1
X22.5Y-61.0
X24.0Y-24.0
X24.0Y-32.0
X24.0Y-40.0
X24.0Y-48.0
X24.0Y-64.0
X24.0Y-80.0
X24.0Y-88.0
X24.0Y-96.0
X24.0Y-104.0
X24.0Y-112.0
X25.7Y-57.8
X26.28Y-61.91
X27.46Y-67.29
X28.0Y-71.9
X28.5Y-72.4
X28.83Y-61.5
X29.175Y-57.3
X29.23Y-60.52
X29.35Y-62.175
X29.7Y-47.4
X30.75Y-64.375
X30.825Y-55.7
X31.15Y-53.35
X31.7Y-56.75
X31.79Y-60.7
X31.8Y-49.5
X31.9Y-66.2
X32.0Y-32.0
X32.0Y-40.0
X32.0Y-104.0
X32.45Y-60.45
X32.45Y-62.85
X32.5Y-88.6
X32.55Y-52.2
X32.6Y-55.5
X32.6Y-59.0
X32.7Y-79.7
X32.8Y-91.5
X32.96Y-61.96
X33.0Y-90.0
X33.5Y-62.89
X33.6Y-55.4
X33.7Y-57.9
X33.8Y-52.5
X33.81Y-50.0
X34.38Y-87.78
X34.4Y-60.6
X34.5Y-64.2
X34.7Y-52.5
X34.7Y-89.7
X34.843Y-57.627
X35.0Y-48.7
X35.0Y-88.6
X35.16Y-71.32
X35.3Y-91.8
X35.3Y-94.2
X35.403Y-60.524
X35.8Y-84.9
X36.48Y-56.85
X36.49Y-64.32
X36.77Y-54.07
X36.77Y-58.74
X36.95Y-82.3
X37.24Y-86.17
X37.6Y-73.825
X37.75Y-54.63
X37.8Y-56.3
X37.8Y-57.6
X38.1Y-85.5
X38.4Y-77.8
X38.45Y-76.0
X38.49Y-97.42
X38.57Y-57.88
X38.6Y-52.2
X38.6Y-53.6
X38.7Y-67.4
X38.7Y-87.65
X38.8Y-86.15
X38.9Y-105.75
X39.1Y-68.1
X39.7Y-84.4
X39.75Y-48.91
X39.788Y-33.4
X40.0Y-40.0
X40.0Y-48.0
X40.0Y-112.0
X40.2Y-64.7
X40.25Y-53.1
X40.3Y-71.6
X40.5Y-87.1
X40.9Y-55.5
X41.05Y-84.95
X41.07Y-78.49
X41.212Y-106.6
X41.9Y-53.85
X41.9Y-72.5
X41.99Y-43.5
X42.1Y-34.25
X42.4Y-63.45
X42.6Y-54.2
X43.3Y-51.65
X43.43Y-54.3
X44.082Y-58.1
X44.21Y-86.05
X44.36Y-67.48
X44.7Y-91.09
X44.8Y-90.2
X45.4Y-92.9
X45.5Y-50.1
X45.6Y-48.3
X46.0Y-91.3
X46.3Y-54.5
X46.4Y-63.45
X46.45Y-86.5
X46.9Y-90.4
X47.1Y-42.3
X47.1Y-44.6
X47.3Y-48.6
X48.0Y-32.0
X48.0Y-40.0
X48.0Y-104.0
X48.0Y-112.0
X48.1Y-89.5
X48.5Y-47.5
X48.5Y-51.4
X48.5Y-53.5
X49.15Y-90.5
X49.362Y-62.7
X49.8Y-95.8
X49.8Y-98.1
X50.3Y-47.6
X50.6Y-89.7
X52.6Y-76.25
X52.71Y-74.72
X53.84Y-76.22
X54.3Y-55.6
X54.55Y-71.75
X54.7Y-65.9
X54.7Y-69.4
X55.2Y-95.0
X55.62Y-78.13
X56.0Y-32.0
X56.0Y-40.0
X56.0Y-48.0
X56.0Y-88.0
X56.0Y-104.0
X56.0Y-112.0
X56.1Y-67.28
X56.1Y-73.0
X56.8Y-53.1
X56.8Y-82.45
X57.4Y-93.85
X57.6Y-74.0
X57.85Y-68.5
X57.9Y-75.3
X58.0Y-65.4
X58.1Y-77.1
X59.5Y-71.75
X61.75Y-68.5
X62.1Y-26.9
X62.3Y-70.5
X62.8Y-87.0
X63.4Y-91.4
X63.9Y-50.0
X64.0Y-32.0
X64.0Y-40.0
X64.0Y-48.0
X64.0Y-56.0
X64.0Y-64.0
X64.0Y-80.0
X64.0Y-96.0
X64.0Y-104.0
X64.41Y-62.77
X65.05Y-87.85
X65.3Y-83.9
X65.75Y-52.4
X65.8Y-48.9
X65.8Y-91.4
X66.2Y-59.2
X66.25Y-78.38
X66.55Y-51.4
X66.7Y-60.6
X66.88Y-73.7
X67.0Y-91.5
X67.0Y-96.1
X67.1Y-50.0
X67.1Y-90.1
X67.4Y-61.2
X67.6Y-47.1
X68.1Y-59.2
X68.3Y-55.36
X69.37Y-85.64
X69.75Y-87.9
X70.5Y-97.42
X70.6Y-85.3
X70.8Y-54.35
X70.8Y-86.15
X70.9Y-105.75
X71.12Y-73.06
X71.6Y-52.6
X71.6Y-55.25
X71.75Y-48.91
X71.787Y-33.4
X72.0Y-40.0
X72.0Y-48.0
X72.0Y-112.0
X72.47Y-79.48
X72.5Y-55.65
X72.5Y-66.1
X72.5Y-68.7
X72.5Y-70.3
X73.1Y-84.8
X73.212Y-106.6
X73.4Y-59.2
X73.4Y-61.2
X73.4Y-67.0
X73.8Y-73.075
X73.95Y-74.475
X74.1Y-34.25
X74.13Y-44.03
X74.2Y-53.85
X74.2Y-85.65
X74.9Y-54.4
X75.05Y-51.8
X75.1Y-65.3
X76.0Y-118.3
X76.03Y-52.9
X76.21Y-86.25
X76.27Y-53.97
X76.7Y-89.9
X76.7Y-91.09
X77.0Y-80.2
X77.0Y-92.9
X77.14Y-75.45
X77.5Y-84.0
X77.7Y-48.2
X77.8Y-54.9
X77.8Y-57.0
X78.0Y-91.3
X78.3Y-49.9
X78.45Y-53.25
X78.62Y-85.22
X78.7Y-76.5
X78.7Y-79.6
X78.8Y-48.6
X78.9Y-90.4
X79.25Y-50.4
X79.25Y-54.4
X80.0Y-32.0
X80.0Y-40.0
X80.0Y-49.0
X80.0Y-64.0
X80.0Y-72.0
X80.0Y-80.0
X80.0Y-104.0
X80.0Y-112.0
X80.3Y-90.1
X80.33Y-89.34
X81.6Y-55.0
X81.8Y-52.8
X82.5Y-50.5
X82.6Y-90.1
X83.35Y-75.2
X83.68Y-72.14
X83.9Y-119.2
X84.1Y-59.0
X84.15Y-74.2
X84.45Y-86.45
X85.4Y-61.3
X85.4Y-78.7
X85.6Y-71.2
X85.64Y-69.01
X85.64Y-72.21
X86.49Y-63.5
X87.2Y-55.3
X87.54Y-75.1
X87.8Y-53.2
X87.8Y-89.1
X88.0Y-32.0
X88.0Y-40.0
X88.0Y-48.0
X88.0Y-71.05
X88.0Y-96.0
X88.0Y-104.0
X88.0Y-112.0
X88.05Y-67.9
X88.1Y-69.5
X88.7Y-73.9
X88.725Y-62.6
X88.8Y-64.6
X88.8Y-75.2
X89.8Y-62.2
X89.8Y-71.5
X89.8Y-77.8
X90.0Y-67.5
X91.2Y-67.0
X91.2Y-73.0
X91.6Y-67.65
X91.6Y-69.5
X91.6Y-72.35
X92.4Y-63.2
X92.6Y-62.52
X92.75Y-61.0
X92.75Y-79.3
X93.0Y-63.8
X93.3Y-76.6
X93.5Y-77.68
X93.725Y-73.9
X93.85Y-66.25
X93.9Y-63.1
X93.9Y-80.4
X94.1Y-26.9
X94.1Y-64.975
X94.1Y-78.28
X94.4Y-49.2
X94.6Y-80.7
X94.625Y-66.55
X94.65Y-75.125
X94.8Y-89.1
X94.9Y-73.55
X94.9Y-77.0
X95.1Y-65.45
X95.1Y-74.55
X95.17Y-76.2
X96.0Y-32.0
X96.0Y-40.0
X96.0Y-104.0
X96.225Y-73.45
X96.7Y-49.1
X97.0Y-66.625
X97.0Y-73.375
X97.0Y-91.0
X97.15Y-65.375
X97.9Y-91.4
X98.1Y-49.6
X98.1Y-63.7
X98.1Y-74.17
X98.1Y-76.3
X98.15Y-65.65
X98.38Y-52.68
X98.55Y-86.5
X98.55Y-89.05
X98.575Y-66.5
X98.7Y-90.1
X98.8Y-64.9
X99.0Y-48.7
X99.6Y-47.1
X99.8Y-65.3
X100.025Y-75.0
X100.1Y-67.6
X100.25Y-78.35
X100.3Y-50.1
X100.3Y-81.1
X100.4Y-64.6
X100.42Y-69.3
X100.5Y-70.4
X100.81Y-67.82
X101.0Y-65.2
X101.24Y-54.77
X101.24Y-86.17
X101.5Y-76.72
X101.7Y-87.9
X101.9Y-63.1
X102.0Y-82.8
X102.3Y-60.2
X102.6Y-85.3
X102.8Y-54.35
X102.8Y-69.57
X102.8Y-86.15
X102.87Y-95.97
X102.9Y-105.75
X103.05Y-55.05
X103.1Y-78.4
X103.23Y-64.9
X103.66Y-75.68
X103.72Y-67.13
X103.75Y-48.91
X103.75Y-55.25
X103.787Y-33.4
X103.95Y-74.85
X104.0Y-40.0
X104.0Y-48.0
X104.0Y-56.0
X104.0Y-112.0
X104.1Y-67.92
X104.2Y-62.0
X104.35Y-84.8
X104.8Y-80.1
X105.1Y-84.8
X105.212Y-106.6
X105.39Y-72.1
X105.85Y-66.45
X105.925Y-91.595
X106.0Y-61.2
X106.1Y-34.25
X106.1Y-64.0
X106.15Y-52.5
X106.2Y-53.85
X106.2Y-85.65
X106.4Y-70.2
X106.4Y-76.75
X106.5Y-42.58
X106.7Y-54.5
X106.7Y-56.4
X107.35Y-68.0
X107.63Y-54.36
X107.75Y-72.55
X107.76Y-85.23
X107.9Y-75.45
X108.0Y-118.3
X108.225Y-91.095
X109.0Y-75.5
X109.5Y-49.9
X109.6Y-48.3
X109.7Y-72.15
X109.9Y-68.8
X110.5Y-76.86
X110.55Y-67.05
X110.62Y-89.88
X110.8Y-48.6
X111.15Y-73.35
X111.25Y-54.98
X111.6Y-70.1
X112.0Y-32.0
X112.0Y-40.0
X112.0Y-56.0
X112.0Y-64.0
X112.0Y-80.0
X112.0Y-104.0
X112.0Y-112.0
X112.4Y-85.8
X112.5Y-51.4
X112.55Y-88.95
X113.11Y-67.08
X113.15Y-71.65
X113.4Y-48.6
X115.3Y-71.125
X115.5Y-53.6
X116.1Y-68.8
X117.2Y-72.975
X117.7Y-71.4
X118.5Y-71.7
X119.05Y-55.8
X120.0Y-32.0
X120.0Y-40.0
X120.0Y-48.0
X120.0Y-56.0
X120.0Y-80.0
X120.0Y-96.0
X120.0Y-104.0
X120.35Y-54.45
X120.8Y-73.1
X121.5Y-73.8
X121.6Y-72.0
X122.3Y-49.7
X122.88Y-71.45
X123.51Y-75.54
X123.65Y-51.05
X123.7Y-72.8
X124.05Y-47.95
X125.35Y-49.3
X125.5Y-77.7
X126.4Y-90.5
X127.0Y-56.45
X127.05Y-76.5
X127.2Y-86.2
X128.0Y-32.0
X128.0Y-40.0
X128.0Y-48.0
X128.0Y-56.0
X128.0Y-64.0
X128.0Y-104.0
X128.4Y-55.2
X128.67Y-50.66
X128.7Y-51.49
X129.0Y-54.65
X129.0Y-91.0
X129.1Y-47.9
X129.2Y-83.0
X129.9Y-91.4
X130.1Y-49.6
X130.37Y-85.22
X130.55Y-55.8
X130.7Y-90.1
X131.0Y-48.7
X131.5Y-49.26
X131.5Y-54.9
X132.0Y-47.1
X132.41Y-51.14
X132.69Y-54.0
X133.24Y-85.6
X133.47Y-97.42
X133.7Y-87.9
X133.9Y-55.3
X134.1Y-85.5
X134.45Y-69.35
X134.55Y-71.55
X134.6Y-51.15
X134.8Y-54.35
X134.8Y-86.15
X134.9Y-55.2
X134.9Y-55.8
X134.9Y-105.75
X135.35Y-55.15
X135.52Y-48.38
X135.787Y-33.4
X136.0Y-56.0
X136.0Y-72.0
X136.0Y-80.0
X136.0Y-88.0
X136.0Y-96.0
X136.0Y-112.0
X136.05Y-55.25
X136.4Y-84.75
X136.8Y-40.35
X137.1Y-84.8
X137.213Y-106.6
X137.4Y-55.7
X138.1Y-34.25
X138.2Y-52.25
X138.2Y-53.85
X138.2Y-85.65
X138.4Y-54.7
X138.62Y-44.0
X138.68Y-26.97
X139.63Y-54.36
X139.76Y-85.23
X140.25Y-43.8
X140.7Y-91.09
X141.4Y-92.9
X141.7Y-48.2
X141.9Y-49.9
X142.45Y-86.5
X142.45Y-88.6
X143.2Y-48.6
X143.2Y-91.1
X143.25Y-87.5
X143.25Y-89.6
X143.55Y-52.39
X144.0Y-32.0
X144.0Y-40.0
X144.0Y-72.0
X144.0Y-80.0
X144.0Y-112.0
X144.4Y-55.35
X145.19Y-67.87
X146.2Y-40.1
X146.2Y-65.9
X146.2Y-67.7
X147.0Y-66.15
X147.59Y-53.48
X149.6Y-61.6
X150.75Y-52.9
X150.75Y-61.0
X151.5Y-52.0
X152.0Y-24.0
X152.0Y-32.0
X152.0Y-40.0
X152.0Y-48.0
X152.0Y-56.0
X152.0Y-80.0
X152.0Y-88.0
X152.0Y-96.0
X152.0Y-104.0
X152.0Y-112.0
X152.26Y-51.05
X153.57Y-55.86
X153.76Y-64.55
X155.1Y-53.4
X156.85Y-53.95
X157.22Y-52.08
X159.5Y-56.66
X159.51Y-60.85
X159.7Y-58.82
X160.0Y-24.0
X160.0Y-32.0
X160.0Y-40.0
X160.0Y-64.0
X160.0Y-72.0
X160.0Y-88.0
X160.0Y-96.0
X160.0Y-104.0
X160.0Y-112.0
X160.7Y-55.45
X163.0Y-57.09
X163.98Y-55.4
X166.73Y-47.9
X167.2Y-49.8
T2
X64.5Y-69.2
X64.5Y-70.8
X93.0Y-75.9
X95.0Y-69.0
X95.0Y-70.0
X95.0Y-71.0
X96.0Y-69.0
X96.0Y-70.0
X96.0Y-71.0
X97.0Y-69.0
X97.0Y-70.0
X97.0Y-71.0
T3
X36.0Y-36.4
X36.0Y-41.4
X36.0Y-98.6
X36.0Y-103.6
X45.0Y-36.4
X45.0Y-41.4
X45.0Y-98.6
X45.0Y-103.6
X68.0Y-36.4
X68.0Y-41.4
X68.0Y-98.6
X68.0Y-103.6
X77.0Y-36.4
X77.0Y-41.4
X77.0Y-98.6
X77.0Y-103.6
X100.0Y-36.4
X100.0Y-41.4
X100.0Y-98.6
X100.0Y-103.6
X109.0Y-36.4
X109.0Y-41.4
X109.0Y-98.6
X109.0Y-103.6
X132.0Y-36.4
X132.0Y-41.4
X132.0Y-98.6
X132.0Y-103.6
X141.0Y-36.4
X141.0Y-41.4
X141.0Y-98.6
X141.0Y-103.6
T4
X35.86Y-110.14
X36.88Y-114.14
X37.9Y-110.14
X38.0Y-25.86
X38.92Y-114.14
X39.02Y-29.86
X39.94Y-110.14
X40.04Y-25.86
X40.96Y-114.14
X41.06Y-29.86
X41.98Y-110.14
X42.08Y-25.86
X43.0Y-114.14
X43.1Y-29.86
X44.12Y-25.86
X45.14Y-29.86
X67.86Y-110.14
X68.88Y-114.14
X69.9Y-110.14
X70.0Y-25.86
X70.92Y-114.14
X71.02Y-29.86
X71.94Y-110.14
X72.04Y-25.86
X72.96Y-114.14
X73.06Y-29.86
X73.98Y-110.14
X74.08Y-25.86
X75.0Y-114.14
X75.1Y-29.86
X76.12Y-25.86
X77.14Y-29.86
X99.86Y-110.14
X100.88Y-114.14
X101.9Y-110.14
X102.0Y-25.86
X102.92Y-114.14
X103.02Y-29.86
X103.94Y-110.14
X104.04Y-25.86
X104.96Y-114.14
X105.06Y-29.86
X105.98Y-110.14
X106.08Y-25.86
X107.0Y-114.14
X107.1Y-29.86
X108.12Y-25.86
X109.14Y-29.86
X131.86Y-110.14
X132.88Y-114.14
X133.9Y-110.14
X134.0Y-25.86
X134.92Y-114.14
X135.02Y-29.86
X135.94Y-110.14
X136.04Y-25.86
X136.96Y-114.14
X137.06Y-29.86
X137.98Y-110.14
X138.08Y-25.86
X139.0Y-114.14
X139.1Y-29.86
X140.12Y-25.86
X141.14Y-29.86
X158.0Y-47.0
X158.0Y-49.0
X158.0Y-78.0
X158.0Y-80.0
X160.0Y-47.0
X160.0Y-49.0
X160.0Y-78.0
X160.0Y-80.0
X162.0Y-47.0
X162.0Y-49.0
X162.0Y-78.0
X162.0Y-80.0
X164.0Y-47.0
X164.0Y-49.0
X164.0Y-78.0
X164.0Y-80.0
X166.0Y-47.0
X166.0Y-49.0
X166.0Y-78.0
X166.0Y-80.0
X168.0Y-47.0
X168.0Y-49.0
X168.0Y-78.0
X168.0Y-80.0
T6
X28.0Y-66.0
X28.0Y-69.0
T5
G00X32.03Y-116.99
M15
G01X32.03Y-115.99
M16
G05
G00X34.17Y-23.01
M15
G01X34.17Y-24.01
M16
G05
G00X46.83Y-116.99
M15
G01X46.83Y-115.99
M16
G05
G00X48.97Y-23.01
M15
G01X48.97Y-24.01
M16
G05
G00X64.03Y-116.99
M15
G01X64.03Y-115.99
M16
G05
G00X66.17Y-23.01
M15
G01X66.17Y-24.01
M16
G05
G00X78.83Y-116.99
M15
G01X78.83Y-115.99
M16
G05
G00X80.97Y-23.01
M15
G01X80.97Y-24.01
M16
G05
G00X96.03Y-116.99
M15
G01X96.03Y-115.99
M16
G05
G00X98.17Y-23.01
M15
G01X98.17Y-24.01
M16
G05
G00X110.83Y-116.99
M15
G01X110.83Y-115.99
M16
G05
G00X112.97Y-23.01
M15
G01X112.97Y-24.01
M16
G05
G00X128.03Y-116.99
M15
G01X128.03Y-115.99
M16
G05
G00X130.17Y-23.01
M15
G01X130.17Y-24.01
M16
G05
G00X142.83Y-116.99
M15
G01X142.83Y-115.99
M16
G05
G00X144.97Y-23.01
M15
G01X144.97Y-24.01
M16
G05
M30
