ISO-10303-21;
HEADER;
/* C_Rect_L7.2mm_W5.0mm_P5.00mm.step 3D STEP model for use in ECAD systems
 * Copyright (C) 2026, KiCAD
 *
 * This work is licensed under the
 * [Creative Commons CC-BY-SA 4.0 License](https://creativecommons.org/licenses/by-sa/4.0/legalcode),
 * with the following exception:
 *
 * To the extent that the creation of electronic designs that use 'Licensed Material' can be
 * considered to be 'Adapted Material', then the copyright holder waives article 3 of the license
 * with respect to these designs and any generated files which use data provided as part of the
 * 'Licensed Material'.
 *
 * You are free to use the library data in your own projects without the obligation to share your
 * project files under this or any other license agreement. However, if you wish to distribute
 * these libraries, or parts thereof (including in modified form) as a collection then the exception
 * above does not apply. Please refer to
 * https://gitlab.com/kicad/libraries/kicad-packages3D/-/blob/master/LICENSE.md for further clarification
 * of the exception.
 *
 * Disclaimer of Warranties and Limitation of Liability.
 * These libraries are provided in the hope that they will be useful, but are provided without warranty of any kind, express or implied.
 * USE 3D CAD DATA AT YOUR OWN RISK
 * DO NOT RELY UPON ANY INFORMATION FOUND HERE WITHOUT INDEPENDENT VERIFICATION.
 */

FILE_DESCRIPTION(
/* description */ ('model of C_Rect_L7.2mm_W5.0mm_P5.00mm'),
/* implementation_level */ '2;1');

FILE_NAME(
/* name */ 'C_Rect_L7.2mm_W5.0mm_P5.00mm.step',
/* time_stamp */ '1970-01-01T00:00:00',
/* author */ ('KiCAD','kicad'),
/* organization */ ('OCCT'),
/* preprocessor_version */ '',
/* originating_system */ 'KiCAD',
/* authorisation */ '');

FILE_SCHEMA(('AUTOMOTIVE_DESIGN { 1 0 10303 214 1 1 1 1 }'));
ENDSEC;

DATA;
#1=APPLICATION_PROTOCOL_DEFINITION('international standard','automotive_design',2000,#2);
#2=APPLICATION_CONTEXT('core data for automotive mechanical design processes');
#3=SHAPE_DEFINITION_REPRESENTATION(#4,#10);
#4=PRODUCT_DEFINITION_SHAPE('','',#5);
#5=PRODUCT_DEFINITION('design','',#6,#9);
#6=PRODUCT_DEFINITION_FORMATION('','',#7);
#7=PRODUCT('C_Rect_L7.2mm_W5.0mm_P5.00mm','C_Rect_L7.2mm_W5.0mm_P5.00mm','',(#8));
#8=PRODUCT_CONTEXT('',#2,'mechanical');
#9=PRODUCT_DEFINITION_CONTEXT('part definition',#2,'design');
#10=ADVANCED_BREP_SHAPE_REPRESENTATION('',(#11,#15),#387);
#11=AXIS2_PLACEMENT_3D('',#12,#13,#14);
#12=CARTESIAN_POINT('',(0.,0.,0.));
#13=DIRECTION('',(0.,0.,1.));
#14=DIRECTION('',(1.,0.,-0.));
#15=MANIFOLD_SOLID_BREP('',#16);
#16=CLOSED_SHELL('',(#17,#47,#72,#93,#152,#169,#178,#194,#216,#228,#241,#259,#276,#285,#304,#322,#334,#346,#364,#370,#375,#381));
#17=ADVANCED_FACE('',(#18),#44,.F.);
#18=FACE_BOUND('',#19,.F.);
#19=EDGE_LOOP('',(#20,#28,#36,#41));
#20=ORIENTED_EDGE('',*,*,#21,.F.);
#21=EDGE_CURVE('',#22,#24,#26,.T.);
#22=VERTEX_POINT('',#23);
#23=CARTESIAN_POINT('',(-1.1,-2.,0.));
#24=VERTEX_POINT('',#25);
#25=CARTESIAN_POINT('',(-1.1,-2.,9.5));
#26=LINE('',#23,#27);
#27=VECTOR('',#13,1.);
#28=ORIENTED_EDGE('',*,*,#29,.T.);
#29=EDGE_CURVE('',#22,#30,#32,.T.);
#30=VERTEX_POINT('',#31);
#31=CARTESIAN_POINT('',(-1.1,2.,0.));
#32=LINE('',#33,#34);
#33=CARTESIAN_POINT('',(-1.1,-2.5,0.));
#34=VECTOR('',#35,1.);
#35=DIRECTION('',(0.,1.,0.));
#36=ORIENTED_EDGE('',*,*,#37,.T.);
#37=EDGE_CURVE('',#30,#38,#40,.T.);
#38=VERTEX_POINT('',#39);
#39=CARTESIAN_POINT('',(-1.1,2.,9.5));
#40=LINE('',#31,#27);
#41=ORIENTED_EDGE('',*,*,#42,.F.);
#42=EDGE_CURVE('',#24,#38,#43,.T.);
#43=LINE('',#25,#34);
#44=PLANE('',#45);
#45=AXIS2_PLACEMENT_3D('',#33,#46,#13);
#46=DIRECTION('',(1.,0.,0.));
#47=ADVANCED_FACE('',(#48),#69,.T.);
#48=FACE_BOUND('',#49,.T.);
#49=EDGE_LOOP('',(#20,#50,#58,#63));
#50=ORIENTED_EDGE('',*,*,#51,.T.);
#51=EDGE_CURVE('',#22,#52,#54,.T.);
#52=VERTEX_POINT('',#53);
#53=CARTESIAN_POINT('',(-0.6,-2.5,0.));
#54=CIRCLE('',#55,0.5);
#55=AXIS2_PLACEMENT_3D('',#56,#13,#57);
#56=CARTESIAN_POINT('',(-0.6,-2.,0.));
#57=DIRECTION('',(0.,-1.,0.));
#58=ORIENTED_EDGE('',*,*,#59,.T.);
#59=EDGE_CURVE('',#52,#60,#62,.T.);
#60=VERTEX_POINT('',#61);
#61=CARTESIAN_POINT('',(-0.6,-2.5,9.5));
#62=LINE('',#53,#27);
#63=ORIENTED_EDGE('',*,*,#64,.T.);
#64=EDGE_CURVE('',#60,#24,#65,.T.);
#65=CIRCLE('',#66,0.5);
#66=AXIS2_PLACEMENT_3D('',#67,#68,#57);
#67=CARTESIAN_POINT('',(-0.6,-2.,9.5));
#68=DIRECTION('',(-0.,-0.,-1.));
#69=CYLINDRICAL_SURFACE('',#70,0.5);
#70=AXIS2_PLACEMENT_3D('',#56,#13,#71);
#71=DIRECTION('',(-1.,-0.,0.));
#72=ADVANCED_FACE('',(#73),#92,.T.);
#73=FACE_BOUND('',#74,.T.);
#74=EDGE_LOOP('',(#75,#82,#87,#41));
#75=ORIENTED_EDGE('',*,*,#76,.T.);
#76=EDGE_CURVE('',#24,#77,#79,.T.);
#77=VERTEX_POINT('',#78);
#78=CARTESIAN_POINT('',(-0.6,-2.,10.));
#79=CIRCLE('',#80,0.5);
#80=AXIS2_PLACEMENT_3D('',#67,#35,#81);
#81=DIRECTION('',(-1.,0.,0.));
#82=ORIENTED_EDGE('',*,*,#83,.T.);
#83=EDGE_CURVE('',#77,#84,#86,.T.);
#84=VERTEX_POINT('',#85);
#85=CARTESIAN_POINT('',(-0.6,2.,10.));
#86=LINE('',#78,#34);
#87=ORIENTED_EDGE('',*,*,#88,.F.);
#88=EDGE_CURVE('',#38,#84,#89,.T.);
#89=CIRCLE('',#90,0.5);
#90=AXIS2_PLACEMENT_3D('',#91,#35,#81);
#91=CARTESIAN_POINT('',(-0.6,2.,9.5));
#92=CYLINDRICAL_SURFACE('',#80,0.5);
#93=ADVANCED_FACE('',(#94,#134,#141),#150,.F.);
#94=FACE_BOUND('',#95,.F.);
#95=EDGE_LOOP('',(#96,#50,#97,#103,#110,#116,#123,#129));
#96=ORIENTED_EDGE('',*,*,#29,.F.);
#97=ORIENTED_EDGE('',*,*,#98,.T.);
#98=EDGE_CURVE('',#52,#99,#101,.T.);
#99=VERTEX_POINT('',#100);
#100=CARTESIAN_POINT('',(5.6,-2.5,0.));
#101=LINE('',#33,#102);
#102=VECTOR('',#46,1.);
#103=ORIENTED_EDGE('',*,*,#104,.F.);
#104=EDGE_CURVE('',#105,#99,#107,.T.);
#105=VERTEX_POINT('',#106);
#106=CARTESIAN_POINT('',(6.1,-2.,0.));
#107=CIRCLE('',#108,0.5);
#108=AXIS2_PLACEMENT_3D('',#109,#68,#57);
#109=CARTESIAN_POINT('',(5.6,-2.,0.));
#110=ORIENTED_EDGE('',*,*,#111,.T.);
#111=EDGE_CURVE('',#105,#112,#114,.T.);
#112=VERTEX_POINT('',#113);
#113=CARTESIAN_POINT('',(6.1,2.,0.));
#114=LINE('',#115,#34);
#115=CARTESIAN_POINT('',(6.1,-2.5,0.));
#116=ORIENTED_EDGE('',*,*,#117,.T.);
#117=EDGE_CURVE('',#112,#118,#120,.T.);
#118=VERTEX_POINT('',#119);
#119=CARTESIAN_POINT('',(5.6,2.5,0.));
#120=CIRCLE('',#121,0.5);
#121=AXIS2_PLACEMENT_3D('',#122,#13,#57);
#122=CARTESIAN_POINT('',(5.6,2.,0.));
#123=ORIENTED_EDGE('',*,*,#124,.F.);
#124=EDGE_CURVE('',#125,#118,#127,.T.);
#125=VERTEX_POINT('',#126);
#126=CARTESIAN_POINT('',(-0.6,2.5,0.));
#127=LINE('',#128,#102);
#128=CARTESIAN_POINT('',(-1.1,2.5,0.));
#129=ORIENTED_EDGE('',*,*,#130,.F.);
#130=EDGE_CURVE('',#30,#125,#131,.T.);
#131=CIRCLE('',#132,0.5);
#132=AXIS2_PLACEMENT_3D('',#133,#68,#57);
#133=CARTESIAN_POINT('',(-0.6,2.,0.));
#134=FACE_BOUND('',#135,.F.);
#135=EDGE_LOOP('',(#136));
#136=ORIENTED_EDGE('',*,*,#137,.F.);
#137=EDGE_CURVE('',#138,#138,#140,.T.);
#138=VERTEX_POINT('',#139);
#139=CARTESIAN_POINT('',(0.25,0.,0.));
#140=CIRCLE('',#11,0.25);
#141=FACE_BOUND('',#142,.F.);
#142=EDGE_LOOP('',(#143));
#143=ORIENTED_EDGE('',*,*,#144,.F.);
#144=EDGE_CURVE('',#145,#145,#147,.T.);
#145=VERTEX_POINT('',#146);
#146=CARTESIAN_POINT('',(5.25,0.,0.));
#147=CIRCLE('',#148,0.25);
#148=AXIS2_PLACEMENT_3D('',#149,#13,#14);
#149=CARTESIAN_POINT('',(5.,0.,0.));
#150=PLANE('',#151);
#151=AXIS2_PLACEMENT_3D('',#33,#13,#46);
#152=ADVANCED_FACE('',(#153),#167,.T.);
#153=FACE_BOUND('',#154,.F.);
#154=EDGE_LOOP('',(#155,#156,#157,#162));
#155=ORIENTED_EDGE('',*,*,#37,.F.);
#156=ORIENTED_EDGE('',*,*,#130,.T.);
#157=ORIENTED_EDGE('',*,*,#158,.T.);
#158=EDGE_CURVE('',#125,#159,#161,.T.);
#159=VERTEX_POINT('',#160);
#160=CARTESIAN_POINT('',(-0.6,2.5,9.5));
#161=LINE('',#126,#27);
#162=ORIENTED_EDGE('',*,*,#163,.F.);
#163=EDGE_CURVE('',#38,#159,#164,.T.);
#164=CIRCLE('',#165,0.5);
#165=AXIS2_PLACEMENT_3D('',#91,#166,#81);
#166=DIRECTION('',(-0.,0.,-1.));
#167=CYLINDRICAL_SURFACE('',#168,0.5);
#168=AXIS2_PLACEMENT_3D('',#133,#13,#71);
#169=ADVANCED_FACE('',(#170),#176,.T.);
#170=FACE_BOUND('',#171,.F.);
#171=EDGE_LOOP('',(#172,#63,#75));
#172=ORIENTED_EDGE('',*,*,#173,.F.);
#173=EDGE_CURVE('',#60,#77,#174,.T.);
#174=CIRCLE('',#175,0.5);
#175=AXIS2_PLACEMENT_3D('',#67,#71,#57);
#176=SPHERICAL_SURFACE('',#177,0.5);
#177=AXIS2_PLACEMENT_3D('',#67,#13,#57);
#178=ADVANCED_FACE('',(#179),#192,.F.);
#179=FACE_BOUND('',#180,.F.);
#180=EDGE_LOOP('',(#58,#181,#188,#191));
#181=ORIENTED_EDGE('',*,*,#182,.F.);
#182=EDGE_CURVE('',#183,#60,#185,.T.);
#183=VERTEX_POINT('',#184);
#184=CARTESIAN_POINT('',(5.6,-2.5,9.5));
#185=LINE('',#184,#186);
#186=VECTOR('',#187,1.);
#187=DIRECTION('',(-1.,-0.,-0.));
#188=ORIENTED_EDGE('',*,*,#189,.F.);
#189=EDGE_CURVE('',#99,#183,#190,.T.);
#190=LINE('',#100,#27);
#191=ORIENTED_EDGE('',*,*,#98,.F.);
#192=PLANE('',#193);
#193=AXIS2_PLACEMENT_3D('',#33,#35,#13);
#194=ADVANCED_FACE('',(#195),#213,.T.);
#195=FACE_BOUND('',#196,.T.);
#196=EDGE_LOOP('',(#197,#198,#203,#210));
#197=ORIENTED_EDGE('',*,*,#83,.F.);
#198=ORIENTED_EDGE('',*,*,#199,.F.);
#199=EDGE_CURVE('',#200,#77,#202,.T.);
#200=VERTEX_POINT('',#201);
#201=CARTESIAN_POINT('',(5.6,-2.,10.));
#202=LINE('',#201,#186);
#203=ORIENTED_EDGE('',*,*,#204,.F.);
#204=EDGE_CURVE('',#205,#200,#207,.T.);
#205=VERTEX_POINT('',#206);
#206=CARTESIAN_POINT('',(5.6,2.,10.));
#207=LINE('',#206,#208);
#208=VECTOR('',#209,1.);
#209=DIRECTION('',(-0.,-1.,-0.));
#210=ORIENTED_EDGE('',*,*,#211,.F.);
#211=EDGE_CURVE('',#84,#205,#212,.T.);
#212=LINE('',#85,#102);
#213=PLANE('',#214);
#214=AXIS2_PLACEMENT_3D('',#215,#13,#46);
#215=CARTESIAN_POINT('',(-1.1,-2.5,10.));
#216=ADVANCED_FACE('',(#217),#226,.T.);
#217=FACE_BOUND('',#218,.F.);
#218=EDGE_LOOP('',(#87,#219,#220));
#219=ORIENTED_EDGE('',*,*,#163,.T.);
#220=ORIENTED_EDGE('',*,*,#221,.T.);
#221=EDGE_CURVE('',#159,#84,#222,.T.);
#222=CIRCLE('',#223,0.5);
#223=AXIS2_PLACEMENT_3D('',#91,#224,#225);
#224=DIRECTION('',(1.,6.123233995737E-17,-0.));
#225=DIRECTION('',(-6.123233995737E-17,1.,0.));
#226=SPHERICAL_SURFACE('',#227,0.5);
#227=AXIS2_PLACEMENT_3D('',#91,#13,#81);
#228=ADVANCED_FACE('',(#229),#239,.T.);
#229=FACE_BOUND('',#230,.T.);
#230=EDGE_LOOP('',(#157,#231,#236,#123));
#231=ORIENTED_EDGE('',*,*,#232,.T.);
#232=EDGE_CURVE('',#159,#233,#235,.T.);
#233=VERTEX_POINT('',#234);
#234=CARTESIAN_POINT('',(5.6,2.5,9.5));
#235=LINE('',#160,#102);
#236=ORIENTED_EDGE('',*,*,#237,.F.);
#237=EDGE_CURVE('',#118,#233,#238,.T.);
#238=LINE('',#119,#27);
#239=PLANE('',#240);
#240=AXIS2_PLACEMENT_3D('',#128,#35,#13);
#241=ADVANCED_FACE('',(#242),#257,.T.);
#242=FACE_BOUND('',#243,.F.);
#243=EDGE_LOOP('',(#244,#249,#250,#251));
#244=ORIENTED_EDGE('',*,*,#245,.F.);
#245=EDGE_CURVE('',#105,#246,#248,.T.);
#246=VERTEX_POINT('',#247);
#247=CARTESIAN_POINT('',(6.1,-2.,9.5));
#248=LINE('',#106,#27);
#249=ORIENTED_EDGE('',*,*,#104,.T.);
#250=ORIENTED_EDGE('',*,*,#189,.T.);
#251=ORIENTED_EDGE('',*,*,#252,.F.);
#252=EDGE_CURVE('',#246,#183,#253,.T.);
#253=CIRCLE('',#254,0.5);
#254=AXIS2_PLACEMENT_3D('',#255,#256,#14);
#255=CARTESIAN_POINT('',(5.6,-2.,9.5));
#256=DIRECTION('',(0.,-0.,-1.));
#257=CYLINDRICAL_SURFACE('',#258,0.5);
#258=AXIS2_PLACEMENT_3D('',#109,#13,#14);
#259=ADVANCED_FACE('',(#260),#274,.T.);
#260=FACE_BOUND('',#261,.T.);
#261=EDGE_LOOP('',(#262,#116,#267,#268));
#262=ORIENTED_EDGE('',*,*,#263,.F.);
#263=EDGE_CURVE('',#112,#264,#266,.T.);
#264=VERTEX_POINT('',#265);
#265=CARTESIAN_POINT('',(6.1,2.,9.5));
#266=LINE('',#113,#27);
#267=ORIENTED_EDGE('',*,*,#237,.T.);
#268=ORIENTED_EDGE('',*,*,#269,.T.);
#269=EDGE_CURVE('',#233,#264,#270,.T.);
#270=CIRCLE('',#271,0.5);
#271=AXIS2_PLACEMENT_3D('',#272,#256,#273);
#272=CARTESIAN_POINT('',(5.6,2.,9.5));
#273=DIRECTION('',(0.,1.,-0.));
#274=CYLINDRICAL_SURFACE('',#275,0.5);
#275=AXIS2_PLACEMENT_3D('',#122,#13,#14);
#276=ADVANCED_FACE('',(#277),#283,.T.);
#277=FACE_BOUND('',#278,.T.);
#278=EDGE_LOOP('',(#244,#110,#279,#280));
#279=ORIENTED_EDGE('',*,*,#263,.T.);
#280=ORIENTED_EDGE('',*,*,#281,.T.);
#281=EDGE_CURVE('',#264,#246,#282,.T.);
#282=LINE('',#265,#208);
#283=PLANE('',#284);
#284=AXIS2_PLACEMENT_3D('',#115,#46,#13);
#285=ADVANCED_FACE('',(#286),#301,.T.);
#286=FACE_BOUND('',#287,.T.);
#287=EDGE_LOOP('',(#136,#288,#295,#300));
#288=ORIENTED_EDGE('',*,*,#289,.T.);
#289=EDGE_CURVE('',#138,#290,#292,.T.);
#290=VERTEX_POINT('',#291);
#291=CARTESIAN_POINT('',(0.25,0.,-3.9));
#292=LINE('',#293,#294);
#293=CARTESIAN_POINT('',(0.25,0.,0.1));
#294=VECTOR('',#68,1.);
#295=ORIENTED_EDGE('',*,*,#296,.T.);
#296=EDGE_CURVE('',#290,#290,#297,.T.);
#297=CIRCLE('',#298,0.25);
#298=AXIS2_PLACEMENT_3D('',#299,#13,#46);
#299=CARTESIAN_POINT('',(0.,0.,-3.9));
#300=ORIENTED_EDGE('',*,*,#289,.F.);
#301=CYLINDRICAL_SURFACE('',#302,0.25);
#302=AXIS2_PLACEMENT_3D('',#303,#13,#46);
#303=CARTESIAN_POINT('',(0.,0.,0.1));
#304=ADVANCED_FACE('',(#305),#319,.T.);
#305=FACE_BOUND('',#306,.T.);
#306=EDGE_LOOP('',(#143,#307,#313,#318));
#307=ORIENTED_EDGE('',*,*,#308,.T.);
#308=EDGE_CURVE('',#145,#309,#311,.T.);
#309=VERTEX_POINT('',#310);
#310=CARTESIAN_POINT('',(5.25,0.,-3.9));
#311=LINE('',#312,#294);
#312=CARTESIAN_POINT('',(5.25,0.,0.1));
#313=ORIENTED_EDGE('',*,*,#314,.T.);
#314=EDGE_CURVE('',#309,#309,#315,.T.);
#315=CIRCLE('',#316,0.25);
#316=AXIS2_PLACEMENT_3D('',#317,#13,#46);
#317=CARTESIAN_POINT('',(5.,0.,-3.9));
#318=ORIENTED_EDGE('',*,*,#308,.F.);
#319=CYLINDRICAL_SURFACE('',#320,0.25);
#320=AXIS2_PLACEMENT_3D('',#321,#13,#46);
#321=CARTESIAN_POINT('',(5.,0.,0.1));
#322=ADVANCED_FACE('',(#323),#332,.T.);
#323=FACE_BOUND('',#324,.T.);
#324=EDGE_LOOP('',(#325,#331,#172,#181));
#325=ORIENTED_EDGE('',*,*,#326,.T.);
#326=EDGE_CURVE('',#183,#200,#327,.T.);
#327=CIRCLE('',#328,0.5);
#328=AXIS2_PLACEMENT_3D('',#255,#329,#330);
#329=DIRECTION('',(-1.,-6.123233995737E-17,0.));
#330=DIRECTION('',(6.123233995737E-17,-1.,-0.));
#331=ORIENTED_EDGE('',*,*,#199,.T.);
#332=CYLINDRICAL_SURFACE('',#333,0.5);
#333=AXIS2_PLACEMENT_3D('',#255,#187,#57);
#334=ADVANCED_FACE('',(#335),#344,.T.);
#335=FACE_BOUND('',#336,.T.);
#336=EDGE_LOOP('',(#220,#337,#338,#343));
#337=ORIENTED_EDGE('',*,*,#211,.T.);
#338=ORIENTED_EDGE('',*,*,#339,.F.);
#339=EDGE_CURVE('',#233,#205,#340,.T.);
#340=CIRCLE('',#341,0.5);
#341=AXIS2_PLACEMENT_3D('',#272,#46,#342);
#342=DIRECTION('',(-0.,1.,0.));
#343=ORIENTED_EDGE('',*,*,#232,.F.);
#344=CYLINDRICAL_SURFACE('',#345,0.5);
#345=AXIS2_PLACEMENT_3D('',#91,#46,#342);
#346=ADVANCED_FACE('',(#347),#362,.T.);
#347=FACE_BOUND('',#348,.T.);
#348=EDGE_LOOP('',(#349,#355,#356,#361));
#349=ORIENTED_EDGE('',*,*,#350,.T.);
#350=EDGE_CURVE('',#264,#205,#351,.T.);
#351=CIRCLE('',#352,0.5);
#352=AXIS2_PLACEMENT_3D('',#272,#353,#354);
#353=DIRECTION('',(6.123233995737E-17,-1.,0.));
#354=DIRECTION('',(1.,6.123233995737E-17,0.));
#355=ORIENTED_EDGE('',*,*,#204,.T.);
#356=ORIENTED_EDGE('',*,*,#357,.F.);
#357=EDGE_CURVE('',#246,#200,#358,.T.);
#358=CIRCLE('',#359,0.5);
#359=AXIS2_PLACEMENT_3D('',#255,#360,#14);
#360=DIRECTION('',(0.,-1.,-0.));
#361=ORIENTED_EDGE('',*,*,#281,.F.);
#362=CYLINDRICAL_SURFACE('',#363,0.5);
#363=AXIS2_PLACEMENT_3D('',#272,#209,#14);
#364=ADVANCED_FACE('',(#365),#368,.T.);
#365=FACE_BOUND('',#366,.F.);
#366=EDGE_LOOP('',(#356,#367,#325));
#367=ORIENTED_EDGE('',*,*,#252,.T.);
#368=SPHERICAL_SURFACE('',#369,0.5);
#369=AXIS2_PLACEMENT_3D('',#255,#13,#14);
#370=ADVANCED_FACE('',(#371),#373,.T.);
#371=FACE_BOUND('',#372,.F.);
#372=EDGE_LOOP('',(#338,#268,#349));
#373=SPHERICAL_SURFACE('',#374,0.5);
#374=AXIS2_PLACEMENT_3D('',#272,#13,#273);
#375=ADVANCED_FACE('',(#376),#378,.F.);
#376=FACE_BOUND('',#377,.F.);
#377=EDGE_LOOP('',(#295));
#378=PLANE('',#379);
#379=AXIS2_PLACEMENT_3D('',#380,#13,#14);
#380=CARTESIAN_POINT('',(-4.440892098501E-16,2.18439881135E-17,-3.9));
#381=ADVANCED_FACE('',(#382),#384,.F.);
#382=FACE_BOUND('',#383,.F.);
#383=EDGE_LOOP('',(#313));
#384=PLANE('',#385);
#385=AXIS2_PLACEMENT_3D('',#386,#13,#14);
#386=CARTESIAN_POINT('',(5.,2.18439881135E-17,-3.9));
#387=( GEOMETRIC_REPRESENTATION_CONTEXT(3) GLOBAL_UNCERTAINTY_ASSIGNED_CONTEXT((#391)) GLOBAL_UNIT_ASSIGNED_CONTEXT((#388,#389,#390)) REPRESENTATION_CONTEXT('Context #1','3D Context with UNIT and UNCERTAINTY') );
#388=( LENGTH_UNIT() NAMED_UNIT(*) SI_UNIT(.MILLI.,.METRE.) );
#389=( NAMED_UNIT(*) PLANE_ANGLE_UNIT() SI_UNIT($,.RADIAN.) );
#390=( NAMED_UNIT(*) SI_UNIT($,.STERADIAN.) SOLID_ANGLE_UNIT() );
#391=UNCERTAINTY_MEASURE_WITH_UNIT(LENGTH_MEASURE(1.E-07),#388,'distance_accuracy_value','confusion accuracy');
#392=PRODUCT_RELATED_PRODUCT_CATEGORY('part',$,(#7));
#393=MECHANICAL_DESIGN_GEOMETRIC_PRESENTATION_REPRESENTATION('',(#394,#404,#405,#406,#407,#416,#417,#418,#419,#420,#421,#422,#423,#424,#425,#426,#427,#428,#429,#430,#431,#432,#433,#434),#387);
#394=STYLED_ITEM('color',(#395),#17);
#395=PRESENTATION_STYLE_ASSIGNMENT((#396,#402));
#396=SURFACE_STYLE_USAGE(.BOTH.,#397);
#397=SURFACE_SIDE_STYLE('',(#398));
#398=SURFACE_STYLE_FILL_AREA(#399);
#399=FILL_AREA_STYLE('',(#400));
#400=FILL_AREA_STYLE_COLOUR('',#401);
#401=COLOUR_RGB('',0.894999996726,0.890999991539,0.812999995914);
#402=CURVE_STYLE('',#403,POSITIVE_LENGTH_MEASURE(0.1),#401);
#403=DRAUGHTING_PRE_DEFINED_CURVE_FONT('continuous');
#404=STYLED_ITEM('color',(#395),#47);
#405=STYLED_ITEM('color',(#395),#72);
#406=STYLED_ITEM('color',(#395),#93);
#407=OVER_RIDING_STYLED_ITEM('overriding color',(#408),#137,#406);
#408=PRESENTATION_STYLE_ASSIGNMENT((#409,#415));
#409=SURFACE_STYLE_USAGE(.BOTH.,#410);
#410=SURFACE_SIDE_STYLE('',(#411));
#411=SURFACE_STYLE_FILL_AREA(#412);
#412=FILL_AREA_STYLE('',(#413));
#413=FILL_AREA_STYLE_COLOUR('',#414);
#414=COLOUR_RGB('',0.823999987314,0.819999987296,0.781000009244);
#415=CURVE_STYLE('',#403,POSITIVE_LENGTH_MEASURE(0.1),#414);
#416=OVER_RIDING_STYLED_ITEM('overriding color',(#408),#144,#406);
#417=STYLED_ITEM('color',(#395),#152);
#418=STYLED_ITEM('color',(#395),#169);
#419=STYLED_ITEM('color',(#395),#178);
#420=STYLED_ITEM('color',(#395),#194);
#421=STYLED_ITEM('color',(#395),#216);
#422=STYLED_ITEM('color',(#395),#228);
#423=STYLED_ITEM('color',(#395),#241);
#424=STYLED_ITEM('color',(#395),#259);
#425=STYLED_ITEM('color',(#395),#276);
#426=STYLED_ITEM('color',(#408),#285);
#427=STYLED_ITEM('color',(#408),#304);
#428=STYLED_ITEM('color',(#395),#322);
#429=STYLED_ITEM('color',(#395),#334);
#430=STYLED_ITEM('color',(#395),#346);
#431=STYLED_ITEM('color',(#395),#364);
#432=STYLED_ITEM('color',(#395),#370);
#433=STYLED_ITEM('color',(#408),#375);
#434=STYLED_ITEM('color',(#408),#381);
ENDSEC;
END-ISO-10303-21;
