M48
; DRILL file KiCad 10.0.4-10.0.4~ubuntu24.04.1 date 2026-09-16T08:30:16
; FORMAT={-:-/ absolute / metric / decimal}
; #@! TF.CreationDate,2026-09-16T08:30:16-07:00
; #@! TF.GenerationSoftware,Kicad,Pcbnew,10.0.4-10.0.4~ubuntu24.04.1
; #@! TF.FileFunction,Plated,1,2,PTH
FMAT,2
METRIC
; #@! TA.AperFunction,Plated,PTH,ViaDrill
T1C0.300
; #@! TA.AperFunction,Plated,PTH,ComponentDrill
T2C0.800
; #@! TA.AperFunction,Plated,PTH,ComponentDrill
T3C1.000
; #@! TA.AperFunction,Plated,PTH,ComponentDrill
T4C1.200
%
G90
G05
T1
X28.81Y-45.67
X28.95Y-41.15
X29.31Y-48.0
X29.5Y-42.8
X29.62Y-50.24
X30.0Y-23.0
X30.0Y-30.0
X30.0Y-37.0
X32.03Y-45.12
X32.03Y-47.92
X33.6Y-39.73
X36.22Y-40.54
X36.7Y-45.0
X36.98Y-47.15
X37.0Y-23.0
X37.0Y-30.0
X37.0Y-37.0
X37.0Y-42.85
X37.0Y-44.0
X37.0Y-51.5
X37.46Y-48.61
X37.7Y-33.5
X39.0Y-49.2
X39.3Y-35.1
X44.0Y-37.0
X44.0Y-51.0
X45.46Y-46.61
X46.5Y-56.0
X47.288Y-33.4
X50.48Y-45.55
X51.0Y-44.0
X51.0Y-53.1
X52.2Y-51.8
X52.5Y-46.5
X52.63Y-49.92
X53.7Y-49.0
X55.0Y-36.0
X55.0Y-37.5
X55.3Y-42.1
X56.3Y-52.3
X56.9Y-42.1
X58.0Y-51.0
X61.2Y-41.0
X61.5Y-52.1
X61.7Y-49.0
X65.0Y-23.0
X65.0Y-30.0
X65.1Y-43.4
X66.0Y-39.0
X67.0Y-42.7
X67.1Y-37.9
X71.8Y-34.0
X72.0Y-23.0
X72.0Y-30.0
X72.0Y-37.0
X72.0Y-51.0
T2
X45.5Y-25.86
X46.52Y-29.86
X47.54Y-25.86
X48.56Y-29.86
X49.58Y-25.86
X50.6Y-29.86
X51.62Y-25.86
X52.64Y-29.86
T4
X73.0Y-40.0
X73.0Y-45.0
T3
G00X41.67Y-23.01
M15
G01X41.67Y-24.01
M16
G05
G00X56.47Y-23.01
M15
G01X56.47Y-24.01
M16
G05
M30
