#VRML V2.0 utf8
# 3D model generated by easyeda2kicad.py (https://github.com/uPesy/easyeda2kicad.py)

Shape{
    appearance Appearance {
        material  Material 	{
            diffuseColor 0.2235294117647059 0.2235294117647059 0.2235294117647059
            specularColor 0.11372549019607843 0.11372549019607843 0.11372549019607843
            ambientIntensity 0.2235
            transparency 0.0
            shininess 0.5
        }
    }
    geometry IndexedFaceSet {
        ccw TRUE
        solid FALSE
        coord DEF co Coordinate {
            point [
                -0.1969 -0.2421 0.0118, -0.1969 -0.1518 0.0118, 0.039 -0.1518 0.0118, 0.2165 -0.315 0.0118, 0.039 -0.315 0.0118, 0.2362 -0.2953 0.0118, 0.0651 -0.0803 0.0118, 0.0729 -0.0812 0.0118, 0.0481 -0.1394 0.0118, 0.2362 0.2953 0.0118, 0.2362 0.2421 0.0118, 0.1969 0.2421 0.0118, 0.0467 -0.1386 0.0118, 0.0467 -0.1473 0.0118, 0.0551 -0.1507 0.0118, 0.0555 -0.0815 0.0118, 0.0467 -0.0853 0.0118, 0.039 0.315 0.0118, 0.0467 -0.0748 0.0118, 0.0558 -0.0723 0.0118, 0.1969 0.1516 0.0118, 0.2165 0.315 0.0118, 0.2209 0.3145 0.0118, 0.2288 0.3107 0.0118, 0.2319 0.3075 0.0118, 0.2343 0.3038 0.0118, 0.2362 0.1516 0.0118, 0.2362 -0.1516 0.0118, 0.1969 -0.1516 0.0118, 0.0921 -0.1446 0.0118, 0.098 -0.1384 0.0118, 0.112 -0.1514 0.0118, 0.2251 0.313 0.0118, 0.2357 0.2997 0.0118, 0.1013 -0.0938 0.0118, 0.0967 -0.0863 0.0118, 0.1417 -0.0726 0.0118, 0.0898 -0.0794 0.0118, 0.073 -0.1518 0.0118, 0.1523 -0.1514 0.0118, 0.0788 -0.0833 0.0118, 0.0842 -0.0869 0.0118, 0.089 -0.0922 0.0118, 0.0947 -0.1128 0.0118, 0.0939 -0.1214 0.0118, 0.0917 -0.1282 0.0118, 0.0743 -0.1428 0.0118, 0.0669 -0.1437 0.0118, 0.08 -0.1407 0.0118, 0.0849 -0.1374 0.0118, 0.0885 -0.1336 0.0118, 0.0564 -0.1425 0.0118, 0.0922 -0.0983 0.0118, 0.0943 -0.1067 0.0118, 0.112 -0.1427 0.0118, 0.1021 -0.1309 0.0118, 0.1417 -0.1427 0.0118, 0.0823 -0.075 0.0118, 0.0735 -0.0724 0.0118, 0.0652 -0.0717 0.0118, 0.078 -0.1513 0.0118, 0.0857 -0.1487 0.0118, 0.1045 -0.1225 0.0118, 0.1053 -0.1135 0.0118, 0.1043 -0.1029 0.0118, 0.2362 -0.2421 0.0118, 0.063 -0.1518 0.0118, 0.0662 -0.1523 0.0118, 0.0683 -0.1523 0.0118, 0.1969 -0.2421 0.0118, 0.1969 -0.1518 0.0118, 0.1523 -0.0726 0.0118, 0.2343 -0.3038 0.0118, 0.2319 -0.3075 0.0118, 0.2209 -0.3145 0.0118, 0.2288 -0.3107 0.0118, 0.2251 -0.313 0.0118, 0.2357 -0.2997 0.0118, -0.2362 -0.2953 0.0118, -0.2362 -0.2421 0.0118, -0.2165 -0.315 0.0118, -0.2209 -0.3145 0.0118, -0.2251 -0.313 0.0118, -0.2288 -0.3107 0.0118, -0.2319 -0.3075 0.0118, -0.2357 -0.2997 0.0118, -0.2343 -0.3038 0.0118, -0.1665 -0.1514 0.0118, -0.155 -0.1514 0.0118, 0.0313 -0.0726 0.0118, -0.1969 0.0453 0.0118, -0.2362 0.0453 0.0118, -0.2362 0.1516 0.0118, -0.0859 -0.1295 0.0118, -0.0814 -0.1366 0.0118, -0.0954 -0.1514 0.0118, -0.075 -0.1429 0.0118, -0.009 -0.0726 0.0118, -0.1969 0.1516 0.0118, -0.1969 0.2421 0.0118, -0.2165 0.315 0.0118, 0.0208 -0.0813 0.0118, 0.0208 -0.1072 0.0118, -0.009 -0.0813 0.0118, -0.0071 -0.1072 0.0118, -0.0263 -0.0726 0.0118, 0.0208 -0.1158 0.0118, 0.0208 -0.1427 0.0118, -0.0071 -0.1158 0.0118, -0.0109 -0.1427 0.0118, -0.0668 -0.1477 0.0118, -0.0578 -0.1505 0.0118, -0.0477 -0.1514 0.0118, -0.2362 0.2421 0.0118, -0.2362 0.2953 0.0118, -0.2357 0.2997 0.0118, -0.1358 -0.0726 0.0118, -0.1969 -0.1516 0.0118, -0.1969 -0.0453 0.0118, -0.2362 -0.1516 0.0118, -0.2362 -0.0453 0.0118, -0.147 -0.1293 0.0118, -0.1145 -0.1293 0.0118, -0.107 -0.1514 0.0118, -0.0263 -0.1514 0.0118, -0.2288 0.3107 0.0118, -0.2209 0.3145 0.0118, -0.2251 0.313 0.0118, -0.0109 -0.1514 0.0118, 0.0313 -0.1514 0.0118, -0.2343 0.3038 0.0118, -0.2319 0.3075 0.0118, -0.1252 -0.0726 0.0118, -0.0855 -0.0926 0.0118, -0.0884 -0.1003 0.0118, -0.0685 -0.0768 0.0118, -0.0593 -0.0737 0.0118, -0.0485 -0.0726 0.0118, -0.0897 -0.1105 0.0118, -0.0897 -0.111 0.0118, -0.0886 -0.1213 0.0118, -0.0765 -0.0818 0.0118, -0.0811 -0.0862 0.0118, 0.2279 0.3108 0.0142, 0.2285 0.3103 0.0142, 0.2354 0.2995 0.0138, 0.2359 0.2966 0.0136, 0.2359 0.2953 0.0135, 0.2339 0.3036 0.0141, 0.234 0.3035 0.0141, 0.2351 0.3002 0.0139, 0.2354 0.2996 0.0138, 0.2315 0.3072 0.0142, 0.2328 0.3056 0.0141, 0.2332 0.3049 0.0141, 0.2302 0.3089 0.0142, 0.2261 0.3119 0.0141, 0.2249 0.3126 0.014, 0.2208 0.314 0.0138, 0.2215 0.3139 0.0139, 0.2221 0.3138 0.0139, 0.2243 0.313 0.014, 0.2179 0.3146 0.0136, 0.2165 0.3147 0.0135, -0.2165 0.3147 0.0135, 0.1781 0.2762 0.2318, -0.1781 0.2762 0.2318, -0.2321 0.3067 0.0142, -0.2316 0.3073 0.0142, -0.2208 0.3141 0.0138, -0.2179 0.3146 0.0136, -0.2249 0.3126 0.0141, -0.2248 0.3127 0.0141, -0.2215 0.3139 0.0139, -0.2208 0.3141 0.0138, -0.2285 0.3103 0.0142, -0.2268 0.3116 0.0141, -0.2262 0.312 0.0141, -0.2302 0.3089 0.0142, -0.2331 0.3048 0.0141, -0.2339 0.3036 0.014, -0.2353 0.2996 0.0138, -0.2351 0.3003 0.0139, -0.235 0.3008 0.0139, -0.2342 0.303 0.014, -0.2359 0.2966 0.0136, -0.2359 0.2953 0.0135, -0.2293 -0.2421 0.0512, -0.2293 0.1516 0.0512, -0.2293 -0.0453 0.0512, -0.2293 -0.1516 0.0512, -0.2293 0.0453 0.0512, -0.1974 0.2568 0.2318, -0.2293 0.2421 0.0512, -0.2359 -0.2953 0.0135, -0.1974 -0.2568 0.2318, -0.2279 -0.3108 0.0142, -0.2285 -0.3103 0.0142, -0.2354 -0.2995 0.0138, -0.2359 -0.2966 0.0136, -0.2339 -0.3036 0.0141, -0.234 -0.3035 0.0141, -0.2351 -0.3002 0.0139, -0.2354 -0.2996 0.0138, -0.2315 -0.3072 0.0142, -0.2328 -0.3056 0.0141, -0.2332 -0.3049 0.0141, -0.2302 -0.3089 0.0142, -0.2261 -0.3119 0.0141, -0.2249 -0.3126 0.014, -0.2208 -0.314 0.0138, -0.2215 -0.3139 0.0139, -0.2221 -0.3138 0.0139, -0.2243 -0.313 0.014, -0.2179 -0.3146 0.0136, -0.2165 -0.3147 0.0135, 0.1781 -0.2762 0.2318, 0.2165 -0.3147 0.0135, -0.1781 -0.2762 0.2318, 0.2321 -0.3067 0.0142, 0.2316 -0.3073 0.0142, 0.2208 -0.3141 0.0138, 0.2179 -0.3146 0.0136, 0.2249 -0.3126 0.0141, 0.2248 -0.3127 0.0141, 0.2215 -0.3139 0.0139, 0.2208 -0.3141 0.0138, 0.2285 -0.3103 0.0142, 0.2268 -0.3116 0.0141, 0.2262 -0.312 0.0141, 0.2302 -0.3089 0.0142, 0.2331 -0.3048 0.0141, 0.2339 -0.3036 0.014, 0.2353 -0.2996 0.0138, 0.2351 -0.3003 0.0139, 0.235 -0.3008 0.0139, 0.2342 -0.303 0.014, 0.2359 -0.2966 0.0136, 0.2359 -0.2953 0.0135, 0.2293 0.2421 0.0512, 0.2293 -0.2421 0.0512, 0.1974 -0.2568 0.2318, 0.2293 -0.1516 0.0512, 0.2293 0.1516 0.0512, 0.1974 0.2568 0.2318, 0.1781 -0.2568 0.248, 0.1781 0.2568 0.248, -0.1781 -0.2568 0.248, -0.1781 0.2568 0.248, -0.1946 0.2663 0.233, -0.1966 0.2618 0.2325, -0.1967 0.2617 0.2325, -0.1946 0.2664 0.233, -0.1916 0.2703 0.2331, -0.1876 0.2734 0.233, -0.1876 0.2734 0.233, -0.183 0.2754 0.2325, -0.183 0.2754 0.2325, 0.1781 0.2613 0.2475, 0.1781 0.2749 0.236, -0.1781 0.2749 0.236, 0.1781 0.2749 0.2361, -0.1781 0.2749 0.2361, 0.1781 0.2726 0.24, -0.1781 0.2726 0.24, 0.1781 0.2726 0.2401, -0.1781 0.2726 0.2401, 0.1781 0.2695 0.2434, -0.1781 0.2695 0.2434, 0.1781 0.2694 0.2434, -0.1781 0.2694 0.2434, 0.1781 0.2657 0.2459, -0.1781 0.2657 0.2459, 0.1781 0.2656 0.2459, -0.1781 0.2656 0.2459, 0.1781 0.2614 0.2475, -0.1781 0.2614 0.2475, -0.1781 0.2613 0.2475, 0.1876 0.2734 0.233, 0.183 0.2754 0.2325, 0.183 0.2754 0.2325, 0.1876 0.2734 0.233, 0.1916 0.2703 0.2331, 0.1946 0.2663 0.233, 0.1946 0.2664 0.233, 0.1967 0.2617 0.2325, 0.1966 0.2618 0.2325, -0.1938 0.2568 0.2401, -0.1908 0.2568 0.2434, -0.1903 0.2601 0.2434, -0.1866 0.2591 0.2459, -0.1825 0.258 0.2475, -0.182 0.2591 0.2475, -0.1803 0.2607 0.2475, -0.1813 0.26 0.2475, -0.1792 0.2612 0.2475, -0.1826 0.2568 0.2475, -0.1956 0.2615 0.236, -0.1938 0.2659 0.236, -0.1909 0.2696 0.236, -0.1871 0.2725 0.236, -0.1827 0.2743 0.236, -0.1907 0.2568 0.2434, -0.1869 0.2568 0.2459, -0.1869 0.2568 0.2459, -0.1826 0.2568 0.2475, -0.1857 0.2612 0.2459, -0.1843 0.2631 0.2459, -0.1825 0.2645 0.2459, -0.1804 0.2654 0.2459, -0.1891 0.2631 0.2434, -0.187 0.2658 0.2434, -0.1844 0.2678 0.2434, -0.1813 0.2691 0.2434, -0.1961 0.2568 0.2361, -0.1939 0.2568 0.24, -0.1934 0.2609 0.24, -0.1918 0.2647 0.24, -0.1893 0.268 0.24, -0.186 0.2705 0.24, -0.1822 0.2721 0.24, -0.1962 0.2568 0.236, 0.1813 0.2691 0.2434, 0.1804 0.2654 0.2459, 0.1792 0.2612 0.2475, 0.1803 0.2607 0.2475, 0.182 0.2591 0.2475, 0.1813 0.26 0.2475, 0.1825 0.258 0.2475, 0.1827 0.2743 0.236, 0.1871 0.2725 0.236, 0.1909 0.2696 0.236, 0.1938 0.2659 0.236, 0.1956 0.2615 0.236, 0.1962 0.2568 0.236, 0.1826 0.2568 0.2475, 0.1825 0.2645 0.2459, 0.1843 0.2631 0.2459, 0.1857 0.2612 0.2459, 0.1866 0.2591 0.2459, 0.1826 0.2568 0.2475, 0.1869 0.2568 0.2459, 0.1869 0.2568 0.2459, 0.1907 0.2568 0.2434, 0.1844 0.2678 0.2434, 0.187 0.2658 0.2434, 0.1891 0.2631 0.2434, 0.1903 0.2601 0.2434, 0.1822 0.2721 0.24, 0.186 0.2705 0.24, 0.1893 0.268 0.24, 0.1918 0.2647 0.24, 0.1934 0.2609 0.24, 0.1908 0.2568 0.2434, 0.1938 0.2568 0.2401, 0.1939 0.2568 0.24, 0.1961 0.2568 0.2361, -0.1876 -0.2734 0.233, -0.183 -0.2754 0.2325, -0.183 -0.2754 0.2325, -0.1876 -0.2734 0.233, -0.1916 -0.2703 0.2331, -0.1946 -0.2663 0.233, -0.1946 -0.2664 0.233, -0.1967 -0.2617 0.2325, -0.1966 -0.2618 0.2325, -0.1962 -0.2568 0.236, -0.1961 -0.2568 0.2361, -0.1939 -0.2568 0.24, -0.1938 -0.2568 0.2401, -0.1908 -0.2568 0.2434, -0.1907 -0.2568 0.2434, -0.1869 -0.2568 0.2459, -0.1869 -0.2568 0.2459, -0.1826 -0.2568 0.2475, -0.1826 -0.2568 0.2475, 0.1826 -0.2568 0.2475, 0.1962 -0.2568 0.236, 0.1961 -0.2568 0.2361, 0.1939 -0.2568 0.24, 0.1938 -0.2568 0.2401, 0.1908 -0.2568 0.2434, 0.1907 -0.2568 0.2434, 0.1869 -0.2568 0.2459, 0.1869 -0.2568 0.2459, 0.1826 -0.2568 0.2475, 0.1952 -0.2651 0.2328, 0.1946 -0.2663 0.233, 0.1967 -0.2617 0.2325, 0.1968 -0.2611 0.2324, 0.1929 -0.2686 0.233, 0.1876 -0.2734 0.233, 0.1899 -0.2716 0.233, 0.1916 -0.2703 0.2331, 0.183 -0.2754 0.2325, 0.1863 -0.2739 0.2328, 0.1823 -0.2755 0.2324, -0.1781 -0.2726 0.2401, -0.1781 -0.2695 0.2434, -0.1813 -0.2691 0.2434, -0.1804 -0.2654 0.2459, -0.1792 -0.2612 0.2475, -0.1803 -0.2607 0.2475, -0.182 -0.2591 0.2475, -0.1813 -0.26 0.2475, -0.1825 -0.258 0.2475, -0.1781 -0.2613 0.2475, -0.1827 -0.2743 0.236, -0.1871 -0.2725 0.236, -0.1909 -0.2696 0.236, -0.1938 -0.2659 0.236, -0.1956 -0.2615 0.236, -0.1781 -0.2694 0.2434, -0.1781 -0.2657 0.2459, -0.1781 -0.2656 0.2459, -0.1781 -0.2614 0.2475, -0.1825 -0.2645 0.2459, -0.1843 -0.2631 0.2459, -0.1857 -0.2612 0.2459, -0.1866 -0.2591 0.2459, -0.1844 -0.2678 0.2434, -0.187 -0.2658 0.2434, -0.1891 -0.2631 0.2434, -0.1903 -0.2601 0.2434, -0.1781 -0.2749 0.2361, -0.1781 -0.2726 0.24, -0.1822 -0.2721 0.24, -0.186 -0.2705 0.24, -0.1893 -0.268 0.24, -0.1918 -0.2647 0.24, -0.1934 -0.2609 0.24, -0.1781 -0.2749 0.236, 0.1935 -0.2603 0.24, 0.1904 -0.2596 0.2434, 0.1867 -0.2588 0.2459, 0.1825 -0.2578 0.2475, 0.1822 -0.2588 0.2475, 0.18 -0.2609 0.2475, 0.1809 -0.2604 0.2475, 0.1791 -0.2612 0.2475, 0.1957 -0.2608 0.236, 0.1944 -0.2647 0.236, 0.1922 -0.2681 0.236, 0.1894 -0.271 0.236, 0.1859 -0.2731 0.236, 0.1821 -0.2745 0.236, 0.1781 -0.2749 0.236, 0.1781 -0.2613 0.2475, 0.185 -0.2623 0.2459, 0.1836 -0.2637 0.2459, 0.1819 -0.2648 0.2459, 0.18 -0.2655 0.2459, 0.1861 -0.2606 0.2459, 0.1816 -0.2596 0.2475, 0.1781 -0.2614 0.2475, 0.1781 -0.2656 0.2459, 0.1781 -0.2657 0.2459, 0.1781 -0.2694 0.2434, 0.1895 -0.2623 0.2434, 0.188 -0.2647 0.2434, 0.186 -0.2667 0.2434, 0.1836 -0.2682 0.2434, 0.1809 -0.2692 0.2434, 0.1923 -0.2637 0.24, 0.1904 -0.2667 0.24, 0.1879 -0.2692 0.24, 0.1849 -0.2711 0.24, 0.1816 -0.2722 0.24, 0.1781 -0.2695 0.2434, 0.1781 -0.2726 0.2401, 0.1781 -0.2726 0.24, 0.1781 -0.2749 0.2361
            ]
        }
        coordIndex [
            0,1,2,-1,3,4,5,-1,6,7,8,-1,9,10,11,-1,12,13,2,-1,2,13,14,-1,6,8,15,-1,15,8,12,-1,15,12,16,-1,17,18,16,-1,19,18,20,-1,20,18,17,-1,20,17,11,-1,11,17,21,-1,11,21,9,-1,9,21,22,-1,23,24,25,-1,26,27,28,-1,29,30,31,-1,22,32,9,-1,9,32,23,-1,9,23,33,-1,33,23,25,-1,34,35,36,-1,36,35,37,-1,38,31,39,-1,7,40,8,-1,8,40,41,-1,8,41,42,-1,43,44,8,-1,8,44,45,-1,46,47,48,-1,48,47,49,-1,45,50,8,-1,8,50,49,-1,8,49,51,-1,51,49,47,-1,42,52,8,-1,8,52,53,-1,8,53,43,-1,31,30,54,-1,54,30,55,-1,54,55,56,-1,37,57,36,-1,36,57,58,-1,36,58,59,-1,38,60,31,-1,31,60,61,-1,31,61,29,-1,55,62,56,-1,56,62,63,-1,56,63,36,-1,36,63,64,-1,36,64,34,-1,5,4,65,-1,66,67,4,-1,4,67,68,-1,4,68,38,-1,65,4,69,-1,69,4,38,-1,69,38,70,-1,70,38,39,-1,70,39,28,-1,28,39,71,-1,28,71,26,-1,26,71,36,-1,26,36,20,-1,20,36,59,-1,20,59,19,-1,72,73,74,-1,74,73,75,-1,74,75,76,-1,3,5,74,-1,74,5,77,-1,74,77,72,-1,14,66,2,-1,2,66,4,-1,2,4,0,-1,0,4,78,-1,0,78,79,-1,4,80,78,-1,78,80,81,-1,78,81,82,-1,82,83,78,-1,78,83,84,-1,78,84,85,-1,85,84,86,-1,1,87,88,-1,16,12,17,-1,17,12,2,-1,17,2,89,-1,90,91,92,-1,93,94,95,-1,95,94,96,-1,97,92,89,-1,89,92,98,-1,89,98,17,-1,17,98,99,-1,17,99,100,-1,101,102,103,-1,103,102,104,-1,103,104,105,-1,106,107,108,-1,108,107,109,-1,96,110,95,-1,95,110,111,-1,95,111,112,-1,99,113,100,-1,100,113,114,-1,100,114,115,-1,87,1,116,-1,116,1,117,-1,116,117,118,-1,118,117,119,-1,118,119,120,-1,121,122,88,-1,88,122,123,-1,88,123,1,-1,1,123,95,-1,1,95,2,-1,2,95,112,-1,2,112,124,-1,100,125,126,-1,126,125,127,-1,104,108,105,-1,105,108,109,-1,105,109,124,-1,124,109,128,-1,124,128,2,-1,2,128,129,-1,2,129,89,-1,115,130,100,-1,100,130,131,-1,100,131,125,-1,132,133,134,-1,135,132,136,-1,136,132,137,-1,134,138,132,-1,132,138,139,-1,132,139,95,-1,95,139,140,-1,95,140,93,-1,97,103,92,-1,92,103,105,-1,92,105,90,-1,90,105,137,-1,90,137,118,-1,118,137,132,-1,118,132,116,-1,135,141,132,-1,132,141,142,-1,132,142,133,-1,143,144,23,-1,33,145,9,-1,9,145,146,-1,9,146,147,-1,148,149,25,-1,25,149,150,-1,25,150,33,-1,33,150,151,-1,33,151,145,-1,24,152,153,-1,24,153,25,-1,25,153,154,-1,25,154,148,-1,23,144,24,-1,24,144,155,-1,24,155,152,-1,143,23,156,-1,156,23,32,-1,156,32,157,-1,158,159,22,-1,22,159,160,-1,22,160,32,-1,32,160,161,-1,32,161,157,-1,158,22,162,-1,162,22,21,-1,162,21,163,-1,163,21,17,-1,17,100,164,-1,163,17,165,-1,165,17,164,-1,165,164,166,-1,167,168,131,-1,126,169,100,-1,100,169,170,-1,100,170,164,-1,171,172,127,-1,127,172,173,-1,127,173,126,-1,126,173,174,-1,126,174,169,-1,125,175,176,-1,125,176,127,-1,127,176,177,-1,127,177,171,-1,131,168,125,-1,125,168,178,-1,125,178,175,-1,167,131,179,-1,179,131,130,-1,179,130,180,-1,181,182,115,-1,115,182,183,-1,115,183,130,-1,130,183,184,-1,130,184,180,-1,181,115,185,-1,185,115,114,-1,185,114,186,-1,187,79,78,-1,188,92,91,-1,120,119,189,-1,189,119,190,-1,91,191,188,-1,188,191,192,-1,188,192,193,-1,193,192,186,-1,193,186,113,-1,113,186,114,-1,78,194,187,-1,187,194,195,-1,187,195,190,-1,190,195,192,-1,190,192,189,-1,189,192,191,-1,196,197,83,-1,85,198,78,-1,78,198,199,-1,78,199,194,-1,200,201,86,-1,86,201,202,-1,86,202,85,-1,85,202,203,-1,85,203,198,-1,84,204,205,-1,84,205,86,-1,86,205,206,-1,86,206,200,-1,83,197,84,-1,84,197,207,-1,84,207,204,-1,196,83,208,-1,208,83,82,-1,208,82,209,-1,210,211,81,-1,81,211,212,-1,81,212,82,-1,82,212,213,-1,82,213,209,-1,210,81,214,-1,214,81,80,-1,214,80,215,-1,216,4,217,-1,217,4,3,-1,216,218,4,-1,4,218,215,-1,4,215,80,-1,219,220,73,-1,74,221,3,-1,3,221,222,-1,3,222,217,-1,223,224,76,-1,76,224,225,-1,76,225,74,-1,74,225,226,-1,74,226,221,-1,75,227,228,-1,75,228,76,-1,76,228,229,-1,76,229,223,-1,73,220,75,-1,75,220,230,-1,75,230,227,-1,219,73,231,-1,231,73,72,-1,231,72,232,-1,233,234,77,-1,77,234,235,-1,77,235,72,-1,72,235,236,-1,72,236,232,-1,233,77,237,-1,237,77,5,-1,237,5,238,-1,239,10,9,-1,5,65,238,-1,238,65,240,-1,238,240,241,-1,27,26,242,-1,242,26,243,-1,240,242,241,-1,241,242,243,-1,241,243,244,-1,244,243,239,-1,244,239,147,-1,147,239,9,-1,245,246,247,-1,247,246,248,-1,185,186,192,-1,249,179,180,-1,249,180,250,-1,180,184,250,-1,250,184,183,-1,250,183,251,-1,251,183,182,-1,251,182,192,-1,192,182,181,-1,192,181,185,-1,179,249,167,-1,167,249,252,-1,167,252,168,-1,168,252,253,-1,168,253,178,-1,254,177,255,-1,255,177,176,-1,255,176,253,-1,253,176,175,-1,253,175,178,-1,256,173,257,-1,257,173,172,-1,257,172,254,-1,254,172,171,-1,254,171,177,-1,166,164,256,-1,256,164,170,-1,170,169,256,-1,256,169,174,-1,256,174,173,-1,248,246,258,-1,165,166,259,-1,259,166,260,-1,259,260,261,-1,261,260,262,-1,261,262,263,-1,263,262,264,-1,263,264,265,-1,265,264,266,-1,265,266,267,-1,267,266,268,-1,267,268,269,-1,269,268,270,-1,269,270,271,-1,271,270,272,-1,271,272,273,-1,273,272,274,-1,273,274,275,-1,275,274,276,-1,275,276,258,-1,258,276,277,-1,258,277,248,-1,162,163,165,-1,278,156,157,-1,278,157,279,-1,157,161,279,-1,279,161,160,-1,279,160,280,-1,280,160,159,-1,280,159,165,-1,165,159,158,-1,165,158,162,-1,156,278,143,-1,143,278,281,-1,143,281,144,-1,144,281,282,-1,144,282,155,-1,283,154,284,-1,284,154,153,-1,284,153,282,-1,282,153,152,-1,282,152,155,-1,285,150,286,-1,286,150,149,-1,286,149,283,-1,283,149,148,-1,283,148,154,-1,244,147,285,-1,285,147,146,-1,146,145,285,-1,285,145,151,-1,285,151,150,-1,287,288,289,-1,290,291,292,-1,248,293,294,-1,295,293,248,-1,292,291,248,-1,296,248,291,-1,297,250,251,-1,250,297,249,-1,249,297,298,-1,249,298,252,-1,252,298,299,-1,252,299,253,-1,253,299,300,-1,253,300,255,-1,255,300,254,-1,254,300,301,-1,254,301,257,-1,257,301,256,-1,256,301,260,-1,256,260,166,-1,277,295,248,-1,302,303,290,-1,290,303,304,-1,290,304,291,-1,291,304,305,-1,291,305,296,-1,306,294,307,-1,307,294,293,-1,307,293,308,-1,308,293,295,-1,308,295,309,-1,277,276,295,-1,295,276,274,-1,295,274,309,-1,309,274,272,-1,309,272,270,-1,289,306,310,-1,310,306,307,-1,310,307,311,-1,311,307,308,-1,311,308,312,-1,312,308,309,-1,312,309,313,-1,313,309,270,-1,314,315,316,-1,316,315,287,-1,287,289,316,-1,316,289,310,-1,316,310,317,-1,317,310,311,-1,317,311,318,-1,318,311,312,-1,318,312,319,-1,319,312,313,-1,319,313,320,-1,288,302,289,-1,289,302,290,-1,289,290,306,-1,306,290,292,-1,306,292,294,-1,294,292,248,-1,314,297,321,-1,321,297,251,-1,321,251,192,-1,270,268,313,-1,313,268,266,-1,313,266,320,-1,320,266,264,-1,320,264,262,-1,314,316,297,-1,297,316,317,-1,297,317,298,-1,298,317,318,-1,298,318,299,-1,299,318,319,-1,299,319,300,-1,300,319,320,-1,300,320,301,-1,301,320,262,-1,301,262,260,-1,265,267,322,-1,323,324,325,-1,246,326,327,-1,328,326,246,-1,325,324,246,-1,258,246,324,-1,329,279,280,-1,279,329,278,-1,278,329,330,-1,278,330,281,-1,281,330,331,-1,281,331,282,-1,282,331,332,-1,282,332,284,-1,284,332,283,-1,283,332,333,-1,283,333,286,-1,286,333,285,-1,285,333,334,-1,285,334,244,-1,335,328,246,-1,269,271,323,-1,323,271,273,-1,323,273,324,-1,324,273,275,-1,324,275,258,-1,336,327,337,-1,337,327,326,-1,337,326,338,-1,338,326,328,-1,338,328,339,-1,335,340,328,-1,328,340,341,-1,328,341,339,-1,339,341,342,-1,339,342,343,-1,322,336,344,-1,344,336,337,-1,344,337,345,-1,345,337,338,-1,345,338,346,-1,346,338,339,-1,346,339,347,-1,347,339,343,-1,261,263,348,-1,348,263,265,-1,265,322,348,-1,348,322,344,-1,348,344,349,-1,349,344,345,-1,349,345,350,-1,350,345,346,-1,350,346,351,-1,351,346,347,-1,351,347,352,-1,267,269,322,-1,322,269,323,-1,322,323,336,-1,336,323,325,-1,336,325,327,-1,327,325,246,-1,261,329,259,-1,259,329,280,-1,259,280,165,-1,343,353,347,-1,347,353,354,-1,347,354,352,-1,352,354,355,-1,352,355,356,-1,261,348,329,-1,329,348,349,-1,329,349,330,-1,330,349,350,-1,330,350,331,-1,331,350,351,-1,331,351,332,-1,332,351,352,-1,332,352,333,-1,333,352,356,-1,333,356,334,-1,214,215,218,-1,357,208,209,-1,357,209,358,-1,209,213,358,-1,358,213,212,-1,358,212,359,-1,359,212,211,-1,359,211,218,-1,218,211,210,-1,218,210,214,-1,208,357,196,-1,196,357,360,-1,196,360,197,-1,197,360,361,-1,197,361,207,-1,362,206,363,-1,363,206,205,-1,363,205,361,-1,361,205,204,-1,361,204,207,-1,364,202,365,-1,365,202,201,-1,365,201,362,-1,362,201,200,-1,362,200,206,-1,195,194,364,-1,364,194,199,-1,199,198,364,-1,364,198,203,-1,364,203,202,-1,247,248,296,-1,192,195,321,-1,321,195,366,-1,321,366,314,-1,314,366,367,-1,314,367,315,-1,315,367,368,-1,315,368,287,-1,287,368,369,-1,287,369,288,-1,288,369,370,-1,288,370,302,-1,302,370,371,-1,302,371,303,-1,303,371,372,-1,303,372,304,-1,304,372,373,-1,304,373,305,-1,305,373,374,-1,305,374,296,-1,296,374,375,-1,296,375,247,-1,246,245,376,-1,241,244,377,-1,377,244,334,-1,377,334,378,-1,378,334,356,-1,378,356,379,-1,379,356,355,-1,379,355,380,-1,380,355,354,-1,380,354,381,-1,381,354,353,-1,381,353,382,-1,382,353,343,-1,382,343,383,-1,383,343,342,-1,383,342,384,-1,384,342,341,-1,384,341,385,-1,385,341,340,-1,385,340,376,-1,376,340,335,-1,376,335,246,-1,386,387,232,-1,232,236,386,-1,386,236,235,-1,386,235,388,-1,388,235,234,-1,388,234,389,-1,389,234,233,-1,389,233,241,-1,241,233,237,-1,241,237,238,-1,390,219,387,-1,387,219,231,-1,387,231,232,-1,391,228,392,-1,392,228,227,-1,392,227,393,-1,393,227,230,-1,393,230,390,-1,390,230,220,-1,390,220,219,-1,394,224,395,-1,395,224,223,-1,395,223,391,-1,391,223,229,-1,391,229,228,-1,396,216,217,-1,221,226,394,-1,394,226,225,-1,394,225,224,-1,396,217,394,-1,394,217,222,-1,394,222,221,-1,397,398,399,-1,400,401,402,-1,247,403,404,-1,405,403,247,-1,402,401,247,-1,406,247,401,-1,407,358,359,-1,358,407,357,-1,357,407,408,-1,357,408,360,-1,360,408,409,-1,360,409,361,-1,361,409,410,-1,361,410,363,-1,363,410,362,-1,362,410,411,-1,362,411,365,-1,365,411,364,-1,364,411,366,-1,364,366,195,-1,375,405,247,-1,412,413,400,-1,400,413,414,-1,400,414,401,-1,401,414,415,-1,401,415,406,-1,416,404,417,-1,417,404,403,-1,417,403,418,-1,418,403,405,-1,418,405,419,-1,375,374,405,-1,405,374,373,-1,405,373,419,-1,419,373,372,-1,419,372,371,-1,399,416,420,-1,420,416,417,-1,420,417,421,-1,421,417,418,-1,421,418,422,-1,422,418,419,-1,422,419,423,-1,423,419,371,-1,424,425,426,-1,426,425,397,-1,397,399,426,-1,426,399,420,-1,426,420,427,-1,427,420,421,-1,427,421,428,-1,428,421,422,-1,428,422,429,-1,429,422,423,-1,429,423,430,-1,398,412,399,-1,399,412,400,-1,399,400,416,-1,416,400,402,-1,416,402,404,-1,404,402,247,-1,424,407,431,-1,431,407,359,-1,431,359,218,-1,371,370,423,-1,423,370,369,-1,423,369,430,-1,430,369,368,-1,430,368,367,-1,424,426,407,-1,407,426,427,-1,407,427,408,-1,408,427,428,-1,408,428,409,-1,409,428,429,-1,409,429,410,-1,410,429,430,-1,410,430,411,-1,411,430,367,-1,411,367,366,-1,378,379,432,-1,380,381,433,-1,434,435,436,-1,245,437,438,-1,439,437,245,-1,436,435,245,-1,376,245,435,-1,389,440,388,-1,388,440,441,-1,388,441,386,-1,386,441,387,-1,387,441,442,-1,387,442,390,-1,390,442,393,-1,393,442,443,-1,393,443,392,-1,392,443,391,-1,391,443,444,-1,391,444,395,-1,395,444,394,-1,394,444,445,-1,394,445,396,-1,396,445,446,-1,396,446,216,-1,447,439,245,-1,382,383,434,-1,434,383,384,-1,434,384,435,-1,435,384,385,-1,435,385,376,-1,448,438,449,-1,449,438,437,-1,449,437,450,-1,450,437,439,-1,450,439,451,-1,381,382,433,-1,433,382,434,-1,433,434,452,-1,452,434,436,-1,452,436,453,-1,453,436,245,-1,447,454,439,-1,439,454,455,-1,439,455,451,-1,451,455,456,-1,451,456,457,-1,458,448,459,-1,459,448,449,-1,459,449,460,-1,460,449,450,-1,460,450,461,-1,461,450,451,-1,461,451,462,-1,462,451,457,-1,432,458,463,-1,463,458,459,-1,463,459,464,-1,464,459,460,-1,464,460,465,-1,465,460,461,-1,465,461,466,-1,466,461,462,-1,466,462,467,-1,379,380,432,-1,432,380,433,-1,432,433,458,-1,458,433,452,-1,458,452,448,-1,448,452,453,-1,448,453,438,-1,438,453,245,-1,389,241,440,-1,440,241,377,-1,440,377,378,-1,457,468,462,-1,462,468,469,-1,462,469,467,-1,467,469,470,-1,467,470,471,-1,378,432,440,-1,440,432,463,-1,440,463,441,-1,441,463,464,-1,441,464,442,-1,442,464,465,-1,442,465,443,-1,443,465,466,-1,443,466,444,-1,444,466,467,-1,444,467,445,-1,445,467,471,-1,445,471,446,-1,245,247,406,-1,218,216,431,-1,431,216,446,-1,431,446,424,-1,424,446,471,-1,424,471,425,-1,425,471,470,-1,425,470,397,-1,397,470,469,-1,397,469,398,-1,398,469,468,-1,398,468,412,-1,412,468,457,-1,412,457,413,-1,413,457,456,-1,413,456,414,-1,414,456,455,-1,414,455,415,-1,415,455,454,-1,415,454,406,-1,406,454,447,-1,406,447,245,-1,
        ]
    }
}
Shape{
    appearance Appearance {
        material  Material 	{
            diffuseColor 0.6666666666666666 0.6980392156862745 0.7686274509803922
            specularColor 0.3333333333333333 0.34901960784313724 0.3843137254901961
            ambientIntensity 0.6967
            transparency 0.0
            shininess 0.5
        }
    }
    geometry IndexedFaceSet {
        ccw TRUE
        solid FALSE
        coord DEF co Coordinate {
            point [
                0.315 0.1516 0.0512, 0.315 0.2421 0.0512, 0.2293 0.1516 0.0512, 0.2293 0.2421 0.0512, 0.1969 0.2421 0.0, 0.1969 0.2421 0.0118, 0.2362 0.2421 0.0118, 0.315 0.2421 0.0, 0.1969 0.1516 0.0118, 0.1969 0.1516 0.0, 0.2362 0.1516 0.0118, 0.315 0.1516 0.0, 0.2293 -0.2421 0.0512, 0.315 -0.2421 0.0512, 0.2293 -0.1516 0.0512, 0.315 -0.1516 0.0512, 0.1969 -0.2421 0.0118, 0.1969 -0.2421 0.0, 0.2362 -0.2421 0.0118, 0.315 -0.2421 0.0, 0.1969 -0.1516 0.0, 0.1969 -0.1516 0.0118, 0.2362 -0.1516 0.0118, 0.315 -0.1516 0.0, 0.1969 -0.1518 0.0118, -0.2293 0.2421 0.0512, -0.315 0.2421 0.0512, -0.2293 0.1516 0.0512, -0.315 0.1516 0.0512, -0.1969 0.1516 0.0, -0.1969 0.1516 0.0118, -0.2362 0.1516 0.0118, -0.315 0.1516 0.0, -0.1969 0.2421 0.0118, -0.1969 0.2421 0.0, -0.2362 0.2421 0.0118, -0.315 0.2421 0.0, -0.315 0.0453 0.0512, -0.315 -0.0453 0.0512, -0.2293 0.0453 0.0512, -0.2293 -0.0453 0.0512, -0.1969 -0.0453 0.0, -0.1969 -0.0453 0.0118, -0.2362 -0.0453 0.0118, -0.315 -0.0453 0.0, -0.1969 0.0453 0.0118, -0.1969 0.0453 0.0, -0.2362 0.0453 0.0118, -0.315 0.0453 0.0, -0.315 -0.1516 0.0512, -0.315 -0.2421 0.0512, -0.2293 -0.1516 0.0512, -0.2293 -0.2421 0.0512, -0.1969 -0.2421 0.0, -0.1969 -0.2421 0.0118, -0.2362 -0.2421 0.0118, -0.315 -0.2421 0.0, -0.1969 -0.1516 0.0118, -0.1969 -0.1516 0.0, -0.2362 -0.1516 0.0118, -0.315 -0.1516 0.0, -0.1969 -0.1518 0.0118, -0.1358 -0.0726 0.0122, -0.1665 -0.1514 0.0122, -0.1358 -0.0726 0.0118, -0.1665 -0.1514 0.0118, -0.155 -0.1514 0.0122, -0.155 -0.1514 0.0118, -0.147 -0.1293 0.0122, -0.147 -0.1293 0.0118, -0.1145 -0.1293 0.0122, -0.1145 -0.1293 0.0118, -0.107 -0.1514 0.0122, -0.107 -0.1514 0.0118, -0.0954 -0.1514 0.0122, -0.0954 -0.1514 0.0118, -0.1252 -0.0726 0.0122, -0.1252 -0.0726 0.0118, -0.1171 -0.1206 0.0122, -0.1435 -0.1206 0.0122, -0.1289 -0.0877 0.0122, -0.1296 -0.085 0.0122, -0.1301 -0.0822 0.0122, -0.1304 -0.0822 0.0122, -0.1309 -0.085 0.0122, -0.1316 -0.0877 0.0122, -0.1171 -0.1206 0.0118, -0.1435 -0.1206 0.0118, -0.1289 -0.0877 0.0118, -0.1296 -0.085 0.0118, -0.1301 -0.0822 0.0118, -0.1304 -0.0822 0.0118, -0.1309 -0.085 0.0118, -0.1316 -0.0877 0.0118, -0.0477 -0.1514 0.0122, -0.0263 -0.1514 0.0122, -0.0477 -0.1514 0.0118, -0.0263 -0.1514 0.0118, -0.0263 -0.0726 0.0122, -0.0263 -0.0726 0.0118, -0.0485 -0.0726 0.0122, -0.0485 -0.0726 0.0118, -0.0897 -0.111 0.0122, -0.0897 -0.111 0.0118, -0.0897 -0.1105 0.0118, -0.0897 -0.1105 0.0122, -0.0884 -0.1003 0.0118, -0.0884 -0.1003 0.0122, -0.0855 -0.0926 0.0118, -0.0855 -0.0926 0.0122, -0.0811 -0.0862 0.0118, -0.0811 -0.0862 0.0122, -0.0765 -0.0818 0.0118, -0.0765 -0.0818 0.0122, -0.0685 -0.0768 0.0118, -0.0685 -0.0768 0.0122, -0.0593 -0.0737 0.0118, -0.0593 -0.0737 0.0122, -0.0578 -0.1505 0.0118, -0.0578 -0.1505 0.0122, -0.0668 -0.1477 0.0118, -0.0668 -0.1477 0.0122, -0.075 -0.1429 0.0118, -0.075 -0.1429 0.0122, -0.0814 -0.1366 0.0118, -0.0814 -0.1366 0.0122, -0.0859 -0.1295 0.0118, -0.0859 -0.1295 0.0122, -0.0886 -0.1213 0.0118, -0.0886 -0.1213 0.0122, -0.0791 -0.1112 0.0122, -0.0784 -0.1034 0.0122, -0.0766 -0.0971 0.0122, -0.0738 -0.0923 0.0122, -0.07 -0.0882 0.0122, -0.0643 -0.0845 0.0122, -0.0577 -0.0822 0.0122, -0.0485 -0.0813 0.0122, -0.0369 -0.0813 0.0122, -0.0369 -0.1427 0.0122, -0.048 -0.1427 0.0122, -0.0563 -0.1419 0.0122, -0.063 -0.1399 0.0122, -0.0684 -0.1367 0.0122, -0.0728 -0.1323 0.0122, -0.0761 -0.1269 0.0122, -0.0784 -0.1195 0.0122, -0.0485 -0.0813 0.0118, -0.0369 -0.0813 0.0118, -0.0577 -0.0822 0.0118, -0.0643 -0.0845 0.0118, -0.07 -0.0882 0.0118, -0.0738 -0.0923 0.0118, -0.0766 -0.0971 0.0118, -0.0784 -0.1034 0.0118, -0.0791 -0.1112 0.0118, -0.0784 -0.1195 0.0118, -0.0761 -0.1269 0.0118, -0.0728 -0.1323 0.0118, -0.0684 -0.1367 0.0118, -0.063 -0.1399 0.0118, -0.0563 -0.1419 0.0118, -0.048 -0.1427 0.0118, -0.0369 -0.1427 0.0118, -0.0109 -0.1427 0.0122, -0.0109 -0.1514 0.0122, -0.0109 -0.1427 0.0118, -0.0109 -0.1514 0.0118, 0.0313 -0.1514 0.0122, 0.0313 -0.1514 0.0118, 0.0313 -0.0726 0.0122, 0.0313 -0.0726 0.0118, -0.009 -0.0726 0.0122, -0.009 -0.0726 0.0118, -0.009 -0.0813 0.0122, -0.009 -0.0813 0.0118, 0.0208 -0.0813 0.0122, 0.0208 -0.0813 0.0118, 0.0208 -0.1072 0.0122, 0.0208 -0.1072 0.0118, -0.0071 -0.1072 0.0122, -0.0071 -0.1072 0.0118, -0.0071 -0.1158 0.0122, -0.0071 -0.1158 0.0118, 0.0208 -0.1158 0.0122, 0.0208 -0.1158 0.0118, 0.0208 -0.1427 0.0122, 0.0208 -0.1427 0.0118, 0.0467 -0.1386 0.0122, 0.0467 -0.1473 0.0122, 0.0467 -0.1386 0.0118, 0.0467 -0.1473 0.0118, 0.0551 -0.1507 0.0122, 0.0683 -0.1523 0.0122, 0.0683 -0.1523 0.0118, 0.0662 -0.1523 0.0118, 0.0662 -0.1523 0.0122, 0.063 -0.1518 0.0118, 0.0551 -0.1507 0.0118, 0.073 -0.1518 0.0118, 0.078 -0.1513 0.0122, 0.078 -0.1513 0.0118, 0.0857 -0.1487 0.0122, 0.0857 -0.1487 0.0118, 0.0921 -0.1446 0.0122, 0.0921 -0.1446 0.0118, 0.098 -0.1384 0.0122, 0.098 -0.1384 0.0118, 0.1021 -0.1309 0.0122, 0.1021 -0.1309 0.0118, 0.1045 -0.1225 0.0122, 0.1045 -0.1225 0.0118, 0.1053 -0.1135 0.0122, 0.1053 -0.1135 0.0118, 0.0652 -0.0717 0.0122, 0.0652 -0.0717 0.0118, 0.0735 -0.0724 0.0118, 0.0735 -0.0724 0.0122, 0.0823 -0.075 0.0118, 0.0823 -0.075 0.0122, 0.0898 -0.0794 0.0118, 0.0898 -0.0794 0.0122, 0.0967 -0.0863 0.0118, 0.0967 -0.0863 0.0122, 0.1013 -0.0938 0.0118, 0.1013 -0.0938 0.0122, 0.1043 -0.1029 0.0118, 0.1043 -0.1029 0.0122, 0.0467 -0.0748 0.0122, 0.0467 -0.0748 0.0118, 0.0558 -0.0723 0.0118, 0.0558 -0.0723 0.0122, 0.0467 -0.0853 0.0122, 0.0467 -0.0853 0.0118, 0.0651 -0.0803 0.0122, 0.0651 -0.0803 0.0118, 0.0555 -0.0815 0.0118, 0.0555 -0.0815 0.0122, 0.0947 -0.1128 0.0122, 0.0947 -0.1128 0.0118, 0.0943 -0.1067 0.0118, 0.0943 -0.1067 0.0122, 0.0922 -0.0983 0.0118, 0.0922 -0.0983 0.0122, 0.089 -0.0922 0.0118, 0.089 -0.0922 0.0122, 0.0842 -0.0869 0.0118, 0.0842 -0.0869 0.0122, 0.0788 -0.0833 0.0118, 0.0788 -0.0833 0.0122, 0.0729 -0.0812 0.0118, 0.0729 -0.0812 0.0122, 0.0669 -0.1437 0.0122, 0.0669 -0.1437 0.0118, 0.0743 -0.1428 0.0118, 0.0743 -0.1428 0.0122, 0.08 -0.1407 0.0118, 0.08 -0.1407 0.0122, 0.0849 -0.1374 0.0118, 0.0849 -0.1374 0.0122, 0.0885 -0.1336 0.0118, 0.0885 -0.1336 0.0122, 0.0917 -0.1282 0.0118, 0.0917 -0.1282 0.0122, 0.0939 -0.1214 0.0118, 0.0939 -0.1214 0.0122, 0.0481 -0.1394 0.0118, 0.0481 -0.1394 0.0122, 0.0564 -0.1425 0.0118, 0.0564 -0.1425 0.0122, 0.112 -0.1427 0.0122, 0.112 -0.1514 0.0122, 0.112 -0.1427 0.0118, 0.112 -0.1514 0.0118, 0.1523 -0.1514 0.0122, 0.1523 -0.1514 0.0118, 0.1523 -0.0726 0.0122, 0.1523 -0.0726 0.0118, 0.1417 -0.0726 0.0122, 0.1417 -0.0726 0.0118, 0.1417 -0.1427 0.0122, 0.1417 -0.1427 0.0118
            ]
        }
        coordIndex [
            0,1,2,-1,2,1,3,-1,4,5,6,-1,3,1,6,-1,6,1,7,-1,6,7,4,-1,8,9,10,-1,10,9,11,-1,10,11,2,-1,2,11,0,-1,7,1,11,-1,11,1,0,-1,5,4,8,-1,8,4,9,-1,9,4,11,-1,11,4,7,-1,12,13,14,-1,14,13,15,-1,16,17,18,-1,18,17,19,-1,18,19,12,-1,12,19,13,-1,20,21,22,-1,14,15,22,-1,22,15,23,-1,22,23,20,-1,21,20,24,-1,24,20,17,-1,24,17,16,-1,23,15,19,-1,19,15,13,-1,23,19,20,-1,20,19,17,-1,25,26,27,-1,27,26,28,-1,29,30,31,-1,27,28,31,-1,31,28,32,-1,31,32,29,-1,33,34,35,-1,35,34,36,-1,35,36,25,-1,25,36,26,-1,32,28,36,-1,36,28,26,-1,30,29,33,-1,33,29,34,-1,34,29,36,-1,36,29,32,-1,37,38,39,-1,39,38,40,-1,41,42,43,-1,40,38,43,-1,43,38,44,-1,43,44,41,-1,45,46,47,-1,47,46,48,-1,47,48,39,-1,39,48,37,-1,42,41,45,-1,45,41,46,-1,44,38,48,-1,48,38,37,-1,48,46,44,-1,44,46,41,-1,49,50,51,-1,51,50,52,-1,53,54,55,-1,52,50,55,-1,55,50,56,-1,55,56,53,-1,57,58,59,-1,59,58,60,-1,59,60,51,-1,51,60,49,-1,54,53,61,-1,61,53,58,-1,61,58,57,-1,56,50,60,-1,60,50,49,-1,60,58,56,-1,56,58,53,-1,62,63,64,-1,64,63,65,-1,63,66,65,-1,65,66,67,-1,66,68,67,-1,67,68,69,-1,68,70,69,-1,69,70,71,-1,70,72,71,-1,71,72,73,-1,72,74,73,-1,73,74,75,-1,74,76,75,-1,75,76,77,-1,76,62,77,-1,77,62,64,-1,78,70,79,-1,79,70,68,-1,80,76,78,-1,78,76,74,-1,78,74,70,-1,70,74,72,-1,80,81,76,-1,76,81,82,-1,76,82,62,-1,62,82,83,-1,62,83,84,-1,84,85,62,-1,62,85,79,-1,62,79,63,-1,63,79,68,-1,63,68,66,-1,78,79,86,-1,86,79,87,-1,80,78,88,-1,88,78,86,-1,80,88,89,-1,80,89,81,-1,81,89,90,-1,81,90,82,-1,83,82,91,-1,91,82,90,-1,83,91,92,-1,83,92,84,-1,84,92,93,-1,84,93,85,-1,79,85,87,-1,87,85,93,-1,94,95,96,-1,96,95,97,-1,95,98,97,-1,97,98,99,-1,98,100,99,-1,99,100,101,-1,102,103,104,-1,102,104,105,-1,105,104,106,-1,105,106,107,-1,107,106,108,-1,107,108,109,-1,109,108,110,-1,109,110,111,-1,111,110,112,-1,111,112,113,-1,113,112,114,-1,113,114,115,-1,115,114,116,-1,115,116,117,-1,117,116,101,-1,117,101,100,-1,94,96,118,-1,94,118,119,-1,119,118,120,-1,119,120,121,-1,121,120,122,-1,121,122,123,-1,123,122,124,-1,123,124,125,-1,125,124,126,-1,125,126,127,-1,127,126,128,-1,127,128,129,-1,129,128,103,-1,129,103,102,-1,129,102,130,-1,130,102,105,-1,130,105,131,-1,131,105,107,-1,131,107,132,-1,132,107,109,-1,132,109,133,-1,133,109,111,-1,133,111,134,-1,134,111,113,-1,134,113,135,-1,135,113,115,-1,135,115,136,-1,136,115,117,-1,136,117,137,-1,137,117,100,-1,137,100,138,-1,138,100,98,-1,138,98,139,-1,139,98,95,-1,139,95,140,-1,140,95,94,-1,140,94,141,-1,141,94,119,-1,141,119,142,-1,142,119,121,-1,142,121,143,-1,143,121,123,-1,143,123,144,-1,144,123,125,-1,144,125,145,-1,145,125,127,-1,145,127,146,-1,146,127,129,-1,146,129,130,-1,137,138,147,-1,147,138,148,-1,137,147,149,-1,137,149,136,-1,136,149,150,-1,136,150,135,-1,135,150,151,-1,135,151,134,-1,134,151,152,-1,134,152,133,-1,133,152,153,-1,133,153,132,-1,132,153,154,-1,132,154,131,-1,131,154,155,-1,131,155,130,-1,130,155,156,-1,130,156,146,-1,146,156,157,-1,146,157,145,-1,145,157,158,-1,145,158,144,-1,144,158,159,-1,144,159,143,-1,143,159,160,-1,143,160,142,-1,142,160,161,-1,142,161,141,-1,141,161,162,-1,141,162,140,-1,139,140,163,-1,163,140,162,-1,138,139,148,-1,148,139,163,-1,164,165,166,-1,166,165,167,-1,165,168,167,-1,167,168,169,-1,168,170,169,-1,169,170,171,-1,170,172,171,-1,171,172,173,-1,172,174,173,-1,173,174,175,-1,174,176,175,-1,175,176,177,-1,176,178,177,-1,177,178,179,-1,178,180,179,-1,179,180,181,-1,180,182,181,-1,181,182,183,-1,182,184,183,-1,183,184,185,-1,184,186,185,-1,185,186,187,-1,186,164,187,-1,187,164,166,-1,168,165,164,-1,164,186,168,-1,168,186,184,-1,168,184,170,-1,174,172,176,-1,176,172,170,-1,176,170,178,-1,178,170,184,-1,178,184,180,-1,180,184,182,-1,188,189,190,-1,190,189,191,-1,191,189,192,-1,193,194,195,-1,193,195,196,-1,196,195,197,-1,196,197,192,-1,192,197,198,-1,192,198,191,-1,194,193,199,-1,199,193,200,-1,199,200,201,-1,201,200,202,-1,201,202,203,-1,203,202,204,-1,203,204,205,-1,205,204,206,-1,205,206,207,-1,207,206,208,-1,207,208,209,-1,209,208,210,-1,209,210,211,-1,211,210,212,-1,211,212,213,-1,214,215,216,-1,214,216,217,-1,217,216,218,-1,217,218,219,-1,219,218,220,-1,219,220,221,-1,221,220,222,-1,221,222,223,-1,223,222,224,-1,223,224,225,-1,225,224,226,-1,225,226,227,-1,227,226,213,-1,227,213,212,-1,228,229,230,-1,228,230,231,-1,231,230,215,-1,231,215,214,-1,228,232,229,-1,229,232,233,-1,234,235,236,-1,234,236,237,-1,237,236,233,-1,237,233,232,-1,238,239,240,-1,238,240,241,-1,241,240,242,-1,241,242,243,-1,243,242,244,-1,243,244,245,-1,245,244,246,-1,245,246,247,-1,247,246,248,-1,247,248,249,-1,249,248,250,-1,249,250,251,-1,251,250,235,-1,251,235,234,-1,252,253,254,-1,252,254,255,-1,255,254,256,-1,255,256,257,-1,257,256,258,-1,257,258,259,-1,259,258,260,-1,259,260,261,-1,261,260,262,-1,261,262,263,-1,263,262,264,-1,263,264,265,-1,265,264,239,-1,265,239,238,-1,188,190,266,-1,188,266,267,-1,267,266,268,-1,267,268,269,-1,269,268,253,-1,269,253,252,-1,255,193,252,-1,252,193,196,-1,252,196,269,-1,269,196,192,-1,269,192,267,-1,267,192,189,-1,267,189,188,-1,232,228,237,-1,237,228,231,-1,237,231,234,-1,234,231,214,-1,234,214,251,-1,251,214,217,-1,251,217,249,-1,249,217,219,-1,249,219,247,-1,247,219,221,-1,247,221,245,-1,245,221,223,-1,245,223,243,-1,243,223,225,-1,243,225,241,-1,241,225,227,-1,241,227,238,-1,238,227,212,-1,238,212,265,-1,265,212,210,-1,265,210,263,-1,263,210,208,-1,263,208,261,-1,261,208,206,-1,261,206,259,-1,259,206,204,-1,259,204,257,-1,257,204,202,-1,257,202,255,-1,255,202,200,-1,255,200,193,-1,270,271,272,-1,272,271,273,-1,271,274,273,-1,273,274,275,-1,274,276,275,-1,275,276,277,-1,276,278,277,-1,277,278,279,-1,278,280,279,-1,279,280,281,-1,280,270,281,-1,281,270,272,-1,278,276,280,-1,280,276,274,-1,280,274,270,-1,270,274,271,-1,
        ]
    }
}
Shape{
    appearance Appearance {
        material  Material 	{
            diffuseColor 0.2235294117647059 0.2235294117647059 0.2235294117647059
            specularColor 0.11372549019607843 0.11372549019607843 0.11372549019607843
            ambientIntensity 0.2235
            transparency 0.0
            shininess 0.5
        }
    }
    geometry IndexedFaceSet {
        ccw TRUE
        solid FALSE
        coord DEF co Coordinate {
            point [
                -0.1171 -0.1206 0.0118, -0.1435 -0.1206 0.0118, -0.1289 -0.0877 0.0118, -0.1316 -0.0877 0.0118, -0.1296 -0.085 0.0118, -0.1309 -0.085 0.0118, -0.1301 -0.0822 0.0118, -0.1304 -0.0822 0.0118, -0.0369 -0.0813 0.0118, -0.0369 -0.1427 0.0118, -0.0485 -0.0813 0.0118, -0.048 -0.1427 0.0118, -0.0563 -0.1419 0.0118, -0.0791 -0.1112 0.0118, -0.0784 -0.1034 0.0118, -0.0766 -0.0971 0.0118, -0.0577 -0.0822 0.0118, -0.063 -0.1399 0.0118, -0.0684 -0.1367 0.0118, -0.0728 -0.1323 0.0118, -0.0761 -0.1269 0.0118, -0.0784 -0.1195 0.0118, -0.0738 -0.0923 0.0118, -0.07 -0.0882 0.0118, -0.0643 -0.0845 0.0118
            ]
        }
        coordIndex [
            0,1,2,-1,2,1,3,-1,2,3,4,-1,4,3,5,-1,4,5,6,-1,6,5,7,-1,8,9,10,-1,10,9,11,-1,10,11,12,-1,13,14,10,-1,10,14,15,-1,10,15,16,-1,12,17,10,-1,10,17,18,-1,10,18,19,-1,19,20,10,-1,10,20,21,-1,10,21,13,-1,22,23,15,-1,15,23,24,-1,15,24,16,-1,
        ]
    }
}