#VRML V2.0 utf8
# Project-authored SOT23 occupied envelope from Nexperia PESD2USB5UX-T product data sheet (2020-09-09), Fig. 13.
# Retained PDF SHA256 6e86f26606d8dd9bd563f172b68f5db53f8ee1d9b7c1105a88598d9d7344b112.
# Not Nexperia CAD. Rectangular solids omit mould draft, lead bends, markings and solder.
# 1 VRML unit = 2.54 mm. Origin=footprint centre/seating plane; VRML Y is opposite footprint local Y.
# Body maximum D=3.0, E=1.4, A=1.1 mm. Lead overall HE=2.5, bp max=0.48 mm.
# Body spans z=0..1.1 mm conservatively; the exact mould standoff is unspecified.
# Leads and pin-one mark are illustrative, not measured supplier CAD.
# maximum mould body: centre_mm=(0, 0, 0.55), size_mm=(3.0, 1.4, 1.1)
Transform { translation 0.000000000 0.000000000 0.216535433
 children [ Shape { appearance Appearance { material Material { diffuseColor 0.16 0.17 0.19 } }
 geometry Box { size 1.181102362 0.551181102 0.433070866 } } ] }
# pin 1: centre_mm=(-0.95, 0.975, 0.06), size_mm=(0.48, 0.55, 0.12)
Transform { translation -0.374015748 0.383858268 0.023622047
 children [ Shape { appearance Appearance { material Material { diffuseColor 0.72 0.72 0.70 } }
 geometry Box { size 0.188976378 0.216535433 0.047244094 } } ] }
# pin 2: centre_mm=(0.95, 0.975, 0.06), size_mm=(0.48, 0.55, 0.12)
Transform { translation 0.374015748 0.383858268 0.023622047
 children [ Shape { appearance Appearance { material Material { diffuseColor 0.72 0.72 0.70 } }
 geometry Box { size 0.188976378 0.216535433 0.047244094 } } ] }
# pin 3: centre_mm=(0, -0.975, 0.06), size_mm=(0.48, 0.55, 0.12)
Transform { translation 0.000000000 -0.383858268 0.023622047
 children [ Shape { appearance Appearance { material Material { diffuseColor 0.72 0.72 0.70 } }
 geometry Box { size 0.188976378 0.216535433 0.047244094 } } ] }
# illustrative pin-one orientation mark: centre_mm=(-1.3, 0.48, 1.095), size_mm=(0.13, 0.13, 0.01)
Transform { translation -0.511811024 0.188976378 0.431102362
 children [ Shape { appearance Appearance { material Material { diffuseColor 0.77 0.77 0.72 } }
 geometry Box { size 0.051181102 0.051181102 0.003937008 } } ] }
