#VRML V2.0 utf8
# Project-authored maximum body envelope with illustrative four underside terminals model; derived from retained primary drawing, not vendor CAD.
# SCTF SCTF20215M027 B01 p4; PDF SHA256 c10be001568c12e27692d77260f88cd6cd55611b92835a34a2031d98da835804.
# Source license: repository MIT LICENSE; PDF not copied into this model.
# 1 VRML unit = 2.54 mm; model Y is opposite footprint local Y; Z=0 seating plane.
# Rectangular solids simplify edge radii, termination shape, solder and tolerances.
# body max 5.1x3.3x1.35: centre_mm=(0, 0, 0.725), size_mm=(5.1, 3.3, 1.25)
Transform { translation 0.000000000 0.000000000 0.285433071
 children [ Shape { appearance Appearance { material Material { diffuseColor 0.740 0.770 0.780 } }
 geometry Box { size 2.007874016 1.299212598 0.492125984 } } ] }
# pin1: centre_mm=(-1.27, -1.15, 0.05), size_mm=(1.2, 1.0, 0.1)
Transform { translation -0.500000000 -0.452755906 0.019685039
 children [ Shape { appearance Appearance { material Material { diffuseColor 0.730 0.710 0.670 } }
 geometry Box { size 0.472440945 0.393700787 0.039370079 } } ] }
# pin2: centre_mm=(1.27, -1.15, 0.05), size_mm=(1.2, 1.0, 0.1)
Transform { translation 0.500000000 -0.452755906 0.019685039
 children [ Shape { appearance Appearance { material Material { diffuseColor 0.730 0.710 0.670 } }
 geometry Box { size 0.472440945 0.393700787 0.039370079 } } ] }
# pin3: centre_mm=(1.27, 1.15, 0.05), size_mm=(1.2, 1.0, 0.1)
Transform { translation 0.500000000 0.452755906 0.019685039
 children [ Shape { appearance Appearance { material Material { diffuseColor 0.730 0.710 0.670 } }
 geometry Box { size 0.472440945 0.393700787 0.039370079 } } ] }
# pin4: centre_mm=(-1.27, 1.15, 0.05), size_mm=(1.2, 1.0, 0.1)
Transform { translation -0.500000000 0.452755906 0.019685039
 children [ Shape { appearance Appearance { material Material { diffuseColor 0.730 0.710 0.670 } }
 geometry Box { size 0.472440945 0.393700787 0.039370079 } } ] }
# illustrative pin1 mark: centre_mm=(-2.15, -1.15, 1.34), size_mm=(0.14, 0.14, 0.02)
Transform { translation -0.846456693 -0.452755906 0.527559055
 children [ Shape { appearance Appearance { material Material { diffuseColor 0.150 0.160 0.170 } }
 geometry Box { size 0.055118110 0.055118110 0.007874016 } } ] }
