#VRML V2.0 utf8
# Source-owned dimension-derived geometry; NOT manufacturer CAD.
# Reproduce with03_src/build_package_models.py; see provenance.md.
# Units: one coordinate unit is2.54mm; nativeY=-footprintY.
# solid body
Shape {
 appearance Appearance { material Material { diffuseColor 0.075 0.075 0.08 } }
 geometry IndexedFaceSet { solid TRUE
  coord Coordinate { point [
   -0.295275591 0.295275591 0.009842520,
   0.295275591 0.295275591 0.009842520,
   0.295275591 -0.295275591 0.009842520,
   -0.295275591 -0.295275591 0.009842520,
   -0.295275591 0.295275591 0.314960630,
   0.295275591 0.295275591 0.314960630,
   0.295275591 -0.295275591 0.314960630,
   -0.295275591 -0.295275591 0.314960630,
  ] }
  coordIndex [
   0, 1, 2, 3, -1,
   7, 6, 5, 4, -1,
   0, 4, 5, 1, -1,
   1, 5, 6, 2, -1,
   2, 6, 7, 3, -1,
   3, 7, 4, 0, -1,
  ]
 }
}
# solid terminal_1
Shape {
 appearance Appearance { material Material { diffuseColor 0.7 0.7 0.72 } }
 geometry IndexedFaceSet { solid TRUE
  coord Coordinate { point [
   -0.295275591 0.246062992 0.000000000,
   -0.059055118 0.246062992 0.000000000,
   -0.059055118 0.147637795 0.000000000,
   -0.295275591 0.147637795 0.000000000,
   -0.295275591 0.246062992 0.078740157,
   -0.059055118 0.246062992 0.078740157,
   -0.059055118 0.147637795 0.078740157,
   -0.295275591 0.147637795 0.078740157,
  ] }
  coordIndex [
   0, 1, 2, 3, -1,
   7, 6, 5, 4, -1,
   0, 4, 5, 1, -1,
   1, 5, 6, 2, -1,
   2, 6, 7, 3, -1,
   3, 7, 4, 0, -1,
  ]
 }
}
# solid terminal_6
Shape {
 appearance Appearance { material Material { diffuseColor 0.7 0.7 0.72 } }
 geometry IndexedFaceSet { solid TRUE
  coord Coordinate { point [
   0.098425197 0.246062992 0.000000000,
   0.295275591 0.246062992 0.000000000,
   0.295275591 0.147637795 0.000000000,
   0.098425197 0.147637795 0.000000000,
   0.098425197 0.246062992 0.078740157,
   0.295275591 0.246062992 0.078740157,
   0.295275591 0.147637795 0.078740157,
   0.098425197 0.147637795 0.078740157,
  ] }
  coordIndex [
   0, 1, 2, 3, -1,
   7, 6, 5, 4, -1,
   0, 4, 5, 1, -1,
   1, 5, 6, 2, -1,
   2, 6, 7, 3, -1,
   3, 7, 4, 0, -1,
  ]
 }
}
# solid terminal_2
Shape {
 appearance Appearance { material Material { diffuseColor 0.7 0.7 0.72 } }
 geometry IndexedFaceSet { solid TRUE
  coord Coordinate { point [
   -0.295275591 0.049212598 0.000000000,
   -0.098425197 0.049212598 0.000000000,
   -0.098425197 -0.049212598 0.000000000,
   -0.295275591 -0.049212598 0.000000000,
   -0.295275591 0.049212598 0.078740157,
   -0.098425197 0.049212598 0.078740157,
   -0.098425197 -0.049212598 0.078740157,
   -0.295275591 -0.049212598 0.078740157,
  ] }
  coordIndex [
   0, 1, 2, 3, -1,
   7, 6, 5, 4, -1,
   0, 4, 5, 1, -1,
   1, 5, 6, 2, -1,
   2, 6, 7, 3, -1,
   3, 7, 4, 0, -1,
  ]
 }
}
# solid terminal_5
Shape {
 appearance Appearance { material Material { diffuseColor 0.7 0.7 0.72 } }
 geometry IndexedFaceSet { solid TRUE
  coord Coordinate { point [
   0.098425197 0.049212598 0.000000000,
   0.295275591 0.049212598 0.000000000,
   0.295275591 -0.049212598 0.000000000,
   0.098425197 -0.049212598 0.000000000,
   0.098425197 0.049212598 0.078740157,
   0.295275591 0.049212598 0.078740157,
   0.295275591 -0.049212598 0.078740157,
   0.098425197 -0.049212598 0.078740157,
  ] }
  coordIndex [
   0, 1, 2, 3, -1,
   7, 6, 5, 4, -1,
   0, 4, 5, 1, -1,
   1, 5, 6, 2, -1,
   2, 6, 7, 3, -1,
   3, 7, 4, 0, -1,
  ]
 }
}
# solid terminal_3
Shape {
 appearance Appearance { material Material { diffuseColor 0.7 0.7 0.72 } }
 geometry IndexedFaceSet { solid TRUE
  coord Coordinate { point [
   -0.295275591 -0.147637795 0.000000000,
   -0.098425197 -0.147637795 0.000000000,
   -0.098425197 -0.246062992 0.000000000,
   -0.295275591 -0.246062992 0.000000000,
   -0.295275591 -0.147637795 0.078740157,
   -0.098425197 -0.147637795 0.078740157,
   -0.098425197 -0.246062992 0.078740157,
   -0.295275591 -0.246062992 0.078740157,
  ] }
  coordIndex [
   0, 1, 2, 3, -1,
   7, 6, 5, 4, -1,
   0, 4, 5, 1, -1,
   1, 5, 6, 2, -1,
   2, 6, 7, 3, -1,
   3, 7, 4, 0, -1,
  ]
 }
}
# solid terminal_4
Shape {
 appearance Appearance { material Material { diffuseColor 0.7 0.7 0.72 } }
 geometry IndexedFaceSet { solid TRUE
  coord Coordinate { point [
   0.098425197 -0.147637795 0.000000000,
   0.295275591 -0.147637795 0.000000000,
   0.295275591 -0.246062992 0.000000000,
   0.098425197 -0.246062992 0.000000000,
   0.098425197 -0.147637795 0.078740157,
   0.295275591 -0.147637795 0.078740157,
   0.295275591 -0.246062992 0.078740157,
   0.098425197 -0.246062992 0.078740157,
  ] }
  coordIndex [
   0, 1, 2, 3, -1,
   7, 6, 5, 4, -1,
   0, 4, 5, 1, -1,
   1, 5, 6, 2, -1,
   2, 6, 7, 3, -1,
   3, 7, 4, 0, -1,
  ]
 }
}
# solid illustrative_pin1_index
Shape {
 appearance Appearance { material Material { diffuseColor 0.55 0.55 0.55 } }
 geometry IndexedFaceSet { solid TRUE
  coord Coordinate { point [
   -0.248031496 0.248031496 0.314566929,
   -0.204724409 0.248031496 0.314566929,
   -0.204724409 0.204724409 0.314566929,
   -0.248031496 0.204724409 0.314566929,
   -0.248031496 0.248031496 0.314960630,
   -0.204724409 0.248031496 0.314960630,
   -0.204724409 0.204724409 0.314960630,
   -0.248031496 0.204724409 0.314960630,
  ] }
  coordIndex [
   0, 1, 2, 3, -1,
   7, 6, 5, 4, -1,
   0, 4, 5, 1, -1,
   1, 5, 6, 2, -1,
   2, 6, 7, 3, -1,
   3, 7, 4, 0, -1,
  ]
 }
}
