#VRML V2.0 utf8
# 3D model generated by easyeda2kicad.py (https://github.com/uPesy/easyeda2kicad.py)

Shape{
    appearance Appearance {
        material  Material 	{
            diffuseColor 0.19607843137254902 0.19607843137254902 0.19607843137254902
            specularColor 0.09803921568627451 0.09803921568627451 0.09803921568627451
            ambientIntensity 0.1961
            transparency 0.0
            shininess 0.5
        }
    }
    geometry IndexedFaceSet {
        ccw TRUE
        solid FALSE
        coord DEF co Coordinate {
            point [
                0.7738 -0.4433 0.7874, 0.7738 0.4433 0.7874, 0.758 -0.4433 0.7874, 0.758 0.4433 0.7874, -0.0694 -0.4606 0.0394, -0.371 -0.4606 0.0394, -0.371 0.0267 0.0394, -0.0623 0.0984 0.0394, -0.025 0.0984 0.0394, -0.025 0.0742 0.0394, -0.0623 0.0742 0.0394, -0.0623 0.0661 0.0394, -0.0694 0.0267 0.0394, -0.0623 0.1065 0.0394, -0.0694 0.4606 0.0394, -0.0179 0.1065 0.0394, 0.1214 0.0277 0.0394, 0.0381 0.0267 0.0394, 0.084 0.0277 0.0394, 0.0503 0.0289 0.0394, 0.058 0.0331 0.0394, 0.0223 0.0268 0.0394, 0.0225 0.0267 0.0394, -0.0179 0.0277 0.0394, 0.0625 0.0368 0.0394, 0.065 0.0395 0.0394, 0.084 0.0358 0.0394, 0.0725 0.0526 0.0394, 0.0749 0.0676 0.0394, 0.1143 0.0358 0.0394, 0.1143 0.1065 0.0394, -0.025 0.0661 0.0394, -0.025 0.0358 0.0394, -0.0623 0.0358 0.0394, -0.0623 0.0277 0.0394, 0.0505 0.0961 0.0394, 0.0627 0.0851 0.0394, 0.033 0.1004 0.0394, 0.0677 0.0702 0.0394, 0.0679 0.067 0.0394, 0.0638 0.0508 0.0394, 0.0529 0.0394 0.0394, 0.0375 0.034 0.0394, 0.0699 0.0877 0.0394, 0.0564 0.1019 0.0394, 0.0361 0.1084 0.0394, -0.0018 0.0422 0.0394, -0.0018 0.092 0.0394, 0.0044 0.0469 0.0394, 0.0044 0.0873 0.0394, 0.017 0.0371 0.0394, 0.0172 0.0972 0.0394, 0.0325 0.0338 0.0394, 0.0246 0.0996 0.0394, 0.0298 0.1003 0.0394, 0.0326 0.1085 0.0394, 0.0134 0.1044 0.0394, 0.0053 0.0995 0.0394, 0.0007 0.0951 0.0394, 0.0133 0.0298 0.0394, 0.0285 0.0259 0.0394, 0.0325 0.0257 0.0394, 0.1214 0.1065 0.0394, 0.371 0.4606 0.0394, 0.371 0.0267 0.0394, 0.371 -0.4606 0.0394, -0.2182 0.0277 0.0394, -0.1512 0.0277 0.0394, -0.1252 0.0332 0.0394, -0.1094 0.0282 0.0394, -0.1009 0.0277 0.0394, -0.1589 0.0277 0.0394, -0.1709 0.053 0.0394, -0.2066 0.053 0.0394, -0.1174 0.1036 0.0394, -0.1316 0.0941 0.0394, -0.1885 0.1065 0.0394, -0.1396 0.0785 0.0394, -0.1411 0.0661 0.0394, -0.1366 0.0463 0.0394, -0.105 0.106 0.0394, -0.371 0.4606 0.0394, -0.1895 0.1065 0.0394, -0.2259 0.0277 0.0394, -0.0765 0.0277 0.0394, -0.0765 0.1065 0.0394, -0.0924 0.1065 0.0394, -0.8465 0.2756 0.4134, -0.8465 0.4921 0.4134, -0.8281 0.2756 0.3189, -0.7876 0.4666 0.1102, -0.8281 -0.2756 0.3189, -0.7876 -0.4666 0.1102, -0.8465 -0.2756 0.4134, -0.8465 -0.4921 0.4134, -0.7738 0.4433 0.7874, -0.7738 -0.4433 0.7874, 0.4602 0.4433 0.7874, 0.4602 -0.4433 0.7874, 0.8465 -0.2756 0.4134, 0.8465 -0.4921 0.4134, 0.8281 -0.2756 0.3189, 0.7876 -0.4666 0.1102, 0.8281 0.2756 0.3189, 0.7876 0.4666 0.1102, 0.8465 0.2756 0.4134, 0.8465 0.4921 0.4134, -0.371 -0.4666 0.1102, -0.371 0.4666 0.1102, 0.371 0.4666 0.1102, 0.371 -0.4666 0.1102
            ]
        }
        coordIndex [
            0,1,2,-1,2,1,3,-1,4,5,6,-1,7,8,9,-1,10,11,12,-1,9,10,7,-1,7,10,12,-1,7,12,13,-1,13,12,14,-1,13,14,15,-1,16,17,18,-1,18,17,19,-1,18,19,20,-1,21,22,23,-1,23,22,12,-1,20,24,18,-1,18,24,25,-1,18,25,26,-1,25,27,26,-1,26,27,28,-1,26,28,29,-1,29,28,30,-1,31,32,11,-1,11,32,33,-1,11,33,12,-1,12,33,34,-1,12,34,23,-1,35,36,37,-1,37,36,38,-1,37,38,39,-1,39,40,37,-1,37,40,41,-1,37,41,42,-1,43,44,14,-1,14,44,45,-1,46,47,48,-1,48,47,49,-1,48,49,50,-1,50,49,51,-1,50,51,52,-1,52,51,53,-1,52,53,42,-1,42,53,54,-1,42,54,37,-1,45,55,14,-1,14,55,56,-1,14,56,57,-1,57,58,14,-1,14,58,47,-1,14,47,15,-1,15,47,46,-1,15,46,23,-1,23,46,59,-1,23,59,21,-1,22,60,4,-1,4,60,61,-1,4,61,17,-1,28,43,30,-1,30,43,14,-1,30,14,62,-1,62,14,63,-1,62,63,16,-1,16,63,64,-1,16,64,17,-1,17,64,65,-1,17,65,4,-1,22,4,12,-1,12,4,6,-1,12,6,66,-1,67,68,69,-1,69,70,67,-1,67,70,12,-1,67,12,71,-1,71,12,66,-1,71,66,72,-1,72,66,73,-1,74,75,76,-1,75,77,76,-1,76,77,78,-1,76,78,67,-1,67,78,79,-1,67,79,68,-1,80,74,14,-1,14,74,76,-1,14,76,81,-1,81,76,82,-1,81,82,6,-1,6,82,83,-1,6,83,66,-1,70,84,12,-1,12,84,85,-1,12,85,14,-1,14,85,86,-1,14,86,80,-1,87,88,89,-1,89,88,90,-1,89,90,91,-1,91,90,92,-1,91,92,93,-1,93,92,94,-1,95,96,97,-1,97,96,98,-1,99,100,101,-1,101,100,102,-1,101,102,103,-1,103,102,104,-1,103,104,105,-1,105,104,106,-1,93,94,96,-1,93,96,87,-1,87,96,95,-1,87,95,88,-1,105,106,1,-1,105,1,99,-1,99,1,0,-1,99,0,100,-1,5,107,6,-1,6,107,108,-1,6,108,81,-1,108,107,90,-1,90,107,92,-1,104,102,109,-1,109,102,110,-1,63,109,64,-1,64,109,110,-1,64,110,65,-1,
        ]
    }
}
Shape{
    appearance Appearance {
        material  Material 	{
            diffuseColor 0.796078431372549 0.8235294117647058 0.9372549019607843
            specularColor 0.396078431372549 0.4117647058823529 0.4666666666666667
            ambientIntensity 0.8283
            transparency 0.0
            shininess 0.5
        }
    }
    geometry IndexedFaceSet {
        ccw TRUE
        solid FALSE
        coord DEF co Coordinate {
            point [
                -0.8504 0.2756 0.3189, -0.8281 0.2756 0.3189, -0.8504 -0.2756 0.3189, -0.8281 -0.2756 0.3189, -0.8655 0.2756 0.3159, -0.8655 -0.2756 0.3159, -0.8782 0.2756 0.3074, -0.8782 -0.2756 0.3074, -0.8868 0.2756 0.2946, -0.8868 -0.2756 0.2946, -0.8898 0.2756 0.2795, -0.8898 -0.2756 0.2795, -0.8898 0.2756 0.1339, -0.8898 -0.2756 0.1339, -0.8868 0.2756 0.1188, -0.8868 -0.2756 0.1188, -0.8782 0.2756 0.106, -0.8782 -0.2756 0.106, -0.8655 0.2756 0.0975, -0.8655 -0.2756 0.0975, -0.8504 0.2756 0.0945, -0.8504 -0.2756 0.0945, -0.4724 0.2756 0.0945, -0.4724 -0.2756 0.0945, -0.4724 0.2756 0.0, -0.4724 -0.2756 0.0, -0.8504 0.2756 0.0, -0.8504 -0.2756 0.0, -0.9016 -0.2756 0.0102, -0.9016 0.2756 0.0102, -0.945 -0.2756 0.0392, -0.945 0.2756 0.0392, -0.9741 -0.2756 0.0826, -0.9741 0.2756 0.0826, -0.9843 -0.2756 0.1339, -0.9843 0.2756 0.1339, -0.9843 0.2756 0.2795, -0.9843 -0.2756 0.2795, -0.9741 -0.2756 0.3308, -0.9741 0.2756 0.3308, -0.945 -0.2756 0.3742, -0.945 0.2756 0.3742, -0.9016 -0.2756 0.4032, -0.9016 0.2756 0.4032, -0.8504 -0.2756 0.4134, -0.8504 0.2756 0.4134, -0.8465 0.2756 0.4134, -0.8465 -0.2756 0.4134, 0.8504 0.2756 0.4134, 0.8504 -0.2756 0.4134, 0.9016 -0.2756 0.4032, 0.9016 0.2756 0.4032, 0.945 -0.2756 0.3742, 0.945 0.2756 0.3742, 0.9741 -0.2756 0.3308, 0.9741 0.2756 0.3308, 0.9843 -0.2756 0.2795, 0.9843 0.2756 0.2795, 0.9843 0.2756 0.1339, 0.9843 -0.2756 0.1339, 0.9741 -0.2756 0.0826, 0.9741 0.2756 0.0826, 0.945 -0.2756 0.0392, 0.945 0.2756 0.0392, 0.9016 -0.2756 0.0102, 0.9016 0.2756 0.0102, 0.8504 -0.2756 0.0, 0.8504 0.2756 0.0, 0.4724 0.2756 0.0, 0.4724 -0.2756 0.0, 0.4724 0.2756 0.0945, 0.4724 -0.2756 0.0945, 0.8504 0.2756 0.0945, 0.8504 -0.2756 0.0945, 0.8655 0.2756 0.0975, 0.8655 -0.2756 0.0975, 0.8782 0.2756 0.106, 0.8782 -0.2756 0.106, 0.8868 0.2756 0.1188, 0.8868 -0.2756 0.1188, 0.8898 0.2756 0.1339, 0.8898 -0.2756 0.1339, 0.8898 0.2756 0.2795, 0.8898 -0.2756 0.2795, 0.8868 0.2756 0.2946, 0.8868 -0.2756 0.2946, 0.8782 0.2756 0.3074, 0.8782 -0.2756 0.3074, 0.8655 0.2756 0.3159, 0.8655 -0.2756 0.3159, 0.8504 0.2756 0.3189, 0.8504 -0.2756 0.3189, 0.8281 0.2756 0.3189, 0.8281 -0.2756 0.3189, 0.8465 0.2756 0.4134, 0.8465 -0.2756 0.4134
            ]
        }
        coordIndex [
            0,1,2,-1,2,1,3,-1,0,2,4,-1,4,2,5,-1,4,5,6,-1,6,5,7,-1,6,7,8,-1,8,7,9,-1,8,9,10,-1,10,9,11,-1,12,10,13,-1,13,10,11,-1,12,13,14,-1,14,13,15,-1,14,15,16,-1,16,15,17,-1,16,17,18,-1,18,17,19,-1,18,19,20,-1,20,19,21,-1,22,20,23,-1,23,20,21,-1,24,22,25,-1,25,22,23,-1,26,24,27,-1,27,24,25,-1,26,27,28,-1,26,28,29,-1,29,28,30,-1,29,30,31,-1,31,30,32,-1,31,32,33,-1,33,32,34,-1,33,34,35,-1,36,35,37,-1,37,35,34,-1,36,37,38,-1,36,38,39,-1,39,38,40,-1,39,40,41,-1,41,40,42,-1,41,42,43,-1,43,42,44,-1,43,44,45,-1,46,45,47,-1,47,45,44,-1,22,24,20,-1,20,24,26,-1,20,26,18,-1,18,26,29,-1,18,29,16,-1,16,29,31,-1,16,31,14,-1,14,31,33,-1,14,33,12,-1,12,33,35,-1,12,35,10,-1,10,35,36,-1,10,36,8,-1,8,36,39,-1,8,39,6,-1,6,39,41,-1,6,41,4,-1,4,41,43,-1,4,43,0,-1,0,43,45,-1,0,45,1,-1,1,45,46,-1,3,47,2,-1,2,47,44,-1,2,44,5,-1,5,44,42,-1,5,42,7,-1,7,42,40,-1,7,40,9,-1,9,40,38,-1,9,38,11,-1,11,38,37,-1,11,37,13,-1,13,37,34,-1,13,34,15,-1,15,34,32,-1,15,32,17,-1,17,32,30,-1,17,30,19,-1,19,30,28,-1,19,28,21,-1,21,28,27,-1,21,27,23,-1,23,27,25,-1,48,49,50,-1,48,50,51,-1,51,50,52,-1,51,52,53,-1,53,52,54,-1,53,54,55,-1,55,54,56,-1,55,56,57,-1,58,57,59,-1,59,57,56,-1,58,59,60,-1,58,60,61,-1,61,60,62,-1,61,62,63,-1,63,62,64,-1,63,64,65,-1,65,64,66,-1,65,66,67,-1,68,67,69,-1,69,67,66,-1,70,68,71,-1,71,68,69,-1,72,70,73,-1,73,70,71,-1,72,73,74,-1,74,73,75,-1,74,75,76,-1,76,75,77,-1,76,77,78,-1,78,77,79,-1,78,79,80,-1,80,79,81,-1,82,80,83,-1,83,80,81,-1,82,83,84,-1,84,83,85,-1,84,85,86,-1,86,85,87,-1,86,87,88,-1,88,87,89,-1,88,89,90,-1,90,89,91,-1,92,90,93,-1,93,90,91,-1,48,94,49,-1,49,94,95,-1,92,94,90,-1,90,94,48,-1,90,48,88,-1,88,48,51,-1,88,51,86,-1,86,51,53,-1,86,53,84,-1,84,53,55,-1,84,55,82,-1,82,55,57,-1,82,57,80,-1,80,57,58,-1,80,58,78,-1,78,58,61,-1,78,61,76,-1,76,61,63,-1,76,63,74,-1,74,63,65,-1,74,65,72,-1,72,65,67,-1,72,67,70,-1,70,67,68,-1,71,69,73,-1,73,69,66,-1,73,66,75,-1,75,66,64,-1,75,64,77,-1,77,64,62,-1,77,62,79,-1,79,62,60,-1,79,60,81,-1,81,60,59,-1,81,59,83,-1,83,59,56,-1,83,56,85,-1,85,56,54,-1,85,54,87,-1,87,54,52,-1,87,52,89,-1,89,52,50,-1,89,50,91,-1,91,50,49,-1,91,49,93,-1,93,49,95,-1,
        ]
    }
}
Shape{
    appearance Appearance {
        material  Material 	{
            diffuseColor 0.7529411764705882 0.7529411764705882 0.7529411764705882
            specularColor 0.3764705882352941 0.3764705882352941 0.3764705882352941
            ambientIntensity 0.7529
            transparency 0.0
            shininess 0.5
        }
    }
    geometry IndexedFaceSet {
        ccw TRUE
        solid FALSE
        coord DEF co Coordinate {
            point [
                -0.1885 0.1065 0.0472, -0.1895 0.1065 0.0472, -0.1885 0.1065 0.0394, -0.1895 0.1065 0.0394, -0.2259 0.0277 0.0472, -0.2259 0.0277 0.0394, -0.2182 0.0277 0.0472, -0.2182 0.0277 0.0394, -0.2066 0.053 0.0472, -0.2066 0.053 0.0394, -0.1709 0.053 0.0472, -0.1709 0.053 0.0394, -0.1589 0.0277 0.0472, -0.1589 0.0277 0.0394, -0.1512 0.0277 0.0472, -0.1512 0.0277 0.0394, -0.2028 0.061 0.0472, -0.1747 0.061 0.0472, -0.189 0.0911 0.0472, -0.2028 0.061 0.0394, -0.189 0.0911 0.0394, -0.1747 0.061 0.0394, -0.1009 0.0277 0.0472, -0.0765 0.0277 0.0472, -0.1009 0.0277 0.0394, -0.0765 0.0277 0.0394, -0.0765 0.1065 0.0472, -0.0765 0.1065 0.0394, -0.0924 0.1065 0.0472, -0.0924 0.1065 0.0394, -0.1174 0.1036 0.0472, -0.1174 0.1036 0.0394, -0.105 0.106 0.0394, -0.105 0.106 0.0472, -0.1411 0.0661 0.0472, -0.1411 0.0661 0.0394, -0.1396 0.0785 0.0394, -0.1396 0.0785 0.0472, -0.1316 0.0941 0.0394, -0.1316 0.0941 0.0472, -0.1094 0.0282 0.0394, -0.1094 0.0282 0.0472, -0.1252 0.0332 0.0394, -0.1252 0.0332 0.0472, -0.1366 0.0463 0.0394, -0.1366 0.0463 0.0472, -0.1328 0.0563 0.0472, -0.1263 0.0448 0.0472, -0.1151 0.0378 0.0472, -0.1039 0.0361 0.0472, -0.0926 0.0358 0.0472, -0.0835 0.0358 0.0472, -0.0835 0.0984 0.0472, -0.0891 0.0984 0.0472, -0.1013 0.098 0.0472, -0.1133 0.0962 0.0472, -0.122 0.092 0.0472, -0.1306 0.0818 0.0472, -0.134 0.0661 0.0472, -0.0835 0.0984 0.0394, -0.0835 0.0358 0.0394, -0.0891 0.0984 0.0394, -0.1013 0.098 0.0394, -0.1133 0.0962 0.0394, -0.122 0.092 0.0394, -0.1306 0.0818 0.0394, -0.134 0.0661 0.0394, -0.1328 0.0563 0.0394, -0.1263 0.0448 0.0394, -0.1151 0.0378 0.0394, -0.1039 0.0361 0.0394, -0.0926 0.0358 0.0394, -0.0179 0.0277 0.0472, -0.0179 0.1065 0.0472, -0.0179 0.0277 0.0394, -0.0179 0.1065 0.0394, -0.0623 0.1065 0.0472, -0.0623 0.1065 0.0394, -0.0623 0.0984 0.0472, -0.0623 0.0984 0.0394, -0.025 0.0984 0.0472, -0.025 0.0984 0.0394, -0.025 0.0742 0.0472, -0.025 0.0742 0.0394, -0.0623 0.0742 0.0472, -0.0623 0.0742 0.0394, -0.0623 0.0661 0.0472, -0.0623 0.0661 0.0394, -0.025 0.0661 0.0472, -0.025 0.0661 0.0394, -0.025 0.0358 0.0472, -0.025 0.0358 0.0394, -0.0623 0.0358 0.0472, -0.0623 0.0358 0.0394, -0.0623 0.0277 0.0472, -0.0623 0.0277 0.0394, -0.0018 0.092 0.0472, -0.0018 0.092 0.0394, 0.0007 0.0951 0.0394, 0.0007 0.0951 0.0472, 0.0053 0.0995 0.0394, 0.0053 0.0995 0.0472, 0.0134 0.1044 0.0394, 0.0134 0.1044 0.0472, 0.0326 0.1085 0.0394, 0.0326 0.1085 0.0472, 0.0044 0.0873 0.0472, 0.0044 0.0873 0.0394, 0.033 0.1004 0.0472, 0.033 0.1004 0.0394, 0.0298 0.1003 0.0394, 0.0298 0.1003 0.0472, 0.0246 0.0996 0.0394, 0.0246 0.0996 0.0472, 0.0172 0.0972 0.0394, 0.0172 0.0972 0.0472, 0.0679 0.067 0.0472, 0.0679 0.067 0.0394, 0.0677 0.0702 0.0394, 0.0677 0.0702 0.0472, 0.0627 0.0851 0.0394, 0.0627 0.0851 0.0472, 0.0505 0.0961 0.0394, 0.0505 0.0961 0.0472, 0.0325 0.0338 0.0472, 0.0325 0.0338 0.0394, 0.0375 0.034 0.0394, 0.0375 0.034 0.0472, 0.0529 0.0394 0.0394, 0.0529 0.0394 0.0472, 0.0638 0.0508 0.0394, 0.0638 0.0508 0.0472, 0.0044 0.0469 0.0472, 0.0044 0.0469 0.0394, 0.017 0.0371 0.0394, 0.017 0.0371 0.0472, -0.0018 0.0422 0.0472, -0.0018 0.0422 0.0394, 0.0325 0.0257 0.0472, 0.0325 0.0257 0.0394, 0.0285 0.0259 0.0394, 0.0285 0.0259 0.0472, 0.0225 0.0267 0.0394, 0.0223 0.0268 0.0472, 0.0223 0.0268 0.0394, 0.0133 0.0298 0.0394, 0.0133 0.0298 0.0472, 0.065 0.0395 0.0472, 0.065 0.0395 0.0394, 0.0625 0.0368 0.0394, 0.0625 0.0368 0.0472, 0.058 0.0331 0.0394, 0.058 0.0331 0.0472, 0.0503 0.0289 0.0394, 0.0503 0.0289 0.0472, 0.0381 0.0267 0.0394, 0.0749 0.0676 0.0472, 0.0749 0.0676 0.0394, 0.0725 0.0526 0.0394, 0.0725 0.0526 0.0472, 0.0361 0.1084 0.0394, 0.0361 0.1084 0.0472, 0.0564 0.1019 0.0394, 0.0564 0.1019 0.0472, 0.0699 0.0877 0.0394, 0.0699 0.0877 0.0472, 0.1214 0.0277 0.0472, 0.1214 0.1065 0.0472, 0.1214 0.0277 0.0394, 0.1214 0.1065 0.0394, 0.1143 0.1065 0.0472, 0.1143 0.1065 0.0394, 0.1143 0.0358 0.0472, 0.1143 0.0358 0.0394, 0.084 0.0358 0.0472, 0.084 0.0358 0.0394, 0.084 0.0277 0.0472, 0.084 0.0277 0.0394
            ]
        }
        coordIndex [
            0,1,2,-1,2,1,3,-1,1,4,3,-1,3,4,5,-1,4,6,5,-1,5,6,7,-1,6,8,7,-1,7,8,9,-1,8,10,9,-1,9,10,11,-1,10,12,11,-1,11,12,13,-1,12,14,13,-1,13,14,15,-1,14,0,15,-1,15,0,2,-1,16,4,1,-1,0,17,1,-1,1,17,18,-1,1,18,16,-1,14,12,10,-1,6,4,8,-1,8,4,16,-1,8,16,10,-1,10,16,17,-1,10,17,14,-1,14,17,0,-1,16,18,19,-1,19,18,20,-1,17,16,21,-1,21,16,19,-1,18,17,20,-1,20,17,21,-1,22,23,24,-1,24,23,25,-1,23,26,25,-1,25,26,27,-1,26,28,27,-1,27,28,29,-1,30,31,32,-1,30,32,33,-1,33,32,29,-1,33,29,28,-1,34,35,36,-1,34,36,37,-1,37,36,38,-1,37,38,39,-1,39,38,31,-1,39,31,30,-1,22,24,40,-1,22,40,41,-1,41,40,42,-1,41,42,43,-1,43,42,44,-1,43,44,45,-1,45,44,35,-1,45,35,34,-1,46,47,43,-1,43,47,48,-1,43,48,41,-1,41,48,49,-1,41,49,22,-1,22,49,50,-1,22,50,23,-1,23,50,51,-1,23,51,26,-1,26,51,52,-1,26,52,28,-1,28,52,53,-1,28,53,33,-1,33,53,54,-1,33,54,30,-1,30,54,55,-1,30,55,39,-1,39,55,56,-1,39,56,37,-1,37,56,57,-1,37,57,34,-1,34,57,58,-1,34,58,45,-1,45,58,46,-1,45,46,43,-1,52,51,59,-1,59,51,60,-1,53,52,61,-1,61,52,59,-1,53,61,62,-1,53,62,54,-1,54,62,63,-1,54,63,55,-1,55,63,64,-1,55,64,56,-1,56,64,65,-1,56,65,57,-1,57,65,66,-1,57,66,58,-1,58,66,67,-1,58,67,46,-1,46,67,68,-1,46,68,47,-1,47,68,69,-1,47,69,48,-1,48,69,70,-1,48,70,49,-1,49,70,71,-1,49,71,50,-1,51,50,60,-1,60,50,71,-1,72,73,74,-1,74,73,75,-1,73,76,75,-1,75,76,77,-1,76,78,77,-1,77,78,79,-1,78,80,79,-1,79,80,81,-1,80,82,81,-1,81,82,83,-1,82,84,83,-1,83,84,85,-1,84,86,85,-1,85,86,87,-1,86,88,87,-1,87,88,89,-1,88,90,89,-1,89,90,91,-1,90,92,91,-1,91,92,93,-1,92,94,93,-1,93,94,95,-1,94,72,95,-1,95,72,74,-1,72,94,92,-1,92,90,72,-1,72,90,88,-1,72,88,73,-1,78,76,80,-1,80,76,73,-1,80,73,82,-1,82,73,88,-1,82,88,84,-1,84,88,86,-1,96,97,98,-1,96,98,99,-1,99,98,100,-1,99,100,101,-1,101,100,102,-1,101,102,103,-1,103,102,104,-1,103,104,105,-1,96,106,97,-1,97,106,107,-1,108,109,110,-1,108,110,111,-1,111,110,112,-1,111,112,113,-1,113,112,114,-1,113,114,115,-1,115,114,107,-1,115,107,106,-1,116,117,118,-1,116,118,119,-1,119,118,120,-1,119,120,121,-1,121,120,122,-1,121,122,123,-1,123,122,109,-1,123,109,108,-1,124,125,126,-1,124,126,127,-1,127,126,128,-1,127,128,129,-1,129,128,130,-1,129,130,131,-1,131,130,117,-1,131,117,116,-1,132,133,134,-1,132,134,135,-1,135,134,125,-1,135,125,124,-1,132,136,133,-1,133,136,137,-1,138,139,140,-1,138,140,141,-1,141,140,142,-1,141,142,143,-1,142,144,143,-1,143,144,145,-1,143,145,146,-1,146,145,137,-1,146,137,136,-1,147,148,149,-1,147,149,150,-1,150,149,151,-1,150,151,152,-1,152,151,153,-1,152,153,154,-1,154,153,138,-1,138,153,155,-1,138,155,139,-1,156,157,158,-1,156,158,159,-1,159,158,148,-1,159,148,147,-1,105,104,160,-1,105,160,161,-1,161,160,162,-1,161,162,163,-1,163,162,164,-1,163,164,165,-1,165,164,157,-1,165,157,156,-1,136,132,146,-1,146,132,135,-1,156,159,131,-1,131,159,129,-1,129,159,147,-1,129,147,150,-1,106,96,99,-1,106,99,115,-1,115,99,101,-1,115,101,103,-1,150,152,129,-1,129,152,154,-1,129,154,127,-1,127,154,138,-1,127,138,124,-1,124,138,141,-1,124,141,135,-1,135,141,143,-1,135,143,146,-1,131,116,156,-1,156,116,119,-1,156,119,165,-1,165,119,121,-1,165,121,163,-1,163,121,123,-1,163,123,161,-1,161,123,108,-1,161,108,105,-1,105,108,111,-1,105,111,103,-1,103,111,113,-1,103,113,115,-1,166,167,168,-1,168,167,169,-1,167,170,169,-1,169,170,171,-1,170,172,171,-1,171,172,173,-1,172,174,173,-1,173,174,175,-1,174,176,175,-1,175,176,177,-1,176,166,177,-1,177,166,168,-1,170,167,172,-1,172,167,166,-1,172,166,174,-1,174,166,176,-1,
        ]
    }
}
Shape{
    appearance Appearance {
        material  Material 	{
            diffuseColor 0.19607843137254902 0.19607843137254902 0.19607843137254902
            specularColor 0.09803921568627451 0.09803921568627451 0.09803921568627451
            ambientIntensity 0.1961
            transparency 0.0
            shininess 0.5
        }
    }
    geometry IndexedFaceSet {
        ccw TRUE
        solid FALSE
        coord DEF co Coordinate {
            point [
                -0.189 0.0911 0.0394, -0.1747 0.061 0.0394, -0.2028 0.061 0.0394, -0.0835 0.0984 0.0394, -0.0835 0.0358 0.0394, -0.0891 0.0984 0.0394, -0.0926 0.0358 0.0394, -0.1013 0.098 0.0394, -0.1039 0.0361 0.0394, -0.1133 0.0962 0.0394, -0.1151 0.0378 0.0394, -0.1263 0.0448 0.0394, -0.1328 0.0563 0.0394, -0.134 0.0661 0.0394, -0.1306 0.0818 0.0394, -0.122 0.092 0.0394, 0.371 -0.4666 0.1102, 0.7876 -0.4666 0.1102, 0.8465 -0.4921 0.4134, -0.8465 -0.4921 0.4134, -0.371 -0.4666 0.1102, -0.7876 -0.4666 0.1102, -0.371 -0.4606 0.0394, -0.0694 -0.4606 0.0394, 0.371 -0.4606 0.0394, 0.8465 0.4921 0.4134, -0.8465 0.4921 0.4134, -0.7738 0.4433 0.7874, 0.4602 0.4433 0.7874, 0.758 0.4433 0.7874, 0.7738 0.4433 0.7874, 0.371 0.4666 0.1102, 0.7876 0.4666 0.1102, -0.0694 0.4606 0.0394, -0.371 0.4606 0.0394, -0.371 0.4666 0.1102, -0.7876 0.4666 0.1102, 0.371 0.4606 0.0394, -0.7738 -0.4433 0.7874, 0.4602 -0.4433 0.7874, 0.758 -0.4433 0.7874, 0.7738 -0.4433 0.7874
            ]
        }
        coordIndex [
            0,1,2,-1,3,4,5,-1,5,4,6,-1,5,6,7,-1,7,6,8,-1,7,8,9,-1,10,11,8,-1,8,11,12,-1,8,12,13,-1,13,14,8,-1,8,14,15,-1,8,15,9,-1,16,17,18,-1,18,19,20,-1,20,19,21,-1,20,22,23,-1,18,20,16,-1,16,20,23,-1,16,23,24,-1,25,26,27,-1,27,28,25,-1,25,28,29,-1,25,29,30,-1,26,25,31,-1,31,25,32,-1,33,34,35,-1,36,26,35,-1,35,26,31,-1,35,31,33,-1,33,31,37,-1,38,19,39,-1,39,19,18,-1,39,18,40,-1,40,18,41,-1,
        ]
    }
}
Shape{
    appearance Appearance {
        material  Material 	{
            diffuseColor 0.7529411764705882 0.7529411764705882 0.7529411764705882
            specularColor 0.3764705882352941 0.3764705882352941 0.3764705882352941
            ambientIntensity 0.7529
            transparency 0.0
            shininess 0.5
        }
    }
    geometry IndexedFaceSet {
        ccw TRUE
        solid FALSE
        coord DEF co Coordinate {
            point [
                0.758 0.4433 0.7913, 0.758 -0.4433 0.7913, 0.758 0.4433 0.7874, 0.758 -0.4433 0.7874, 0.4602 0.4433 0.7913, 0.4602 0.4433 0.7874, 0.4602 -0.4433 0.7913, 0.4602 -0.4433 0.7874
            ]
        }
        coordIndex [
            0,1,2,-1,2,1,3,-1,4,0,5,-1,5,0,2,-1,6,4,7,-1,7,4,5,-1,1,6,3,-1,3,6,7,-1,4,6,0,-1,0,6,1,-1,
        ]
    }
}